<svg width="197" height="71" viewBox="0 0 197 71" fill="none" xmlns="http://www.w3.org/2000/svg">
<path d="M3 68C3 68 57.8085 39.1344 164 49.088" stroke="#76D1AD" stroke-width="5" stroke-linecap="round"/>
<path d="M4.99512 29.9121C4.93066 30.6426 4.89844 31.6846 4.89844 33.0381C4.89844 34.3701 5.10254 35.9922 5.51074 37.9043L2.96484 39.1934L1.80469 30.4277C1.05273 30.3203 0.676758 30.0625 0.676758 29.6543C0.676758 29.3535 0.848633 28.999 1.19238 28.5908C1.55762 28.1826 1.82617 27.8496 1.99805 27.5918C2.16992 27.3125 2.2666 27.0117 2.28809 26.6895C2.33105 26.3457 2.38477 25.7441 2.44922 24.8848C2.51367 24.0254 2.56738 23.1123 2.61035 22.1455C2.6748 21.1787 2.72852 20.2656 2.77148 19.4062C2.83594 18.5469 2.86816 17.9453 2.86816 17.6016C3.34082 17.1289 3.68457 16.8389 3.89941 16.7314C4.43652 16.4521 4.80176 16.5596 4.99512 17.0537L4.80176 27.2051C10.1084 27.2051 13.2988 26.8613 14.373 26.1738V15.9902C14.502 15.625 15.1035 15.4424 16.1777 15.4424C16.4141 15.4424 16.6074 15.4531 16.7578 15.4746C16.7578 15.8828 16.7686 16.5059 16.79 17.3438C16.833 18.1602 16.8652 19.0947 16.8867 20.1475C16.9297 21.2002 16.9727 22.3174 17.0156 23.499C17.0586 24.6592 17.1016 25.7656 17.1445 26.8184C17.209 29.0098 17.2627 30.6211 17.3057 31.6523C17.4561 34.2305 17.9824 36.3145 18.8848 37.9043C17.918 38.291 16.8545 38.4844 15.6943 38.4844C14.7061 36.0352 14.1797 32.8232 14.1152 28.8486C12.6973 28.8057 11.7305 28.7842 11.2148 28.7842C10.6992 28.7842 10.1191 28.8164 9.47461 28.8809C8.14258 28.9668 6.64941 29.3105 4.99512 29.9121ZM27.4248 36.7441C29.3154 36.7441 32.1621 35.8848 35.9648 34.166C36.2012 34.166 36.3945 34.252 36.5449 34.4238C36.6953 34.5742 36.7705 34.7568 36.7705 34.9717C35.9111 36.4326 34.2676 37.5713 31.8398 38.3877C29.4121 39.2041 27.1455 39.3438 25.04 38.8066C22.6553 38.1836 21.2051 36.8408 20.6895 34.7783C20.6465 34.3701 20.625 33.8223 20.625 33.1348C20.625 32.4473 20.7969 31.5449 21.1406 30.4277C21.5059 29.2891 22.1182 28.2148 22.9775 27.2051C23.8369 26.1953 24.8467 25.4004 26.0068 24.8203C27.167 24.2402 28.4023 23.9502 29.7129 23.9502C30.959 23.9502 32.3555 24.3799 33.9023 25.2393C34.6328 25.6475 35.2129 26.1094 35.6426 26.625C36.0723 27.1406 36.2871 27.667 36.2871 28.2041C36.2871 28.3545 36.2764 28.5049 36.2549 28.6553C36.2119 29.9658 35.5781 30.793 34.3535 31.1367C33.8164 31.2871 33.1934 31.3623 32.4844 31.3623L27.8438 31.1689C26.2969 31.1689 25.1152 31.502 24.2988 32.168C23.8262 32.5332 23.4932 33.0811 23.2998 33.8115C23.8369 35.7666 25.2119 36.7441 27.4248 36.7441ZM33.1611 26.7861C32.6885 26.4424 32.1943 26.1953 31.6787 26.0449C31.1631 25.8945 30.7334 25.8193 30.3896 25.8193C30.0459 25.8193 29.4873 25.9375 28.7139 26.1738C27.9404 26.3887 27.2529 26.6357 26.6514 26.915C25.1689 27.6025 24.4277 28.3223 24.4277 29.0742C26.1465 29.2246 27.4355 29.2998 28.2949 29.2998C30.6797 29.2998 32.291 29.0957 33.1289 28.6875C33.6445 28.4727 33.9023 28.2041 33.9023 27.8818C33.9023 27.4951 33.6553 27.1299 33.1611 26.7861ZM51.3691 33.6504C49.7578 36.1855 47.6094 37.7539 44.9238 38.3555C44.3008 38.4844 43.7314 38.5488 43.2158 38.5488C42.7217 38.5488 42.3027 38.5488 41.959 38.5488C41.6367 38.5273 41.2715 38.4736 40.8633 38.3877C40.4551 38.3018 40.0791 38.1621 39.7354 37.9688C38.9404 37.5176 38.543 36.8838 38.543 36.0674C38.457 35.6807 38.4141 35.251 38.4141 34.7783C38.4141 34.2842 38.5215 33.6396 38.7363 32.8447C38.9512 32.0498 39.3379 31.1904 39.8965 30.2666C40.4766 29.3428 41.1748 28.4941 41.9912 27.7207C43.6885 26.0879 45.5254 25.0352 47.502 24.5625C48.082 24.4336 48.6084 24.3691 49.0811 24.3691C49.5752 24.3691 50.0156 24.4014 50.4023 24.4658C51.6484 24.4658 52.4863 25.3145 52.916 27.0117C53.1953 28.0859 53.3564 29.5898 53.3994 31.5234C53.4639 33.4355 53.5176 34.918 53.5605 35.9707C53.625 37.002 53.7646 37.9473 53.9795 38.8066H52.0781C51.9922 38.2266 51.9277 37.7109 51.8848 37.2598C51.8418 36.8086 51.7988 36.3896 51.7559 36.0029C51.6484 35.1006 51.5195 34.3164 51.3691 33.6504ZM51.2402 28.6553C51.2402 27.4092 50.6279 26.7861 49.4033 26.7861C49.2529 26.7646 49.1025 26.7539 48.9521 26.7539C47.3838 26.7539 45.7295 27.5059 43.9893 29.0098C43.1729 29.6973 42.4746 30.4707 41.8945 31.3301C41.0352 32.5547 40.6055 33.6504 40.6055 34.6172C40.6055 35.8848 41.3359 36.6367 42.7969 36.873C44.7305 36.8301 46.5781 35.9492 48.3398 34.2305C49.0918 33.4785 49.7148 32.6621 50.209 31.7812C50.8965 30.5996 51.2402 29.5576 51.2402 28.6553ZM71.3174 27.2373C70.415 26.5928 69.2549 26.2705 67.8369 26.2705C66.5049 26.2705 65.2695 26.5176 64.1309 27.0117C61.9824 27.9141 60.5107 29.0742 59.7158 30.4922C59.3721 31.1367 59.2002 31.8242 59.2002 32.5547C59.2002 32.6836 59.2002 33.0488 59.2002 33.6504C59.2002 34.2305 59.3076 35.0254 59.5225 36.0352C59.7373 37.0234 59.8447 38.0332 59.8447 39.0645C59.3936 39.0859 59.0283 39.1396 58.749 39.2256C58.4697 39.3115 58.2334 39.3545 58.04 39.3545C57.8467 39.3545 57.6748 39.2686 57.5244 39.0967C57.3955 38.9248 57.2451 38.5918 57.0732 38.0977C57.0518 37.9688 57.0088 37.6035 56.9443 37.002C56.8799 36.4004 56.7939 35.6699 56.6865 34.8105C56.6006 33.9512 56.4932 33.0166 56.3643 32.0068C56.2568 30.9756 56.1494 29.9658 56.042 28.9775C55.8057 26.8291 55.623 25.25 55.4941 24.2402C55.4941 23.7246 55.8701 23.4668 56.6221 23.4668C57.0732 23.4668 57.4277 23.6602 57.6855 24.0469C57.9434 24.4121 58.1475 24.8418 58.2979 25.3359C58.4482 25.8086 58.5449 26.2812 58.5879 26.7539C58.6523 27.2266 58.7061 27.5596 58.749 27.7529C61.585 25.2178 65.1084 23.9502 69.3193 23.9502C69.792 23.9502 70.2861 23.9609 70.8018 23.9824C70.9307 23.9609 71.0918 23.9502 71.2852 23.9502C71.4785 23.9502 71.6719 24.0791 71.8652 24.3369C72.1016 24.6377 72.2197 25.0029 72.2197 25.4326C72.2197 26.5068 71.9189 27.1084 71.3174 27.2373ZM78.5684 35.9062L78.6328 30.75C78.6328 29.9336 78.5576 29.2354 78.4072 28.6553H73.4121L73.3477 26.4316H78.1816V18.1172C78.2461 17.9238 78.375 17.7305 78.5684 17.5371C78.8691 17.2363 79.1162 17.0859 79.3096 17.0859C79.5244 17.0859 79.707 17.1074 79.8574 17.1504C80.0078 17.1934 80.1689 17.3438 80.3408 17.6016C80.6846 19.0195 80.8564 21.1572 80.8564 24.0146C80.8564 24.7236 80.8887 25.4219 80.9531 26.1094C81.6406 26.0234 82.3281 25.9805 83.0156 25.9805C83.0156 25.9805 83.5742 25.9805 84.6914 25.9805C85.0996 25.9805 85.4756 25.959 85.8193 25.916L85.7227 28.2363L81.0176 28.1074L81.1787 39.2256C80.792 39.3975 80.459 39.4834 80.1797 39.4834C79.1055 39.4834 78.5684 38.291 78.5684 35.9062ZM93.6182 36.7441C95.5088 36.7441 98.3555 35.8848 102.158 34.166C102.395 34.166 102.588 34.252 102.738 34.4238C102.889 34.5742 102.964 34.7568 102.964 34.9717C102.104 36.4326 100.461 37.5713 98.0332 38.3877C95.6055 39.2041 93.3389 39.3438 91.2334 38.8066C88.8486 38.1836 87.3984 36.8408 86.8828 34.7783C86.8398 34.3701 86.8184 33.8223 86.8184 33.1348C86.8184 32.4473 86.9902 31.5449 87.334 30.4277C87.6992 29.2891 88.3115 28.2148 89.1709 27.2051C90.0303 26.1953 91.04 25.4004 92.2002 24.8203C93.3604 24.2402 94.5957 23.9502 95.9062 23.9502C97.1523 23.9502 98.5488 24.3799 100.096 25.2393C100.826 25.6475 101.406 26.1094 101.836 26.625C102.266 27.1406 102.48 27.667 102.48 28.2041C102.48 28.3545 102.47 28.5049 102.448 28.6553C102.405 29.9658 101.771 30.793 100.547 31.1367C100.01 31.2871 99.3867 31.3623 98.6777 31.3623L94.0371 31.1689C92.4902 31.1689 91.3086 31.502 90.4922 32.168C90.0195 32.5332 89.6865 33.0811 89.4932 33.8115C90.0303 35.7666 91.4053 36.7441 93.6182 36.7441ZM99.3545 26.7861C98.8818 26.4424 98.3877 26.1953 97.8721 26.0449C97.3564 25.8945 96.9268 25.8193 96.583 25.8193C96.2393 25.8193 95.6807 25.9375 94.9072 26.1738C94.1338 26.3887 93.4463 26.6357 92.8447 26.915C91.3623 27.6025 90.6211 28.3223 90.6211 29.0742C92.3398 29.2246 93.6289 29.2998 94.4883 29.2998C96.873 29.2998 98.4844 29.0957 99.3223 28.6875C99.8379 28.4727 100.096 28.2041 100.096 27.8818C100.096 27.4951 99.8486 27.1299 99.3545 26.7861ZM120.141 13.1221C120.141 15.1846 120.076 17.2041 119.947 19.1807C119.84 21.1357 119.732 23.0586 119.625 24.9492C119.539 26.8184 119.496 28.8164 119.496 30.9434C119.496 33.0488 119.646 35.2832 119.947 37.6465C119.947 38.1406 119.851 38.4951 119.657 38.71C119.485 38.9248 119.185 39.0322 118.755 39.0322C117.745 39.0322 117.24 38.1943 117.24 36.5186V35.4551C114.189 37.7324 111.611 38.8711 109.506 38.8711C108.668 38.8711 107.809 38.667 106.928 38.2588C106.068 37.8506 105.252 37.0234 104.479 35.7773C104.371 35.2617 104.317 34.7354 104.317 34.1982C104.317 33.6611 104.414 33.0166 104.607 32.2646C104.822 31.4912 105.241 30.6963 105.864 29.8799C106.509 29.0635 107.282 28.3438 108.185 27.7207C110.161 26.3887 112.299 25.7227 114.598 25.7227C115.586 25.7227 116.531 25.873 117.434 26.1738C117.434 25.7871 117.455 25.1104 117.498 24.1436C117.562 23.1768 117.627 22.1562 117.691 21.082C117.82 18.2891 117.906 16.6455 117.949 16.1514C117.992 15.6357 118.046 15.2061 118.11 14.8623C118.196 14.4971 118.314 14.1855 118.465 13.9277C118.787 13.3906 119.346 13.1221 120.141 13.1221ZM106.67 33.9404C106.67 35.6377 107.282 36.4863 108.507 36.4863C108.7 36.4863 108.915 36.4648 109.151 36.4219C110.032 36.4219 111.117 36.1641 112.406 35.6484C114.855 34.6816 116.349 33.8438 116.886 33.1348V28.8486C116.886 28.0967 116.273 27.7207 115.049 27.7207C114.898 27.6992 114.694 27.6885 114.437 27.6885C114.2 27.6885 113.824 27.7422 113.309 27.8496C112.793 27.957 112.213 28.1504 111.568 28.4297C110.924 28.709 110.29 29.0527 109.667 29.4609C108.356 30.3418 107.454 31.373 106.96 32.5547C106.767 33.0059 106.67 33.4678 106.67 33.9404ZM138.123 33.6182L138.252 35.9707C138.252 36.0996 138.241 36.3359 138.22 36.6797C138.22 37.0234 138.091 37.335 137.833 37.6143C137.597 37.8721 137.296 38.001 136.931 38.001C136.587 38.001 136.318 37.9902 136.125 37.9688C135.416 37.9688 135.062 37.6572 135.062 37.0342C135.062 36.5186 135.298 34.4453 135.771 30.8145C136.243 27.1621 136.544 24.8096 136.673 23.7568C136.802 22.7041 136.909 21.8232 136.995 21.1143C137.103 20.3838 137.178 19.8467 137.221 19.5029C137.264 19.1592 137.328 18.8154 137.414 18.4717C137.5 18.1279 137.629 17.8486 137.801 17.6338C138.123 17.2256 138.746 17.0215 139.67 17.0215C141.217 17.7949 142.807 19.9863 144.439 23.5957C145.6 26.1738 146.373 27.8066 146.76 28.4941C147.146 29.1816 147.522 29.6543 147.888 29.9121L154.333 18.6973C154.784 18.375 155.128 18.2139 155.364 18.2139C156.052 18.2139 156.578 18.5254 156.943 19.1484C157.309 19.7715 157.609 20.5342 157.846 21.4365C158.104 22.3174 158.318 23.2949 158.49 24.3691C158.684 25.4434 158.845 26.5713 158.974 27.7529C159.124 28.9131 159.264 30.0518 159.393 31.1689C159.693 33.8545 159.919 35.541 160.069 36.2285C160.241 36.916 160.327 37.4102 160.327 37.7109C160.327 37.9902 160.23 38.2695 160.037 38.5488C159.844 38.8066 159.575 38.9355 159.231 38.9355C158.888 38.9355 158.544 38.8066 158.2 38.5488C157.856 38.2695 157.642 37.9365 157.556 37.5498C157.491 37.1416 157.416 36.6152 157.33 35.9707C157.266 35.3262 157.18 34.6064 157.072 33.8115C156.965 32.9951 156.857 32.1465 156.75 31.2656C156.643 30.3633 156.535 29.5039 156.428 28.6875C156.32 27.8711 156.224 27.1514 156.138 26.5283C156.052 25.8838 155.987 25.4004 155.944 25.0781C155.944 24.6484 155.934 24.251 155.912 23.8857C155.891 23.5205 155.805 23.2949 155.654 23.209C155.504 23.123 155.268 23.2305 154.945 23.5312C154.645 23.8105 154.215 24.3906 153.656 25.2715C152.453 27.1406 150.713 30.2881 148.436 34.7139C148.135 35.251 147.737 35.3691 147.243 35.0684C146.663 34.7461 146.169 33.9189 145.761 32.5869L139.831 19.9863C139.315 21.0176 138.843 24.4336 138.413 30.2344C138.349 30.9434 138.306 31.5449 138.284 32.0391C138.177 32.5762 138.123 33.1025 138.123 33.6182ZM174.99 33.6504C173.379 36.1855 171.23 37.7539 168.545 38.3555C167.922 38.4844 167.353 38.5488 166.837 38.5488C166.343 38.5488 165.924 38.5488 165.58 38.5488C165.258 38.5273 164.893 38.4736 164.484 38.3877C164.076 38.3018 163.7 38.1621 163.356 37.9688C162.562 37.5176 162.164 36.8838 162.164 36.0674C162.078 35.6807 162.035 35.251 162.035 34.7783C162.035 34.2842 162.143 33.6396 162.357 32.8447C162.572 32.0498 162.959 31.1904 163.518 30.2666C164.098 29.3428 164.796 28.4941 165.612 27.7207C167.31 26.0879 169.146 25.0352 171.123 24.5625C171.703 24.4336 172.229 24.3691 172.702 24.3691C173.196 24.3691 173.637 24.4014 174.023 24.4658C175.27 24.4658 176.107 25.3145 176.537 27.0117C176.816 28.0859 176.978 29.5898 177.021 31.5234C177.085 33.4355 177.139 34.918 177.182 35.9707C177.246 37.002 177.386 37.9473 177.601 38.8066H175.699C175.613 38.2266 175.549 37.7109 175.506 37.2598C175.463 36.8086 175.42 36.3896 175.377 36.0029C175.27 35.1006 175.141 34.3164 174.99 33.6504ZM174.861 28.6553C174.861 27.4092 174.249 26.7861 173.024 26.7861C172.874 26.7646 172.724 26.7539 172.573 26.7539C171.005 26.7539 169.351 27.5059 167.61 29.0098C166.794 29.6973 166.096 30.4707 165.516 31.3301C164.656 32.5547 164.227 33.6504 164.227 34.6172C164.227 35.8848 164.957 36.6367 166.418 36.873C168.352 36.8301 170.199 35.9492 171.961 34.2305C172.713 33.4785 173.336 32.6621 173.83 31.7812C174.518 30.5996 174.861 29.5576 174.861 28.6553ZM182.209 26.0771C185.131 25.0674 187.655 24.5625 189.782 24.5625C192.489 24.5625 194.294 25.2715 195.196 26.6895C195.604 27.3555 195.809 28.0752 195.809 28.8486C195.809 29.9229 195.465 31.0293 194.777 32.168C194.111 33.3066 193.22 34.3379 192.103 35.2617C189.503 37.3887 186.345 38.71 182.628 39.2256C182.628 39.4619 182.628 39.8379 182.628 40.3535C182.649 40.8906 182.66 41.4814 182.66 42.126C182.682 42.7705 182.692 43.458 182.692 44.1885C182.714 44.9189 182.735 45.6172 182.757 46.2832C182.821 47.9375 182.864 48.8828 182.886 49.1191C182.929 49.3555 182.95 49.5488 182.95 49.6992C182.95 50.2363 182.778 50.6338 182.435 50.8916C182.091 51.1709 181.64 51.3105 181.081 51.3105C180.974 51.3105 180.866 51.3105 180.759 51.3105L180.243 25.4004C180.437 25.1211 180.694 24.9922 181.017 25.0137C181.339 25.0352 181.597 25.1211 181.79 25.2715C181.983 25.4219 182.123 25.6904 182.209 26.0771ZM191.619 27.2051C190.91 26.8398 190.147 26.6572 189.331 26.6572C188.536 26.6572 187.741 26.7324 186.946 26.8828C185.142 27.2266 183.81 27.9893 182.95 29.1709C182.563 29.7295 182.37 30.417 182.37 31.2334C182.37 31.3193 182.37 31.4053 182.37 31.4912V37.0664C186.796 36.0781 189.933 34.7031 191.78 32.9414C192.854 31.9316 193.392 30.8896 193.392 29.8154C193.392 28.6768 192.801 27.8066 191.619 27.2051Z" fill="white"/>
<path d="M90.1405 5.06476C89.5965 3.85489 88.6797 2.85079 87.5241 2.1993C86.3686 1.5478 85.035 1.28308 83.7182 1.44385C82.4014 1.60461 81.1706 2.18242 80.2057 3.09279C79.2409 4.00317 78.5926 5.19835 78.3557 6.50357C77.7678 5.81331 77.0361 5.25992 76.2118 4.88218C75.3876 4.50444 74.4907 4.31148 73.584 4.31681C72.6773 4.32214 71.7828 4.52562 70.9631 4.91303C70.1433 5.30043 69.4181 5.86239 68.8384 6.55951C68.2587 7.25664 67.8383 8.07207 67.6069 8.94872C67.3755 9.82537 67.3385 10.742 67.4985 11.6345C67.6586 12.5269 68.0119 13.3736 68.5335 14.1151C69.0552 14.8567 69.7327 15.4753 70.5186 15.9274L81.3831 22.1978C81.5665 22.3037 81.769 22.3724 81.9789 22.4C82.1889 22.4276 82.4022 22.4136 82.6067 22.3588C82.8112 22.304 83.003 22.2094 83.1709 22.0804C83.3389 21.9515 83.4798 21.7907 83.5856 21.6073L89.856 10.7428C90.3508 9.88689 90.6346 8.9255 90.6841 7.93814C90.7336 6.95078 90.5472 5.96582 90.1405 5.06476V5.06476Z" fill="#FF5A89"/>
</svg>
