<svg width="93" height="97" viewBox="0 0 93 97" fill="none" xmlns="http://www.w3.org/2000/svg">
<path d="M71.5767 4.88895C70.8398 4.49293 70.0764 4.15965 69.3207 3.79892C68.5686 3.43427 67.8695 2.94807 67.1024 2.61479C66.3353 2.2815 65.5304 2.05801 64.7519 1.76002C64.185 1.54436 63.5048 1.32871 62.7982 1.13658C62.1293 0.956217 61.4491 0.717037 60.7878 0.740563C60.0849 0.764089 59.3971 0.964057 58.8529 1.41889C58.1501 2.00704 57.9422 3.01473 57.912 3.95576C57.8855 4.89287 58.014 5.81822 58.2408 6.72397C58.4977 7.7395 58.8567 8.7315 59.1137 9.74704" fill="#FADDD9"/>
<path d="M71.8339 4.43807C71.1196 4.05773 70.379 3.73229 69.6496 3.3794C68.9619 3.04612 68.3194 2.61873 67.6279 2.28545C66.9326 1.94825 66.1994 1.71691 65.4777 1.46597C64.7559 1.21503 64.0454 0.944478 63.3123 0.732746C61.8385 0.30928 60.3005 -0.133787 58.8909 0.756273C57.7081 1.50518 57.402 2.93241 57.4134 4.2773C57.4285 6.23387 58.1578 8.01791 58.6378 9.87645C58.804 10.5273 59.779 10.2489 59.609 9.59806C59.2273 8.1277 58.6415 6.70047 58.4753 5.17913C58.3543 4.07342 58.2901 2.4619 59.284 1.73652C60.4932 0.850377 61.9897 1.42676 63.2708 1.80317C63.9056 1.99138 64.5178 2.22664 65.1414 2.44621C65.8064 2.67755 66.4867 2.87752 67.1253 3.18728C67.7904 3.50879 68.4101 3.9205 69.0752 4.24594C69.8235 4.61451 70.5906 4.94387 71.3275 5.33597C71.9057 5.6418 72.4158 4.73998 71.8376 4.43414L71.8339 4.43807Z" fill="#222222"/>
<path d="M76.8639 20.5376C76.7014 19.6436 76.5314 18.7418 76.3311 17.8478C76.1346 16.9578 75.9003 16.0756 75.6811 15.1894C75.4657 14.3033 75.0916 13.4603 74.8686 12.578C74.6419 11.6958 74.4907 10.7901 74.2716 9.90787C74.0486 9.02173 73.8332 8.13559 73.6254 7.24945C73.4666 6.57112 73.289 5.84966 72.794 5.37522C72.4501 5.04586 72.0004 4.87334 71.5545 4.72434C70.7382 4.45379 69.8766 4.29695 69.0226 4.10875C68.1686 3.92054 67.3221 3.64607 66.4643 3.59118C65.7576 3.54805 65.032 3.52844 64.314 3.44218C63.5923 3.352 62.8743 3.24613 62.1676 3.27358C61.1851 3.31279 60.1118 3.70881 59.5752 4.56358C58.9857 5.50462 58.7854 6.62601 58.6683 7.72388C58.5209 9.08446 57.716 8.9982 56.8204 9.90787C56.0306 10.7117 55.5506 11.888 55.6073 13.0368C55.664 14.1817 56.2195 15.2992 56.9791 16.1344C57.7727 17.0009 58.8005 17.6047 59.5563 18.5066C60.2328 19.3143 60.6333 20.3416 61.3475 21.114C62.0315 21.8551 62.587 21.6551 63.4789 21.8002C64.2271 21.9178 65.2248 22.0237 66.109 22.3334C67.0084 22.651 67.7907 23.2196 68.1648 24.0312C68.4369 24.6233 68.5087 25.5094 69.1095 25.7251C69.4534 25.8505 69.8615 25.631 70.1941 25.4859C70.1639 25.3447 71.2371 24.8938 72.5068 24.2429C73.2664 23.8548 74.0864 23.3764 74.8233 22.9451C75.889 22.3256 76.6561 21.6708 76.7543 21.2277C76.7959 21.0395 76.9206 20.8082 76.8715 20.5415L76.8639 20.5376Z" fill="#FADDD9"/>
<path d="M77.3512 20.4003C76.9053 17.9615 76.3535 15.5619 75.5864 13.2132C74.8571 10.9822 74.6303 8.58646 73.9085 6.34759C73.576 5.31245 72.9411 4.68509 71.9548 4.31652C70.9043 3.92442 69.7857 3.76759 68.7049 3.50096C68.157 3.36765 67.6128 3.21865 67.0535 3.13631C66.5056 3.05397 65.9501 3.04613 65.3984 3.01084C64.2873 2.94418 63.1688 2.68148 62.054 2.75598C61.1697 2.81479 60.2741 3.10886 59.6052 3.7323C58.8645 4.42631 58.5169 5.54771 58.3355 6.53187C58.2448 7.02591 58.2599 7.59445 58.0898 8.06889C57.984 8.36689 57.7686 8.54725 57.5192 8.71585C56.7634 9.23342 56.1097 9.79804 55.6675 10.6371C54.6472 12.5741 55.1536 14.8051 56.5329 16.3931C57.2131 17.1773 58.0898 17.7341 58.823 18.4595C59.575 19.2045 60.002 20.1886 60.6331 21.0355C60.9468 21.459 61.302 21.8433 61.7819 22.0511C62.2089 22.2354 62.6662 22.2314 63.1196 22.2746C64.174 22.3726 65.3643 22.5216 66.3355 22.9803C66.8079 23.2038 67.2614 23.5254 67.5561 23.9763C67.8018 24.3488 67.8887 24.7958 68.0512 25.2075C68.2174 25.627 68.4631 26.0152 68.8863 26.1877C69.4305 26.4112 69.9482 26.1563 70.4508 25.9328C70.6171 25.8583 70.6851 25.6505 70.7002 25.4819C70.6927 25.58 70.5604 25.7956 70.5717 25.8035C70.5831 25.8074 70.6662 25.7446 70.6775 25.7368C70.7909 25.6741 70.9081 25.6113 71.0252 25.5525C71.3691 25.38 71.713 25.2153 72.0607 25.0467C72.9298 24.6193 73.7763 24.1566 74.6152 23.6704C75.7149 23.0313 77.5099 22.1295 77.3776 20.5415C77.321 19.8749 76.312 19.871 76.3686 20.5415C76.4216 21.1845 75.9038 21.5962 75.4504 21.9256C74.7059 22.4706 73.8783 22.9098 73.0772 23.3528C72.3214 23.7724 71.5429 24.1449 70.7682 24.5252C70.3563 24.7291 69.7442 24.933 69.695 25.4819C69.7782 25.3329 69.8613 25.18 69.9444 25.031C69.6194 25.1761 69.2793 25.38 69.0639 24.9957C68.8788 24.6664 68.8145 24.2704 68.6709 23.9214C68.3497 23.145 67.73 22.549 67.0157 22.1648C66.1579 21.7021 65.2018 21.5296 64.2533 21.3884C63.8754 21.3335 63.5013 21.2669 63.1196 21.2316C62.772 21.2002 62.3979 21.2198 62.0766 21.0512C61.3057 20.6395 60.8863 19.5299 60.4177 18.8202C59.8849 18.0164 59.2084 17.4086 58.4791 16.8048C57.7422 16.1971 57.0506 15.5697 56.5972 14.6993C56.1512 13.8523 55.985 12.8838 56.2344 11.9467C56.4725 11.0606 57.0129 10.3235 57.746 9.81373C58.3015 9.42947 58.8116 9.08835 59.0459 8.40218C59.1858 7.9944 59.1895 7.53956 59.2576 7.1161C59.3407 6.57108 59.4616 6.02215 59.6657 5.51242C60.0171 4.64588 60.5915 4.12047 61.4758 3.9009C62.4092 3.66956 63.3879 3.85777 64.3213 3.96755C65.3417 4.08911 66.3847 4.04206 67.3936 4.25771C68.3988 4.47336 69.404 4.70862 70.4017 4.9478C71.2746 5.15561 72.3705 5.35558 72.8051 6.26524C73.0432 6.76713 73.1377 7.35135 73.2661 7.88853C73.4097 8.5002 73.5609 9.10795 73.7121 9.7157C74.0068 10.892 74.1882 12.1036 74.551 13.2603C74.9213 14.4483 75.2841 15.6168 75.5826 16.8283C75.9001 18.1027 76.1532 19.3887 76.3913 20.6827C76.5122 21.3414 77.4834 21.063 77.3625 20.4043L77.3512 20.4003Z" fill="#222222"/>
<path d="M65.2588 5.20264C64.2007 5.40261 63.1161 5.53984 62.1147 5.93586C61.6537 6.11622 61.2871 6.4848 60.9697 6.87689C60.3915 7.59051 60.4671 8.57075 60.6485 9.48042C60.7732 10.1195 60.9697 10.7351 61.1397 11.3625C61.3098 11.9898 61.3703 12.6525 61.5857 13.2642C61.6537 13.4563 61.7935 13.6092 61.9371 13.7504C62.3603 14.1738 63.0935 13.8209 63.6414 14.0405" fill="#FADDD9"/>
<path d="M65.1228 4.69691C63.8757 4.92825 62.3226 5.01059 61.2834 5.83007C60.2706 6.62995 59.8965 7.70429 60.059 8.99429C60.1459 9.68831 60.3273 10.3588 60.52 11.0293C60.7014 11.6723 60.8072 12.3232 60.9697 12.9702C61.1096 13.5191 61.359 14.0523 61.8653 14.3307C62.3868 14.617 62.9726 14.3699 63.5054 14.5425C64.1252 14.7424 64.3897 13.7347 63.7737 13.5348C63.3354 13.3936 62.897 13.5348 62.4624 13.4446C61.9863 13.3466 61.9258 12.6486 61.8427 12.2526C61.6197 11.1587 61.2343 10.1 61.068 8.99429C61 8.53946 60.966 8.02582 61.1322 7.59059C61.3023 7.14752 61.7218 6.72405 62.1223 6.50056C63.0784 5.9673 64.3406 5.90065 65.3911 5.7046C66.0298 5.58697 65.7577 4.57928 65.1228 4.69691Z" fill="#222222"/>
<path d="M68.2398 6.01044C67.5029 6.33196 66.7509 6.61819 66.014 6.93579C65.2771 7.25731 64.5705 7.6494 63.8336 7.97092C63.467 8.13168 62.9909 8.23755 62.8208 8.61397C62.7188 8.84138 62.7339 9.12761 62.749 9.37855C62.7906 10.0412 62.9342 10.6999 63.1458 11.3273C63.3574 11.9546 63.7164 12.5075 64.0868 13.0486C64.1926 13.2054 64.2228 13.4524 64.374 13.5583C64.5402 13.6759 64.7708 13.7387 64.971 13.7779C65.587 13.9034 66.2332 13.97 66.8605 13.9386C67.4878 13.9073 68.1 13.6877 68.7009 13.5073" fill="#FADDD9"/>
<path d="M68.1077 5.50458C66.9815 5.99078 65.8365 6.42601 64.733 6.97102C64.2456 7.2102 63.7619 7.43369 63.263 7.64151C62.8247 7.82579 62.4317 8.09634 62.2956 8.5943C62.152 9.12756 62.2654 9.76275 62.3599 10.296C62.4657 10.8998 62.6395 11.4958 62.8965 12.0487C63.1308 12.5466 63.4936 12.9701 63.7279 13.4602C63.9546 13.9464 64.2796 14.1542 64.786 14.268C65.4359 14.413 66.1199 14.4875 66.7888 14.464C67.4955 14.4366 68.1643 14.217 68.837 14.0092C69.4567 13.817 69.1922 12.8093 68.5687 13.0015C67.9603 13.1897 67.3556 13.4014 66.717 13.421C66.1199 13.4367 65.4775 13.3936 64.9031 13.225C64.6386 13.1466 64.6575 13.0172 64.5252 12.7858C64.3854 12.5427 64.2115 12.3192 64.0679 12.0761C63.7392 11.5193 63.5276 10.9351 63.3877 10.296C63.3084 9.92743 63.0552 9.02169 63.3764 8.73938C63.5313 8.60607 63.7845 8.55117 63.9697 8.47275C64.2493 8.35512 64.5252 8.22181 64.7973 8.0885C65.9763 7.51604 67.1743 7.02591 68.376 6.50835C68.6292 6.39856 68.803 6.1633 68.7274 5.86531C68.6632 5.61829 68.3571 5.39087 68.1077 5.50066V5.50458Z" fill="#222222"/>
<path d="M66.9286 10.8959C67.6995 10.8999 68.5006 11.041 69.1128 11.5233L66.9286 10.8959Z" fill="#FADDD9"/>
<path d="M66.9288 11.4213C67.1215 11.4213 67.318 11.433 67.5107 11.4526C67.5334 11.4526 67.5598 11.4565 67.5825 11.4605C67.6392 11.4683 67.6316 11.4683 67.5561 11.4605C67.5901 11.4605 67.6316 11.4722 67.6619 11.4801C67.7564 11.4958 67.8508 11.5154 67.9453 11.5428C68.0398 11.5663 68.1305 11.5938 68.2212 11.6252C68.2552 11.6369 68.2892 11.6487 68.3232 11.6644C68.3459 11.6722 68.3685 11.684 68.3912 11.6918C68.327 11.6644 68.3194 11.6604 68.3685 11.684C68.5424 11.7702 68.7049 11.8643 68.8598 11.9859C68.9581 12.0604 69.1357 12.0721 69.249 12.0369C69.3662 12.0016 69.4909 11.9114 69.5514 11.7977C69.6912 11.5232 69.5967 11.2566 69.37 11.0841C68.6784 10.5469 67.7753 10.39 66.9325 10.3822C66.668 10.3822 66.4186 10.6253 66.4299 10.9037C66.4413 11.1899 66.6529 11.4252 66.9325 11.4252L66.9288 11.4213Z" fill="#222222"/>
<path d="M84.1034 21.7336C83.8048 21.0788 83.4798 20.4083 82.9054 20.0005C82.4557 19.679 81.8965 19.5496 81.4619 19.2006C80.929 18.7693 80.6267 18.0322 79.9881 17.8008C79.5573 17.644 79.0887 17.7342 78.6503 17.8675C77.921 18.091 77.1765 18.2753 76.4585 18.5419C75.7405 18.8085 75.0717 19.2006 74.3688 19.5064C73.6659 19.8123 72.9328 20.0475 72.2488 20.3926C71.5648 20.7376 70.9375 21.2042 70.2724 21.5846C69.6073 21.9688 68.9649 22.3884 68.3224 22.8079C67.6762 23.2274 67.0338 23.6431 66.4141 24.1018C66.1307 24.3096 65.8548 24.5214 65.8397 24.886C65.817 25.384 66.3498 25.6937 66.4783 26.1721C66.6824 26.9367 65.7112 27.4935 65.3408 28.1836C64.9289 28.9481 65.1557 29.9872 65.6054 30.7243C66.0589 31.4615 66.8222 31.9438 67.389 32.5946C68.0201 33.3239 68.3451 34.116 68.6361 34.7943C69.0064 35.6648 69.0782 36.4529 68.9611 37.2488C68.8439 38.0526 68.6361 38.876 68.0957 39.6053C67.6385 40.2249 66.9696 40.7424 66.2591 41.307C65.6507 41.7932 64.9856 42.2991 64.226 42.746C63.5458 43.146 62.7787 43.4636 61.9965 43.8322C61.2747 44.1733 60.5529 44.5967 59.7631 44.9104C59.0149 45.2084 58.244 45.5142 57.4504 45.7926C56.6833 46.0593 55.8821 46.2749 55.0885 46.5219C54.3063 46.765 53.5165 47.0042 52.7192 47.2238C51.9256 47.4434 51.1093 47.5806 50.312 47.7845C49.507 47.9884 48.7059 48.1844 47.9123 48.3687C47.0998 48.5569 46.2911 48.7216 45.5013 48.8863C44.6775 49.0627 43.8651 49.2 43.079 49.3529C42.2401 49.5176 41.4503 49.7999 40.6756 49.9371C39.8178 50.09 38.9826 50.1057 38.2231 50.2273C37.3237 50.3763 36.515 50.5958 35.797 50.7017C34.7389 50.8585 33.9037 50.9762 33.3558 51.0467C32.5584 51.1487 31.7875 51.3251 31.0242 51.4349C30.2306 51.5525 29.4408 51.5643 28.6775 51.7133C27.899 51.8662 27.113 51.9721 26.3534 52.1799C25.5938 52.3838 24.8645 52.7014 24.1162 52.9837C23.3869 53.2582 22.7105 53.6699 21.9849 54.0306C21.2971 54.3756 20.5413 54.6344 19.846 55.0775C19.1582 55.5166 18.5612 56.1009 17.9074 56.5949C17.2537 57.089 16.6188 57.5987 15.999 58.1437C15.3831 58.6887 14.7104 59.171 14.136 59.7591C13.5578 60.3473 13.0892 61.0413 12.5526 61.6726C12.016 62.3039 11.5172 62.9587 11.0259 63.6213C10.5347 64.2879 10.017 64.9348 9.57104 65.6328C9.11756 66.3424 8.717 67.0835 8.30131 67.8167C7.88563 68.55 7.40949 69.2479 7.03537 70.0046C6.65748 70.7614 6.34005 71.5456 5.99994 72.3219C5.65984 73.0944 5.2895 73.859 4.9834 74.6471C4.67731 75.4352 4.35231 76.2233 4.07644 77.0232C3.80058 77.827 3.691 78.6857 3.44537 79.4973C3.14305 80.5089 2.89742 81.497 2.7387 82.5165C2.57621 83.532 2.41372 84.5514 2.1303 85.567C1.87711 86.4688 1.6428 87.3706 1.48031 88.2842C1.31403 89.2017 1.28759 90.1349 1.22712 91.0681C1.16288 91.9934 1.13265 92.9188 1.18556 93.8559C1.23091 94.6597 1.24601 95.538 1.67304 96.1967C1.70327 96.2438 2.20586 96.1614 2.25877 96.1614C3.04479 96.1614 3.83459 96.2555 4.62062 96.2555C5.40664 96.2555 6.19644 96.1262 6.98246 96.1262C7.76848 96.1262 8.55828 96.2359 9.34431 96.2359C10.1303 96.2359 10.9201 96.2477 11.7062 96.2477C12.4922 96.2477 13.282 96.2203 14.068 96.2203C14.854 96.2203 15.6438 96.1105 16.4298 96.1105C17.2159 96.1105 18.0057 96.2242 18.7917 96.2242C19.5777 96.2242 20.3675 96.2595 21.1535 96.2595C21.9396 96.2595 22.7294 96.1614 23.5154 96.1614C24.3014 96.1614 25.0912 96.2085 25.8772 96.2085C26.6633 96.2085 27.4531 96.2085 28.2391 96.2085C29.0251 96.2085 29.8149 96.2203 30.6009 96.2203C31.3869 96.2203 32.1767 96.1105 32.9628 96.1105C33.7488 96.1105 34.4932 96.134 35.2566 96.134C36.0199 96.134 36.7871 96.2595 37.5504 96.2595C38.3138 96.2595 39.0809 96.1693 39.8443 96.1693C40.6076 96.1693 41.3747 96.1693 42.1381 96.1693C42.9014 96.1693 43.6685 96.2242 44.4319 96.2242C45.1952 96.2242 45.9624 96.1654 46.7257 96.1654C47.4891 96.1654 48.2562 96.0909 49.0195 96.0909C49.7829 96.0909 50.55 96.0673 51.3134 96.0673C52.0767 96.0673 52.8438 96.2006 53.6072 96.2006C54.533 96.2006 55.4589 96.0948 56.3885 96.0948C57.3181 96.0948 58.2402 96.0948 59.1698 96.0948C60.0994 96.0948 61.0253 96.1771 61.9511 96.1771C62.3252 96.1771 63.1982 96.1458 64.1921 96.1967C64.9214 96.2359 65.715 96.3614 66.4254 96.334C67.4722 96.2987 68.3413 96.1497 68.5378 95.7654C68.7192 95.4125 68.7155 94.9812 68.6852 94.5852C68.621 93.6951 68.621 92.8051 68.5832 91.9111C68.5492 91.0211 68.5152 90.131 68.5076 89.237C68.5001 88.3469 68.3565 87.453 68.3791 86.559C68.4018 85.6689 68.5492 84.7789 68.5983 83.8888C68.6474 82.9987 68.757 82.1126 68.8364 81.2265C68.9157 80.3364 68.9271 79.4424 69.0329 78.5602C69.1538 77.5643 69.2105 76.6507 69.4184 75.8312C69.6526 74.9137 70.0154 74.0825 70.5067 73.31C70.9526 72.6082 71.5875 71.9965 72.3659 71.3534C73.0915 70.7535 73.8511 70.2007 74.6031 69.6361C75.3551 69.0714 76.0693 68.4519 76.8137 67.8755C77.5582 67.2992 78.2838 66.7032 78.9829 66.068C79.5648 65.5426 80.0977 64.9505 80.6758 64.3937C81.2427 63.8487 81.9116 63.3978 82.4671 62.8253C83.0188 62.2568 83.4836 61.5942 84.0127 60.9982C84.5417 60.4022 85.0368 59.7787 85.5356 59.1553C86.0344 58.5319 86.5899 57.9555 87.0509 57.3046C87.512 56.6498 87.9352 55.9676 88.3509 55.2853C88.7666 54.5952 89.0991 53.862 89.4543 53.1484C89.8133 52.4269 90.1988 51.7211 90.486 50.9722C90.777 50.2194 91.0151 49.4509 91.2229 48.6706C91.4307 47.8943 91.6839 47.1179 91.8049 46.3141C91.922 45.5221 91.9674 44.7065 91.99 43.887C92.0505 43.0715 91.9598 42.2716 91.922 41.4913C91.8842 40.6797 91.9296 39.8681 91.7973 39.0917C91.6613 38.2997 91.461 37.5194 91.2456 36.7548C91.0302 35.9863 90.7883 35.2217 90.5087 34.4767C90.229 33.7356 89.9003 33.0063 89.5715 32.281C89.2427 31.5595 88.8422 30.8733 88.4832 30.1636C88.1242 29.4579 87.7198 28.7756 87.3457 28.0777C86.9716 27.3798 86.5861 26.6897 86.212 25.9878C85.8379 25.2899 85.528 24.5527 85.169 23.847C84.81 23.1412 84.4283 22.4432 84.0996 21.7218L84.1034 21.7336Z" fill="#DDDDDD"/>
<path d="M84.5386 21.4707C84.0624 20.4395 83.5258 19.6749 82.5017 19.1926C82.0558 18.9809 81.693 18.7535 81.3718 18.3653C81.0695 18.0006 80.7861 17.6203 80.3628 17.4007C79.3614 16.8792 78.0879 17.4792 77.1054 17.7811C75.9944 18.1222 75.0043 18.6907 73.9386 19.1338C72.8163 19.5965 71.7619 20.0474 70.7265 20.7061C69.6986 21.3609 68.6481 21.9843 67.6278 22.6509C67.0987 22.996 66.5621 23.3449 66.0595 23.7331C65.6854 24.0193 65.3491 24.3761 65.3415 24.8898C65.3339 25.3407 65.5834 25.6583 65.8214 26.0033C66.1049 26.415 65.9575 26.6268 65.6552 26.9757C65.3793 27.2933 65.0694 27.5992 64.8805 27.9834C64.6424 28.4657 64.5895 29.0029 64.6613 29.5322C64.8011 30.5674 65.3717 31.379 66.1049 32.0612C66.4865 32.4181 66.8871 32.7513 67.2045 33.1709C67.556 33.6296 67.813 34.159 68.0472 34.6883C68.5121 35.7509 68.6141 36.7311 68.3382 37.8643C68.0321 39.1112 67.2234 39.8836 66.2749 40.6443C65.368 41.3696 64.4459 42.0715 63.4142 42.5969C61.2262 43.7105 58.9891 44.773 56.6537 45.5063C55.418 45.8944 54.1709 46.2708 52.9276 46.6237C51.7373 46.9609 50.5205 47.1962 49.3188 47.4942C48.0641 47.8039 46.802 48.0784 45.536 48.345C44.3456 48.596 43.1364 48.7685 41.9573 49.0861C41.4321 49.2273 40.9068 49.3802 40.3664 49.4625C39.7315 49.5645 39.0891 49.588 38.4505 49.6703C37.3432 49.8154 36.2587 50.1095 35.1514 50.2742C34.1425 50.4232 33.1297 50.5369 32.1245 50.7211C30.9341 50.9368 29.7286 50.9995 28.5383 51.2113C27.3366 51.4269 26.1613 51.6426 25.0125 52.0817C23.8751 52.513 22.8169 53.0384 21.7286 53.5795C20.6856 54.0971 19.6728 54.5049 18.747 55.2499C17.8023 56.0145 16.8311 56.7516 15.909 57.5436C15.0096 58.3161 14.0498 59.0219 13.2864 59.9433C12.5042 60.8843 11.7295 61.845 10.9888 62.8252C10.2897 63.7584 9.55659 64.6759 8.9444 65.6718C8.27175 66.7618 7.64821 67.8911 7.00201 68.9968C6.37471 70.0751 5.92501 71.2474 5.41485 72.3845C4.87446 73.5843 4.36431 74.792 3.89572 76.0271C3.46114 77.172 3.24574 78.3562 2.90186 79.5325C2.52774 80.8225 2.301 82.1242 2.07048 83.4495C1.85508 84.6925 1.48475 85.8884 1.20133 87.1156C0.914126 88.3625 0.808316 89.6094 0.728958 90.8876C0.649599 92.1305 0.611803 93.3735 0.721392 94.6164C0.770519 95.1615 0.849889 95.7025 1.08796 96.1966C1.29958 96.6357 1.54898 96.7534 1.9949 96.7063C3.03033 96.6004 4.07711 96.8083 5.1201 96.7534C5.73985 96.722 6.35581 96.6436 6.97556 96.6397C7.5953 96.6397 8.21129 96.7102 8.83104 96.7377C11.2496 96.8475 13.6719 96.7063 16.0866 96.6318C17.2619 96.5926 18.4523 96.7259 19.6313 96.7494C20.8746 96.7769 22.1027 96.6985 23.3422 96.6789C25.757 96.6396 28.1793 96.7573 30.5978 96.7377C31.7995 96.7298 32.9899 96.624 34.1954 96.6397C35.4878 96.6593 36.7877 96.8122 38.0764 96.7612C39.3121 96.7102 40.544 96.6828 41.7835 96.6828C43.0797 96.6828 44.3683 96.7534 45.6645 96.7063C46.8964 96.6632 48.1359 96.6161 49.3716 96.6044C49.9876 96.6004 50.6074 96.5808 51.2233 96.5848C51.9035 96.5848 52.5762 96.6828 53.2526 96.7102C54.4695 96.7612 55.6901 96.6122 56.9069 96.6122C58.1804 96.6122 59.4539 96.6083 60.7312 96.6632C61.7137 96.7063 62.6925 96.671 63.675 96.6985C64.8314 96.7298 65.9688 96.9298 67.129 96.8122C67.9452 96.7259 68.8786 96.5769 69.1242 95.632C69.2603 95.1183 69.1809 94.5772 69.1545 94.0557C69.1205 93.3735 69.1129 92.6912 69.0902 92.0051C69.0449 90.7308 69.0524 89.4447 68.958 88.1743C68.9126 87.5783 68.8673 86.9862 68.8899 86.3902C68.9164 85.7041 69.0146 85.0257 69.0713 84.3435C69.1809 83.0731 69.3132 81.7988 69.3926 80.5245C69.4719 79.2815 69.5588 78.0346 69.744 76.8035C69.9216 75.6507 70.3184 74.5528 70.9419 73.5804C71.5579 72.6198 72.4988 71.8866 73.3793 71.2082C75.3444 69.6947 77.3586 68.2244 79.2103 66.5619C80.121 65.7463 80.9297 64.8249 81.8744 64.0446C82.7889 63.2918 83.488 62.4017 84.2589 61.4999C85.8461 59.6492 87.4257 57.7985 88.6992 55.6969C89.3492 54.6225 89.882 53.4658 90.4338 52.3366C90.959 51.2622 91.3483 50.133 91.6657 48.9763C92.0058 47.753 92.3232 46.561 92.4253 45.2828C92.5235 44.0673 92.5046 42.8753 92.4366 41.6598C92.3686 40.3933 92.3686 39.1857 92.0814 37.9427C91.8093 36.7782 91.473 35.6215 91.0573 34.5001C90.2108 32.2063 89.0204 30.0968 87.8641 27.9638C86.7039 25.8308 85.5589 23.6704 84.5348 21.4629C84.2552 20.8551 83.386 21.3884 83.6656 21.9922C84.7389 24.3016 85.9293 26.568 87.1574 28.7912C88.3402 30.932 89.5268 33.0846 90.3128 35.4215C90.7096 36.6057 91.0648 37.8251 91.284 39.0602C91.3861 39.6326 91.3936 40.2129 91.4012 40.7972C91.4125 41.452 91.4654 42.1068 91.4957 42.7616C91.609 45.322 91.0648 47.7843 90.2373 50.184C89.8291 51.3681 89.2245 52.4581 88.6803 53.5795C88.1362 54.6892 87.5051 55.7439 86.8135 56.7634C86.1031 57.8064 85.2301 58.7474 84.4328 59.7237C83.6657 60.6608 82.9099 61.6646 82.0596 62.5154C81.6666 62.9115 81.2207 63.2487 80.7974 63.6094C80.3326 64.0015 79.9094 64.4446 79.4786 64.8798C78.5679 65.8051 77.5778 66.6325 76.5612 67.4323C75.5409 68.2322 74.5395 69.0517 73.5041 69.828C72.5858 70.5142 71.6486 71.2122 70.855 72.0552C70.0954 72.8629 69.5513 73.8588 69.1771 74.9136C68.7766 76.0349 68.6859 77.2191 68.5536 78.3954C68.4138 79.6344 68.376 80.8852 68.2513 82.1242C68.119 83.4221 67.9943 84.7317 67.9036 86.0334C67.813 87.3352 67.9868 88.6526 68.017 89.9583C68.0435 91.2052 68.0888 92.4521 68.1342 93.6989C68.1455 94.0479 68.1757 94.3929 68.1908 94.738C68.1984 94.9419 68.2513 95.3418 68.1001 95.5026C67.8885 95.7339 67.3406 95.7417 67.0534 95.7731C65.8706 95.8868 64.6953 95.6751 63.5087 95.6477C61.2489 95.6006 58.9891 95.5692 56.7331 95.5692C55.4558 95.5692 54.1747 95.7378 52.9012 95.6477C51.6315 95.5536 50.3806 95.5575 49.1071 95.5653C47.845 95.5731 46.5752 95.632 45.313 95.679C44.0206 95.7261 42.7245 95.6437 41.4321 95.6437C40.1661 95.6437 38.9039 95.7261 37.638 95.7339C37.0182 95.7378 36.4023 95.6633 35.7863 95.628C35.1401 95.5928 34.4901 95.6045 33.8439 95.5967C32.5893 95.581 31.3461 95.7065 30.0952 95.6986C28.8595 95.6908 27.62 95.6869 26.3843 95.6869C25.2052 95.6869 24.0224 95.6006 22.8434 95.6594C21.6001 95.7222 20.3757 95.7182 19.1325 95.7065C17.8892 95.6947 16.6648 95.5536 15.4215 95.6359C14.2425 95.7143 13.0597 95.7221 11.8769 95.73C10.6412 95.7339 9.39787 95.7496 8.16594 95.6673C6.91888 95.581 5.69828 95.7574 4.455 95.7378C3.89194 95.73 3.32886 95.679 2.76958 95.6555C2.56929 95.6477 2.36903 95.6398 2.17252 95.6555C2.08938 95.6633 2.00245 95.6751 1.91931 95.6869C1.86641 95.6947 1.70393 95.6516 1.81352 95.6986C1.91555 95.777 2.0138 95.8594 2.11583 95.9378C1.56788 95.0242 1.65858 93.6832 1.6737 92.6481C1.68881 91.4326 1.74926 90.1897 1.89664 88.982C2.03646 87.8096 2.38035 86.6725 2.67889 85.5355C2.98876 84.3552 3.12858 83.1476 3.36288 81.9517C3.59339 80.7832 3.96752 79.654 4.22827 78.4895C4.48902 77.3249 4.91225 76.2388 5.34683 75.1331C6.23866 72.859 7.25143 70.6122 8.4947 68.5263C9.09556 67.5147 9.62462 66.4599 10.2973 65.4915C10.951 64.5504 11.6539 63.629 12.3643 62.735C13.0559 61.8646 13.7323 60.9314 14.507 60.1393C15.2817 59.3473 16.1886 58.6572 17.0389 57.9514C17.9307 57.2104 18.8415 56.4458 19.7787 55.7674C20.678 55.1126 21.7399 54.7637 22.7149 54.25C24.7669 53.1678 26.902 52.4856 29.1845 52.1641C30.2917 52.0112 31.3914 51.9131 32.4911 51.7171C33.4131 51.5524 34.3465 51.4465 35.2724 51.3093C36.3418 51.1525 37.3886 50.878 38.4543 50.7211C39.5653 50.5604 40.6649 50.5133 41.7571 50.2232C44.0018 49.6272 46.3069 49.2861 48.5667 48.7489C50.8908 48.2 53.1997 47.6393 55.486 46.9453C56.6197 46.6041 57.742 46.2552 58.8493 45.8278C59.9225 45.4122 60.9428 44.9299 61.9745 44.4202C62.9683 43.9261 64 43.5262 64.9371 42.9184C65.8403 42.3342 66.7019 41.6519 67.522 40.9462C68.3118 40.2639 68.9202 39.468 69.2338 38.4407C69.5361 37.4565 69.6344 36.3743 69.3774 35.3705C69.1318 34.3981 68.6368 33.3826 68.0472 32.5867C67.4653 31.8025 66.5734 31.2888 66.0557 30.4576C65.8214 30.0812 65.6589 29.6302 65.6438 29.1793C65.6287 28.6814 65.8214 28.3402 66.1313 27.9834C66.6377 27.4031 67.231 26.7601 66.9362 25.9132C66.8644 25.7093 66.7473 25.5407 66.6264 25.3681C66.5432 25.2544 66.3316 25.0466 66.358 24.8898C66.3883 24.6977 66.6944 24.5369 66.8266 24.4428C67.0647 24.2703 67.3103 24.1017 67.556 23.937C68.5574 23.2626 69.5739 22.6039 70.6131 21.9922C71.607 21.404 72.5291 20.8002 73.6023 20.3767C74.6226 19.9768 75.5825 19.424 76.6028 19.0436C77.0903 18.8633 77.5891 18.7221 78.0879 18.577C78.583 18.4359 79.2027 18.134 79.7204 18.2594C80.1437 18.3614 80.4006 18.7809 80.6652 19.1024C80.9713 19.4671 81.3076 19.7533 81.727 19.965C82.173 20.1885 82.6302 20.3532 82.9665 20.7492C83.2764 21.11 83.4767 21.5687 83.6732 22C83.9529 22.6078 84.822 22.0785 84.5424 21.4707H84.5386Z" fill="#222222"/>
<path d="M22.4129 56.3205C21.4795 56.0225 20.5386 56.991 20.5234 58.0026C20.5083 59.0182 21.1923 59.8768 21.7667 60.6963C22.2164 61.3394 22.5716 62.0608 23.044 62.6882C23.5164 63.3155 23.985 63.9507 24.4838 64.5585C24.9826 65.1662 25.5608 65.6995 26.0823 66.2798C26.6075 66.8601 27.1102 67.4678 27.6619 68.0168C28.2174 68.5657 28.7956 69.095 29.3851 69.6048C29.9746 70.1145 30.6057 70.5693 31.2292 71.0359C31.8527 71.5025 32.4763 71.9613 33.1376 72.373C33.814 72.8004 34.5811 73.1846 35.3634 73.0631C36.1418 72.9415 36.7011 72.2946 37.2226 71.6829C37.7101 71.1104 38.2392 70.5772 38.6662 69.9577C39.0932 69.3381 39.4107 68.6441 39.7734 67.9815C40.14 67.3189 40.6124 66.7111 40.9109 66.0132" fill="#222222"/>
<path d="M22.5488 55.8146C21.5398 55.5479 20.5837 56.1949 20.1983 57.1595C19.7788 58.2024 20.2058 59.2846 20.7802 60.1629C22.1066 62.1901 23.4028 64.2329 25.0807 65.9699C25.9876 66.907 26.8114 67.9265 27.7562 68.8244C28.6593 69.6831 29.6041 70.4712 30.6017 71.2122C32.3022 72.4748 34.6905 74.6823 36.7463 72.9335C37.2413 72.514 37.6457 71.9807 38.0765 71.4945C38.5035 71.0123 38.923 70.5221 39.2706 69.9732C39.6485 69.3772 39.9357 68.7263 40.2872 68.1147C40.6424 67.4991 41.0581 66.9305 41.3491 66.2796C41.6211 65.6719 40.752 65.1426 40.4799 65.7503C40.0491 66.7149 39.4105 67.5853 38.9192 68.5224C38.409 69.4948 37.7817 70.279 37.0675 71.0907C36.4478 71.7965 35.8129 72.7179 34.7737 72.5454C33.7571 72.3728 32.8048 71.5573 31.9886 70.9613C30.2163 69.6634 28.5346 68.2872 27.0684 66.6208C25.6211 64.9818 24.0679 63.4605 22.9153 61.5666C22.6357 61.1079 22.3598 60.6531 22.0499 60.2139C21.7363 59.7669 21.3886 59.3121 21.1884 58.7945C21.0032 58.3201 20.9616 57.7986 21.2337 57.3516C21.4642 56.9752 21.8497 56.7125 22.288 56.8262C22.9153 56.9909 23.1836 55.9832 22.5563 55.8185L22.5488 55.8146Z" fill="#222222"/>
<path d="M22.3065 58.4848C22.8847 59.1906 23.376 59.9944 24.0108 60.661C24.6419 61.3236 25.2806 61.9823 25.9268 62.6293C26.5767 63.2802 27.2381 63.9154 27.8616 64.5702C28.4587 65.1975 29.0935 65.7974 29.6679 66.4561C30.2423 67.1149 30.8734 67.7187 31.4592 68.3578C32.0184 68.9695 32.5513 69.6086 33.1559 70.1771C33.7605 70.7418 34.3727 71.2554 34.9811 71.8122C35.1852 71.1456 35.0643 70.2477 34.8186 69.3145C34.5806 68.4166 34.1535 67.5462 34.0024 66.8796C33.8399 66.166 33.8248 65.4171 33.666 64.7035C33.5073 63.9899 33.2957 63.288 33.1408 62.5744C32.9859 61.8608 32.7742 61.1589 32.6268 60.4414C32.5626 60.1355 32.3661 59.1827 32.0827 57.9398C31.9126 57.1909 31.8333 56.3047 31.6368 55.4147C31.4554 54.5874 31.2551 53.7365 31.0888 52.9131C30.9074 52.0113 30.726 51.1526 30.6051 50.3998C30.3784 48.9961 30.2159 47.9609 30.4124 47.8511C29.7284 48.2315 29.0897 48.7098 28.3982 49.0902C27.7104 49.4705 26.9735 49.7528 26.2858 50.141C25.6018 50.5292 24.9404 50.9605 24.264 51.3643C23.5876 51.7721 22.9225 52.1916 22.2687 52.6269C21.6112 53.0621 20.9952 53.5601 20.3679 54.0384C20.1487 54.2031 19.8086 54.3247 19.7406 54.5991C19.6801 54.8265 19.7708 55.1128 19.854 55.3363C20.0883 55.9754 20.4888 56.5322 20.897 57.0615C21.3051 57.5908 21.8417 58.0104 22.299 58.4887L22.3065 58.4848Z" fill="#DDDDDD"/>
<path d="M21.9517 58.8533C22.4316 59.4532 22.8549 60.1002 23.3499 60.6844C23.8299 61.2529 24.3703 61.7783 24.8917 62.3077C25.9914 63.4291 27.1024 64.5348 28.2059 65.6523C29.2489 66.707 30.2692 67.797 31.2668 68.8988C31.7732 69.4556 32.2607 70.0281 32.8087 70.5456C33.402 71.1063 34.0292 71.6317 34.6339 72.1807C34.9135 72.4355 35.367 72.3454 35.4766 71.9493C35.9187 70.3339 35.1327 68.7067 34.6339 67.2128C34.3807 66.4561 34.358 65.6562 34.222 64.872C34.0633 63.9662 33.7874 63.0801 33.5796 62.19C33.2546 60.7824 32.9334 59.3787 32.6159 57.9711C32.4232 57.1085 32.3325 56.2263 32.1511 55.3636C31.9697 54.501 31.7619 53.6423 31.5843 52.7797C31.3915 51.8348 31.1988 50.8898 31.0477 49.937C30.9796 49.5096 30.9041 49.0783 30.8625 48.647C30.8474 48.5098 30.8549 48.3647 30.836 48.2275C30.8096 48.0275 30.8965 48.1294 30.7756 48.2275C31.2404 47.855 30.6471 47.1296 30.1634 47.408C29.4341 47.8236 28.7538 48.3294 28.0132 48.7215C27.3178 49.0901 26.5885 49.3802 25.9045 49.7763C24.5025 50.5801 23.093 51.4387 21.7628 52.3641C21.143 52.7954 20.5762 53.309 19.9413 53.7168C19.3178 54.1207 19.0948 54.6186 19.3329 55.3676C19.8015 56.834 20.9314 57.8182 21.9479 58.869C22.409 59.3434 23.1232 58.6063 22.6622 58.1279C21.7817 57.2222 20.5762 56.2929 20.2663 54.9676C20.2436 54.8774 20.2247 54.8069 20.2587 54.7402C20.3041 54.6579 20.5082 54.5873 20.5837 54.5324C20.8558 54.3442 21.1128 54.1285 21.3773 53.9246C21.9631 53.4776 22.5677 53.0581 23.1874 52.6582C24.374 51.8936 25.5757 51.1015 26.8228 50.4507C27.4728 50.1095 28.1568 49.839 28.7954 49.4743C29.4341 49.1097 30.0311 48.6784 30.6698 48.3137C30.4657 48.0393 30.2616 47.7648 30.0576 47.4942C29.7099 47.7766 29.8233 48.4392 29.8648 48.8235C29.9555 49.6233 30.0878 50.4232 30.2352 51.2152C30.5677 53.0032 31.0477 54.7676 31.3311 56.5674C31.5578 58.0064 31.8715 59.4297 32.1927 60.8491C32.6008 62.6566 33.1374 64.4211 33.383 66.2639C33.5078 67.1932 33.8479 68.0048 34.1464 68.8831C34.4374 69.7458 34.7397 70.7848 34.4903 71.6945C34.7699 71.6161 35.0534 71.5416 35.333 71.4631C34.7284 70.9142 34.1011 70.3888 33.5078 69.8281C32.9787 69.3301 32.5063 68.7812 32.0189 68.2401C31.0061 67.1187 29.9669 66.0091 28.9088 64.9347C27.8242 63.8369 26.7321 62.7507 25.6513 61.649C25.1109 61.1 24.5516 60.5589 24.0528 59.9669C23.5578 59.3787 23.1345 58.7318 22.6546 58.1318C22.2389 57.6143 21.5285 58.3593 21.9404 58.8729L21.9517 58.8533Z" fill="#222222"/>
<path d="M46.3221 57.3986C45.8648 58.175 45.4151 58.9553 44.939 59.7238C44.4628 60.4923 44.0887 61.3235 43.5974 62.0764C43.1969 62.6919 42.751 63.2722 42.3428 63.88C41.9347 64.4877 41.5417 65.1112 41.1222 65.7111C40.7028 66.311 40.1624 66.8207 39.7316 67.4089C39.3008 68.0009 38.9077 68.6205 38.4618 69.2008C37.8837 69.9497 36.9465 71.4632 36.1756 70.1026C35.7485 69.3498 36.8067 67.5932 36.9767 66.8403C37.1392 66.1267 37.2866 65.4131 37.4415 64.6995C37.6002 63.9859 37.8383 63.2919 37.9932 62.5782C38.1482 61.8646 38.2427 61.1353 38.3938 60.4217C38.5903 59.4807 38.8889 58.5632 39.1043 57.626C39.3197 56.6889 39.4595 55.7361 39.6673 54.7951C39.8752 53.858 40.1095 52.9248 40.2871 51.9798C40.3929 51.4191 40.4534 50.5526 40.5289 49.7057C40.6045 48.8274 40.7141 47.9805 41.0429 47.5139C41.5228 46.8316 42.1614 46.4709 42.8681 46.3729C43.5823 46.2748 44.357 46.4866 45.041 46.5297C45.8044 46.5767 46.5715 46.5062 47.331 46.5336C48.0944 46.5611 48.854 46.6395 49.6135 46.6865C50.3693 46.7336 51.1213 46.8551 51.8809 46.9688C51.7675 46.9532 51.1894 47.9922 50.5129 49.3646C50.1086 50.1801 49.7609 51.1368 49.3679 51.9602C48.7708 53.2071 48.1473 54.1913 48.0113 54.4422C47.4633 55.4381 46.9002 56.4184 46.3258 57.3986H46.3221Z" fill="#DDDDDD"/>
<path d="M45.884 57.1359C45.4003 57.9593 44.9091 58.7748 44.4216 59.5943C43.987 60.3236 43.6242 61.1 43.1632 61.8136C42.6795 62.5625 42.1391 63.2683 41.6478 64.0133C41.1792 64.723 40.7296 65.4444 40.1703 66.0874C39.1764 67.2363 38.4282 68.5929 37.4116 69.7143C37.1471 70.0084 36.7125 70.3927 36.5765 69.7379C36.4744 69.2477 36.8486 68.5537 37.03 68.1185C37.2567 67.5735 37.4419 67.0638 37.5703 66.4874C37.7706 65.5777 37.9558 64.672 38.2052 63.778C38.4471 62.9075 38.6058 62.0292 38.7683 61.1392C38.927 60.257 39.1651 59.4022 39.3956 58.5396C39.6299 57.6534 39.7962 56.7516 39.9662 55.8498C40.14 54.9323 40.363 54.0265 40.5671 53.1169C40.7484 52.2974 40.8769 51.4857 40.9525 50.6506C41.0243 49.8625 41.0356 49.0391 41.2548 48.2745C41.4702 47.5295 42.158 47.0198 42.8836 46.8982C43.7716 46.7492 44.7164 47.0668 45.612 47.0707C46.6247 47.0747 47.6224 47.059 48.6351 47.1374C49.6781 47.2197 50.7098 47.3178 51.7452 47.4746V46.4669C51.492 46.51 51.3182 46.8159 51.1897 47.0158C50.9667 47.3687 50.7702 47.7451 50.5775 48.1137C50.0031 49.2155 49.5459 50.3604 49.0281 51.4897C48.6238 52.368 48.1439 53.1992 47.6602 54.0305C47.0593 55.0578 46.4925 56.1086 45.8878 57.1319C45.5477 57.7083 46.4207 58.2337 46.757 57.6613C47.7622 55.9517 48.8165 54.2304 49.6932 52.4464C50.1958 51.423 50.5851 50.3487 51.0952 49.3292C51.3257 48.8665 51.5638 48.4078 51.817 47.9569C51.8964 47.8157 51.9757 47.6746 52.0626 47.5412C52.0702 47.5295 52.1382 47.3962 52.1307 47.4315C52.1647 47.3138 52.3687 47.4119 52.0173 47.4707C52.4934 47.3883 52.501 46.5375 52.0173 46.463C50.0296 46.165 48.0343 45.9846 46.0239 46.016C44.3838 46.0434 42.6266 45.369 41.217 46.5649C39.8755 47.6981 40.0645 49.6899 39.8793 51.3015C39.7697 52.266 39.5089 53.211 39.2935 54.1559C39.0668 55.1479 38.9043 56.1517 38.6927 57.1516C38.4924 58.1004 38.1977 59.0219 37.9785 59.9629C37.748 60.9588 37.6384 61.9783 37.3814 62.9664C37.1282 63.9348 36.8864 64.8955 36.6747 65.8757C36.5274 66.554 36.3422 67.15 36.0814 67.7891C35.8434 68.3734 35.5713 69.0007 35.5713 69.6477C35.5713 70.2829 36.0059 70.9808 36.6218 71.1337C37.2567 71.2906 37.8046 70.8201 38.2014 70.3652C38.7191 69.7653 39.1764 69.0948 39.6261 68.44C40.1967 67.6127 40.8845 66.8991 41.474 66.0874C42.1202 65.2013 42.6833 64.2564 43.3219 63.3663C43.9417 62.4998 44.4669 61.6058 44.9809 60.6687C45.5439 59.6453 46.1712 58.6611 46.7608 57.6574C47.1009 57.081 46.2279 56.5556 45.8916 57.128L45.884 57.1359Z" fill="#222222"/>
<path d="M47.3839 22.4039C47.4141 22.3254 46.4845 22.0235 45.1467 21.6942C44.4363 21.5177 43.5936 21.4667 42.7773 21.2825C41.9649 21.0982 41.1524 20.91 40.4344 20.757C39.2478 20.5022 38.3333 20.2356 38.0952 20.2042C37.313 20.1062 36.6063 20.1297 35.9336 20.1454C35.1929 20.1611 34.4976 20.1807 33.7834 20.3571C33.1221 20.5179 32.4154 20.6551 31.6861 20.9688C31.021 21.255 30.3672 21.5608 29.6719 21.7569C28.9803 21.9529 28.2775 22.1176 27.567 22.2627C26.8604 22.4078 26.1499 22.5293 25.4432 22.6666C24.7328 22.8038 24.0413 23.0194 23.3421 23.1841C22.5523 23.3723 21.7437 23.4782 20.9539 23.686C20.1678 23.8899 19.3969 24.1565 18.6109 24.38C17.8287 24.5996 17.054 24.8466 16.2717 25.0819C15.4933 25.3171 14.711 25.5446 13.9401 25.7994C13.532 25.9327 12.9954 26.1013 12.6553 25.8347C12.3945 25.6308 12.3341 25.1995 12.2887 24.8623C12.1678 23.984 12.2547 23.1018 12.3265 22.2196C12.3983 21.3413 12.5003 20.4669 12.7422 19.62C12.984 18.773 13.3468 17.981 13.7398 17.1929C14.1291 16.4087 14.4805 15.5853 15.002 14.8913C15.4744 14.26 16.0639 13.7189 16.6383 13.1582C17.2013 12.6093 17.8211 12.1231 18.456 11.6486C19.087 11.182 19.7181 10.7037 20.4059 10.3233C21.0975 9.943 21.789 9.55091 22.5146 9.27252C23.2514 8.99021 24.0148 8.77063 24.7668 8.60203C25.5906 8.41775 26.4447 8.33933 27.2874 8.22562C28.1263 8.10799 28.969 7.92371 29.8155 7.8845C30.6658 7.84529 31.5198 7.91586 32.3625 7.96684C33.2128 8.01781 34.0668 8.0727 34.8982 8.22562C35.7333 8.37854 36.5685 8.58243 37.3772 8.84513C38.1821 9.10784 38.9266 9.55483 39.6899 9.94301C40.4457 10.3273 41.1939 10.7233 41.8779 11.2369C42.5581 11.7506 43.2157 12.3034 43.8052 12.9308C44.3947 13.5542 44.92 14.2443 45.3961 14.9658C45.7967 15.5774 46.2162 16.4126 46.6167 17.3027C46.9757 18.1065 47.3839 18.9416 47.5539 19.7846C47.7504 20.7335 47.6673 21.6471 47.3839 22.4039Z" fill="#B7E27F"/>
<path d="M47.8867 22.404C47.8489 21.9727 47.5088 21.8472 47.1649 21.7217C46.6245 21.5296 46.069 21.3884 45.5135 21.2473C44.8069 21.0669 44.0851 20.9964 43.3671 20.867C42.5999 20.7297 41.8404 20.5298 41.0808 20.3612C39.9962 20.122 38.8928 19.7416 37.7818 19.6436C36.4176 19.5221 34.9173 19.5456 33.5796 19.8632C32.8918 20.024 32.204 20.1847 31.5503 20.4592C30.8814 20.7376 30.2314 21.0473 29.5361 21.2473C28.0434 21.6786 26.5129 21.8864 25.0013 22.2197C24.2909 22.3765 23.5956 22.5961 22.8889 22.7451C22.118 22.9098 21.3433 23.0274 20.5837 23.2352C19.0948 23.643 17.6173 24.1174 16.1397 24.5684C15.3877 24.7958 14.6319 25.0193 13.8837 25.2584C13.6607 25.329 13.279 25.5172 13.041 25.4349C12.8067 25.3526 12.7991 24.9134 12.7727 24.6899C12.6857 23.9214 12.7538 23.145 12.818 22.3805C12.8822 21.5767 12.9654 20.7768 13.1657 19.9926C13.5247 18.5771 14.2351 17.1891 14.9418 15.9265C15.6447 14.6757 16.7897 13.6249 17.878 12.7388C19.076 11.7625 20.3419 10.9077 21.7061 10.2058C23.0514 9.51575 24.5403 9.11189 26.0217 8.908C27.5106 8.70411 29.0259 8.37474 30.53 8.39435C32.034 8.41395 33.5947 8.49237 35.076 8.78645C35.8318 8.93544 36.5838 9.11973 37.3132 9.37067C38.0085 9.60985 38.6472 9.98626 39.3009 10.3235C40.5895 10.9861 41.7799 11.7115 42.8569 12.7113C43.881 13.6602 44.7653 14.7895 45.4341 16.0324C45.7894 16.6911 46.0992 17.3773 46.4053 18.0635C46.719 18.7614 47.0289 19.4829 47.1234 20.2514C47.2103 20.9375 47.1233 21.6159 46.8966 22.2628C46.6699 22.8941 47.6448 23.1686 47.8678 22.5412C48.3893 21.0826 48.1361 19.5848 47.5579 18.1889C46.9835 16.8009 46.3487 15.4168 45.4833 14.1974C44.599 12.9505 43.5636 11.8919 42.3694 10.9665C41.1866 10.0529 39.8035 9.35891 38.462 8.73155C37.0562 8.07283 35.4804 7.73563 33.9499 7.56702C32.393 7.3945 30.7378 7.23374 29.1771 7.41411C28.3835 7.50429 27.6013 7.66505 26.8077 7.76307C26.0292 7.8611 25.247 7.9552 24.4798 8.13164C22.938 8.48453 21.5323 9.09228 20.1492 9.86863C18.8152 10.6175 17.5077 11.6135 16.3891 12.676C15.8487 13.1897 15.297 13.7073 14.8246 14.2876C14.3409 14.8796 13.9744 15.5384 13.638 16.2285C12.9503 17.64 12.2625 19.028 12.0018 20.6043C11.8695 21.4081 11.8052 22.2275 11.7485 23.0431C11.6994 23.8077 11.6843 24.5997 11.8506 25.3526C11.9904 25.9995 12.4136 26.4779 13.0787 26.4936C13.7703 26.5092 14.4996 26.1564 15.1534 25.9564C16.7103 25.4819 18.2748 25.031 19.828 24.5488C21.3698 24.0743 22.9532 23.8234 24.5101 23.4156C26.0595 23.0078 27.6466 22.8157 29.1998 22.4157C30.6773 22.0393 32.0226 21.3061 33.5078 20.9532C34.2636 20.7729 34.9929 20.6905 35.7676 20.6709C36.4856 20.6513 37.2187 20.6121 37.9329 20.7101C38.3789 20.7689 38.8172 20.914 39.2556 21.0238C40.0038 21.2081 40.7558 21.3649 41.5078 21.5335C43.0081 21.8746 44.5385 22.0511 46.0199 22.4667C46.2844 22.5412 46.549 22.6196 46.8135 22.7059C46.8928 22.7333 46.9722 22.7726 47.0553 22.7961C47.044 22.7961 47.1196 22.8902 47.0213 22.7647C46.9722 22.6432 46.9231 22.5177 46.8739 22.3961C46.8739 22.3961 46.8739 22.404 46.8739 22.4079C46.9344 23.0705 47.9434 23.0784 47.8829 22.4079L47.8867 22.404Z" fill="#222222"/>
<path d="M47.4447 28.1912C47.8113 27.6776 48.3063 27.2855 48.8202 26.9365C49.338 26.5836 49.867 26.1915 50.4754 26.0778C51.3295 25.9171 52.1419 26.0386 52.8221 26.2974C53.5742 26.5836 54.1637 27.1522 54.6398 27.7952C55.1084 28.4225 55.4145 29.1715 55.5581 29.9949C55.6941 30.7673 55.7584 31.5985 55.5581 32.418C55.3087 33.4179 54.7419 34.304 54.0843 35.0764C53.4268 35.8489 52.6067 36.4292 51.6847 36.8095C51.1103 37.0487 50.5132 37.3075 49.8708 37.3624C49.2397 37.4173 48.6011 37.3075 47.9813 37.1742" fill="#FADDD9"/>
<path d="M47.8001 28.5638C48.2196 28.007 48.7486 27.611 49.3155 27.2267C49.939 26.8033 50.502 26.5327 51.2616 26.5327C52.6069 26.5327 53.7217 27.2424 54.4397 28.4069C55.1615 29.5793 55.4071 31.2379 54.9914 32.5632C54.6022 33.814 53.6688 34.9981 52.6183 35.7195C52.0023 36.143 51.3032 36.4528 50.5965 36.6763C49.7652 36.9429 48.9489 36.8527 48.11 36.6763C47.4789 36.543 47.2068 37.5506 47.8417 37.684C48.6995 37.8643 49.5686 37.9937 50.4378 37.8016C51.22 37.633 52.0287 37.2762 52.7241 36.8723C54.0845 36.0842 55.2182 34.7471 55.8115 33.2493C57.0245 30.2027 55.2862 26.0426 51.991 25.5446C51.05 25.4035 50.1242 25.5133 49.2928 25.9995C48.4879 26.47 47.6565 27.0542 47.0859 27.8188C46.6929 28.3442 47.3995 29.0892 47.8001 28.5599V28.5638Z" fill="#222222"/>
<path d="M51.1479 28.4853C50.2107 29.0303 49.3945 29.7675 48.7748 30.6771C48.5631 30.9908 48.8428 31.4927 49.2093 31.4653C49.8669 31.4104 50.4715 31.8809 50.1956 32.6023C49.8857 33.3983 48.9561 33.6571 48.2268 33.8178C47.5919 33.959 47.8602 34.9667 48.4951 34.8255C49.6401 34.5667 50.9552 33.9825 51.2273 32.6572C51.3482 32.0573 51.216 31.4221 50.7776 30.9908C50.3657 30.587 49.7762 30.3713 49.2093 30.4184C49.3529 30.6811 49.5003 30.9438 49.6439 31.2065C50.1616 30.4458 50.8759 29.842 51.6543 29.3871C52.2212 29.0578 51.7148 28.156 51.1441 28.4853H51.1479Z" fill="#222222"/>
<path d="M16.1697 35.9941C15.6293 35.6921 15.0285 35.5353 14.4201 35.4451C13.8079 35.351 13.207 35.3628 12.6062 35.5235C11.7672 35.751 11.0455 36.0803 10.5315 36.6097C9.96469 37.1978 9.583 37.9506 9.40917 38.7466C9.23911 39.5229 9.29204 40.3659 9.4961 41.1737C9.68883 41.9343 9.99114 42.7264 10.5051 43.3773C11.1362 44.1732 12.0507 44.679 12.9614 45.0946C13.8721 45.5103 14.8433 45.7965 15.8372 45.7416C16.4531 45.7063 17.088 45.5612 17.6926 45.3299C18.2859 45.1025 18.8074 44.7182 19.3138 44.3261" fill="#FADDD9"/>
<path d="M16.4231 35.5392C14.9304 34.7393 13.1656 34.6569 11.6125 35.3078C10.1878 35.9038 9.17505 37.1821 8.89162 38.7583C8.59309 40.4286 9.0768 42.3617 10.1047 43.6869C11.0721 44.9338 12.7575 45.7376 14.2313 46.0983C15.142 46.3179 16.0641 46.3101 16.971 46.0983C17.9498 45.867 18.7622 45.3926 19.5634 44.777C20.0773 44.381 19.5747 43.4713 19.0532 43.8752C17.9233 44.7456 16.6763 45.322 15.2365 45.2161C13.9441 45.1181 12.5043 44.4751 11.484 43.6477C9.4925 42.0284 9.02011 37.9662 11.4651 36.5312C12.8104 35.7391 14.5298 35.7117 15.9054 36.4488C16.4798 36.7586 16.9899 35.8568 16.4155 35.547L16.4231 35.5392Z" fill="#222222"/>
<path d="M12.8859 38.9818C13.7437 39.0484 14.5638 39.3033 15.3082 39.7503C15.3498 39.4327 15.3876 39.1151 15.4291 38.7936C14.8925 39.0014 14.4806 39.3974 14.2992 39.9699C14.1216 40.5306 14.2161 41.1501 14.5638 41.6128C15.3233 42.6361 16.8614 42.7498 17.9837 42.4989C18.6186 42.3577 18.3503 41.3501 17.7154 41.4912C17.2922 41.5853 16.8463 41.5971 16.4192 41.5147C16.0829 41.4481 15.7277 41.354 15.4707 41.107C15.0777 40.7266 15.1608 40.013 15.6975 39.8052C16.0867 39.6562 16.219 39.0877 15.8184 38.8485C14.9152 38.3074 13.9251 38.0172 12.8897 37.9349C12.6176 37.9153 12.3871 38.1898 12.3871 38.4564C12.3871 38.7583 12.6176 38.9583 12.8897 38.9779L12.8859 38.9818Z" fill="#222222"/>
<path d="M41.5232 53.6188C41.3607 54.454 41.134 55.2695 40.8959 56.0773C40.6578 56.885 40.4537 57.7005 40.2875 58.5318C40.1439 59.2493 39.834 59.9237 39.6375 60.6295C39.441 61.3314 39.2823 62.045 39.0631 62.7429C38.8439 63.4369 38.6852 64.1545 38.466 64.8485C38.3602 65.1818 38.0919 66.0522 37.7593 67.0481C37.5251 67.7539 37.2681 68.542 36.9658 69.2243C36.5803 70.1026 36.0513 70.7613 35.6356 71.0515C35.1443 71.3965 34.6795 71.1769 34.2752 69.7693C34.0409 68.9498 33.8557 68.1186 33.6252 67.2952C33.3947 66.4757 33.1641 65.6562 32.9412 64.8328C32.7182 64.0094 32.4386 63.2056 32.2307 62.3783C32.0267 61.5509 31.7962 60.7275 31.6148 59.8963C31.4296 59.065 31.422 58.1946 31.2671 57.3555C31.1122 56.5164 30.9119 55.6891 30.791 54.8422C30.7418 54.4971 30.6398 54.1089 30.7834 53.8031C30.9534 53.4384 31.8642 53.2502 32.7673 53.0973C33.6478 52.9483 34.5586 52.8974 34.876 52.8464C35.8548 52.6895 36.8222 52.4543 37.8009 52.2974C38.7797 52.1406 39.7584 51.9955 40.7372 51.8348C40.9752 51.7956 41.1982 51.8465 41.3871 52.0034C41.6101 52.1916 41.6026 52.47 41.5685 52.764C41.5345 53.0464 41.5685 53.3326 41.5156 53.607L41.5232 53.6188Z" fill="#FCFCFC"/>
<path d="M41.0391 53.4815C40.7103 55.1401 40.1624 56.7438 39.8072 58.3984C39.6333 59.1983 39.3046 59.9472 39.093 60.7392C38.8662 61.5822 38.6244 62.4135 38.3939 63.2526C38.0197 64.6092 37.604 65.9424 37.1619 67.2755C36.9087 68.0401 36.6593 68.8204 36.2663 69.5222C36.066 69.879 35.6541 70.5887 35.2611 70.6828C35.2082 70.6946 35.2649 70.6828 35.2951 70.6985C35.2384 70.671 35.2006 70.624 35.1628 70.5769C34.9588 70.326 34.8643 69.9457 34.7736 69.6438C34.5355 68.8282 34.3542 67.993 34.1236 67.1696C33.6664 65.5307 33.1524 63.9034 32.7292 62.2527C32.51 61.4019 32.272 60.5549 32.0943 59.6923C31.9281 58.8807 31.9092 58.0455 31.7656 57.23C31.6258 56.4418 31.4368 55.6655 31.3121 54.8774C31.2819 54.6852 31.1383 54.2265 31.2516 54.0618C31.3839 53.8697 31.9054 53.8148 32.1057 53.7717C32.9219 53.5874 33.7457 53.5089 34.5733 53.4227C35.382 53.3403 36.1756 53.1521 36.9692 52.9953C37.8875 52.8149 38.8133 52.6816 39.7392 52.5365C39.9848 52.4973 40.2304 52.4621 40.4723 52.4228C40.597 52.4032 40.9258 52.2935 41.0467 52.4032C41.1374 52.4895 41.0845 52.6699 41.0731 52.7836C41.0542 53.0149 41.0731 53.258 41.0391 53.4893C40.9446 54.1481 41.9158 54.4304 42.0103 53.7677C42.1123 53.0659 42.2862 52.0503 41.6513 51.572C41.3641 51.3563 41.0278 51.2936 40.6801 51.3407C40.1662 51.4073 39.656 51.5014 39.1459 51.5798C37.4189 51.8465 35.7108 52.2582 33.9763 52.4385C33.1109 52.5287 32.2153 52.6228 31.3763 52.8855C30.7075 53.0933 30.1935 53.4697 30.22 54.2618C30.2464 55.1636 30.5072 56.085 30.6848 56.9633C30.87 57.8848 30.9153 58.8179 31.0778 59.7394C31.4141 61.6646 32.0641 63.527 32.578 65.4013C32.8388 66.358 33.1222 67.3108 33.3716 68.2753C33.5984 69.1576 33.7571 70.1339 34.1917 70.9377C34.4486 71.4121 34.887 71.8199 35.4463 71.7101C35.9829 71.6042 36.4023 71.1141 36.7198 70.6867C37.7552 69.2987 38.1936 67.4284 38.7113 65.7855C38.9796 64.9307 39.2101 64.0681 39.4595 63.2094C39.7694 62.1508 40.015 61.0686 40.374 60.0295C40.7217 59.0218 40.9106 57.9828 41.1827 56.9555C41.4661 55.8929 41.7987 54.8499 42.0141 53.7638C42.1426 53.109 41.1714 52.8267 41.0429 53.4854L41.0391 53.4815Z" fill="#222222"/>
<path d="M42.8955 45.5336C43.5039 45.0199 44.0179 44.4279 44.5167 43.8319C45.0268 43.2281 45.5446 42.6321 45.9527 41.9537C46.3608 41.2754 46.7349 40.5696 47.041 39.8325C47.3471 39.0993 47.5021 38.3112 47.7137 37.5348C47.9215 36.7663 48.1029 35.9939 48.2163 35.2018C48.3296 34.4137 48.5262 33.6256 48.5526 32.8218C48.5828 32.0219 48.4392 31.2221 48.3901 30.4222C48.3372 29.6223 48.2805 28.8263 48.152 28.0382C48.0236 27.2462 47.8346 26.4698 47.6305 25.7013C47.4227 24.925 47.264 24.1329 46.9881 23.3958C46.7047 22.643 46.2777 21.9607 45.9224 21.2628C45.5634 20.5609 45.178 19.8787 44.6489 19.2984C44.1312 18.7298 43.5304 18.2358 42.8917 17.7731C42.272 17.3261 41.6144 16.9183 40.9191 16.5615C40.2351 16.2126 39.5398 15.8558 38.8218 15.5931C38.0925 15.3225 37.3215 15.2166 36.5922 15.0245C35.8251 14.8206 35.092 14.554 34.374 14.4285C33.5804 14.2913 32.7981 14.2913 32.0461 14.2521C31.245 14.209 30.4703 14.1815 29.7145 14.2442C28.9247 14.3109 28.1463 14.3932 27.4018 14.5736C26.6385 14.7579 25.8827 14.9853 25.1647 15.2872C24.4467 15.5852 23.7438 15.9499 23.0636 16.3616C22.3985 16.7615 21.8165 17.3065 21.1892 17.8084C20.5846 18.2907 19.9875 18.7965 19.4131 19.3729C18.8651 19.9218 18.355 20.5256 17.8335 21.153C17.3044 21.7921 16.8623 22.4704 16.4693 23.188C16.0725 23.9134 15.653 24.627 15.3885 25.4151C15.124 26.1954 15.0106 27.0266 14.8708 27.85C14.731 28.6617 14.576 29.4811 14.5534 30.3202C14.5307 31.1475 14.6554 31.971 14.7385 32.8061C14.8179 33.6295 14.9161 34.449 15.0938 35.2646C15.2714 36.0762 15.5208 36.8604 15.7853 37.6446C16.0536 38.4288 16.2577 39.2444 16.6091 39.9893C16.9643 40.7382 17.3725 41.4636 17.807 42.1576C18.2454 42.8595 18.6989 43.5574 19.2166 44.1848C19.7419 44.8239 20.4107 45.3062 21.0116 45.8512C21.62 46.404 22.168 47.0314 22.8444 47.4706C23.5246 47.9136 24.2691 48.2547 25.0135 48.5606C25.7542 48.8664 26.5251 49.1174 27.3224 49.2703C28.6753 49.533 29.3706 49.9329 29.7259 50.623C30.0849 51.3249 30.0357 52.3012 30.2322 53.501C30.425 54.7048 31.6116 55.5948 32.6319 56.0692C33.3121 56.3868 34.1586 56.5515 35.0844 56.5829C35.9044 56.6064 36.7585 56.5162 37.5861 56.3045C38.4326 56.0849 39.245 55.7909 39.9139 55.3125C40.6357 54.7949 41.1534 54.1127 41.4293 53.2814C41.6409 52.6384 41.7958 51.9993 41.7883 51.3445C41.7807 50.6858 41.6863 50.0192 41.5653 49.3722C41.4822 48.937 40.8549 46.9216 41.3575 46.6001C41.8941 46.259 42.4269 45.9296 42.8917 45.5336H42.8955Z" fill="#FADDD9"/>
<path d="M43.2497 45.9022C44.0773 45.1886 44.7878 44.326 45.4831 43.4712C46.1746 42.6165 46.7453 41.6793 47.2176 40.6756C48.1397 38.7269 48.4949 36.5076 48.8615 34.3903C49.058 33.2532 49.0618 32.2063 48.9484 31.0574C48.8388 29.9478 48.801 28.8382 48.6121 27.7364C48.4231 26.6346 48.1208 25.5485 47.8449 24.4663C47.5729 23.4076 47.1534 22.4666 46.6357 21.5138C46.1709 20.6512 45.7438 19.7768 45.1052 19.0357C44.4061 18.2241 43.5256 17.5575 42.6451 16.9694C41.7646 16.3852 40.8199 15.895 39.8638 15.4637C38.8888 15.0246 37.9063 14.8089 36.8822 14.5541C35.8316 14.2914 34.834 13.9228 33.7494 13.8169C32.6989 13.715 31.6181 13.6679 30.56 13.6797C28.4211 13.6993 26.2898 14.1698 24.3436 15.0834C23.3989 15.5265 22.5222 16.0519 21.7059 16.7184C20.8897 17.385 20.0583 18.0398 19.2949 18.7691C17.7418 20.263 16.4872 22.0039 15.4895 23.9369C14.9983 24.8897 14.7073 25.87 14.5259 26.9287C14.3332 28.0422 14.0913 29.1754 14.0611 30.3125C14.0308 31.4378 14.2047 32.5905 14.3445 33.7041C14.4843 34.8294 14.7148 35.9155 15.0549 36.9938C15.3837 38.0328 15.6823 39.115 16.1244 40.111C16.5552 41.0794 17.1107 41.993 17.6775 42.8792C18.233 43.7457 18.8226 44.5926 19.5821 45.2788C20.3304 45.9532 21.0673 46.6511 21.8231 47.3138C23.3422 48.6508 25.4206 49.3958 27.3479 49.8036C28.0054 49.9408 28.8141 50.1251 29.2185 50.7368C29.6568 51.4034 29.5926 52.4111 29.6909 53.1796C29.8118 54.1206 30.1708 54.8813 30.8661 55.5125C31.5085 56.1007 32.2908 56.5516 33.1108 56.8025C35.0305 57.3907 37.2563 57.1358 39.0891 56.3516C40.9143 55.5714 42.0065 54.0187 42.2559 51.9915C42.373 51.023 42.237 49.9801 42.0102 49.0351C41.8704 48.4509 41.6815 47.851 41.6701 47.2432C41.6701 47.1373 41.6739 47.0432 41.7004 46.9452C41.689 46.9962 41.6701 46.9883 41.6134 47.0432C41.7004 46.957 41.844 46.8982 41.946 46.8315C42.3957 46.5414 42.8341 46.2394 43.2497 45.8983C43.7561 45.4788 43.0381 44.7455 42.5355 45.1572C42.1274 45.4945 41.6777 45.765 41.2355 46.0552C40.9748 46.2277 40.7896 46.408 40.7065 46.7296C40.5629 47.2981 40.7178 47.9529 40.8388 48.5097C41.2053 50.1839 41.5756 51.8621 40.7972 53.4932C39.9734 55.2224 37.8949 55.8615 36.1755 56.0183C34.4485 56.1791 32.5515 55.8694 31.3044 54.5049C30.167 53.2619 30.9455 51.2779 29.9025 49.9604C29.4641 49.4037 28.799 49.1096 28.1452 48.9214C27.2345 48.6626 26.32 48.5058 25.4282 48.1607C24.5061 47.8039 23.5425 47.3844 22.7527 46.7609C22.0385 46.1963 21.4149 45.5023 20.7196 44.9102C19.2231 43.6359 18.1461 41.9028 17.2505 40.1384C16.7857 39.2209 16.5174 38.2367 16.1924 37.2643C15.8523 36.241 15.5613 35.2097 15.3988 34.1393C15.2363 33.0728 15.1079 31.971 15.0625 30.8928C15.0172 29.8027 15.2326 28.7401 15.4064 27.6736C15.5727 26.6581 15.7579 25.67 16.2075 24.7447C16.6421 23.8507 17.1334 22.9567 17.704 22.149C18.9019 20.4434 20.4286 19.1063 22.0044 17.7928C23.5878 16.4753 25.4055 15.6049 27.3743 15.1148C29.3507 14.6207 31.4103 14.6913 33.4207 14.8403C34.4448 14.9148 35.3857 15.2402 36.3758 15.5069C37.3546 15.7696 38.3333 15.9225 39.2705 16.3381C41.073 17.1341 42.9285 18.1692 44.2814 19.667C44.9087 20.3649 45.3055 21.2197 45.7514 22.0431C46.254 22.9685 46.6394 23.8664 46.8964 24.9015C47.142 25.8818 47.4179 26.8581 47.5993 27.8579C47.8034 28.9676 47.8298 30.0968 47.947 31.2182C48.0528 32.269 48.0339 33.2297 47.8525 34.2687C47.6673 35.3195 47.4897 36.3586 47.2176 37.3937C46.9569 38.3897 46.7188 39.3621 46.2691 40.2913C45.7967 41.2598 45.2412 42.1538 44.5572 42.9733C43.9186 43.7379 43.28 44.5103 42.5242 45.1572C42.0253 45.5886 42.7396 46.3257 43.2384 45.8983L43.2497 45.9022Z" fill="#222222"/>
<path d="M36.0923 19.0125C36.6251 19.6124 37.2449 20.126 37.789 20.7142C38.3332 21.3023 38.832 21.9414 39.4064 22.4982C39.9808 23.055 40.5628 23.6118 41.1863 24.1097C41.7418 24.5567 42.3578 24.9292 42.9624 25.3095C43.5671 25.6899 44.2095 25.9879 44.8594 26.2741C45.585 26.5956 46.9492 27.4347 47.773 27.2896C48.5477 27.1524 48.8236 26.4074 48.7102 25.4585C48.6271 24.7685 48.3247 23.9803 48.0527 23.2589C47.7088 22.3571 47.3498 21.5258 47.1155 21.1729C46.7414 20.6005 46.2123 20.1182 45.7097 19.6594C45.1958 19.185 44.6554 18.6949 43.979 18.5851" fill="#222222"/>
<path d="M35.7371 19.3808C36.4135 20.1258 37.1731 20.7727 37.8382 21.5334C38.4844 22.2744 39.1457 22.9763 39.8675 23.6429C40.6346 24.3526 41.4471 24.9682 42.3238 25.521C43.1287 26.0268 43.9601 26.415 44.8103 26.8228C45.9062 27.3443 47.6899 28.5206 48.7556 27.3286C49.9648 25.9798 48.7556 23.5958 48.1887 22.2313C47.807 21.3099 47.3725 20.5453 46.6658 19.8474C45.944 19.1338 45.1391 18.2829 44.1188 18.0829C43.4839 17.9575 43.2118 18.9651 43.8505 19.0906C44.6365 19.2435 45.2223 19.8866 45.7929 20.4316C46.3484 20.9609 46.7641 21.5059 47.0853 22.2117C47.4405 23.0038 47.7693 23.8272 48.0224 24.6623C48.1812 25.1799 48.4646 26.1327 48.0338 26.6032C47.671 26.9992 46.9832 26.6895 46.5827 26.5248C45.9894 26.2817 45.4225 25.9641 44.8406 25.7014C43.2383 24.9799 41.7645 24.0075 40.4608 22.7959C39.7655 22.149 39.1306 21.4589 38.4995 20.7414C37.8533 20.0042 37.1089 19.3729 36.4475 18.6476C36.0016 18.1574 35.2912 18.8985 35.7333 19.3886L35.7371 19.3808Z" fill="#222222"/>
<path d="M22.216 22.2668C22.0044 23.1137 21.7021 23.9371 21.4564 24.7762C21.2108 25.6153 20.9765 26.4583 20.6931 27.2817C20.4097 28.1051 20.0696 28.9089 19.7483 29.7206C19.4309 30.5322 19.0946 31.336 18.7393 32.1281C18.3879 32.924 18.0592 33.7317 17.6699 34.512C17.1409 35.5707 16.4304 36.7117 15.3307 37.0528C15.1607 37.1038 14.9415 37.1587 14.779 37.0881C14.5145 36.9705 14.4351 36.5784 14.3784 36.2843C14.2273 35.5001 14.0157 34.5159 13.9061 33.4729C13.804 32.5319 13.8569 31.5477 13.9061 30.6224C13.9628 29.5794 14.1101 28.6188 14.5145 27.8816C14.9302 27.117 15.5839 26.3956 16.3397 25.7133C17.0313 25.0899 17.7455 24.4194 18.5202 23.8901C19.3629 23.3137 20.2207 22.8393 20.9274 22.404C21.6038 21.9884 22.2727 21.5375 22.9793 21.1807C23.686 20.8239 24.472 20.6435 25.2052 20.3455C25.9383 20.0475 26.6714 19.7535 27.4234 19.5182C28.1754 19.2829 28.9161 18.981 29.687 18.8085C30.4579 18.636 31.2477 18.5811 32.0299 18.4752C32.8122 18.3694 33.5906 18.2753 34.3804 18.24C35.1665 18.2047 35.9563 18.1576 36.7423 18.1929C37.4565 18.2243 38.3899 18.5536 38.371 19.2947C38.3635 19.5535 38.2123 19.777 38.0763 19.9926C37.6681 20.6435 37.2449 21.2826 36.7499 21.8629C36.2548 22.4433 35.6691 22.9295 35.1022 23.4313C34.5354 23.9332 34.0177 24.5214 33.3866 24.937C32.7555 25.3526 32.0148 25.5604 31.3308 25.8741C30.7715 26.1329 30.0838 26.3485 29.7286 25.831C29.5698 25.5957 29.551 25.3291 29.5736 25.0429C29.6303 24.2547 29.8079 23.4902 30.2425 22.8432C29.755 23.3255 29.3166 23.7999 28.8292 24.2822C28.3417 24.7645 27.8958 25.2899 27.4121 25.7722C26.9246 26.2544 26.3577 26.6465 25.8702 27.1288C25.2618 27.7326 24.6912 28.4463 23.909 28.7756C23.1267 29.105 22.0988 29.054 21.4867 28.458C20.8707 27.8581 20.9047 26.5995 21.6491 26.1878C21.2335 26.9524 20.7989 27.7013 20.3719 28.458C19.9411 29.2148 19.5896 30.0186 19.1437 30.7675C18.7016 31.5164 18.2292 32.2496 17.7757 32.9867C17.3222 33.7239 16.8877 34.4846 16.4153 35.2139C15.9127 35.9981 14.847 36.896 14.1101 36.3509C13.804 36.1235 13.6907 35.653 13.6 35.2766C13.3997 34.4414 13.2788 33.6533 13.275 32.9083C13.2712 32.0888 13.3808 31.3007 13.5395 30.5322C13.6982 29.7676 14.0081 29.0383 14.2575 28.2659C14.488 27.5405 14.6732 26.772 14.9188 25.9839" fill="#222222"/>
<path d="M21.7326 22.1257C21.4492 23.2353 21.0637 24.3175 20.7425 25.4193C20.4213 26.5211 20.0548 27.5994 19.6277 28.6659C19.2007 29.7363 18.7737 30.8067 18.3089 31.8615C17.8705 32.8535 17.4737 33.8729 16.9409 34.8139C16.5668 35.4766 15.9244 36.4882 15.0968 36.5745C14.9305 36.5941 15.059 36.6568 14.9721 36.5549C14.9418 36.5196 14.9267 36.3941 14.9116 36.3431C14.8587 36.1275 14.8209 35.904 14.7793 35.6844C14.6773 35.1708 14.5791 34.6532 14.4997 34.1356C14.3296 33.0142 14.3448 31.9007 14.4052 30.7675C14.4619 29.7676 14.5639 28.756 15.093 27.8934C15.6598 26.9681 16.4912 26.2545 17.281 25.5448C18.1199 24.7919 19.008 24.1528 19.9678 23.5725C20.871 23.0275 21.7629 22.4511 22.6774 21.9257C23.6145 21.3846 24.6424 21.1219 25.6363 20.722C26.6641 20.3063 27.7109 19.9574 28.7615 19.6084C29.8385 19.2516 30.9193 19.134 32.0303 18.9889C33.1262 18.8477 34.2183 18.7536 35.3255 18.7105C35.8432 18.6909 36.3874 18.6517 36.9013 18.7184C37.1658 18.7536 37.676 18.8399 37.8272 19.1183C38.0086 19.4477 37.4002 20.1064 37.2263 20.3652C36.8824 20.8827 36.5121 21.3807 36.0889 21.8238C35.6656 22.2629 35.2008 22.6511 34.7473 23.0549C34.3392 23.4196 33.9613 23.8235 33.5419 24.1724C33.111 24.5332 32.6273 24.7763 32.1134 24.9841C31.6335 25.1801 31.1498 25.4389 30.6509 25.5722C30.5036 25.6114 30.2806 25.6742 30.1597 25.5448C29.9896 25.3644 30.0803 24.9566 30.1068 24.7449C30.1824 24.1489 30.36 23.6039 30.6812 23.102C31.0062 22.5962 30.2919 22.0669 29.8914 22.4668C29.026 23.3333 28.1871 24.2273 27.3368 25.1095C26.9362 25.5252 26.5016 25.8859 26.0633 26.2584C25.6287 26.623 25.247 27.0347 24.8465 27.4347C24.17 28.113 23.2895 28.6894 22.3108 28.3483C21.9253 28.2149 21.6306 27.9366 21.5701 27.5053C21.521 27.168 21.6117 26.8034 21.9027 26.623C21.6721 26.3839 21.4416 26.1447 21.2149 25.9094C20.4591 27.2935 19.7033 28.6776 18.9513 30.0656C18.2106 31.4262 17.3415 32.7162 16.5403 34.0376C16.1927 34.614 15.8639 35.2296 15.3386 35.6491C14.9192 35.9863 14.409 36.1824 14.1936 35.5393C13.7212 34.1356 13.6759 32.5711 13.9329 31.1204C14.0878 30.2539 14.3863 29.45 14.6622 28.6227C14.9381 27.7954 15.1421 26.9446 15.3991 26.1133C15.5956 25.4703 14.6244 25.1958 14.4279 25.8349C14.1634 26.6936 13.9555 27.5719 13.6645 28.4228C13.3925 29.2266 13.109 30.0068 12.9617 30.8459C12.6707 32.4966 12.6896 34.2846 13.2413 35.8804C13.4718 36.547 13.9593 37.0567 14.6849 37.0254C15.3348 36.9979 15.9319 36.5549 16.3665 36.0883C16.9107 35.504 17.2923 34.759 17.7042 34.0768C18.1653 33.3083 18.6452 32.5515 19.1138 31.787C19.6428 30.9283 20.0963 30.0343 20.5687 29.1403C21.0524 28.2267 21.589 27.3445 22.0803 26.4387C22.3259 25.9878 21.8309 25.4507 21.3925 25.7251C20.4591 26.3015 20.3042 27.6739 20.9201 28.56C21.6381 29.5912 23.1157 29.6853 24.1625 29.2148C24.7785 28.9403 25.2773 28.4659 25.7497 27.9797C26.256 27.4582 26.7888 26.9994 27.3368 26.5289C27.9263 26.0231 28.4289 25.4271 28.9655 24.8704C29.5059 24.3136 30.0501 23.7568 30.598 23.2079C30.3335 22.9961 30.069 22.7844 29.8082 22.5727C29.4984 23.0549 29.2905 23.6 29.1809 24.1685C29.0713 24.737 28.9504 25.4311 29.2263 25.9682C29.8007 27.0857 30.9986 26.5603 31.8526 26.2035C32.3704 25.9878 32.907 25.8035 33.3982 25.5252C33.8895 25.2468 34.3165 24.8704 34.7284 24.4783C35.6316 23.6235 36.6255 22.855 37.3964 21.8669C37.7667 21.3885 38.1068 20.8866 38.4318 20.373C38.7266 19.9064 38.9986 19.4241 38.8135 18.8477C38.5149 17.9224 37.4115 17.6793 36.5877 17.6479C35.2839 17.6048 33.9537 17.6989 32.6576 17.8557C31.4218 18.0087 30.1483 18.091 28.9466 18.4478C27.6882 18.8242 26.4412 19.2712 25.2206 19.7613C24.6651 19.9848 24.0907 20.1534 23.5276 20.3652C22.9041 20.5965 22.3259 20.9102 21.7553 21.2591C20.7236 21.8865 19.6807 22.4982 18.6641 23.153C17.572 23.8627 16.5743 24.737 15.6334 25.6506C14.8247 26.4309 14.0727 27.3366 13.7326 28.4463C13.3698 29.6265 13.3509 30.9596 13.3433 32.1869C13.3396 33.4847 13.5663 34.7551 13.8157 36.0216C13.8951 36.4294 13.9442 36.8803 14.1898 37.2214C14.5337 37.6959 15.0817 37.6841 15.5805 37.5037C16.7066 37.092 17.4435 36.0373 17.9877 34.9904C18.6528 33.7161 19.2007 32.3594 19.7524 31.0302C20.3306 29.6343 20.9239 28.2306 21.3774 26.7877C21.8347 25.337 22.3184 23.8705 22.7 22.3962C22.8663 21.7453 21.8951 21.467 21.7288 22.1178L21.7326 22.1257Z" fill="#222222"/>
<path d="M38.6509 32.5161C38.5565 32.9984 38.1597 33.2885 37.6949 33.1905C37.2301 33.0925 36.9806 32.6651 37.0751 32.1828C37.1696 31.7005 37.5777 31.3045 38.0425 31.4025C38.5073 31.5005 38.7454 32.0338 38.6509 32.5161Z" fill="#222222"/>
<path d="M38.1634 32.375C38.1558 32.4142 38.1445 32.4573 38.1332 32.4965C38.118 32.5475 38.0803 32.5828 38.1483 32.4612C38.137 32.4769 38.1332 32.4965 38.1218 32.5122C38.1029 32.5475 38.0803 32.5749 38.0614 32.6102C38.0311 32.6612 38.1445 32.5083 38.0916 32.5671C38.0765 32.5828 38.0614 32.5985 38.0463 32.6141C38.0349 32.6259 38.0198 32.6377 38.0047 32.6494C37.9631 32.6926 38.1105 32.571 38.0463 32.6141C38.016 32.6338 37.9858 32.6534 37.9556 32.669C37.8838 32.7122 38.0765 32.6259 37.9971 32.6494C37.9782 32.6534 37.9631 32.6612 37.9442 32.6651C37.9064 32.6769 37.8649 32.6847 37.8271 32.6886C37.8724 32.6808 37.9178 32.6769 37.9593 32.669C37.8913 32.6769 37.8233 32.6769 37.7515 32.669C37.7968 32.6769 37.8422 32.6808 37.8838 32.6886C37.8384 32.6808 37.7968 32.673 37.7553 32.6612C37.7364 32.6573 37.7175 32.6494 37.6986 32.6416C37.6117 32.6181 37.812 32.7004 37.7326 32.6573C37.6948 32.6377 37.6608 32.6181 37.6268 32.5945C37.5474 32.5436 37.6721 32.6259 37.6684 32.6298C37.6684 32.6298 37.623 32.5867 37.6192 32.5867C37.6079 32.5749 37.5966 32.5593 37.5814 32.5475C37.521 32.4808 37.6192 32.5867 37.6154 32.5945C37.6154 32.5945 37.555 32.4887 37.5512 32.4808C37.5134 32.4103 37.589 32.5906 37.5739 32.5357C37.5701 32.5161 37.5626 32.5004 37.5588 32.4808C37.5474 32.4377 37.5399 32.3906 37.5323 32.3475C37.5399 32.3946 37.5437 32.4416 37.5512 32.4848C37.5437 32.4063 37.5437 32.3279 37.5512 32.2456C37.5437 32.2926 37.5399 32.3397 37.5323 32.3828C37.5399 32.3318 37.5474 32.2848 37.5625 32.2338C37.5701 32.2103 37.5777 32.1868 37.5852 32.1632C37.6003 32.1162 37.6457 32.073 37.5701 32.1946C37.5928 32.1554 37.6079 32.1123 37.6343 32.0731C37.6457 32.0534 37.6608 32.0338 37.6759 32.0103C37.7062 31.9633 37.589 32.1201 37.657 32.0378C37.6872 32.0025 37.7175 31.975 37.7477 31.9437C37.812 31.8809 37.6457 32.0142 37.7175 31.9672C37.7364 31.9554 37.7553 31.9397 37.7742 31.928C37.7742 31.928 37.8309 31.8927 37.8346 31.8966C37.8309 31.8966 37.6948 31.9515 37.7968 31.9123C37.8384 31.8966 37.8838 31.8888 37.9291 31.8809C37.8838 31.8888 37.8384 31.8927 37.7968 31.9005C37.8611 31.8927 37.9216 31.8927 37.982 31.9005C37.9367 31.8927 37.8913 31.8888 37.8497 31.8809C37.8913 31.8888 37.9329 31.9005 37.9745 31.9084C38.0651 31.9358 37.9253 31.8888 37.9291 31.8848C37.9291 31.8848 37.9858 31.9123 37.9896 31.9162C38.0085 31.928 38.0274 31.9397 38.0463 31.9515C38.1105 31.9946 37.9631 31.877 38.0047 31.9162C38.0311 31.9437 38.0614 31.975 38.0878 32.0025C38.1407 32.0613 38.0273 31.9084 38.0576 31.9593C38.0689 31.975 38.0765 31.9907 38.0878 32.0064C38.0992 32.026 38.1105 32.0456 38.1218 32.0652C38.1407 32.1044 38.1558 32.1789 38.1067 32.026C38.1332 32.1083 38.1558 32.1868 38.171 32.273C38.1634 32.226 38.1596 32.1789 38.1521 32.1358C38.1634 32.2299 38.1634 32.3279 38.1521 32.422C38.1596 32.375 38.1634 32.3279 38.171 32.2848C38.171 32.3083 38.1634 32.3318 38.1596 32.3554C38.1332 32.4965 38.1407 32.6298 38.2087 32.7592C38.2692 32.869 38.3901 32.971 38.5111 32.9984C38.7605 33.0572 39.0779 32.92 39.1308 32.6338C39.2328 32.077 39.0893 31.4731 38.6433 31.1163C38.4242 30.9399 38.1445 30.8301 37.8611 30.8458C37.5474 30.8615 37.2753 30.9909 37.041 31.2026C36.6367 31.5672 36.4515 32.2064 36.5951 32.7396C36.7501 33.3199 37.264 33.6885 37.8309 33.712C38.4544 33.7395 39.0023 33.2572 39.1308 32.6338C39.1875 32.3671 39.0552 32.0574 38.7794 31.9907C38.5262 31.9319 38.2201 32.0691 38.1596 32.3554L38.1634 32.375Z" fill="#222222"/>
<path d="M27.7901 34.6727C27.6956 35.155 27.1665 35.5393 26.7017 35.4452C26.2369 35.3472 25.8968 34.7786 25.9913 34.2963C26.0858 33.814 26.5808 33.5788 27.0456 33.6768C27.5104 33.7748 27.8808 34.1944 27.7863 34.6727H27.7901Z" fill="#222222"/>
<path d="M27.3024 34.5354C27.291 34.5825 27.2797 34.6217 27.2646 34.6687C27.2457 34.7275 27.3213 34.5511 27.2797 34.6256C27.2684 34.6491 27.257 34.6687 27.2457 34.6922C27.2457 34.7001 27.2041 34.7511 27.2041 34.755C27.2041 34.7432 27.291 34.6452 27.2306 34.7197C27.2003 34.755 27.1701 34.7903 27.1361 34.8216C27.121 34.8373 27.0605 34.8883 27.1285 34.8295C27.2003 34.7746 27.1361 34.8216 27.1172 34.8334C27.0756 34.8609 27.0303 34.8844 26.9887 34.9118C26.9169 34.951 27.087 34.8765 27.0303 34.8961C27.0114 34.904 26.9925 34.9118 26.9736 34.9157C26.9283 34.9314 26.8791 34.9432 26.83 34.951C26.8754 34.9432 26.9207 34.9393 26.9623 34.9314C26.8905 34.9393 26.8187 34.9432 26.7469 34.9314C26.7922 34.9393 26.8376 34.9432 26.8791 34.951C26.83 34.9432 26.7884 34.9314 26.7393 34.9157C26.66 34.8922 26.8527 34.9746 26.7733 34.9314C26.7544 34.9236 26.7393 34.9118 26.7204 34.904C26.7015 34.8922 26.6788 34.8765 26.6599 34.8648C26.5844 34.8177 26.6902 34.8765 26.694 34.8922C26.694 34.8844 26.6486 34.8491 26.6411 34.8412C26.6222 34.8256 26.607 34.806 26.5919 34.7863C26.5617 34.7511 26.5428 34.6883 26.6108 34.8138C26.5995 34.7942 26.5881 34.7785 26.5768 34.7628C26.5503 34.7236 26.5315 34.6805 26.5088 34.6413C26.4634 34.555 26.5504 34.7628 26.5201 34.6726C26.5126 34.6491 26.505 34.6256 26.4975 34.6021C26.4823 34.555 26.4748 34.504 26.4672 34.457C26.4748 34.504 26.4785 34.5511 26.4861 34.5942C26.4748 34.5119 26.4748 34.4295 26.4861 34.3472L26.4672 34.4844C26.4748 34.4413 26.4823 34.4021 26.4937 34.3629C26.5126 34.3041 26.5428 34.2923 26.4786 34.3943C26.4861 34.3825 26.4937 34.3668 26.5012 34.3511C26.5126 34.3315 26.5239 34.3119 26.539 34.2884C26.5768 34.2257 26.5012 34.3394 26.5012 34.3354C26.5012 34.3119 26.5768 34.257 26.5881 34.2413C26.6184 34.206 26.4786 34.3198 26.5504 34.2727C26.5655 34.2609 26.5806 34.2492 26.5995 34.2413C26.6146 34.2296 26.6335 34.2217 26.6486 34.2139C26.6675 34.2021 26.7355 34.1747 26.6486 34.2139C26.5579 34.2531 26.6864 34.2021 26.7091 34.1982C26.7506 34.1864 26.796 34.1786 26.8375 34.1708C26.7922 34.1786 26.7469 34.1825 26.7053 34.1904C26.796 34.1786 26.8829 34.1786 26.9736 34.1904C26.9283 34.1825 26.8829 34.1786 26.8413 34.1708C26.8867 34.1786 26.932 34.1864 26.9774 34.1982C27.0265 34.21 27.1625 34.2805 27.0152 34.2021C27.0567 34.2257 27.0983 34.2453 27.1361 34.2688C27.155 34.2805 27.1701 34.2923 27.189 34.3041C27.2684 34.355 27.0983 34.2178 27.1663 34.2845C27.1966 34.3119 27.223 34.3433 27.2532 34.3746C27.3175 34.4413 27.1852 34.2688 27.2344 34.3472C27.2457 34.3668 27.2608 34.3864 27.2721 34.4099C27.2835 34.4256 27.291 34.4452 27.2986 34.4648C27.3288 34.5158 27.257 34.3394 27.2797 34.4178C27.2948 34.4648 27.3061 34.5119 27.3137 34.5589C27.3061 34.5119 27.3024 34.4648 27.2948 34.4217C27.3024 34.4884 27.3024 34.555 27.2948 34.6256C27.3024 34.5785 27.3061 34.5315 27.3137 34.4884C27.3137 34.504 27.3099 34.5236 27.3062 34.5393C27.2797 34.6805 27.2835 34.8138 27.3553 34.9432C27.4157 35.053 27.5367 35.1549 27.6576 35.1824C27.9032 35.2412 28.2244 35.1039 28.2773 34.8177C28.334 34.4923 28.3038 34.1747 28.1413 33.8845C28.0052 33.6453 27.7898 33.4336 27.548 33.316C27.0038 33.0494 26.3765 33.0886 25.9042 33.4924C24.9632 34.2962 25.719 36.0567 26.898 35.9901C27.5291 35.9548 28.1413 35.4764 28.2811 34.8216C28.3378 34.555 28.2055 34.2453 27.9297 34.1786C27.6765 34.1198 27.3704 34.257 27.3099 34.5433L27.3024 34.5354Z" fill="#222222"/>
<path d="M32.8045 49.6585C32.1054 49.7252 31.4063 49.7369 30.6997 49.6977C30.0195 49.6585 29.2712 49.5526 28.5494 49.5252C29.3506 49.7212 29.6264 50.427 29.7776 51.2034C29.9288 51.9836 30.061 52.7129 30.6997 53.0501C31.3421 53.3874 32.3284 53.1874 33.292 52.6855C34.233 52.1954 35.0757 51.4504 35.5556 51.0818C36.1262 50.6427 37.2373 49.9761 36.7989 49.0978C36.421 48.3411 35.5934 48.7567 34.9812 49.0115C34.2254 49.3252 33.5263 49.5879 32.8008 49.6585H32.8045Z" fill="#222222"/>
<path d="M32.8052 49.1371C31.3692 49.2665 29.9823 49.0705 28.5501 49.0038C27.9757 48.9764 27.8737 49.8743 28.4178 50.0311C28.9734 50.1919 29.1547 50.6898 29.2719 51.2309C29.4004 51.823 29.4873 52.4503 29.8425 52.9561C30.7117 54.1834 32.3706 53.7364 33.4816 53.1796C34.5397 52.6464 35.4769 51.8308 36.4065 51.0937C36.8071 50.7761 37.2266 50.3879 37.3626 49.8625C37.5062 49.3057 37.2833 48.647 36.8033 48.3412C36.297 48.0196 35.6923 48.1726 35.1784 48.3804C34.4075 48.6901 33.6403 49.0469 32.8128 49.141C32.1741 49.2116 32.1665 50.2585 32.8128 50.1879C33.4325 50.1174 34.022 49.9566 34.6078 49.7331C35.0537 49.5645 35.5109 49.294 35.9833 49.2116C36.3121 49.1528 36.5086 49.4037 36.3385 49.7174C36.1496 50.0664 35.7604 50.3056 35.4543 50.5291C34.5964 51.1643 33.8066 51.8975 32.8354 52.3445C32.3366 52.5719 31.7093 52.7954 31.1576 52.666C30.6663 52.5484 30.5038 52.0935 30.3942 51.6387C30.1259 50.5173 29.9256 49.3763 28.6937 49.0234C28.6484 49.3645 28.603 49.7096 28.5614 50.0507C29.9937 50.1134 31.3805 50.3095 32.8165 50.184C33.459 50.1252 33.4627 49.0822 32.8165 49.1371H32.8052Z" fill="#222222"/>
<path d="M43.2158 40.2365C44.221 40.0482 44.9239 39.3934 45.3207 38.6289C45.7477 37.8094 45.8724 36.786 45.5663 35.9077C45.2791 35.0882 44.5838 34.4726 43.6164 34.1354C43.2687 34.0139 42.9286 33.9354 42.5621 33.9472C41.5455 33.9825 40.7671 34.3119 40.2909 34.9039C39.7505 35.5744 39.5842 36.5154 39.6787 37.3898C39.7694 38.2642 40.1246 39.1425 40.7897 39.6836C41.3793 40.1659 42.222 40.4168 43.2196 40.2325L43.2158 40.2365Z" fill="#FFA394"/>
<path d="M24.2268 44.2791C25.232 44.0909 25.9614 43.491 26.3619 42.7225C26.7889 41.903 26.8796 40.8718 26.5698 39.9974C26.2826 39.1779 25.6363 38.4447 24.6689 38.1114C24.3213 37.9899 23.9396 37.884 23.573 37.8997C22.5565 37.935 21.7894 38.4055 21.3095 38.9976C20.7691 39.668 20.6141 40.6012 20.7086 41.4756C20.7993 42.35 21.1432 43.2244 21.8083 43.7655C22.3978 44.2477 23.2292 44.4634 24.2268 44.2791Z" fill="#FFA394"/>
<path d="M31.1839 33.9826C31.4408 34.3708 31.815 34.4178 32.1815 34.657C32.3138 34.7433 32.5368 34.9158 32.6312 34.7903C32.6879 34.7158 32.5216 34.559 32.5179 34.461C32.4839 33.6689 32.4763 32.873 32.3478 32.0927C32.2118 31.2654 31.5996 32.3985 31.4484 32.6613C31.2179 33.0573 30.8967 33.5474 31.1877 33.9826H31.1839Z" fill="#222222"/>
<path d="M30.7487 34.2453C30.9716 34.5668 31.2475 34.7629 31.5914 34.9275C31.8748 35.0608 32.1393 35.304 32.453 35.3471C32.744 35.3863 33.0425 35.2177 33.1256 34.9119C33.1861 34.6923 33.103 34.4727 32.9858 34.2923C32.9631 34.2571 32.9669 34.2139 33.0047 34.3433C33.0463 34.4884 33.0161 34.3433 33.0123 34.3041C33.0085 34.1982 33.0047 34.0924 33.0009 33.9865C32.9934 33.7748 32.9858 33.563 32.9745 33.3513C32.9518 32.9161 32.914 32.4848 32.8498 32.0574C32.8007 31.728 32.6646 31.3869 32.3207 31.2928C31.7803 31.1438 31.3987 31.7476 31.1568 32.1476C30.7827 32.7671 30.3065 33.5278 30.7487 34.2453C30.8923 34.4766 31.2022 34.5903 31.4365 34.4335C31.6594 34.2845 31.769 33.963 31.6178 33.7199C31.6178 33.7199 31.5498 33.5905 31.5801 33.6611C31.6103 33.7277 31.5649 33.6101 31.5649 33.6023C31.5649 33.6023 31.5649 33.7316 31.5687 33.6179C31.5687 33.6022 31.5649 33.5395 31.5687 33.5356C31.5612 33.5395 31.546 33.6297 31.5687 33.5513C31.58 33.516 31.5876 33.4807 31.599 33.4493C31.6065 33.4219 31.6443 33.3317 31.599 33.4297C31.6141 33.3944 31.6292 33.3631 31.6443 33.3278C31.7312 33.1513 31.837 32.9827 31.9353 32.8102C32.0109 32.6808 32.0864 32.5514 32.1734 32.4299C32.1847 32.4142 32.1922 32.4024 32.2036 32.3867C32.2414 32.3319 32.1167 32.4926 32.1771 32.422C32.1998 32.3985 32.2187 32.3711 32.2376 32.3475C32.2603 32.324 32.2829 32.3005 32.3056 32.273C32.3736 32.1985 32.196 32.3671 32.3018 32.277C32.3547 32.2338 32.162 32.324 32.2527 32.3005C32.1053 32.3397 32.026 32.3083 31.9126 32.2299C31.9013 32.2181 31.8861 32.2103 31.8748 32.1985C31.9088 32.2338 31.8899 32.2103 31.8257 32.1319C31.8332 32.1436 31.837 32.1554 31.8446 32.1672C31.769 32.0143 31.8257 32.1358 31.8408 32.1946C31.8559 32.2652 31.8635 32.3397 31.8748 32.4103C31.8899 32.5083 31.8597 32.2887 31.8824 32.4534C31.8862 32.4887 31.8899 32.524 31.8937 32.5593C31.9126 32.724 31.9277 32.8926 31.939 33.0572C31.9617 33.3827 31.9731 33.7081 31.9844 34.0336C31.992 34.2178 31.9806 34.4178 32.0184 34.5943C32.0449 34.708 32.1015 34.8177 32.162 34.9158C32.1658 34.9236 32.1696 34.9315 32.1734 34.9393C32.1356 34.4962 32.2489 34.2884 32.5135 34.3159C32.6155 34.3237 32.6382 34.3198 32.5815 34.308C32.6457 34.3394 32.6646 34.3472 32.6268 34.3276C32.5852 34.2923 32.5286 34.2688 32.4832 34.2374C32.3698 34.1629 32.2565 34.0963 32.1356 34.0375C32.0222 33.9826 31.9051 33.9316 31.7955 33.865C31.769 33.8493 31.7426 33.8336 31.7161 33.814C31.6632 33.7787 31.6594 33.7905 31.7123 33.814C31.6859 33.8022 31.6594 33.7669 31.6405 33.7473C31.6216 33.7277 31.5385 33.614 31.599 33.7042C31.444 33.4807 31.153 33.3552 30.9112 33.516C30.6996 33.6571 30.5673 33.9943 30.7298 34.2296L30.7487 34.2453Z" fill="#222222"/>
<path d="M36.8899 37.1627C37.1393 37.0803 37.4718 36.8568 37.6759 37.0294C37.8006 37.1352 37.861 37.3626 37.9026 37.5234C38.0802 38.2684 38.1482 39.1271 38.016 39.9113C37.8799 40.6994 37.5436 41.4875 37.0108 42.0639C36.5006 42.6167 35.673 42.852 34.8719 42.9187C34.0821 42.9853 33.2545 42.8167 32.6083 42.5893C31.6636 42.256 30.8171 41.6443 30.1369 40.8837C29.8157 40.5229 29.5096 40.0015 29.6985 39.5545C29.8383 39.2251 30.1746 38.9898 30.4996 38.8683C31.1912 38.6095 31.8979 38.3899 32.6045 38.19C33.3112 37.99 34.0405 37.8763 34.751 37.6842C35.4576 37.492 36.1945 37.394 36.8936 37.1588L36.8899 37.1627Z" fill="#FCFCFC"/>
<path d="M37.0224 37.6683C37.1395 37.6252 37.2718 37.5821 37.3814 37.5233C37.4759 37.4723 37.4041 37.5076 37.355 37.4488C37.3776 37.4762 37.3965 37.5742 37.4003 37.6095C37.4608 37.9507 37.5401 38.2761 37.5628 38.6251C37.6081 39.323 37.5363 40.017 37.2794 40.6679C37.0526 41.2403 36.6936 41.7854 36.1457 42.0677C35.5977 42.3461 34.944 42.4323 34.3431 42.4127C33.0583 42.3696 31.815 41.8167 30.8741 40.9188C30.5264 40.5895 29.797 39.9464 30.3828 39.5151C30.6284 39.3348 30.9459 39.2603 31.2255 39.1622C31.5732 39.0446 31.9284 38.9348 32.2798 38.8289C33.8405 38.3702 35.473 38.1663 37.0224 37.6683C37.6384 37.4684 37.3776 36.4607 36.7541 36.6607C35.8358 36.9547 34.8646 37.1429 33.9237 37.3507C32.9714 37.5625 32.0342 37.7938 31.1084 38.1036C30.3904 38.3428 29.4947 38.5976 29.2075 39.421C28.909 40.2758 29.5476 41.0639 30.1107 41.6089C31.3351 42.8009 33.0205 43.538 34.7172 43.4557C35.4957 43.4165 36.3309 43.24 36.9808 42.7695C37.6573 42.2794 38.0994 41.4756 38.3488 40.6757C38.6511 39.7073 38.6398 38.6603 38.4471 37.6723C38.3715 37.2802 38.2732 36.8175 37.9294 36.5822C37.5439 36.3195 37.1358 36.5195 36.7541 36.6646C36.1495 36.892 36.4102 37.9036 37.0224 37.6723V37.6683Z" fill="#222222"/>
<path d="M78.4543 22.4511C77.7249 22.8157 77.022 23.247 76.2852 23.596C75.5483 23.9449 74.8189 24.3174 74.0782 24.6586C73.3376 24.9997 72.544 25.2193 71.8033 25.5565C71.0589 25.8898 70.3446 26.2897 69.5964 26.623C69.3168 26.7484 68.9464 26.9719 69.0484 27.2699C69.0862 27.3836 69.1694 27.5013 69.2601 27.5718C69.876 28.0384 70.6356 28.2815 71.4027 28.4658C72.1472 28.6462 72.9294 28.7364 73.7003 28.6776C74.4901 28.6187 75.2422 28.3835 75.9375 28.1051C76.595 27.8424 77.279 27.5915 77.8383 27.1484C78.3976 26.7053 78.9077 26.1603 79.331 25.5761C79.7542 24.9918 80.1057 24.3253 80.3551 23.643C80.476 23.3137 80.4647 22.9294 80.3135 22.6118C80.1548 22.2825 79.8109 22.0511 79.4557 22.0746C79.1005 22.0982 78.7679 22.2981 78.4505 22.455L78.4543 22.4511Z" fill="#222222"/>
<path d="M78.1976 22C77.2264 22.4941 76.2741 23.0234 75.2953 23.5018C74.2864 23.9958 73.2774 24.4193 72.2344 24.8192C71.2178 25.2113 70.2126 25.7132 69.249 26.219C68.924 26.3876 68.6104 26.6464 68.5499 27.0346C68.4668 27.56 68.856 27.9364 69.249 28.1873C70.0917 28.7284 71.1271 28.9833 72.0983 29.1245C73.1527 29.2774 74.1957 29.2186 75.2198 28.9088C76.1494 28.6304 77.1886 28.2579 77.9897 27.6776C78.7947 27.0934 79.4824 26.317 80.0228 25.4701C80.5556 24.6349 81.2321 23.4743 80.8088 22.4588C80.6161 21.9883 80.208 21.6393 79.7167 21.5609C79.1726 21.4707 78.6775 21.753 78.2051 21.9922C77.6232 22.2902 78.1333 23.192 78.7153 22.894C78.976 22.7607 79.3615 22.4823 79.6638 22.6196C80.019 22.7842 79.9623 23.2587 79.8528 23.5606C79.5882 24.2977 79.165 24.9996 78.6737 25.5995C78.1636 26.219 77.5816 26.7797 76.8712 27.1444C76.1758 27.5012 75.4049 27.7913 74.6529 27.9835C73.8064 28.203 72.9297 28.2187 72.0719 28.0697C71.3048 27.9325 70.4961 27.7364 69.8234 27.3208C69.7592 27.2816 69.6571 27.1679 69.5929 27.16C69.5778 27.1444 69.5589 27.1326 69.5438 27.1169C69.472 27.2816 69.472 27.3286 69.5362 27.2581C69.574 27.2659 69.8801 27.062 69.933 27.0385C70.3525 26.8425 70.7681 26.6346 71.1801 26.4307C71.9434 26.0504 72.7181 25.7563 73.5117 25.4544C75.3142 24.7683 76.9921 23.7723 78.7153 22.9019C79.2972 22.6078 78.7871 21.706 78.2051 22H78.1976Z" fill="#222222"/>
<path d="M82.3618 50.3565C81.5833 49.439 80.8502 48.4784 80.0604 47.5687C79.2177 46.6002 78.341 45.6592 77.5172 44.675C77.1355 44.2202 76.8105 43.7222 76.4515 43.2517C76.0925 42.7773 75.692 42.3499 75.2725 41.9343C74.3807 41.0481 73.5946 40.0639 72.7746 39.1072C72.3438 38.6014 71.6334 39.3464 72.0604 39.8483C72.8615 40.7854 73.6286 41.75 74.5016 42.6204C74.9437 43.0596 75.3745 43.5066 75.7486 44.0124C76.1001 44.4829 76.4251 44.9691 76.7992 45.42C77.6041 46.3846 78.4619 47.306 79.2895 48.2509C80.0982 49.1802 80.8464 50.1605 81.6476 51.1015C82.0784 51.6073 82.7888 50.8662 82.3618 50.3604V50.3565Z" fill="#222222"/>
<path d="M88.7297 40.4953C87.732 40.4678 86.7155 40.4639 85.7254 40.3227C84.7391 40.1816 83.7604 40.0247 82.7741 39.8993C80.741 39.6444 78.689 39.3033 76.6862 38.8563C76.0551 38.7151 75.783 39.7228 76.4179 39.864C78.4547 40.3188 80.5445 40.656 82.6116 40.9226C83.6092 41.052 84.5993 41.205 85.5932 41.35C86.6286 41.499 87.6867 41.5108 88.7297 41.5382C89.3797 41.5578 89.3759 40.5109 88.7297 40.4913V40.4953Z" fill="#222222"/>
<path d="M11.1026 94.4204C11.1895 94.9223 11.0951 95.4634 11.2122 95.9535C11.2235 96.0084 11.3029 96.0672 11.3445 96.0986C11.3822 96.13 11.4541 96.1143 11.5032 96.1143C11.7942 96.1261 12.6482 96.3064 13.4796 96.3064C14.3601 96.3064 15.2066 96.1182 15.3237 95.7496C15.4182 95.4556 15.0138 94.9066 14.9382 94.6086C14.7984 94.0558 14.7682 93.3931 14.7342 92.8207C14.6813 91.911 14.6095 91.0013 14.5566 90.0917C14.5037 89.182 14.4508 88.2723 14.4016 87.3627C14.3487 86.453 14.19 85.5473 14.1409 84.6376C14.0918 83.7279 14.1787 82.8104 14.1258 81.9008C14.0729 80.9911 13.9897 80.0814 13.9406 79.1718C13.9066 78.5758 13.5174 77.1603 13.7517 76.631C13.4305 77.3603 13.113 78.1013 12.7767 78.8385C12.4404 79.5678 12.036 80.2775 11.7602 81.0303C11.4805 81.791 11.4049 82.6065 11.2651 83.4025C11.1026 84.3278 10.925 85.2493 10.8267 86.1864C10.7285 87.1235 10.6907 88.0606 10.6718 89.0016C10.6529 89.9427 10.5773 90.8876 10.6529 91.8248C10.7247 92.707 10.9552 93.5578 11.1102 94.4204H11.1026Z" fill="#222222"/>
<path d="M10.6185 94.5576C10.7243 95.3026 10.422 96.5573 11.4612 96.6396C12.2132 96.7023 12.9501 96.8553 13.7096 96.8278C14.3483 96.8043 15.3611 96.7337 15.7314 96.0789C16.0904 95.4437 15.4744 94.8007 15.361 94.189C15.1872 93.248 15.2023 92.2442 15.1381 91.2875C15.0663 90.2367 15.0096 89.1819 14.9492 88.1311C14.8887 87.1038 14.764 86.0883 14.6733 85.0649C14.5826 84.0101 14.6808 82.9554 14.6279 81.9007C14.575 80.8734 14.541 79.8147 14.4012 78.7953C14.3181 78.1914 14.0157 77.3602 14.2349 76.7681C14.439 76.2192 13.5509 75.8271 13.3129 76.3643C12.9879 77.1014 12.6742 77.8425 12.3379 78.5718C12.0242 79.2462 11.6652 79.8971 11.3856 80.5871C11.0984 81.2929 10.9699 82.0261 10.849 82.779C10.7243 83.5671 10.5693 84.3474 10.4484 85.1355C10.2141 86.6921 10.1915 88.2526 10.1348 89.825C10.1083 90.6013 10.0856 91.3777 10.1763 92.1462C10.2708 92.9578 10.4711 93.7498 10.6185 94.5536C10.7394 95.2124 11.7106 94.934 11.5897 94.2753C11.4498 93.5107 11.2458 92.7578 11.1664 91.9815C11.0908 91.264 11.1173 90.5425 11.1437 89.821C11.1966 88.2919 11.208 86.7627 11.4461 85.2453C11.5594 84.512 11.703 83.7827 11.8202 83.0495C11.9335 82.3241 12.0507 81.6027 12.3303 80.9204C12.61 80.246 12.969 79.6069 13.2713 78.9443C13.585 78.262 13.8797 77.5719 14.182 76.8857C13.8759 76.7524 13.5698 76.6191 13.2599 76.4819C13.0672 77.0034 13.1957 77.6464 13.2789 78.1758C13.3847 78.8502 13.4489 79.501 13.498 80.1833C13.5623 81.093 13.6416 82.0026 13.6303 82.9162C13.6152 83.8651 13.6265 84.7904 13.7323 85.7354C13.9402 87.5743 14.0006 89.4289 14.1253 91.2757C14.1858 92.1618 14.2085 93.0598 14.3105 93.942C14.3521 94.2988 14.3974 94.6556 14.541 94.985C14.5901 95.1026 14.6506 95.2124 14.7035 95.3261C14.7224 95.3653 14.7602 95.4751 14.7904 95.5143C14.9114 95.6711 14.7678 95.5888 14.866 95.5143C14.5788 95.726 14.1178 95.7456 13.7777 95.7613C13.3242 95.7848 12.8669 95.7495 12.4172 95.6947C12.2132 95.6711 12.0129 95.6397 11.8088 95.6123C11.7484 95.6045 11.6879 95.5927 11.6274 95.5888C11.6048 95.5888 11.5783 95.5849 11.5556 95.5809C11.4649 95.5692 11.4725 95.5809 11.5783 95.6045C11.6048 95.6123 11.635 95.6241 11.6615 95.6319C11.6615 95.5809 11.6539 95.53 11.6501 95.479C11.6728 95.3496 11.6463 95.1457 11.6426 95.0124C11.6388 94.7575 11.6161 94.5105 11.5821 94.2596C11.4876 93.5969 10.5164 93.8792 10.6109 94.538L10.6185 94.5576Z" fill="#222222"/>
<path d="M15.6067 27.3993C16.1357 26.6935 16.7403 26.0309 17.3941 25.4231C18.0554 24.8115 18.7847 24.3017 19.4952 23.8116C20.2661 23.2823 21.0068 22.7882 21.7399 22.4275C22.4088 22.0981 23.1003 21.8354 23.7956 21.5806C24.491 21.3257 25.175 21.0199 25.8892 20.8277C26.6034 20.6356 27.3328 20.4945 28.0621 20.3572C28.7877 20.22 29.5094 20.0239 30.2425 19.9259C30.9757 19.8279 31.7201 19.8161 32.457 19.7456C33.1977 19.675 33.9346 19.6122 34.6677 19.5613C35.6276 19.4907 36.4627 19.4789 37.2827 19.5613C38.1103 19.6436 38.9266 19.8201 39.8487 20.0906C40.8009 20.369 41.7457 20.6827 42.698 20.9611C43.6503 21.2395 44.6064 21.5061 45.5624 21.7845C46.1671 21.9609 46.7793 22.0864 47.4028 22.1413C47.5804 22.157 47.7769 22.2354 47.928 22.1413C48.7934 21.6159 48.1245 20.8121 47.0098 19.9847C46.3182 19.4711 45.468 18.9104 44.6441 18.4673C43.4424 17.8164 42.3201 17.3812 42.1085 17.2597C41.3905 16.8362 40.6573 16.4363 39.894 16.0834C39.1344 15.7305 38.4013 15.3109 37.6153 15.0169C36.8293 14.7228 36.0168 14.5111 35.2232 14.264C34.5128 14.0445 33.7683 13.9072 33.0276 13.719C32.3021 13.5347 31.5954 13.1975 30.851 13.0642C30.1103 12.9309 29.3394 12.9819 28.5911 12.9113C27.8353 12.8407 27.0871 12.6996 26.3389 12.7153C25.5793 12.7309 24.8197 12.7976 24.0828 12.9231C23.3422 13.0485 22.5977 13.2015 21.8835 13.4328C21.1693 13.6641 20.4626 13.9425 19.7673 14.2327C19.0115 14.5424 18.2557 14.9267 17.4621 15.256C16.6912 15.5736 15.8976 15.8716 15.1381 16.2402C14.3747 16.6088 13.6303 17.0283 12.9312 17.4792C12.2094 17.9458 11.4914 18.4203 10.8905 19.0084C10.2821 19.6005 9.88531 20.3808 9.45451 21.1375C9.04638 21.855 8.56648 22.5804 8.36619 23.4744C8.16969 24.3488 8.13944 25.2192 8.18857 26.0348C8.24148 26.9053 8.55513 27.6973 8.87256 28.4736C9.18621 29.25 9.59056 29.9636 10.1498 30.6145C10.6751 31.2262 11.2193 31.8849 11.9486 32.3593C12.4172 32.6652 13.1314 32.8102 13.4829 32.3672C13.6454 32.1594 13.7588 31.9006 13.789 31.6379C13.8797 30.8654 13.9553 30.0656 14.2878 29.3402C14.6052 28.6462 15.1267 28.0423 15.6029 27.4071L15.6067 27.3993Z" fill="#FCFCFC"/>
<path d="M15.962 27.7678C17.0541 26.3327 18.3541 25.2192 19.8166 24.2154C20.5194 23.7331 21.2299 23.2548 21.9932 22.8783C22.8133 22.4745 23.6748 22.1883 24.5251 21.8589C26.1652 21.2198 27.8808 20.91 29.5965 20.565C30.4921 20.3846 31.3953 20.3572 32.2984 20.2827C33.1676 20.2082 34.033 20.1219 34.9021 20.067C36.5535 19.9651 38.118 20.1297 39.7127 20.5924C41.4888 21.1061 43.2536 21.6589 45.0297 22.1726C45.8611 22.4117 46.6811 22.5882 47.539 22.6823C48.1738 22.7529 48.8276 22.2628 48.8238 21.557C48.8238 20.8904 48.2607 20.3454 47.8035 19.9572C47.1535 19.4083 46.4431 18.9299 45.7251 18.4869C44.5347 17.7576 43.2309 17.2949 42.0254 16.6048C41.2734 16.1735 40.4988 15.801 39.7241 15.4207C38.9305 15.0286 38.1445 14.6325 37.3055 14.3502C36.4893 14.0758 35.6541 13.8209 34.8228 13.6052C33.9763 13.3857 33.126 13.2249 32.2984 12.9426C31.4444 12.6485 30.6281 12.4721 29.725 12.4407C28.8293 12.4093 27.9526 12.2917 27.0608 12.2211C25.3149 12.08 23.4179 12.3976 21.7514 12.9308C20.0811 13.4641 18.5166 14.2718 16.8916 14.9305C15.2591 15.5893 13.7098 16.3382 12.2322 17.3184C11.5482 17.7732 10.8377 18.2673 10.2936 18.8986C9.77964 19.4906 9.41309 20.1925 9.02007 20.8747C8.61951 21.5727 8.19626 22.2627 7.95819 23.0469C7.70878 23.8743 7.64453 24.7879 7.6672 25.6544C7.70877 27.2698 8.35876 28.9833 9.25815 30.2929C9.69273 30.9281 10.218 31.528 10.7659 32.0613C11.2723 32.5553 11.8619 33.0415 12.5685 33.1474C13.3054 33.2572 13.8987 32.8807 14.1708 32.1632C14.3068 31.8103 14.3106 31.4221 14.3635 31.0457C14.4202 30.6301 14.4958 30.2145 14.6356 29.8224C14.9115 29.046 15.4707 28.4148 15.9582 27.7756C16.355 27.2542 15.6483 26.5092 15.244 27.0346C14.7905 27.6306 14.2917 28.2109 13.944 28.8814C13.5926 29.5597 13.449 30.2968 13.3507 31.0536C13.313 31.3594 13.3281 31.8025 13.0938 32.0299C12.8973 32.222 12.5572 32.1005 12.3456 31.9946C11.722 31.6809 11.2232 31.081 10.7659 30.5556C9.7872 29.4264 9.0314 28.007 8.74798 26.4974C8.59304 25.6779 8.63462 24.7565 8.782 23.937C8.91804 23.1803 9.22791 22.5333 9.60581 21.8785C9.9837 21.2237 10.3314 20.5297 10.7735 19.918C11.2157 19.3103 11.8165 18.8476 12.4211 18.428C13.774 17.4948 15.2024 16.7224 16.714 16.1107C18.2332 15.4952 19.707 14.7659 21.2488 14.1973C22.8548 13.6052 24.5478 13.2759 26.2521 13.2367C27.091 13.2171 27.9111 13.3817 28.7462 13.4445C29.5814 13.5033 30.4127 13.4562 31.229 13.6876C31.9999 13.9072 32.7406 14.1895 33.5266 14.3698C34.3315 14.5541 35.1175 14.7737 35.9073 15.009C37.4831 15.4755 38.9418 16.1578 40.4081 16.9106C40.9711 17.1969 41.504 17.5576 42.0746 17.8203C42.6301 18.0752 43.1932 18.3143 43.7449 18.5888C44.4818 18.9534 45.1922 19.3691 45.88 19.8239C46.4922 20.2317 47.2026 20.663 47.6561 21.2668C47.7506 21.3923 47.8866 21.5452 47.743 21.6432C47.6485 21.706 47.4256 21.6276 47.316 21.6158C47.0741 21.5883 46.8361 21.557 46.598 21.5099C45.778 21.3492 44.9768 21.0825 44.1757 20.8512C42.5469 20.3846 40.9409 19.8239 39.3008 19.4083C37.8497 19.0397 36.3873 18.9378 34.8983 19.0319C34.0821 19.0828 33.2658 19.1613 32.4496 19.2318C31.6409 19.3063 30.8284 19.322 30.0235 19.4436C29.211 19.5651 28.4137 19.769 27.6088 19.9259C26.8076 20.0827 25.9951 20.2356 25.2167 20.4983C23.7126 21.008 22.1406 21.5648 20.7613 22.3765C19.3933 23.1803 18.014 24.1213 16.8538 25.2309C16.2681 25.7916 15.7315 26.3955 15.2365 27.0463C14.8397 27.5678 15.5463 28.3128 15.9507 27.7874L15.962 27.7678Z" fill="#222222"/>
<path d="M68.0739 42.8321C67.9114 44.8671 67.8056 46.9021 67.7073 48.941C67.6053 50.9917 67.3219 53.0188 67.1594 55.0656C67.08 56.085 66.9326 57.0966 66.8268 58.1161C66.721 59.1473 66.7664 60.1824 66.6908 61.2137C66.5472 63.2212 66.3923 65.2248 66.2411 67.2324C66.158 68.3734 66.0522 69.5065 65.9199 70.6436C65.7914 71.7768 65.6176 72.9099 65.5156 74.047C65.4551 74.7175 66.4641 74.7136 66.5245 74.047C66.6152 73.0197 66.7853 71.9963 66.8949 70.969C67.0007 69.9692 67.1216 68.9733 67.1972 67.9656C67.3446 65.958 67.5448 63.9583 67.6544 61.9469C67.7073 60.9392 67.7338 59.9354 67.7754 58.9277C67.8169 57.8926 68.0134 56.8771 68.1041 55.8459C68.1948 54.8186 68.2439 53.7834 68.3611 52.7561C68.482 51.7249 68.6332 50.7133 68.6823 49.6742C68.7919 47.3922 68.8977 45.1102 69.0829 42.8321C69.1358 42.1617 68.1306 42.1656 68.0739 42.8321Z" fill="#222222"/>
<path d="M59.5942 54.2932C59.7378 55.5989 59.9268 56.885 60.0288 58.1946C60.1233 59.4493 60.3613 60.6844 60.4483 61.9352C60.6259 64.4877 60.573 67.0756 60.8753 69.6164C60.9471 70.2123 61.0491 70.8044 61.0831 71.4082C61.1209 72.063 61.0794 72.7178 61.0831 73.3766C61.0907 74.6548 61.2267 75.937 61.2683 77.2191C61.3099 78.5013 61.3552 79.7834 61.3892 81.0617C61.4232 82.3164 61.393 83.5711 61.495 84.8258C61.6122 86.2491 61.495 87.6567 61.5139 89.0801C61.5215 89.7898 61.5253 90.4995 61.5366 91.2091C61.5479 91.9737 61.6273 92.7344 61.6235 93.5029C61.6235 94.1773 62.6287 94.1773 62.6325 93.5029C62.6325 92.1933 62.5494 90.8837 62.5267 89.5741C62.5078 88.3194 62.6249 87.0607 62.572 85.81C62.5456 85.2101 62.4738 84.6101 62.4436 84.0102C62.4095 83.328 62.4209 82.6457 62.4133 81.9635C62.3982 80.6813 62.3453 79.3992 62.3037 78.117C62.2622 76.8623 62.2017 75.6115 62.1261 74.3568C62.0505 73.0786 62.1601 71.8003 62.0014 70.5221C61.6802 68.0009 61.6348 65.4523 61.5101 62.9154C61.4383 61.4921 61.1889 60.1001 61.0718 58.6847C60.9546 57.2104 60.7619 55.7596 60.5994 54.2932C60.5276 53.6345 59.5186 53.6266 59.5904 54.2932H59.5942Z" fill="#222222"/>
<path d="M13.1691 63.8447C13.2069 65.4954 13.0973 67.1461 13.1465 68.7929C13.1729 69.6203 13.2976 70.4358 13.3316 71.2632C13.3656 72.0866 13.411 72.91 13.4374 73.7334C13.4601 74.4038 14.4653 74.4078 14.4464 73.7334C14.42 72.91 14.3709 72.0866 14.3406 71.2632C14.3066 70.4397 14.1819 69.6203 14.1554 68.7929C14.1063 67.1461 14.2159 65.4915 14.1781 63.8447C14.163 63.1742 13.154 63.1703 13.1691 63.8447Z" fill="#222222"/>
<path d="M18.3693 66.2993C18.7812 67.2678 19.2687 68.197 19.673 69.1734C20.0698 70.1301 20.459 71.0829 20.7991 72.067C21.1317 73.0277 21.6154 73.8785 22.0613 74.7843C22.511 75.69 22.8662 76.6507 23.2668 77.576C24.0831 79.4659 24.9673 81.3284 25.674 83.2653C26.0217 84.2181 26.528 85.0533 26.9853 85.9512C27.4463 86.857 27.692 87.8607 28.1265 88.7822C28.6291 89.8447 29.1657 90.8642 29.5814 91.9699C30.0009 93.0795 30.5829 94.0951 31.0855 95.1616C31.3689 95.7654 32.238 95.2361 31.9546 94.6322C31.5012 93.6716 30.9608 92.7619 30.5791 91.766C30.2163 90.8054 29.8195 89.8879 29.3509 88.9782C28.8672 88.0332 28.546 87.0412 28.1417 86.061C27.7713 85.1592 27.2007 84.3671 26.8266 83.4653C26.4298 82.5164 26.1199 81.5401 25.6929 80.603C25.2697 79.6698 24.854 78.7327 24.4534 77.7917C24.0415 76.8232 23.6296 75.8586 23.2177 74.8902C22.8322 73.9883 22.2843 73.1649 21.9328 72.2474C21.5209 71.1691 21.1392 70.087 20.6971 69.0205C20.2399 67.9226 19.7032 66.8678 19.2384 65.7739C18.9777 65.1583 18.1085 65.6915 18.3693 66.3032V66.2993Z" fill="#222222"/>
<path d="M37.0262 76.3251C37.0186 75.6586 36.8902 74.8195 36.7957 73.9843C36.7012 73.1491 36.5614 72.3689 36.2591 71.7572C35.4315 71.5611 35.046 72.063 34.7588 72.8707C34.5359 73.502 34.3507 74.2745 34.294 75.039C34.226 75.9526 34.1617 76.8074 34.1126 77.2622C34.0937 77.4387 34.1051 77.7014 34.2184 77.8386C34.3205 77.9602 34.5623 77.8386 34.7173 77.8582C35.4655 77.9523 36.2893 78.0151 36.6936 77.3563C36.8864 77.0427 37.03 76.6976 37.0262 76.3251Z" fill="#DDDDDD"/>
<path d="M37.5326 76.3251C37.5175 75.6193 37.4117 74.9214 37.3286 74.2235C37.2492 73.5451 37.1774 72.859 36.9733 72.2042C36.8902 71.9336 36.7882 71.5298 36.5652 71.3494C36.3347 71.1651 35.9417 71.1769 35.6658 71.22C35.1746 71.2984 34.7967 71.6474 34.5548 72.0826C33.9048 73.2432 33.8255 74.6587 33.7235 75.9605C33.6819 76.478 33.561 77.0505 33.6139 77.5681C33.6441 77.8661 33.7499 78.1719 34.0182 78.3287C34.2827 78.4856 34.6002 78.3679 34.8874 78.3993C35.458 78.462 36.0777 78.4738 36.5917 78.164C37.1887 77.8033 37.5137 77.0113 37.5326 76.3212C37.5478 75.6468 36.5425 75.6468 36.5236 76.3212C36.5123 76.7996 36.2554 77.2818 35.7792 77.3681C35.5562 77.4073 35.322 77.3916 35.0952 77.372C34.9705 77.3602 34.842 77.3328 34.7173 77.3328C34.6682 77.3328 34.6191 77.3367 34.5699 77.3406C34.3545 77.3642 34.4188 77.3406 34.4755 77.3838C34.5359 77.4465 34.5964 77.5092 34.6568 77.572C34.5661 77.4348 34.6266 77.2191 34.6417 77.0623C34.6644 76.8152 34.6871 76.5682 34.706 76.3212C34.7589 75.6546 34.7778 74.9763 34.8987 74.3176C35.0007 73.7647 35.133 73.1687 35.3937 72.6708C35.5676 72.3375 35.7603 72.1767 36.1306 72.2551C36.0286 72.1767 35.9304 72.0944 35.8283 72.016C36.1269 72.6394 36.2251 73.353 36.3045 74.0392C36.3914 74.7959 36.5123 75.5566 36.5274 76.3212C36.5425 76.9917 37.5477 76.9956 37.5364 76.3212L37.5326 76.3251Z" fill="#222222"/>
<path d="M34.713 77.8151C34.7583 81.3204 34.7281 84.8218 34.6563 88.3272C34.6412 89.0016 35.6502 89.0016 35.6653 88.3272C35.7371 84.8218 35.7673 81.3243 35.722 77.8151C35.7144 77.1446 34.7054 77.1407 34.713 77.8151Z" fill="#222222"/>
<path d="M35.2314 89.0644C35.8927 88.9311 36.5616 88.8683 37.2229 88.735C37.4837 88.684 37.6537 88.3468 37.5744 88.092C37.4837 87.8057 37.2305 87.6685 36.9546 87.7273C36.2933 87.8606 35.6244 87.9234 34.9631 88.0567C34.7024 88.1077 34.5323 88.4449 34.6117 88.6997C34.7024 88.986 34.9556 89.1232 35.2314 89.0644Z" fill="#222222"/>
<path d="M36.2478 79.6971C36.2138 80.795 36.3007 81.8928 36.2667 82.9946C36.2327 84.0847 36.2478 85.2061 36.3309 86.2961C36.3801 86.9627 37.389 86.9666 37.3399 86.2961C37.2568 85.2061 37.2417 84.0886 37.2757 82.9946C37.3097 81.8928 37.219 80.795 37.2568 79.6971C37.2794 79.0227 36.2705 79.0266 36.2478 79.6971Z" fill="#222222"/>
<path d="M40.0602 88.2488C41.2544 88.8526 42.4523 89.3702 43.5633 90.1309C44.6516 90.8758 45.8534 91.3542 46.9757 92.0286C48.0792 92.6952 49.073 93.4833 50.2256 94.0636C50.8 94.3537 51.3518 94.6596 51.8695 95.0478C52.4061 95.4477 52.9162 95.8829 53.4642 96.2633C54.0046 96.6397 54.5109 95.7339 53.9743 95.3614C52.9087 94.6204 51.9639 93.7852 50.8038 93.1971C50.2067 92.8951 49.6285 92.5854 49.073 92.209C48.544 91.8482 48.03 91.4601 47.4821 91.1307C46.3824 90.4681 45.1996 90.0054 44.1339 89.2761C43.0003 88.4997 41.7834 87.9626 40.5666 87.3509C39.9846 87.0568 39.4745 87.9586 40.0565 88.2527L40.0602 88.2488Z" fill="#222222"/>
<path d="M69.2907 11.0684C69.234 11.8957 69.1735 12.723 69.132 13.5582C69.0942 14.3894 69.0488 15.2207 69.0526 16.0519C69.0564 16.8871 69.1509 17.7144 69.2302 18.5378" fill="#FADDD9"/>
<path d="M68.7842 11.0684C68.7011 12.3153 68.618 13.5582 68.5726 14.8051C68.5273 16.0598 68.6066 17.2871 68.7276 18.5379C68.7918 19.2005 69.8008 19.2083 69.7365 18.5379C69.6156 17.2871 69.5363 16.0637 69.5816 14.8051C69.627 13.5582 69.7101 12.3153 69.7932 11.0684C69.8386 10.3979 68.8296 10.4018 68.7842 11.0684Z" fill="#222222"/>
<path d="M57.8441 10.6961C58.1578 10.4805 58.4185 10.1864 58.683 9.90801C58.9476 9.63354 59.2348 9.26497 59.6089 9.26105C60.0321 9.26105 60.3911 9.63354 60.667 9.96682C61.4152 10.8569 61.7175 12.0645 61.6042 13.2408C61.4908 14.4171 60.9844 15.5581 60.0813 16.2835" fill="#FADDD9"/>
<path d="M58.1012 11.1469C58.4488 10.896 58.7474 10.5901 59.0421 10.2765C59.2084 10.1 59.4502 9.71575 59.7299 9.80593C60.0398 9.90788 60.3307 10.3235 60.5046 10.5901C60.7275 10.9273 60.89 11.2959 60.992 11.688C61.3926 13.2015 60.924 14.9267 59.7299 15.9109C59.5145 16.0873 59.5561 16.4637 59.7299 16.652C59.9377 16.8715 60.2325 16.8284 60.4441 16.652C61.9822 15.3816 62.5225 12.9858 61.865 11.092C61.5627 10.2176 60.9278 9.12761 60.0284 8.81393C58.9325 8.43359 58.3468 9.70399 57.591 10.2451C57.0619 10.6254 57.5646 11.5312 58.1012 11.1469Z" fill="#222222"/>
</svg>
