<svg width="23" height="21" viewBox="0 0 23 21" fill="none" xmlns="http://www.w3.org/2000/svg">
<path d="M14.0613 10.0602L22.2146 2.87205C22.5716 2.55654 22.7722 2.12861 22.7722 1.68241C22.7722 1.23621 22.5716 0.808279 22.2146 0.492766C21.8575 0.177253 21.3733 0 20.8683 0C20.3634 0 19.8791 0.177253 19.5221 0.492766L11.3877 7.69764L3.25336 0.492766C2.89632 0.177253 2.41206 -3.32447e-09 1.90712 0C1.40218 3.32447e-09 0.917916 0.177253 0.56087 0.492766C0.203823 0.808279 0.00323593 1.23621 0.00323592 1.68241C0.00323592 2.12861 0.203823 2.55654 0.56087 2.87205L8.71419 10.0602L0.56087 17.2483C0.383149 17.4041 0.242089 17.5894 0.145825 17.7936C0.0495617 17.9977 0 18.2167 0 18.4379C0 18.6591 0.0495617 18.8781 0.145825 19.0823C0.242089 19.2865 0.383149 19.4718 0.56087 19.6276C0.737139 19.7846 0.946852 19.9093 1.17791 19.9943C1.40897 20.0794 1.65681 20.1232 1.90712 20.1232C2.15743 20.1232 2.40526 20.0794 2.63632 19.9943C2.86738 19.9093 3.07709 19.7846 3.25336 19.6276L11.3877 12.4227L19.5221 19.6276C19.6984 19.7846 19.9081 19.9093 20.1391 19.9943C20.3702 20.0794 20.618 20.1232 20.8683 20.1232C21.1186 20.1232 21.3665 20.0794 21.5975 19.9943C21.8286 19.9093 22.0383 19.7846 22.2146 19.6276C22.3923 19.4718 22.5334 19.2865 22.6296 19.0823C22.7259 18.8781 22.7754 18.6591 22.7754 18.4379C22.7754 18.2167 22.7259 17.9977 22.6296 17.7936C22.5334 17.5894 22.3923 17.4041 22.2146 17.2483L14.0613 10.0602Z" fill="#434344"/>
</svg>
