<svg width="188" height="163" viewBox="0 0 188 163" fill="none" xmlns="http://www.w3.org/2000/svg">
<path d="M62.4723 116.072C64.1062 115.953 65.8557 115.963 67.5893 115.825C69.3141 115.689 70.99 115.229 72.5614 114.708C74.1769 114.174 75.6115 113.356 76.8152 112.022C78.0397 110.661 79.3787 109.266 80.3174 107.591C81.2588 105.926 81.8897 104.055 82.3304 102.19C82.777 100.314 82.9175 98.3438 82.6544 96.3714C82.42 94.6879 81.7873 92.7952 80.3603 92.0013C78.5061 90.9658 76.264 92.0357 74.4419 92.9699C73.0289 93.6997 71.6751 94.3709 70.2626 94.8135C68.7885 95.2745 67.2905 95.5273 65.8066 95.8271C64.3138 96.1296 62.8267 96.4509 61.3223 96.7466C59.8444 97.0344 58.4135 97.544 56.9165 97.9606C55.1877 98.4362 53.6644 99.0862 52.2721 100.046C50.8533 101.013 49.5441 102.122 48.2889 103.348C47.0575 104.557 45.6957 105.651 44.4611 106.882C43.2116 108.127 42.0744 109.523 40.6721 110.578C39.2727 111.642 37.661 112.349 36.1412 113.203C34.6214 114.057 33.1811 115.113 31.5585 115.752C29.7626 116.453 27.7341 116.792 26.2331 118.03C24.7321 119.268 23.7928 121.487 24.3543 123.463C24.8427 125.193 26.4569 126.229 28.1134 126.667C29.7699 127.105 31.4327 127.018 33.1001 126.787C34.8232 126.549 36.5744 126.405 38.2786 126.039C39.9915 125.671 41.6876 125.246 43.3126 124.648C44.9464 124.047 46.5095 123.241 47.9808 122.289C49.3488 121.408 50.6626 120.411 51.9848 119.441C53.3131 118.46 54.6406 117.54 56.1743 116.99C58.1841 116.266 60.3495 116.224 62.49 116.067L62.4723 116.072Z" fill="#FCFCFC"/>
<path d="M62.4299 114.936C67.0501 114.632 72.5612 114.934 76.0225 111.233C77.6079 109.539 79.1208 107.795 80.089 105.608C80.9792 103.578 81.6301 101.261 81.7186 98.9889C81.7869 97.1945 81.7074 94.2956 80.0862 93.1085C78.5636 91.9945 76.3986 93.226 75.0152 93.9265C72.9077 94.9972 70.8224 95.9177 68.5081 96.4246C66.2202 96.9237 63.9241 97.3637 61.625 97.8251C60.4578 98.0611 59.3184 98.4221 58.1733 98.7642C57.0282 99.1064 55.8691 99.4015 54.7718 99.9037C52.6246 100.873 50.7651 102.485 49.0575 104.124C47.3882 105.73 45.6328 107.208 44.0357 108.896C42.4239 110.598 40.766 111.985 38.7166 113.09C36.6172 114.22 34.6141 115.608 32.4492 116.583C30.4873 117.466 27.966 117.666 26.4334 119.344C25.2861 120.61 24.6308 122.816 25.9707 124.282C27.4983 125.958 30.1079 125.958 32.0762 125.77C37.5416 125.244 42.9957 124.199 47.6491 121.116C49.8991 119.624 51.955 117.738 54.3567 116.528C56.8761 115.262 59.6278 115.127 62.4007 114.934C63.7651 114.844 63.8522 117.095 62.4906 117.194C59.6329 117.392 56.8985 117.553 54.3962 119.1C52.0824 120.54 50.0213 122.376 47.6818 123.763C43.0381 126.524 37.7617 127.393 32.471 127.99C30.186 128.242 27.6303 128.134 25.5899 126.764C23.6947 125.495 22.7666 123.352 23.1888 121.073C23.6053 118.774 25.1971 117.037 27.1594 116.123C28.2686 115.596 29.4514 115.284 30.606 114.877C31.8487 114.445 32.9714 113.771 34.0913 113.087C36.3074 111.738 38.8176 110.762 40.7754 108.998C41.6953 108.159 42.5229 107.204 43.3995 106.317C44.3117 105.388 45.2961 104.54 46.2632 103.667C48.1738 101.937 49.9777 100.075 52.1674 98.7335C54.372 97.3774 56.9104 96.7214 59.376 96.0462C61.874 95.351 64.4796 94.9519 67.0222 94.4383C68.2979 94.1801 69.5712 93.8817 70.7878 93.4258C72.0193 92.9553 73.1824 92.3206 74.3685 91.7303C76.1754 90.8417 78.2924 89.963 80.3186 90.8035C82.3912 91.6711 83.3031 93.9521 83.6313 96.1101C84.0792 99.0219 83.6084 101.942 82.7129 104.66C81.781 107.482 80.3143 109.766 78.3841 111.912C77.4976 112.894 76.6143 113.856 75.5029 114.567C74.2853 115.341 72.9282 115.808 71.5601 116.207C68.5833 117.066 65.5443 117.01 62.4671 117.212C61.1027 117.301 61.0126 115.041 62.377 114.952L62.4299 114.936Z" fill="#222222"/>
<path d="M151.758 77.086C153.537 76.8725 155.323 77.0053 157.116 77.2282C158.904 77.4632 160.737 77.5924 162.452 78.2283C164.162 78.8762 165.858 79.7026 167.411 80.7255C168.964 81.7484 170.21 83.2219 171.501 84.5896C171.681 84.7719 171.907 84.8887 171.919 85.1519C171.927 85.4675 171.834 85.8642 171.589 86.04C170.3 86.9894 168.76 87.5212 167.245 87.9739C165.748 88.4214 164.158 88.4964 162.557 88.5646C160.974 88.6276 159.383 88.5697 157.82 88.3496C155.799 88.0716 153.664 87.7661 151.779 86.8835C149.838 85.9764 148.253 84.5224 147.025 82.6946" fill="#7A92FC"/>
<path d="M151.719 75.9593C153.55 75.7608 155.386 75.8994 157.229 76.128C158.964 76.3478 160.721 76.4792 162.408 77.0518C164.171 77.6531 165.899 78.4905 167.493 79.4909C169.04 80.4641 170.318 81.7538 171.575 83.1011C172.054 83.6141 172.774 84.1273 172.935 84.8586C173.126 85.6934 172.769 86.5182 172.171 87.0247C170.747 88.1989 168.674 88.8389 166.917 89.2512C163.364 90.0769 159.509 89.7933 155.9 89.2105C153.952 88.89 152.001 88.3964 150.264 87.3361C148.611 86.3328 147.238 84.9176 146.129 83.2905C145.309 82.0894 147.105 80.9377 147.921 82.1293C149.678 84.7013 152.104 86.1403 154.987 86.7658C157.992 87.4161 161.027 87.5861 164.063 87.3761C165.689 87.2597 167.226 86.8823 168.743 86.3061C169.104 86.1673 169.454 86.0217 169.795 85.8479C169.978 85.7523 170.619 85.2326 170.759 85.2831C170.727 85.2722 171.233 85.7464 170.902 85.5068C170.743 85.3904 170.625 85.2206 170.486 85.0774C170.203 84.7723 169.908 84.4604 169.625 84.1553C167.459 81.8494 164.863 80.2254 161.958 79.2374C160.355 78.6907 158.674 78.5572 157.03 78.3513C155.295 78.1314 153.558 78.0351 151.83 78.2234C150.473 78.3723 150.392 76.1097 151.74 75.9634L151.719 75.9593Z" fill="#222222"/>
<path d="M94.8106 27.4359C95.1492 29.9497 96.9991 32.3196 99.3377 33.2103C101.362 33.9796 103.577 33.9741 105.525 34.9403C106.438 35.3956 107.337 35.8655 108.22 36.3809C110.042 37.4363 111.721 37.9498 113.347 37.7099C115.012 37.4688 116.579 36.5493 118.137 35.4685C119.889 34.2373 121.947 33.9301 124.004 33.623C126.009 33.3316 127.987 33.0173 129.59 31.318C130.225 30.6465 130.924 29.9043 131.116 28.9751C131.492 27.1502 129.941 25.4601 128.064 24.4111C126.268 23.4096 124.034 23.0928 122.795 22.9296C120.768 22.6637 118.736 22.7682 116.725 22.395C114.603 22.0037 112.551 21.0785 110.714 19.8431C109.106 18.7648 107.573 17.5515 105.775 16.9298C103.888 16.2634 102.139 16.1602 100.624 16.8693C99.0943 17.5931 97.9876 19.1236 96.9715 20.668C95.9762 22.1858 95.0147 23.8165 94.6548 25.534C94.5245 26.1575 94.7303 26.8139 94.8106 27.4359Z" fill="#222222"/>
<path d="M95.875 27.4358C96.2962 30.13 98.4487 31.9069 100.838 32.516C102.156 32.8501 103.52 33.0168 104.817 33.4702C106.177 33.9456 107.458 34.701 108.717 35.4121C109.908 36.0918 111.18 36.6552 112.54 36.6486C113.994 36.6346 115.334 35.9473 116.536 35.1879C117.83 34.3808 119.013 33.5864 120.478 33.1589C121.919 32.7487 123.407 32.6221 124.879 32.3463C126.345 32.0826 127.717 31.6317 128.801 30.5388C129.538 29.7954 130.456 28.8545 129.947 27.6633C128.917 25.2125 125.561 24.4822 123.368 24.1428C120.652 23.7237 117.885 23.9662 115.197 23.1902C112.5 22.4168 110.313 20.8142 107.947 19.2857C105.238 17.5416 101.874 16.5575 99.4878 19.1368C98.4384 20.281 97.5559 21.6625 96.7964 23.038C96.4106 23.7378 96.0537 24.47 95.8279 25.2553C95.6052 26.0192 95.7468 26.6537 95.8662 27.4384C96.0919 28.8682 93.9533 28.8714 93.7303 27.4511C93.6106 26.6973 93.4637 26.013 93.5927 25.2566C93.7277 24.4882 94.0353 23.7195 94.345 23.0219C95.0063 21.5425 95.9208 20.1719 96.8462 18.8699C97.7952 17.5506 98.927 16.3612 100.409 15.7338C101.9 15.1037 103.59 15.173 105.165 15.5946C108.326 16.4445 110.725 18.917 113.675 20.2813C116.814 21.7325 120.103 21.4369 123.398 21.8983C126.243 22.2994 129.342 23.1987 131.237 25.7192C133.353 28.5323 131.536 31.5365 129.161 33.1587C126.294 35.123 122.576 34.3677 119.57 35.9324C117.925 36.783 116.541 37.9964 114.753 38.5615C113.322 39.0094 111.816 39.0084 110.349 38.5647C108.522 38.0033 106.906 36.8659 105.184 36.0165C103.564 35.2187 101.772 35.0978 100.078 34.6299C96.7741 33.7199 94.2991 31.0242 93.7391 27.4485C93.5134 26.0187 95.652 26.0154 95.875 27.4358Z" fill="#222222"/>
<path d="M55.1746 88.667C56.6157 88.7697 58.0385 88.9393 59.5285 89.1094C61.188 89.3006 62.814 89.3479 64.4406 89.108C66.0495 88.8733 67.6009 88.3175 69.1807 87.8249C70.7546 87.3443 72.3763 87.0238 73.9072 86.4638C75.2295 85.9764 76.8185 84.9683 76.5671 83.4847C76.4027 82.5494 75.4578 82.0524 74.6708 81.5697C72.9515 80.5042 71.257 79.3287 69.4331 78.4586C67.6063 77.579 65.686 76.9325 63.9129 75.9754C62.1165 75.0047 60.4332 73.867 58.8547 72.5338C57.6614 71.5265 56.5125 70.4751 55.3696 69.4117C54.2179 68.3509 52.971 67.4212 51.8193 66.3604C50.6764 65.297 49.7326 63.969 48.5569 62.9564C47.3784 61.9344 46.102 61.034 44.8551 60.1042C43.4719 59.0716 41.7737 58.2049 40.138 57.74C38.3769 57.2407 36.5895 57.2313 35.1949 58.3761C33.8063 59.5089 33.159 61.2918 33.1538 63.2008C33.1444 64.9674 33.7358 66.8827 34.213 68.5757C34.7994 70.6668 35.5 72.7545 36.6749 74.5672C37.8498 76.3799 39.6231 77.819 41.6686 78.0179C42.3495 78.081 43.0935 78.2587 43.4045 78.9143C43.5586 79.2374 43.7448 79.5715 43.726 79.9258C43.6117 81.4059 43.737 82.9169 44.3556 84.2806C44.9741 85.6442 46.0113 86.7392 47.1917 87.6068C49.2393 89.0972 50.6471 89.056 52.8144 88.8596C53.6257 88.7812 54.4029 88.6208 55.1863 88.6738L55.1746 88.667Z" fill="#222222"/>
<path d="M55.1228 87.534C57.125 87.6843 59.1251 88.0199 61.1281 88.1084C63.1515 88.2011 65.0507 87.9105 66.9681 87.3273C68.8062 86.7678 70.658 86.2862 72.4989 85.7361C73.186 85.5308 75.7921 84.8444 75.5053 83.6277C75.3549 82.9958 74.1172 82.5145 73.6323 82.2082C72.8164 81.6932 72.0064 81.166 71.1845 80.663C69.5202 79.6529 67.7825 78.9108 66.0039 78.1605C62.4119 76.6393 59.3223 74.4553 56.3699 71.7996C54.8735 70.4522 53.3619 69.1503 51.8358 67.8322C50.3879 66.583 49.257 65.0136 47.8267 63.7592C46.356 62.4656 44.7238 61.21 43.0652 60.2187C41.4878 59.2748 39.5265 58.3945 37.7108 58.5473C36.0914 58.6826 34.8919 59.9024 34.4486 61.5013C33.9629 63.2154 34.3337 65.0018 34.7872 66.7121C35.6974 70.1114 36.7391 74.4968 39.9794 76.3179C41.4092 77.1212 43.3311 76.6495 44.2884 78.3119C44.8529 79.302 44.7048 80.1871 44.7504 81.2708C44.798 82.4256 45.0715 83.5334 45.6917 84.5171C46.6304 86.021 48.2878 87.3613 49.9658 87.7111C51.6935 88.0665 53.4094 87.4512 55.126 87.5125C56.4945 87.565 56.5934 89.8224 55.216 89.7725C53.4498 89.7055 51.7466 90.2349 49.9594 89.9691C48.2422 89.7131 46.6712 88.7263 45.3811 87.4915C43.7644 85.934 42.8027 83.9038 42.6397 81.6246C42.5974 81.0014 42.9208 79.6434 42.2877 79.2584C41.9943 79.0794 41.5054 79.1127 41.1841 79.0651C40.6702 78.9828 40.1922 78.8282 39.7062 78.6146C35.9311 76.9943 34.2918 72.6644 33.2022 68.8573C32.1604 65.2102 31.1539 60.8143 34.0293 57.9144C37.1207 54.8063 42.0479 56.7181 45.2298 59.018C47.0165 60.3095 48.8766 61.5893 50.3929 63.2282C51.0312 63.9194 51.6368 64.6614 52.3135 65.3206C53.1926 66.1757 54.1549 66.9239 55.0789 67.704C56.8542 69.2142 58.496 70.8874 60.3249 72.3201C62.0292 73.6567 63.8851 74.7942 65.826 75.6704C67.7697 76.556 69.7505 77.2767 71.6187 78.3593C72.5456 78.8924 73.4425 79.4859 74.3514 80.0552C75.1673 80.5702 76.0865 81.0134 76.7773 81.7197C78.3469 83.3119 77.5781 85.4592 76.0814 86.5833C74.3486 87.8804 72.0076 88.1698 69.9849 88.7537C67.6247 89.4282 65.3531 90.271 62.8653 90.3581C60.3218 90.4516 57.765 89.9543 55.2249 89.7699C53.8627 89.6744 53.7638 87.4171 55.1348 87.5099L55.1228 87.534Z" fill="#222222"/>
<path d="M158.085 45.4358C159.868 46.0104 163.149 46.6812 164.356 44.5566C165.244 42.9993 164.173 41.0221 162.429 40.8049C161.006 40.6352 158.932 41.8498 157.901 42.6706C157.305 43.1462 156.645 44.2149 157.117 44.8635C157.328 45.1493 157.767 45.3359 158.085 45.4358Z" fill="#222222"/>
<path d="M158.325 44.3488C158.867 44.5252 159.427 44.6655 159.985 44.7655C160.067 44.7821 160.148 44.7987 160.227 44.8059C160.277 44.8116 160.487 44.841 160.297 44.8157C160.426 44.8286 160.566 44.8482 160.695 44.8611C161.028 44.8846 161.364 44.8866 161.695 44.8698C161.76 44.8608 161.827 44.8612 161.891 44.8521C162.202 44.8312 161.768 44.889 161.944 44.8364C162.079 44.8063 162.226 44.783 162.358 44.7435C162.42 44.7251 162.481 44.7067 162.534 44.6909C162.534 44.6909 162.819 44.5852 162.666 44.6514C162.513 44.7176 162.781 44.5863 162.781 44.5863C162.863 44.5412 162.934 44.4893 163.014 44.4347C163.061 44.4001 163.117 44.3628 163.162 44.3188C162.993 44.4614 163.162 44.3188 163.188 44.28C163.239 44.2239 163.295 44.1558 163.346 44.0997C163.375 44.0703 163.459 43.9326 163.363 44.0944C163.441 43.9687 163.486 43.832 163.555 43.7089C163.633 43.5832 163.515 43.9262 163.564 43.6755C163.577 43.5896 163.599 43.5012 163.62 43.4127C163.614 43.4556 163.623 43.6476 163.62 43.4435C163.62 43.3818 163.624 43.3295 163.616 43.2703C163.614 43.1992 163.591 43.1238 163.598 43.05C163.6 42.8957 163.674 43.3042 163.598 43.05C163.564 42.9371 163.533 42.8335 163.491 42.7232C163.584 42.9721 163.522 42.7959 163.491 42.7232C163.451 42.6532 163.399 42.5763 163.356 42.4968C163.319 42.4362 163.186 42.3119 163.353 42.4874C163.313 42.4483 163.278 42.3971 163.238 42.3579C163.194 42.3093 163.113 42.2618 163.079 42.2106C162.995 42.092 163.276 42.3259 163.055 42.197C162.951 42.136 162.855 42.0723 162.744 42.0233C162.939 42.1292 162.776 42.0343 162.712 42.0124C162.628 41.9864 162.534 41.963 162.45 41.937C162.386 41.9151 162.193 41.9112 162.409 41.9286C162.351 41.9256 162.292 41.9226 162.242 41.9169C162.108 41.9161 161.979 41.9341 161.847 41.9427C161.677 41.9525 162.085 41.8717 161.803 41.9559C161.741 41.9743 161.68 41.9927 161.615 42.0018C161.457 42.0491 161.298 42.0965 161.14 42.1439C160.972 42.1939 160.819 42.2601 160.658 42.3289C160.587 42.35 160.531 42.3873 160.464 42.4177C160.64 42.3342 160.428 42.4283 160.39 42.4603C160.098 42.6089 159.81 42.7669 159.536 42.9411C159.253 43.1179 158.964 43.3068 158.698 43.5093C158.66 43.5413 158.612 43.5759 158.574 43.6079C158.376 43.749 158.716 43.4423 158.521 43.6546C158.411 43.7694 158.304 43.8935 158.2 44.0272C158.328 43.8453 158.152 44.1236 158.138 44.1382C158.114 44.1864 158.011 44.453 158.081 44.2372C158.06 44.2948 158.053 44.3686 158.038 44.4142C158.039 44.2907 158.042 44.2692 158.039 44.3524C158.046 44.4424 158.029 44.4168 158.013 44.2677C158.116 44.4522 157.999 44.2515 157.982 44.2259C157.858 44.0063 158.06 44.2639 157.927 44.1705C157.999 44.2206 158.089 44.2655 158.168 44.3035C158.235 44.3348 158.235 44.3348 158.159 44.3061C158.223 44.328 158.278 44.3525 158.343 44.3744C158.896 44.5576 159.281 45.1399 159.148 45.7539C159.03 46.3224 158.428 46.7484 157.872 46.5557C156.849 46.2153 155.839 45.5018 155.913 44.239C155.972 43.1855 156.606 42.3193 157.365 41.7131C158.635 40.6977 160.255 39.8242 161.886 39.6957C163.546 39.5687 165.246 40.7939 165.655 42.5483C166.111 44.5245 164.929 46.2827 163.21 46.8886C161.535 47.4813 159.559 47.0975 157.881 46.5531C157.327 46.3699 156.939 45.7783 157.075 45.1736C157.202 44.6025 157.789 44.1912 158.351 44.3717L158.325 44.3488Z" fill="#222222"/>
<path d="M40.125 134.984C41.3793 133.819 42.283 132.38 43.2552 131.074C44.2719 129.724 45.0879 128.281 45.8401 126.784C46.5923 125.288 47.2162 123.748 47.7392 122.094C48.2438 120.508 48.7808 118.902 49.1146 117.161C49.3644 115.846 49.548 114.437 50.1936 113.29C50.9108 112.03 52.1966 111.42 53.4507 110.769C54.6635 110.14 55.8522 109.333 57.1076 108.815C58.4307 108.265 59.8823 107.729 61.2264 106.897C62.5143 106.102 63.7657 105.184 64.9073 104.156C66.0785 103.099 67.2208 102.009 68.0433 100.748C68.2609 100.416 68.2956 99.9543 68.4811 99.6118C68.5199 99.5489 68.6136 99.5415 68.6524 99.4786C68.5589 98.9733 68.5652 98.4484 68.507 97.9325C68.3299 96.3446 68.1913 94.7248 68.3916 93.1473C68.5918 91.5697 69.1798 90.1019 69.7298 88.6352C70.2798 87.1685 70.772 85.637 71.653 84.379C72.5936 83.0314 73.8289 81.9957 75.0261 80.9612C76.2322 79.924 77.5758 79.1225 78.9659 78.3482C80.3384 77.5792 81.6687 76.6689 83.144 76.1153C84.6281 75.559 86.1326 75.0069 87.6381 74.6186C89.0995 74.2434 90.6301 74.1962 92.0286 73.7066C93.4358 73.2143 94.8205 72.6467 96.1964 72.0817C97.5724 71.5168 98.9483 70.9518 100.325 70.3559C101.683 69.7653 103.036 69.1559 104.415 68.5695C105.727 68.0135 106.926 67.3374 108.289 66.8892C107.504 65.4829 106.859 64.0655 106.304 62.529C105.755 61.0114 105.432 59.4159 105.117 57.8178C104.8 56.2412 104.38 54.6438 104.297 53.0175C104.178 50.4688 104.595 47.9139 105.326 45.5112C105.807 43.9112 106.614 42.5011 107.456 41.0804C108.313 39.6451 109.071 38.1367 110.142 36.8731C111.213 35.6096 112.331 34.3732 113.59 33.3202C114.849 32.2672 116.246 31.3882 117.651 30.5683C119.057 29.7485 120.622 29.2705 122.144 28.7132C123.604 28.1742 125.049 27.5171 126.594 27.2297C128.13 26.9449 129.723 27.0739 131.3 27.0539C132.877 27.0338 134.46 26.7762 136.022 27.0272C137.585 27.2782 139.071 27.9826 140.583 28.5153C142.151 29.0724 143.603 29.6946 144.971 30.5472C146.339 31.3999 147.566 32.4584 148.864 33.5577C150.225 34.7096 151.453 35.9937 152.687 37.2966C153.915 38.5807 155.211 39.8343 156.815 40.6776C158.089 41.3431 159.524 41.6833 160.687 42.5562C162.624 43.9976 163.601 46.4642 164.096 48.8903C164.441 50.5611 164.635 52.2672 164.535 53.9582C164.436 55.6491 163.992 57.2789 163.456 58.8544C163.125 59.8351 162.78 60.7996 162.313 61.7083C161.468 63.3451 160.513 64.9329 159.451 66.4194C158.567 67.6679 157.69 68.8427 156.724 69.88C155.722 70.9587 154.519 71.7798 153.434 72.7399C152.363 73.6852 151.38 74.6969 150.219 75.6283C151.078 76.9612 151.751 78.442 152.216 80.1282C152.62 81.6074 152.881 83.2521 152.927 85.0433C152.933 85.2259 152.882 85.3437 152.889 85.5264C154.596 86.5851 156.063 87.449 157.409 88.2264C159.077 89.1842 160.478 90.1189 161.964 90.885C163.441 91.6537 165.017 92.2083 166.736 93.0482C168.121 93.7318 169.675 94.4365 171.463 95.3172C173.366 96.2563 175.319 97.3031 176.845 98.8467C178.372 100.39 179.437 102.769 178.997 104.89C178.645 106.636 177.412 107.937 175.882 108.692C174.452 109.396 172.671 109.569 171.082 109.583C169.57 109.594 168.048 109.638 166.553 109.388C165.058 109.137 163.598 108.62 162.129 108.166C160.672 107.72 159.236 107.185 157.8 106.619C156.374 106.051 154.896 105.6 153.499 104.972C149.608 103.222 150.734 104.229 146.94 102.255C145.864 103.726 144.687 105.216 143.432 106.473C142.17 107.742 140.911 109.051 139.494 110.121C138.077 111.19 136.596 112.207 135.056 113.088C133.527 113.975 131.914 114.744 130.294 115.454C128.682 116.161 127.01 116.763 125.327 117.328C123.653 117.89 121.939 118.351 120.234 118.778C118.517 119.199 116.734 119.362 115.01 119.662C113.257 119.96 111.505 120.197 109.765 120.378C108.194 120.55 106.619 120.641 105.044 120.763C103.469 120.886 101.9 121.129 100.326 121.158C98.743 121.19 97.1625 121.006 95.5812 120.884C93.617 120.732 91.6254 120.425 89.672 120.599C87.8123 120.765 86.0407 121.386 84.3205 122.116C82.624 122.828 81.0748 123.937 79.3894 124.686C77.6893 125.451 75.921 126.051 74.089 126.342C72.1017 126.659 70.3958 126.923 68.8931 127.32C67.0766 127.791 65.5854 128.452 64.1909 129.597C62.9972 130.579 61.6991 131.726 60.6117 133.61C59.7366 135.112 58.847 136.598 57.8211 137.982C56.7893 139.377 55.8067 140.809 54.5929 142.012C53.379 143.216 51.9662 144.171 50.5478 145.108C49.1442 146.03 47.7571 147.039 46.141 147.635C43.7609 148.5 41.0645 148.66 38.6929 147.594C36.5104 146.616 35.6652 145.361 35.455 143.855C35.2343 142.249 35.7496 140.506 36.7492 138.874C37.7008 137.338 39.0387 136.036 40.1422 135.009L40.125 134.984Z" fill="#FCFCFC"/>
<path d="M39.3365 134.204C40.47 133.117 41.3574 131.816 42.2912 130.542C43.2251 129.268 44.0367 127.939 44.7617 126.512C46.2985 123.499 47.4654 120.115 48.1143 116.732C48.3828 115.319 48.6023 113.838 49.3396 112.613C50.0977 111.361 51.2708 110.631 52.51 109.994C53.8966 109.272 55.2234 108.414 56.6557 107.781C58.2174 107.099 59.7663 106.503 61.2139 105.567C62.7148 104.586 64.1033 103.453 65.3912 102.176C65.9833 101.589 66.6815 100.939 67.1029 100.198C67.4587 99.5585 67.4893 98.9546 68.0916 98.4977C67.9297 98.823 67.7679 99.1482 67.606 99.4735C67.3273 97.5776 67.1438 95.5507 67.2864 93.6519C67.4259 91.7746 68.0341 90.0854 68.6807 88.3642C69.309 86.71 69.8588 85.0178 70.8677 83.578C71.9391 82.058 73.3933 80.8237 74.8171 79.6804C76.2853 78.493 77.9484 77.6371 79.5571 76.695C81.2189 75.7061 82.9131 74.9538 84.7403 74.3258C86.5823 73.6831 88.4206 73.3491 90.3238 72.9752C92.2446 72.5961 94.0687 71.7331 95.871 70.9895C97.8791 70.1638 99.8815 69.3194 101.873 68.4372C103.881 67.5499 105.883 66.5108 107.954 65.7996C107.766 66.3583 107.575 66.9076 107.387 67.4663C106.213 65.3354 105.228 63.066 104.642 60.6877C104.09 58.4223 103.519 56.0292 103.277 53.712C102.824 49.2737 104.052 44.7435 106.184 41.0605C107.23 39.2612 108.212 37.4091 109.556 35.8384C111.018 34.1194 112.6 32.5395 114.435 31.2631C116.267 29.9772 118.19 28.9309 120.287 28.1809C122.35 27.4416 124.413 26.4458 126.594 26.1018C128.827 25.742 131.189 25.9388 133.46 25.8343C135.635 25.7279 137.552 26.2012 139.611 26.9909C141.603 27.7493 143.61 28.4312 145.451 29.5834C147.362 30.7762 149.155 32.3121 150.812 33.878C152.38 35.3681 153.782 37.0721 155.442 38.4527C157.09 39.8266 159.069 40.2198 160.822 41.3365C164.286 43.5523 165.428 48.3384 165.613 52.2622C165.843 57.2388 163.715 61.9972 161.134 65.9165C159.749 68.0225 158.267 70.1267 156.384 71.7559C155.514 72.5078 154.59 73.2044 153.739 73.982C152.765 74.8675 151.821 75.7854 150.802 76.613C150.908 76.0994 151.01 75.5765 151.116 75.063C153.051 78.1354 154.264 82.193 153.922 85.8331C153.737 85.4064 153.554 84.9891 153.369 84.5624C155.64 85.9656 157.953 87.2843 160.236 88.6634C162.493 90.0194 164.864 90.952 167.217 92.0844C169.436 93.1542 171.686 94.133 173.843 95.3448C175.973 96.5336 178.099 98.0929 179.25 100.405C180.287 102.495 180.524 104.957 179.362 106.976C178.179 109.021 176.071 110.123 173.86 110.496C171.348 110.919 168.528 110.92 165.994 110.437C163.461 109.953 160.918 109.021 158.489 108.085C157.056 107.529 155.602 107.03 154.173 106.452C153.116 106.03 152.083 105.528 151.008 105.142C149.441 104.585 147.947 104.016 146.438 103.236C146.869 103.169 147.291 103.105 147.722 103.037C144.745 107.075 141.213 110.54 137.054 113.188C132.959 115.796 128.379 117.647 123.749 119.01C119.125 120.361 114.26 121.066 109.462 121.546C107.048 121.785 104.624 121.956 102.214 122.173C99.7945 122.394 97.3777 122.172 94.952 121.954C92.506 121.731 90.1131 121.462 87.7329 122.101C85.3497 122.731 83.2964 123.919 81.1381 125.077C78.921 126.262 76.5472 127.084 74.0762 127.484C71.9247 127.83 69.7299 128.127 67.6817 128.882C65.6776 129.625 63.9081 131.056 62.5393 132.736C61.0341 134.571 60.0036 136.837 58.6026 138.763C57.2017 140.689 55.8102 142.551 53.9698 144.034C52.2239 145.448 50.2597 146.773 48.2984 147.852C46.2281 148.983 43.8302 149.628 41.4543 149.415C39.2654 149.218 36.7658 148.334 35.3436 146.401C34.0282 144.599 34.1414 142.217 34.8495 140.252C35.7361 137.792 37.5168 135.917 39.3305 134.216C40.3364 133.28 41.9268 134.845 40.9209 135.782C39.3853 137.225 37.8105 138.762 36.9583 140.791C36.2899 142.375 36.1077 144.398 37.5528 145.638C40.9872 148.59 45.7234 146.909 48.8904 144.824C50.7482 143.592 52.6902 142.417 54.2256 140.748C55.749 139.103 57.1031 137.181 58.3079 135.272C59.453 133.454 60.4207 131.554 61.9598 130.059C63.4546 128.607 65.0955 127.42 67.0291 126.698C68.9716 125.974 71.061 125.678 73.104 125.355C75.449 124.982 77.7155 124.315 79.8234 123.213C81.8136 122.168 83.6964 121.051 85.8263 120.312C88.0178 119.555 90.2411 119.321 92.5649 119.488C94.8507 119.656 97.1319 119.969 99.422 120.023C101.741 120.079 104.037 119.701 106.338 119.536C108.686 119.368 111.027 119.14 113.36 118.791C115.646 118.447 117.972 118.172 120.222 117.612C125.155 116.395 130.035 114.68 134.463 112.127C139.07 109.468 142.914 105.828 146.131 101.472C146.426 101.076 147.008 101.066 147.415 101.273C148.572 101.87 149.701 102.374 150.923 102.768C152.706 103.342 154.41 104.197 156.167 104.841C158.439 105.67 160.672 106.561 162.978 107.277C164.12 107.633 165.271 108.017 166.451 108.239C167.641 108.468 168.853 108.475 170.049 108.466C172.244 108.457 174.619 108.444 176.418 107.014C178.078 105.698 178.402 103.54 177.455 101.557C176.458 99.4752 174.481 98.1893 172.589 97.1549C170.592 96.0595 168.517 95.1517 166.475 94.1621C164.052 92.989 161.586 92.0237 159.248 90.6202C156.965 89.2412 154.652 87.9224 152.381 86.5192C151.922 86.2359 151.781 85.7652 151.828 85.2486C151.969 83.7607 151.606 82.0334 151.223 80.5892C150.811 79.0201 150.17 77.5812 149.312 76.2174C148.964 75.6649 149.177 75.0271 149.626 74.6674C151.221 73.36 152.681 71.888 154.279 70.5901C155.872 69.3041 157.134 67.7477 158.347 66.0622C160.653 62.8608 162.594 59.276 163.304 55.2286C163.652 53.2479 163.493 51.1728 163.081 49.1834C162.707 47.3876 162.107 45.4751 160.83 44.1236C159.547 42.7533 157.743 42.4309 156.182 41.5744C154.488 40.6554 153.083 39.2602 151.733 37.8586C148.875 34.8772 145.784 31.8837 142.049 30.2717C140.245 29.4984 138.303 28.6839 136.418 28.2524C134.429 27.7907 132.338 28.2104 130.337 28.193C128.219 28.1696 126.344 28.3503 124.358 29.0874C122.424 29.8088 120.355 30.3965 118.529 31.383C115.051 33.263 111.801 35.9674 109.682 39.4719C108.578 41.2991 107.37 43.1673 106.594 45.1938C105.785 47.302 105.376 49.7214 105.363 52.0223C105.348 54.4776 105.994 56.961 106.53 59.3646C107.08 61.8152 107.989 64.1177 109.2 66.3092C109.561 66.9705 109.303 67.7449 108.633 67.9758C106.929 68.567 105.304 69.4218 103.655 70.1301C101.922 70.8835 100.196 71.6559 98.4553 72.3811C96.7647 73.0811 95.0709 73.8025 93.3519 74.4393C91.6416 75.0734 89.9076 75.2428 88.1443 75.6672C86.3545 76.0995 84.4896 76.6978 82.8243 77.4825C81.2415 78.2221 79.7114 79.2023 78.2085 80.1129C76.7055 81.0234 75.341 82.108 74.0683 83.3395C72.7748 84.5976 71.9155 85.9927 71.2601 87.7165C70.5898 89.455 69.8079 91.2372 69.5162 93.1189C69.1995 95.1415 69.4618 97.432 69.7622 99.465C69.8247 99.8667 69.5572 100.224 69.2766 100.441C69.067 100.606 69.3911 100.407 69.3919 100.345C69.3964 100.456 69.3096 100.615 69.2733 100.719C69.1731 101.025 69.0532 101.266 68.8717 101.526C68.4246 102.213 67.8905 102.834 67.3277 103.423C66.2227 104.573 65.0135 105.632 63.7413 106.576C61.0848 108.539 58.016 109.507 55.1881 111.121C53.9833 111.81 52.4675 112.324 51.5215 113.396C50.5814 114.457 50.4597 116.072 50.1888 117.445C49.5409 120.736 48.4186 124.076 46.973 127.041C46.1933 128.638 45.303 130.186 44.2707 131.612C43.2237 133.053 42.2228 134.552 40.9473 135.774C39.9558 136.726 38.3655 135.161 39.3569 134.208L39.3365 134.204Z" fill="#222222"/>
<path d="M90.2817 59.3179C91.7987 59.1928 93.2552 58.7371 94.7061 58.2625C96.1306 57.7958 97.6128 57.394 99.0071 56.762C100.395 56.1421 101.755 55.4588 103.14 54.8604C104.549 54.2446 105.937 53.6555 107.367 53.2386C109.164 52.7016 111.013 52.3744 112.743 51.8371C114.543 51.2787 116.301 50.5791 117.832 49.5372C119.283 48.5498 120.372 47.0245 121.392 45.1713C122.139 43.8199 122.6 42.2775 122.592 40.6799C122.585 39.0514 122.088 37.5489 121.068 36.2848C119.554 34.399 117.279 33.3355 114.989 33.0868C112.899 32.8702 111.068 33.3868 109.277 33.8808C107.466 34.3706 105.652 34.882 103.744 35.4625C102.422 35.8573 101.141 36.5786 99.7385 36.9259C98.3712 37.2627 96.9215 37.3882 95.5316 37.6497C94.1154 37.9191 92.71 38.257 91.3417 38.43C89.6422 38.6507 87.8737 38.769 86.1795 39.0394C84.4384 39.3135 82.8501 39.7779 81.4102 40.8029C80.2004 41.6669 79.1814 42.72 78.6029 44.1234C78.0276 45.5054 77.7545 47.0637 77.8177 48.6241C77.8782 50.175 78.1838 51.7757 78.9017 53.1507C79.6341 54.5419 80.8006 55.588 81.9974 56.5429C83.1827 57.4911 84.4838 58.2817 85.9121 58.7265C87.3403 59.1714 88.8292 59.4341 90.2905 59.3153L90.2817 59.3179Z" fill="#222222"/>
<path d="M90.2334 58.1942C92.0318 58.0157 93.7421 57.3816 95.4513 56.8401C97.2397 56.2749 98.9391 55.5723 100.64 54.777C102.237 54.0228 103.858 53.282 105.515 52.6637C107.158 52.0601 108.851 51.6877 110.547 51.2629C113.886 50.4292 117.328 49.298 119.424 46.2927C121.296 43.6002 122.659 39.7165 120.084 36.7838C117.821 34.2195 114.409 33.8137 111.42 34.5019C109.73 34.8838 108.059 35.3933 106.389 35.8719C104.604 36.3847 102.92 37.0418 101.18 37.6744C99.4673 38.2991 97.6403 38.4143 95.8665 38.7393C94.1483 39.0578 92.4497 39.4423 90.7066 39.6453C87.2555 40.0407 83.4548 40.0689 80.8512 42.7544C78.3927 45.2836 78.136 50.3647 80.2826 53.374C82.5558 56.5505 86.6088 58.4261 90.2422 58.1915C91.6066 58.1017 91.6966 60.3617 90.3322 60.4515C86.4909 60.6969 82.8779 58.9769 80.0023 56.2572C77.0775 53.501 76.1262 49.1296 77.0939 45.2717C78.046 41.4903 81.0448 39.0355 84.5859 38.203C86.6191 37.7185 88.7268 37.6117 90.8012 37.361C92.8198 37.1167 94.7861 36.6009 96.7995 36.307C97.7902 36.1545 98.7893 36.0303 99.7522 35.7528C100.815 35.4558 101.798 34.9569 102.829 34.5872C104.777 33.8821 106.817 33.3855 108.812 32.8404C112.396 31.8618 116.104 31.3283 119.533 33.4928C122.834 35.5827 124.379 39.4691 123.327 43.3009C122.312 46.9987 119.715 50.0614 116.438 51.6151C114.363 52.6041 112.168 53.1883 109.941 53.7307C107.705 54.2758 105.584 55.0121 103.472 55.9405C99.2666 57.792 94.9807 59.9854 90.3382 60.4395C88.9763 60.5695 88.8978 58.3164 90.2482 58.1795L90.2334 58.1942Z" fill="#222222"/>
<path d="M172.831 103.01C173.754 103.401 174.619 103.921 175.348 104.657C176.065 105.387 176.627 106.275 176.961 107.262C177.147 107.822 176.808 108.518 176.271 108.647C175.69 108.79 175.133 108.465 174.935 107.867C174.907 107.773 174.87 107.682 174.833 107.59C174.81 107.515 174.719 107.368 174.861 107.653C174.85 107.616 174.827 107.571 174.807 107.536C174.724 107.356 174.627 107.19 174.518 107.018C174.463 106.932 174.412 106.855 174.357 106.768C174.328 106.736 174.308 106.701 174.276 106.659C174.167 106.518 174.253 106.646 174.32 106.708C174.181 106.565 174.066 106.404 173.93 106.271C173.803 106.134 173.661 106.012 173.519 105.891C173.479 105.852 173.432 105.825 173.392 105.785C173.276 105.687 173.429 105.815 173.464 105.835C173.383 105.788 173.305 105.719 173.22 105.662C173.064 105.555 172.889 105.453 172.727 105.358C172.645 105.311 172.555 105.266 172.468 105.231C172.389 105.193 172.069 105.052 172.378 105.186C172.104 105.073 171.886 104.953 171.717 104.676C171.568 104.433 171.502 104.084 171.572 103.806C171.643 103.529 171.795 103.268 172.031 103.126C172.261 102.996 172.584 102.889 172.849 103.004L172.831 103.01Z" fill="#222222"/>
<path d="M43.2111 143.578C42.0212 145.471 40.2031 146.804 38.0761 147.296C37.5364 147.417 36.8933 147.127 36.7397 146.516C36.6002 145.953 36.8542 145.262 37.4291 145.131C37.878 145.028 38.3128 144.877 38.7391 144.699C38.848 144.646 38.842 144.658 38.7127 144.706C38.7656 144.691 38.8128 144.656 38.8716 144.628C38.9453 144.586 39.0217 144.553 39.1042 144.507C39.3103 144.395 39.5049 144.275 39.6938 144.136C39.8855 144.007 40.0627 143.862 40.2488 143.714C40.0479 143.877 40.2696 143.687 40.302 143.668C40.3848 143.591 40.4737 143.503 40.5537 143.418C40.7137 143.247 40.8737 143.076 41.0193 142.889C41.0877 142.797 41.1649 142.702 41.2333 142.61C41.2988 142.508 41.3016 142.518 41.2361 142.619C41.2689 142.568 41.3017 142.518 41.3345 142.467C41.6415 141.985 42.236 141.695 42.7702 142.038C43.2319 142.331 43.5538 143.055 43.2287 143.572L43.2111 143.578Z" fill="#222222"/>
<path d="M143.41 43.4322C143.61 44.1006 144.441 44.601 145.066 44.4141C145.691 44.2273 145.865 43.4268 145.665 42.7584C145.465 42.09 144.946 41.7325 144.321 41.9193C143.695 42.1062 143.21 42.7638 143.41 43.4322Z" fill="#222222"/>
<path d="M144.423 43.1295C144.423 43.1295 144.451 43.2236 144.465 43.2707C144.428 43.1792 144.382 43.0903 144.343 42.9894C144.391 43.0877 144.449 43.1833 144.512 43.267C144.451 43.1928 144.391 43.1186 144.327 43.035C144.417 43.1416 144.512 43.2361 144.617 43.328C144.541 43.2685 144.466 43.2089 144.393 43.1588C144.504 43.2387 144.62 43.3065 144.742 43.3623C144.655 43.3268 144.567 43.2914 144.489 43.2534C144.599 43.3024 144.713 43.3299 144.836 43.3548L144.555 43.3155C144.655 43.3269 144.76 43.3262 144.862 43.3161C144.772 43.333 144.678 43.3404 144.578 43.36C144.669 43.3431 144.748 43.3194 144.834 43.2836C144.748 43.3194 144.666 43.3646 144.572 43.4029C144.639 43.3724 144.695 43.3352 144.757 43.2859C144.689 43.3473 144.621 43.4086 144.545 43.4726C144.604 43.4138 144.663 43.3551 144.711 43.2896C144.657 43.3672 144.603 43.4447 144.559 43.5196C144.612 43.4421 144.651 43.3483 144.682 43.2572C144.651 43.3483 144.621 43.4395 144.588 43.5212C144.63 43.406 144.649 43.2772 144.66 43.151L144.633 43.4462C144.637 43.3013 144.633 43.1589 144.611 43.0219C144.631 43.1186 144.641 43.218 144.663 43.3242C144.636 43.1683 144.591 43.0177 144.531 42.8818C144.568 42.9733 144.614 43.0622 144.654 43.1631C144.602 43.0554 144.542 42.9503 144.464 42.8505L144.649 43.0825C144.588 43.0083 144.522 42.9462 144.458 42.8934C144.533 42.9529 144.609 43.0124 144.681 43.0625C144.62 43.0192 144.55 42.9785 144.484 42.9473C144.571 42.9827 144.658 43.0181 144.737 43.0562C144.649 43.0208 144.568 43.0042 144.486 42.9876C144.577 43.0016 144.667 43.0155 144.766 43.0269C144.676 43.0129 144.582 43.0204 144.488 43.0279C144.579 43.011 144.673 43.0034 144.773 42.9839C144.644 43.0019 144.532 43.0455 144.42 43.0892C144.506 43.0534 144.588 43.0083 144.682 42.9699C144.565 43.0256 144.461 43.0975 144.37 43.1761C144.438 43.1148 144.506 43.0535 144.583 42.9895C144.491 43.0681 144.405 43.1656 144.339 43.2673C144.393 43.1897 144.446 43.1122 144.491 43.0373C144.44 43.1242 144.39 43.2112 144.353 43.3143C144.384 43.2232 144.414 43.1321 144.447 43.0504C144.417 43.1415 144.401 43.218 144.391 43.3132C144.401 43.218 144.411 43.1227 144.418 43.018C144.408 43.1133 144.416 43.2033 144.424 43.2933C144.405 43.1965 144.394 43.0971 144.372 42.9909C144.386 43.038 144.4 43.0851 144.405 43.1348C144.49 43.4172 144.46 43.7338 144.336 43.9962C144.217 44.2371 143.968 44.4652 143.71 44.5321C143.443 44.6017 143.142 44.5891 142.892 44.4278C142.645 44.276 142.449 44.0372 142.362 43.7454C142.073 42.714 142.515 41.6896 143.329 41.1387C143.689 40.8979 144.15 40.7396 144.589 40.7624C145.083 40.7788 145.522 40.9653 145.908 41.2911C146.241 41.571 146.473 41.994 146.617 42.4124C146.772 42.8684 146.79 43.3451 146.729 43.8146C146.683 44.2385 146.482 44.6575 146.212 44.974C145.853 45.3787 145.359 45.5878 144.829 45.6128C143.77 45.6628 142.688 44.8374 142.35 43.7694C142.268 43.4964 142.293 43.161 142.419 42.908C142.538 42.6671 142.787 42.439 143.045 42.3721C143.609 42.2345 144.193 42.5521 144.382 43.152L144.423 43.1295Z" fill="#222222"/>
<path d="M145.2 88.9517C146.116 90.6675 147.206 92.2596 148.42 93.7221C149.634 95.1847 150.927 96.6235 152.355 97.8685C153.771 99.1067 155.448 100 156.998 101.075C158.544 102.141 160.154 103.096 161.749 104.035C163.378 104.993 164.885 106.184 166.49 107.058C167.926 107.849 169.466 108.702 170.737 109.809C172.086 110.985 173.13 112.293 173.357 114.082C173.616 116.168 172.727 118.331 171.173 119.585C169.628 120.836 167.557 121.322 165.587 121.439C163.956 121.536 162.329 121.325 160.718 121.007C159.124 120.683 157.557 120.126 156.002 119.545C154.455 118.961 152.831 118.533 151.329 117.844C149.627 117.06 147.931 116.234 146.245 115.405C144.558 114.576 142.892 113.689 141.22 112.814C139.548 111.94 137.903 111.027 136.256 110.104C134.608 109.181 133.05 108.077 131.429 107.116C129.808 106.154 128.184 105.183 126.578 104.176C124.972 103.169 123.399 102.111 121.826 101.053" fill="#FCFCFC"/>
<path d="M146.091 88.3674C147.749 91.4101 149.951 94.1566 152.451 96.4861C153.701 97.6508 155.104 98.5238 156.518 99.4344C158.027 100.409 159.507 101.412 161.047 102.326C162.496 103.196 163.901 104.109 165.321 105.038C166.668 105.918 168.096 106.619 169.449 107.486C171.955 109.096 174.451 111.447 174.476 114.742C174.499 117.709 172.79 120.24 170.306 121.433C167.379 122.841 163.983 122.748 160.816 122.136C159.208 121.827 157.64 121.301 156.088 120.729C154.532 120.148 152.937 119.691 151.409 119.04C148.158 117.663 144.98 115.988 141.84 114.342C134.81 110.659 127.994 106.44 121.353 102.005C120.178 101.218 121.144 99.2473 122.331 100.041C125.146 101.917 127.974 103.739 130.861 105.47C133.653 107.138 136.379 108.908 139.233 110.465C142.125 112.052 145.053 113.566 148.017 115.008C149.544 115.752 151.07 116.557 152.643 117.164C154.093 117.715 155.565 118.178 157.022 118.717C159.972 119.794 163.082 120.567 166.178 120.236C168.855 119.949 171.67 118.708 172.25 115.674C172.862 112.517 170.104 110.418 167.789 109.028C166.456 108.227 165.09 107.507 163.792 106.633C162.472 105.746 161.133 104.926 159.776 104.111C158.199 103.167 156.687 102.122 155.134 101.13C153.65 100.178 152.211 99.2138 150.915 97.9911C148.346 95.5592 146.037 92.6805 144.319 89.5328C143.621 88.2546 145.413 87.0934 146.112 88.3716L146.091 88.3674Z" fill="#222222"/>
<path d="M165.606 115.916C167.217 116.491 168.651 117.662 169.554 119.207C169.849 119.714 169.747 120.462 169.24 120.757C168.751 121.047 168.08 120.919 167.761 120.368C167.607 120.107 167.446 119.858 167.261 119.626C167.322 119.7 167.382 119.774 167.446 119.858C167.106 119.426 166.712 119.041 166.286 118.707C166.362 118.766 166.437 118.826 166.51 118.876C166.098 118.558 165.656 118.3 165.182 118.094C165.269 118.129 165.357 118.164 165.435 118.202C165.336 118.16 165.237 118.118 165.132 118.088C164.864 117.994 164.626 117.839 164.471 117.578C164.322 117.335 164.256 116.986 164.327 116.708C164.471 116.163 165.032 115.698 165.603 115.906L165.606 115.916Z" fill="#222222"/>
<path d="M168.919 111.972C170.686 112.716 172.291 114.01 173.23 115.802C173.501 116.325 173.44 117.051 172.916 117.352C172.441 117.627 171.732 117.531 171.437 116.963C171.251 116.598 171.024 116.286 170.791 115.956C170.989 116.235 170.794 115.965 170.736 115.901C170.675 115.826 170.603 115.745 170.534 115.674C170.392 115.521 170.242 115.371 170.083 115.224C170.005 115.155 169.938 115.093 169.86 115.024C169.822 114.994 169.793 114.962 169.758 114.942C169.732 114.919 169.57 114.793 169.709 114.905C169.845 115.008 169.709 114.905 169.686 114.892C169.639 114.864 169.599 114.825 169.552 114.798C169.468 114.741 169.384 114.684 169.303 114.637C169.137 114.532 168.963 114.431 168.791 114.338C168.701 114.294 168.62 114.246 168.533 114.211C168.454 114.173 168.125 114.035 168.44 114.156C168.166 114.043 167.948 113.924 167.779 113.646C167.629 113.404 167.563 113.054 167.634 112.777C167.705 112.499 167.857 112.239 168.093 112.096C168.322 111.966 168.646 111.859 168.91 111.975L168.919 111.972Z" fill="#222222"/>
<path d="M159.524 50.7689C159.228 52.3136 157.77 53.6004 156.581 54.4068C155.204 55.3517 153.518 55.8758 151.846 55.8013C148.761 55.6566 145.751 53.6436 144.332 50.6937C144.064 50.1484 144.124 49.4842 144.646 49.1437C145.097 48.8551 145.854 48.9778 146.125 49.5325C147.179 51.7096 149.248 53.337 151.563 53.5376C152.793 53.6416 154.028 53.3443 155.074 52.7035C155.602 52.3818 156.066 52.0074 156.498 51.5602C156.88 51.1692 157.347 50.7733 157.454 50.198C157.722 48.7846 159.801 49.3529 159.536 50.7757L159.524 50.7689Z" fill="#222222"/>
<path d="M94.8332 76.8268C96.5583 77.3983 98.3053 77.8505 100.052 78.3336C101.799 78.8166 103.546 79.2379 105.314 79.6325C107.074 80.0297 108.817 80.5651 110.589 80.8764C112.361 81.1878 114.148 81.4536 115.93 81.6697C117.712 81.8858 119.496 82.2349 121.282 82.3678C123.068 82.5007 124.87 82.4954 126.657 82.5357C128.649 82.5866 130.672 82.6793 132.705 82.7385C134.737 82.7977 136.762 82.736 138.734 82.4955C140.873 82.2358 142.99 82.3519 145.095 82.2356C147.179 82.1153 149.212 81.6617 151.297 80.9667C152.399 80.6068 153.562 80.1668 153.994 79.0431C154.369 78.0801 153.998 77.0321 153.335 76.2253C152.247 74.8991 150.359 73.8124 148.228 73.1673C146.138 72.5304 143.952 72.0555 142.459 71.6814C140.904 71.2948 139.312 71.1349 137.747 70.8127C136.183 70.4905 134.581 70.3641 133.035 69.9748C131.396 69.5622 129.797 68.9633 128.149 68.5842C126.509 68.2025 124.845 67.9307 123.196 67.5825C121.547 67.2343 119.889 66.9813 118.231 66.6666C116.573 66.3519 114.952 65.8105 113.294 65.5267C111.636 65.2429 109.942 65.2569 108.286 65.0133C107.252 64.8608 106.221 64.4921 105.195 64.6242C103.926 64.7777 102.703 65.2764 101.556 65.8347C99.9403 66.6251 98.3616 67.5071 96.746 68.2975C95.1304 69.0879 93.6088 70.0963 91.9932 70.8867C90.3776 71.6771 88.6356 72.2694 87.0112 73.0625C88.1348 74.0291 89.5147 74.6013 90.8326 75.2227C92.1476 75.8347 93.4779 76.4012 94.8416 76.8551L94.8332 76.8268Z" fill="#7A92FC"/>
<path d="M95.0619 75.733C99.2701 77.1008 103.574 78.0194 107.844 79.1123C109.985 79.6622 112.14 80.0335 114.313 80.3379C116.497 80.6491 118.702 81.0261 120.897 81.2112C123.015 81.3984 125.146 81.3669 127.275 81.4281C129.521 81.4953 131.766 81.6242 134.013 81.6296C136.152 81.6264 138.244 81.3396 140.369 81.2275C142.506 81.1222 144.655 81.2493 146.765 80.9263C147.765 80.7712 148.742 80.5408 149.713 80.2607C150.597 80.0069 151.635 79.789 152.405 79.2512C154.143 78.0347 151.921 76.1861 150.794 75.4974C148.973 74.3802 146.887 73.9166 144.874 73.4105C143.051 72.9606 141.234 72.5294 139.388 72.2297C137.35 71.8953 135.279 71.6116 133.254 71.1605C131.119 70.6912 129.057 69.8921 126.918 69.4443C122.762 68.5736 118.581 67.8746 114.441 66.8965C112.131 66.3564 109.786 66.4416 107.474 65.9941C106.324 65.7737 105.39 65.6325 104.251 65.9626C103.083 66.2912 101.991 66.8431 100.91 67.4018C98.7055 68.5324 96.5006 69.6629 94.3416 70.8823C92.159 72.1191 89.8233 72.9401 87.5725 74.0126C87.6147 73.4154 87.6597 72.8277 87.702 72.2305C88.7333 73.0812 89.9734 73.6028 91.1634 74.1496C92.4436 74.7413 93.7302 75.29 95.0531 75.7356C96.3672 76.1839 95.9168 78.3694 94.5823 77.917C93.0787 77.4126 91.6235 76.781 90.1774 76.1158C88.7983 75.4819 87.4748 74.8416 86.2695 73.8584C85.7596 73.4365 85.8134 72.3642 86.399 72.0764C88.547 71.0448 90.7826 70.2743 92.8708 69.1068C94.9442 67.954 97.0344 66.8577 99.1363 65.7681C101.079 64.7568 103.162 63.5396 105.41 63.4524C106.358 63.4152 107.285 63.6919 108.217 63.8546C109.44 64.0633 110.674 64.0842 111.902 64.2097C114.128 64.4365 116.253 65.1246 118.445 65.5566C120.707 65.9984 122.966 66.4 125.226 66.8324C127.505 67.269 129.71 67.8407 131.941 68.4972C134.13 69.1453 136.359 69.4124 138.583 69.8245C140.644 70.2034 142.694 70.5755 144.744 71.0805C146.853 71.5886 149.024 72.0782 150.996 73.0889C152.595 73.9134 154.44 75.2387 155.014 77.1284C155.655 79.2748 154.369 80.9102 152.608 81.6622C150.693 82.4803 148.578 82.9482 146.518 83.2151C144.283 83.5037 142.009 83.3424 139.766 83.5101C137.408 83.6812 135.097 83.9103 132.728 83.8491C130.38 83.792 128.023 83.6758 125.677 83.6282C120.45 83.539 115.186 82.8764 110.008 81.8908C107.475 81.4071 104.944 80.7072 102.429 80.0947C99.7979 79.4453 97.1703 78.7434 94.5883 77.905C93.271 77.4782 93.7214 75.2927 95.0591 75.7236L95.0619 75.733Z" fill="#222222"/>
<path d="M153.646 83.5668C151.197 83.3655 149.059 83.0505 148.407 80.3227C147.922 78.3142 147.186 74.5038 148.221 72.6668C149.073 71.1509 152.157 72.034 153.655 72.2632C155.726 72.5777 156.769 73.917 157.309 75.7245C157.827 77.4568 157.771 79.4218 157.244 81.1585C157.034 81.8674 156.852 82.6087 156.294 83.0524C155.565 83.6293 154.57 83.6394 153.643 83.5574L153.646 83.5668Z" fill="#7A92FC"/>
<path d="M153.685 84.6934C152.387 84.5889 151.072 84.4588 149.862 83.877C148.705 83.3102 147.875 82.2353 147.478 80.9696C147.089 79.7322 146.886 78.3778 146.743 77.0975C146.594 75.8293 146.529 74.4543 146.851 73.2198C147.203 71.8633 148.01 70.966 149.355 70.7486C150.618 70.5454 151.906 70.8068 153.167 71.0453C154.448 71.2879 155.653 71.5637 156.668 72.5216C157.724 73.5187 158.307 74.9855 158.559 76.4073C158.896 78.3063 158.701 80.19 158.132 81.9801C157.828 82.9221 157.415 83.7532 156.552 84.2367C155.68 84.7228 154.667 84.7691 153.685 84.6934C153.106 84.651 152.6 84.2076 152.572 83.5698C152.553 82.991 153.016 82.3911 153.595 82.4335C154.174 82.4759 154.837 82.5443 155.378 82.3005C155.87 82.0819 155.999 81.5511 156.148 81.0553C156.526 79.7836 156.7 78.4703 156.526 77.1174C156.399 76.1809 156.099 75.1427 155.487 74.4128C154.844 73.641 153.983 73.4573 153.072 73.2988C152.15 73.1335 151.222 72.9185 150.286 72.9316C149.961 72.9364 149.536 72.9916 149.345 73.0898C149.13 73.2053 149.025 73.4315 148.93 73.788C148.461 75.5895 148.892 77.7065 149.3 79.5226C149.523 80.4919 149.779 81.3178 150.601 81.7899C151.482 82.2959 152.604 82.3603 153.598 82.4428C154.177 82.4852 154.681 82.9192 154.711 83.5665C154.736 84.1332 154.267 84.7452 153.688 84.7028L153.685 84.6934Z" fill="#222222"/>
<path d="M148.641 82.3243C148.372 81.1024 148.177 79.838 147.951 78.6029C147.916 78.4188 147.864 78.1164 147.93 77.953C148.011 77.7441 148.423 77.7748 148.609 77.6886C149.236 77.3782 149.858 77.2128 150.544 77.3566C150.964 77.4463 151.343 77.5278 151.7 77.7904C152.979 78.7311 154.206 79.8514 155.367 81.1042C156.476 82.311 157.443 83.6835 158.395 85.0706C159.346 86.4577 160.407 87.7919 161.147 89.273C161.927 90.8242 162.646 92.3939 163.142 93.9273C163.218 94.1815 163.071 94.4921 163.013 94.7454C162.874 95.3098 162.242 95.6013 161.686 95.5725C160.101 95.5025 158.462 95.0899 157.02 94.3416C155.589 93.6 154.307 92.4243 153.196 91.2081C152.081 89.9824 151.023 88.6268 150.293 87.1122C149.565 85.6069 149.011 83.947 148.638 82.315L148.641 82.3243Z" fill="#7A92FC"/>
<path d="M147.628 82.6272C147.412 81.615 147.234 80.6017 147.053 79.579C146.913 78.7901 146.609 77.8351 147.138 77.1644C147.527 76.6687 148.513 76.4356 149.091 76.2834C149.921 76.0763 150.812 76.1688 151.622 76.5013C152.376 76.8092 153.05 77.4281 153.672 77.9702C154.472 78.6543 155.238 79.3892 155.96 80.1682C157.315 81.6195 158.433 83.2747 159.573 84.9033C160.809 86.6667 161.936 88.3811 162.842 90.356C163.584 91.9701 164.815 94.0019 163.771 95.6778C162.852 97.1624 160.78 96.715 159.359 96.391C157.585 95.9776 155.957 95.1515 154.514 93.983C150.982 91.121 148.668 87.1361 147.622 82.6392C147.297 81.229 149.326 80.6022 149.657 82.0312C150.383 85.1676 151.655 87.9152 153.794 90.2908C155.764 92.4815 158.018 94.0537 160.875 94.3998C161.243 94.4436 161.913 94.6638 162.045 94.2041C162.198 93.6559 161.432 92.3773 161.201 91.8618C160.531 90.3595 159.779 88.9333 158.85 87.5907C157.113 85.0845 155.429 82.5626 153.224 80.4833C152.197 79.5186 150.933 78.0813 149.464 78.5611C149.359 78.5927 148.69 78.9874 148.542 78.8778C148.739 79.024 148.716 78.2411 148.994 78.5274C149.106 78.6476 149.1 79.1416 149.136 79.3257C149.292 80.2328 149.457 81.1373 149.648 82.0338C149.956 83.4493 147.924 84.0667 147.613 82.6418L147.628 82.6272Z" fill="#222222"/>
<path d="M81.6567 104.402C82.7721 105.566 84.743 106.382 85.737 107.172C87.0004 108.189 88.0763 109.477 89.3605 110.468C90.6447 111.458 92.1376 112.119 93.4366 113.095C95.0719 114.329 96.5493 115.806 98.2113 117.001C99.8734 118.196 101.574 119.329 103.254 120.488C104.427 121.297 105.939 122.537 107.437 123.535C109.039 124.595 110.577 125.119 112.024 124.277C114.06 123.094 115.79 121.47 117.432 119.738C118.753 118.349 119.997 116.859 121.316 115.46C122.634 114.061 123.979 112.685 125.297 111.286C126.619 109.897 127.978 108.537 129.311 107.154C130.318 106.125 131.484 105.274 132.494 104.255C133.503 103.235 134.496 102.19 135.52 101.187C136.077 100.641 138.161 99.0746 138.139 98.23C138.117 97.3546 135.96 96.461 135.374 96.0105C135.212 95.8846 135.175 95.5676 135.089 95.3778C134.995 95.1597 134.951 94.9164 134.969 94.6856C135.094 93.4996 135.441 92.3499 135.567 91.1639C135.666 90.2422 135.65 89.1292 135.115 88.3661C134.827 87.9496 134.264 87.8308 133.849 87.5652C131.63 86.1771 129.196 85.1919 127.061 83.8916C125.647 83.0427 124.313 82.0466 122.898 81.1977C121.483 80.3488 120.18 79.2925 118.771 78.4316C117.356 77.5827 115.951 76.7312 114.533 75.8729C113.118 75.024 111.68 74.2233 110.274 73.3718C108.859 72.5229 107.372 71.6547 105.963 70.7938C104.939 72.0536 104.038 73.533 103.004 74.7954C101.98 76.0552 100.718 77.0987 99.6852 78.3612C98.6609 79.621 97.8534 81.0929 96.829 82.3527C95.8046 83.6125 94.7281 84.8263 93.6949 86.0888C92.6705 87.3486 91.6113 88.588 90.5869 89.8478C89.5626 91.1076 88.5814 92.416 87.5571 93.6758C86.5327 94.9356 85.3403 96.0507 84.316 97.3105C83.2916 98.5703 82.2035 99.7774 81.1791 101.037C80.2439 102.178 80.7438 103.434 81.6744 104.396L81.6567 104.402Z" fill="#C19D8A"/>
<path d="M82.3745 103.592C83.5716 104.773 85.1593 105.334 86.4548 106.362C87.9936 107.595 89.2387 109.161 90.9083 110.221C92.6475 111.321 94.3203 112.359 95.9072 113.721C97.4421 115.036 98.9956 116.254 100.65 117.39C102.306 118.536 103.972 119.648 105.585 120.869C106.898 121.861 108.481 123.336 110.137 123.549C110.964 123.65 111.598 123.235 112.255 122.803C113.152 122.207 114.002 121.522 114.798 120.782C116.301 119.389 117.66 117.835 119.024 116.299C121.811 113.169 124.763 110.205 127.678 107.212C129.117 105.735 130.712 104.459 132.155 102.992C133.31 101.816 134.444 100.636 135.674 99.5511C136.13 99.1484 136.513 98.6647 136.957 98.2552C137.347 97.8924 136.943 98.4337 137.054 98.3901C137.019 98.4006 136.376 97.8852 136.283 97.831C135.824 97.5476 135.309 97.3324 134.871 96.9915C134.248 96.5112 133.908 95.5976 133.882 94.8053C133.861 93.8682 134.168 92.9048 134.34 92.0023C134.484 91.2313 134.797 89.9377 134.353 89.1886C134.161 88.8666 133.77 88.7783 133.462 88.614C133.049 88.3887 132.643 88.1204 132.227 87.8857C131.329 87.3849 130.413 86.9203 129.497 86.4556C125.449 84.4042 121.852 81.5822 117.972 79.2243C113.824 76.7104 109.625 74.2835 105.46 71.7748C105.891 71.7076 106.313 71.643 106.744 71.5758C105.639 72.9519 104.726 74.4863 103.58 75.8232C102.521 77.0627 101.277 78.101 100.261 79.389C99.1796 80.7787 98.2836 82.3078 97.1616 83.6583C96.01 85.0382 94.8468 86.4112 93.698 87.8005C91.4419 90.5256 89.3387 93.4409 86.9352 96.0255C85.7586 97.2897 84.6515 98.6255 83.521 99.9478C83.0018 100.554 82.1066 101.283 81.805 102.04C81.5785 102.63 81.976 103.158 82.3601 103.576C83.3304 104.64 81.9067 106.265 80.9364 105.201C80.1421 104.342 79.5082 103.28 79.6107 102.049C79.7206 100.683 80.7854 99.7192 81.5954 98.7696C83.5479 96.4736 85.6394 94.2899 87.5137 91.925C89.4208 89.5093 91.3656 87.1233 93.3336 84.7508C94.328 83.5513 95.3774 82.4071 96.3225 81.171C97.1844 80.0417 97.8984 78.8029 98.7747 77.6899C99.7935 76.4113 101.046 75.3703 102.094 74.1241C103.189 72.8124 104.09 71.333 105.16 69.9983C105.454 69.6335 106.037 69.5619 106.443 69.7993C110.399 72.1858 114.392 74.5 118.348 76.8866C122.103 79.1484 125.598 81.9497 129.483 83.968C131.3 84.9119 133.084 85.9375 134.902 86.8506C136.71 87.7663 136.807 89.9525 136.566 91.7472C136.496 92.2811 136.378 92.8187 136.275 93.3417C136.197 93.7547 135.973 94.3856 136.026 94.8209C136.042 94.97 136.152 95.1117 136.188 95.265C136.135 94.9935 135.822 95.0359 136.165 95.1896C136.485 95.3298 136.799 95.5438 137.101 95.7201C138.228 96.378 139.696 97.4675 139.06 99.0009C138.545 100.232 137.328 101.006 136.413 101.863C134.86 103.312 133.474 104.936 131.872 106.317C128.564 109.182 125.604 112.538 122.582 115.718C119.569 118.895 116.866 122.533 113.172 124.877C111.566 125.891 109.984 126.025 108.21 125.191C106.403 124.347 104.834 122.918 103.207 121.743C101.226 120.315 99.1583 119.046 97.2188 117.564C95.3286 116.119 93.6407 114.388 91.6134 113.158C90.6143 112.544 89.594 111.987 88.6637 111.25C87.7246 110.516 86.8955 109.635 86.0276 108.818C84.4826 107.372 82.481 106.678 80.9688 105.182C79.9393 104.177 81.3718 102.549 82.3925 103.556L82.3745 103.592Z" fill="#222222"/>
<path d="M132.927 90.7117C129.773 95.8586 126.702 101.186 122.659 105.604C120.67 107.777 118.696 110.1 116.985 112.529C116.143 113.724 115.394 114.974 114.462 116.093C113.444 117.31 112.333 118.442 111.318 119.668C110.43 120.743 108.846 119.166 109.727 118.103C110.743 116.876 111.853 115.744 112.871 114.528C113.768 113.45 114.493 112.248 115.3 111.095C116.966 108.71 118.896 106.4 120.849 104.268C124.86 99.9008 127.912 94.7023 131.021 89.5994C131.749 88.4077 133.652 89.5105 132.915 90.7049L132.927 90.7117Z" fill="#222222"/>
<path d="M122.427 88.5476C124.487 86.3221 126.627 84.2057 128.621 81.9181C129.644 80.7509 130.487 79.4632 131.421 78.2203C132.304 77.0335 133.349 76.0033 134.339 74.9179C136.42 72.6347 138.224 70.0035 140.08 67.511C141.962 64.9796 143.815 62.4159 145.721 59.8981C146.416 58.9827 147.161 58.073 147.671 57.0182C147.83 56.6835 147.987 56.3394 148.047 55.9625C148.072 55.8217 148.03 55.4241 148.105 55.5145C147.955 55.3337 147.474 55.3953 147.266 55.4061C146.543 55.4581 145.829 55.7022 145.165 55.9828C143.836 56.5441 142.609 57.3824 141.357 58.1052C139.99 58.8931 138.743 59.8602 137.411 60.6993C136.126 61.5038 134.798 62.2288 133.504 63.005C130.938 64.5308 128.292 65.8547 125.808 67.53C123.03 69.4062 120.367 71.4736 117.453 73.1235C115.928 73.9896 114.555 75.0151 113.158 76.0887C111.753 77.165 110.221 78.0123 108.761 79.0023C107.62 79.7741 106.458 77.8447 107.597 77.0635C109.01 76.1081 110.491 75.286 111.861 74.2512C113.169 73.2656 114.439 72.2502 115.853 71.4277C118.669 69.8068 121.258 67.8744 123.957 66.0528C126.623 64.2511 129.429 62.7873 132.189 61.1419C133.63 60.2806 135.12 59.4867 136.527 58.5742C137.886 57.6963 139.193 56.7417 140.601 55.9312C142.817 54.6437 145.819 52.393 148.564 53.2955C150.659 53.982 150.349 56.4436 149.613 58.0273C149.079 59.192 148.265 60.194 147.51 61.199C146.526 62.498 145.563 63.8011 144.596 65.1257C142.562 67.9179 140.452 70.6506 138.383 73.4224C137.291 74.8765 136.155 76.2417 134.925 77.5526C133.68 78.8782 132.654 80.3233 131.577 81.7935C129.352 84.8477 126.557 87.3749 124.017 90.1131C123.075 91.1331 121.482 89.5582 122.427 88.5476Z" fill="#222222"/>
<path d="M30.4707 124.127C29.6385 125.709 28.3686 126.949 26.752 127.576C26.2376 127.781 25.5551 127.359 25.4156 126.796C25.2563 126.167 25.5525 125.617 26.105 125.411C26.2019 125.382 26.2932 125.334 26.3961 125.293C26.3108 125.329 26.2284 125.374 26.1343 125.412C26.4373 125.27 26.7231 125.103 26.9916 124.91C27.1009 124.826 27.2193 124.709 27.3342 124.644C27.2041 124.754 27.1833 124.781 27.2661 124.705C27.2957 124.676 27.3253 124.646 27.3549 124.617C27.4142 124.558 27.4734 124.499 27.5326 124.441C27.7546 124.221 27.9594 123.975 28.1498 123.713C28.1974 123.647 28.3321 123.392 28.1794 123.683C28.2242 123.609 28.2718 123.543 28.3165 123.468C28.4061 123.318 28.4869 123.171 28.5676 123.024C28.837 122.513 29.4924 122.266 30.0034 122.595C30.4999 122.908 30.7521 123.591 30.4619 124.129L30.4707 124.127Z" fill="#222222"/>
</svg>
