<svg width="55" height="31" viewBox="0 0 55 31" fill="none" xmlns="http://www.w3.org/2000/svg">
<path d="M6.77851 16.3929C5.64446 16.0853 4.28315 16.0069 3.16454 16.3987C1.95326 16.8225 0.931729 17.7774 0.689033 19.1067C0.455161 20.3925 1.15236 21.4635 2.00842 22.4242C2.79388 23.3066 3.78893 24.0902 4.79061 24.6388C5.73933 25.1612 6.67702 25.704 7.64781 26.18C8.61639 26.656 9.57835 27.161 10.5646 27.5906C11.553 28.023 12.5348 28.4816 13.5387 28.8677C14.6176 29.2798 15.7826 29.4394 16.899 29.7123C18.0242 29.988 19.1362 30.1738 20.2901 30.1331C21.5499 30.0867 22.7435 29.779 23.946 29.3727C25.1396 28.9721 26.32 28.5165 27.4739 28.0027C28.5286 27.5325 29.6163 27.1465 30.6709 26.6763C31.7255 26.2061 32.8066 25.8027 33.8613 25.3325C34.9159 24.8623 35.933 24.2992 36.9876 23.829C38.0423 23.3588 39.0506 22.7725 40.1052 22.3023C41.1598 21.8321 42.2453 21.4403 43.3 20.973C44.3546 20.5028 45.4423 20.1197 46.4969 19.6495C47.5979 19.159 48.7805 18.5872 49.8461 17.8819C50.9471 17.1505 51.8649 16.1956 52.582 15.2C53.352 14.1319 53.8198 12.9419 53.7249 11.5313C53.6432 10.3036 53.1468 9.20646 52.4121 8.25446C51.6995 7.33148 50.7463 6.60296 49.7954 5.97313C49.0099 5.45359 48.1649 5.06176 47.2978 4.70186C46.4263 4.34195 45.5725 3.92981 44.6569 3.79339C43.7368 3.65698 42.7815 3.54378 41.857 3.70341C40.6237 3.91529 39.4918 4.50449 38.4085 5.13432C37.3451 5.75254 36.4052 6.62038 35.4123 7.42436C34.4305 8.21963 33.367 8.91331 32.3874 9.67956C31.5248 10.3529 30.6599 11.2092 29.6273 11.9057C28.6852 12.5385 27.6416 13.0986 26.6024 13.6936C25.5963 14.2712 24.5748 14.8691 23.5158 15.3597C22.4479 15.856 21.3072 16.1346 20.2261 16.4945C19.0943 16.8718 17.9735 17.1098 16.8703 17.284C15.6833 17.4726 14.5536 17.5539 13.4549 17.4378C12.2458 17.3101 11.1382 17.4059 10.0704 17.2317C8.98926 17.0576 7.94346 16.7064 6.77631 16.3871L6.77851 16.3929Z" fill="#222222"/>
<path d="M6.95724 15.6992C5.1304 15.2261 3.05644 15.261 1.50539 16.5264C0.0646566 17.7019 -0.449419 19.6814 0.437527 21.4142C1.39287 23.2833 3.20427 24.5691 4.92521 25.524C6.90429 26.6241 8.91867 27.6341 10.9772 28.5484C11.9811 28.9954 12.9849 29.4801 14.0352 29.7877C15.0545 30.0867 16.1069 30.2753 17.1417 30.5075C19.3458 31.001 21.4639 30.9052 23.6239 30.2318C25.7486 29.57 27.7872 28.6355 29.8546 27.7937C31.944 26.9433 34.029 26.0668 36.0566 25.0596C38.1107 24.0409 40.167 23.0308 42.2851 22.1717C44.2862 21.359 46.3204 20.5783 48.2598 19.6059C51.5141 17.9748 55.4304 14.576 54.1816 10.2165C53.6058 8.20221 52.143 6.73937 50.5345 5.62193C49.6873 5.03273 48.7871 4.57124 47.8516 4.1678C46.8742 3.74695 45.888 3.27675 44.8422 3.1026C43.7611 2.92265 42.669 2.82977 41.5879 3.03004C40.5663 3.2187 39.5977 3.67149 38.6799 4.17361C36.767 5.21849 35.1696 6.78581 33.3957 8.06579C31.7145 9.27902 30.2076 10.7593 28.4381 11.8274C27.4894 12.4021 26.5164 12.9332 25.5544 13.4818C24.6189 14.0158 23.6746 14.5644 22.6752 14.9475C20.6167 15.7399 18.428 16.3755 16.2547 16.6541C15.1714 16.7935 14.1234 16.7586 13.0401 16.6803C12.0186 16.6077 10.9838 16.6803 9.97109 16.4887C8.95397 16.2971 7.96112 15.9692 6.96166 15.6963C6.12104 15.4641 5.76362 16.8515 6.60423 17.0837C7.54192 17.342 8.47299 17.6439 9.42392 17.8412C10.3506 18.0328 11.2772 18.0589 12.2171 18.0851C13.1923 18.1141 14.1587 18.2476 15.1361 18.1953C16.129 18.1431 17.1196 17.9893 18.0948 17.7948C19.145 17.5858 20.1577 17.2608 21.1837 16.9444C22.1258 16.6541 23.0569 16.3581 23.9548 15.9372C25.7508 15.0955 27.5048 14.0535 29.2059 13.0145C30.8562 12.0073 32.2507 10.6258 33.8216 9.4909C34.6379 8.9017 35.4476 8.3096 36.2265 7.66235C37.0163 7.0064 37.7952 6.33303 38.6689 5.80769C39.4963 5.30847 40.3611 4.85278 41.279 4.57705C42.2961 4.27519 43.3264 4.32163 44.3634 4.46966C45.332 4.60898 46.2256 5.01532 47.128 5.39554C48.0237 5.77286 48.8886 6.19952 49.7027 6.75389C51.2141 7.78426 52.6835 9.17163 53.0167 11.1511C53.341 13.0812 52.2665 14.7182 51.0288 15.9924C49.6564 17.4059 47.8759 18.2853 46.1285 19.0429C44.209 19.8759 42.2542 20.6131 40.3302 21.4374C38.424 22.253 36.564 23.234 34.7019 24.1541C32.8155 25.0858 30.8452 25.8665 28.8992 26.6444C26.9952 27.4077 25.1308 28.2697 23.1716 28.8706C21.1109 29.5004 19.1693 29.512 17.0843 29.0157C16.0937 28.7806 15.081 28.6238 14.108 28.3046C13.1306 27.9853 12.1885 27.5296 11.2441 27.1088C9.32464 26.2583 7.45367 25.2976 5.61138 24.2731C4.07136 23.4169 2.21142 22.2297 1.49436 20.436C0.801572 18.7004 2.35924 17.2927 3.80439 16.956C4.72443 16.7412 5.69963 16.8457 6.60644 17.0808C7.44925 17.2985 7.80889 15.9111 6.96386 15.6934L6.95724 15.6992Z" fill="#222222"/>
<path d="M6.75869 13.3164C5.62464 13.0087 4.30966 12.9391 3.19105 13.328C1.97977 13.7517 0.962654 14.6254 0.719958 15.9547C0.486086 17.2405 1.03767 18.4218 1.89152 19.3825C2.67698 20.2648 3.78676 20.9295 4.78844 21.481C5.73716 22.0034 6.64396 22.6216 7.61254 23.0976C8.58112 23.5736 9.59824 23.9393 10.5867 24.3718C11.5751 24.8043 12.5834 25.1729 13.5873 25.5589C14.6662 25.9711 15.7782 26.2816 16.8968 26.5545C18.022 26.8302 19.1384 27.1843 20.2923 27.1436C21.5522 27.0972 22.7634 26.7054 23.9659 26.299C25.1595 25.8985 26.3178 25.3644 27.4718 24.8536C28.5264 24.3834 29.5545 23.8465 30.6092 23.3763C31.6638 22.9061 32.8089 22.6681 33.8635 22.1979C34.9181 21.7277 35.9728 21.2575 37.0274 20.7902C38.082 20.32 39.0991 19.7511 40.1538 19.2809C41.2084 18.8107 42.2718 18.3637 43.3265 17.8964C44.3811 17.4262 45.4159 16.9038 46.4705 16.4365C47.5715 15.946 48.7143 15.3278 49.78 14.6196C50.881 13.8882 51.9974 13.1538 52.7144 12.1583C53.4844 11.0902 53.8352 9.7899 53.7404 8.37931C53.6587 7.15157 53.2439 5.97028 52.507 5.01827C51.7944 4.09529 50.8126 3.33195 49.8638 2.70502C49.0784 2.18548 48.2356 1.71238 47.3707 1.35538C46.4992 0.995477 45.5549 0.917111 44.6414 0.783598C43.7214 0.647183 42.8168 0.623963 41.8923 0.783598C40.659 0.995477 39.4963 1.36409 38.413 1.99392C37.3495 2.61214 36.3456 3.3871 35.3528 4.19107C34.371 4.98635 33.356 5.74969 32.3764 6.51594C31.5138 7.18931 30.6731 8.08326 29.6406 8.77985C28.6985 9.41258 27.5953 9.85956 26.5561 10.4546C25.55 11.0321 24.4998 11.5372 23.4408 12.0277C22.3729 12.524 21.3558 13.1451 20.2725 13.505C19.1406 13.8824 17.9801 14.0072 16.8769 14.1813C15.6899 14.3671 14.5493 14.4716 13.4505 14.3555C12.2414 14.2277 11.1581 14.1204 10.0903 13.9462C9.00915 13.7721 7.92584 13.6385 6.75649 13.3222L6.75869 13.3164Z" fill="#BCE1A5"/>
<path d="M6.93738 12.6227C5.13481 12.1583 3.08513 12.2018 1.53849 13.4238C0.0712751 14.5848 -0.389849 16.5555 0.382368 18.3289C1.22739 20.262 3.03438 21.2981 4.7134 22.2559C5.63124 22.7784 6.51597 23.3647 7.4669 23.8175C8.49506 24.308 9.55851 24.7085 10.6043 25.1555C12.6981 26.0465 14.8228 26.7692 17.0137 27.3265C18.022 27.5819 19.0435 27.8693 20.0871 27.8693C21.1903 27.8693 22.2868 27.5935 23.3393 27.2598C25.4485 26.5951 27.4739 25.6576 29.4773 24.6911C30.4746 24.2093 31.4652 23.7913 32.511 23.4517C33.5789 23.1064 34.5938 22.6478 35.6241 22.1892C37.6694 21.2778 39.6661 20.2591 41.7202 19.368C43.8008 18.4682 45.8968 17.5598 47.92 16.5236C48.8798 16.0331 49.7976 15.4613 50.6978 14.8547C51.5031 14.309 52.3261 13.7227 52.9637 12.9594C54.2699 11.3979 54.6913 9.25586 54.2544 7.23285C53.8087 5.16341 52.432 3.68025 50.8368 2.52218C49.9675 1.88944 49.0453 1.33798 48.0767 0.893902C47.1213 0.455632 46.155 0.272777 45.129 0.130557C42.9889 -0.16259 40.9436 0.0115569 38.9403 0.922926C36.9413 1.83139 35.2645 3.39001 33.5193 4.73965C32.6787 5.3898 31.8314 6.02543 31.0328 6.73363C30.2076 7.46505 29.3868 8.14713 28.4293 8.66957C26.459 9.74347 24.4424 10.71 22.4413 11.7171C21.4749 12.2048 20.5306 12.7069 19.487 12.9826C18.428 13.2612 17.3292 13.4035 16.2481 13.5457C14.1521 13.8214 12.0561 13.5254 9.97771 13.2032C8.95397 13.0436 7.93465 12.8868 6.93077 12.6227C6.09015 12.3992 5.73052 13.7866 6.57334 14.0101C8.41122 14.4948 10.3285 14.7299 12.2083 14.936C13.2166 15.0463 14.2117 15.1565 15.2266 15.0869C16.2018 15.0201 17.1704 14.8518 18.1367 14.7038C19.1141 14.5528 20.0871 14.3613 21.0138 13.9781C21.925 13.6008 22.7877 13.1074 23.6812 12.6837C25.5412 11.8013 27.3879 10.8609 29.1971 9.85957C30.896 8.92208 32.3036 7.43893 33.848 6.24892C35.505 4.97184 37.0958 3.51481 38.9204 2.51057C40.681 1.54115 42.6866 1.23349 44.637 1.49761C45.61 1.63112 46.5675 1.75593 47.4766 2.17098C48.3591 2.57152 49.1997 3.08525 49.9962 3.64833C51.5274 4.73094 52.8313 6.14734 53.0475 8.18486C53.2638 10.234 52.3526 11.8884 50.8169 13.0436C47.503 15.5339 43.5978 16.959 39.889 18.6221C37.9739 19.4812 36.0941 20.4274 34.1746 21.2836C33.2567 21.6929 32.3213 21.9918 31.3747 22.3169C30.3863 22.6565 29.4464 23.1325 28.4999 23.5882C26.6377 24.4879 24.7425 25.3325 22.7767 25.9333C21.8015 26.2323 20.802 26.4732 19.7805 26.4181C18.792 26.3629 17.8212 26.0523 16.8615 25.8085C14.8449 25.3006 12.8835 24.5837 10.9573 23.7623C9.95565 23.3356 8.9275 22.9612 7.94568 22.4765C7.09624 22.0557 6.29755 21.5332 5.47459 21.0601C3.95663 20.1865 2.01505 19.249 1.45023 17.3363C0.918507 15.5368 2.29085 14.2481 3.81101 13.8911C4.72002 13.6763 5.67536 13.7779 6.56893 14.0072C7.41175 14.2249 7.77138 12.8375 6.92635 12.6198L6.93738 12.6227Z" fill="#222222"/>
<path d="M43.0702 9.12225C43.3129 10.4458 45.6141 10.6286 46.051 9.37476C46.6026 7.78712 44.6632 7.65941 43.7431 7.9961C43.2335 8.18185 42.9665 8.55917 43.0702 9.12515V9.12225Z" fill="#222222"/>
<path d="M42.4196 9.31393C42.7616 11.0496 45.2261 11.4472 46.2917 10.2775C46.8963 9.61579 47.0331 8.449 46.4021 7.75532C45.9034 7.20675 45.0805 7.07614 44.3987 7.13709C43.9597 7.17483 43.4919 7.2648 43.1124 7.51731C42.8719 7.67695 42.6513 7.90334 42.53 8.17907C42.3667 8.54768 42.3534 8.9163 42.4196 9.31393C42.4814 9.68545 42.9249 9.92925 43.247 9.81606C43.6199 9.68835 43.7854 9.32844 43.717 8.93081C43.6949 8.7973 43.717 9.07593 43.7214 8.95113C43.7214 8.90759 43.728 8.85534 43.7214 8.81181C43.7125 8.74795 43.7125 8.90178 43.7081 8.90759C43.7148 8.89308 43.7148 8.86986 43.7192 8.85244C43.7236 8.83503 43.7302 8.81761 43.7324 8.8002C43.7523 8.70732 43.717 8.85825 43.7015 8.87276C43.7214 8.85244 43.7478 8.79149 43.7611 8.76537C43.7876 8.70732 43.7081 8.83793 43.7081 8.84083C43.7214 8.83503 43.7324 8.81181 43.7434 8.8002C43.7633 8.77988 43.8582 8.69571 43.7677 8.77117C43.675 8.84664 43.7942 8.75666 43.8207 8.73925C43.8427 8.72473 43.9861 8.65508 43.8802 8.70151C43.7787 8.74505 43.9023 8.69571 43.9266 8.687C43.9817 8.66669 44.0369 8.64927 44.0942 8.63476C44.145 8.62025 44.1979 8.60864 44.2509 8.59703C44.2818 8.59122 44.3149 8.58542 44.3458 8.57961C44.4428 8.55929 44.1604 8.59993 44.2928 8.58832C44.4186 8.57381 44.5465 8.5651 44.6723 8.5651C44.7363 8.5651 44.8003 8.5651 44.8643 8.5709C44.8929 8.5709 44.9238 8.57671 44.9525 8.57961C44.9679 8.57961 44.9812 8.58542 44.9966 8.58542C45.0739 8.58542 44.8289 8.55639 44.904 8.5709C45.0297 8.59703 45.1533 8.62025 45.2746 8.66378C45.2901 8.66959 45.343 8.6812 45.3496 8.69281C45.3364 8.67249 45.1798 8.60573 45.2857 8.66669C45.3386 8.69571 45.3872 8.73054 45.4401 8.76247C45.5217 8.81471 45.3143 8.64347 45.3827 8.71312C45.4004 8.73054 45.418 8.74795 45.4357 8.76537C45.46 8.79149 45.5262 8.88147 45.4467 8.76827C45.3651 8.65508 45.4313 8.74795 45.4467 8.77988C45.4511 8.78569 45.4776 8.84664 45.482 8.84664C45.4666 8.84664 45.4114 8.63476 45.4533 8.78569C45.46 8.81181 45.4666 8.83793 45.4732 8.86405C45.5041 8.98886 45.4732 8.70151 45.4644 8.8002C45.4622 8.83503 45.4644 8.86986 45.4644 8.90469C45.4644 8.93661 45.4489 9.05852 45.4666 8.9221C45.4842 8.78278 45.4666 8.91339 45.46 8.94532C45.4511 8.98886 45.4401 9.02949 45.4291 9.07013C45.4158 9.11366 45.3982 9.1543 45.3872 9.19783C45.3783 9.23847 45.4688 9.02949 45.4092 9.13398C45.396 9.1601 45.3827 9.18622 45.3695 9.20944C45.3629 9.22105 45.3541 9.23266 45.3474 9.24718C45.2989 9.34296 45.4379 9.13978 45.396 9.18332C45.3563 9.22396 45.3254 9.27039 45.2835 9.30813C45.2305 9.35747 45.1577 9.37779 45.3254 9.2791C45.2989 9.29652 45.2724 9.31974 45.2459 9.33715C45.1996 9.36908 45.1489 9.3952 45.1003 9.42132C44.979 9.48808 45.2393 9.36908 45.1445 9.401C45.1136 9.41261 45.0805 9.42422 45.0496 9.43583C44.99 9.45615 44.9282 9.47357 44.8665 9.48518C44.8422 9.49098 44.8047 9.50549 44.7804 9.50259C44.7606 9.49969 44.9591 9.48518 44.8863 9.48808C44.8665 9.48808 44.8466 9.49388 44.8267 9.49388C44.6922 9.50549 44.5576 9.49969 44.423 9.48808C44.3215 9.47937 44.6017 9.52001 44.4671 9.49388C44.4318 9.48808 44.3987 9.47937 44.3634 9.47357C44.2906 9.45615 44.22 9.43583 44.1494 9.40971C44.1185 9.3981 44.0854 9.38069 44.0523 9.37198C44.0413 9.36908 44.2024 9.44744 44.1472 9.41552C44.1273 9.40391 44.1031 9.3952 44.081 9.38359C44.0214 9.35166 43.9663 9.31393 43.9089 9.2762C43.7854 9.19493 44.006 9.36908 43.9332 9.29942C43.9089 9.2762 43.8846 9.25588 43.8604 9.22976C43.8383 9.20654 43.8162 9.18042 43.7942 9.1572C43.6949 9.04691 43.8648 9.2762 43.814 9.18913C43.7964 9.1601 43.7081 9.04691 43.7192 9.01208C43.7236 8.99466 43.7765 9.18332 43.7611 9.11656C43.7567 9.09335 43.7456 9.07013 43.739 9.04691C43.728 9.00917 43.7192 8.96854 43.7103 8.93081C43.6375 8.5622 43.2139 8.31259 42.883 8.42868C42.5189 8.55349 42.3358 8.9192 42.413 9.31393H42.4196Z" fill="#222222"/>
<path d="M38.3443 18.3261C38.587 19.6496 40.7404 19.8179 41.1751 18.5611C41.7266 16.9735 39.8093 16.7036 38.8893 17.0374C38.3796 17.2231 38.2406 17.7601 38.3443 18.3261Z" fill="#222222"/>
<path d="M37.6959 18.5176C37.8569 19.336 38.563 19.9339 39.3131 20.0791C40.0655 20.2242 40.9502 20.0704 41.4687 19.4115C42.0335 18.6946 42.1483 17.5714 41.5018 16.869C41.0032 16.3262 40.2001 16.155 39.5139 16.1985C39.0307 16.2275 38.563 16.3349 38.1769 16.6629C37.654 17.107 37.5834 17.8645 37.6981 18.5176C37.7621 18.8891 38.2011 19.1329 38.5255 19.0197C38.8961 18.892 39.0638 18.5321 38.9954 18.1344C38.991 18.1141 38.9888 18.0909 38.9844 18.0706C38.9689 17.9922 38.9954 18.1576 38.9954 18.1547C38.9998 18.1083 38.9888 18.0532 38.9866 18.0067C38.9866 17.9661 38.9888 17.9255 38.991 17.8819C38.991 17.789 38.9601 18.0416 38.98 17.9545C38.9866 17.9284 38.9888 17.9022 38.9954 17.8761C39.0042 17.8384 39.0175 17.8036 39.0263 17.7658C39.044 17.6816 38.9557 17.9051 38.9998 17.8326C39.0087 17.8181 39.0153 17.7977 39.0241 17.7832C39.0329 17.7687 39.0462 17.7513 39.0528 17.7368C39.0748 17.6787 39.0042 17.8036 38.9998 17.8065C39.0241 17.7919 39.0837 17.7281 39.1013 17.6991C39.0947 17.7078 38.9844 17.7745 39.0395 17.7542C39.055 17.7484 39.0748 17.7339 39.0881 17.7223C39.1807 17.6555 38.9535 17.7658 39.0837 17.7223C39.1366 17.7049 39.1896 17.6875 39.2425 17.6729C39.2955 17.6584 39.3484 17.6497 39.4036 17.6381C39.5139 17.6178 39.3639 17.6381 39.3286 17.6468C39.3617 17.6352 39.4014 17.6381 39.4345 17.6352C39.558 17.6236 39.6838 17.6207 39.8073 17.6265C39.8691 17.6265 39.9287 17.6352 39.9905 17.641C40.1074 17.6526 39.9596 17.6207 39.9221 17.6294C39.9486 17.6236 40.0059 17.6439 40.0324 17.6497C40.1493 17.6729 40.2619 17.7078 40.3722 17.7513C40.4957 17.7977 40.3016 17.7165 40.3192 17.7281C40.3413 17.7426 40.3655 17.7513 40.3876 17.7629C40.4406 17.7919 40.4891 17.8268 40.5376 17.8587C40.6391 17.9284 40.4163 17.7455 40.4869 17.8181C40.5045 17.8355 40.5222 17.8529 40.5398 17.8703C40.5597 17.8906 40.5751 17.9167 40.5972 17.9371C40.6105 17.9487 40.4957 17.7716 40.5553 17.8819C40.5685 17.908 40.584 17.9342 40.5972 17.9574C40.6524 18.0561 40.5597 17.8413 40.5685 17.879C40.5752 17.908 40.5884 17.9371 40.595 17.9661C40.6038 18.0009 40.6215 18.1228 40.6038 17.9777C40.5862 17.8268 40.5994 17.9603 40.6016 17.9951C40.6016 18.0241 40.6016 18.0561 40.6016 18.0851C40.6016 18.117 40.595 18.146 40.595 18.178C40.606 17.9371 40.606 18.0822 40.5906 18.1518C40.5729 18.2302 40.5443 18.3028 40.5244 18.3782C40.5068 18.4508 40.5663 18.2534 40.5641 18.2766C40.5641 18.2883 40.5509 18.3086 40.5465 18.3173C40.5288 18.3521 40.5112 18.3869 40.4913 18.4189C40.4759 18.445 40.4119 18.535 40.4913 18.4276C40.5729 18.3144 40.4957 18.4189 40.4759 18.4421C40.4582 18.4624 40.4384 18.4827 40.4185 18.503C40.4053 18.5146 40.392 18.5263 40.3788 18.5408C40.3148 18.6075 40.4538 18.4769 40.4538 18.4798C40.4406 18.5147 40.3369 18.564 40.3082 18.5814C40.2839 18.5959 40.2596 18.6075 40.2354 18.622C40.1206 18.6859 40.3964 18.5611 40.2707 18.6075C40.2133 18.6278 40.1582 18.6482 40.0986 18.6627C40.0721 18.6685 40.0434 18.6772 40.0169 18.683C39.9508 18.6975 39.8316 18.6888 40.0567 18.683C39.9331 18.6859 39.814 18.7004 39.6904 18.6917C39.6706 18.6917 39.6529 18.6888 39.633 18.6859C39.5426 18.6772 39.7235 18.6975 39.7279 18.7004C39.7059 18.683 39.6419 18.6859 39.6176 18.6801C39.5492 18.6656 39.4808 18.6453 39.4146 18.622C39.3903 18.6133 39.3396 18.6046 39.3242 18.5872C39.3109 18.5727 39.4808 18.6656 39.4212 18.6307C39.4014 18.6191 39.3793 18.6104 39.3595 18.5988C39.2977 18.5669 39.2425 18.5263 39.183 18.4885C39.0771 18.416 39.2911 18.5901 39.2227 18.5234C39.1962 18.4972 39.1697 18.474 39.1432 18.4479C39.1212 18.4247 39.1013 18.3986 39.0793 18.3753C38.991 18.2767 39.1697 18.5234 39.1035 18.4102C39.0815 18.3724 38.9976 18.2679 39.0042 18.2244C39.0087 18.2012 39.0594 18.4015 39.0462 18.3289C39.0417 18.3057 39.0307 18.2825 39.0241 18.2592C39.0131 18.2215 39.0042 18.1809 38.9976 18.1431C38.9248 17.7745 38.5012 17.5249 38.1702 17.641C37.8062 17.7658 37.6231 18.1315 37.7003 18.5263L37.6959 18.5176Z" fill="#222222"/>
<path d="M31.1408 12.9245C31.3835 14.248 33.5038 14.3816 33.9385 13.1277C34.49 11.5401 32.7007 11.4907 31.7807 11.8245C31.271 12.0102 31.0371 12.3585 31.1408 12.9245Z" fill="#222222"/>
<path d="M30.49 13.1161C30.651 13.9317 31.346 14.5209 32.094 14.6631C32.8309 14.8025 33.6914 14.6399 34.2054 14.013C34.7592 13.3367 34.9534 12.1786 34.2981 11.4995C33.8017 10.9828 33.0273 10.8842 32.3698 10.9683C31.9462 11.0235 31.4872 11.1076 31.1232 11.366C30.8408 11.5662 30.6466 11.8216 30.5231 12.1583C30.4106 12.466 30.4348 12.8027 30.49 13.119C30.554 13.4906 30.993 13.7344 31.3174 13.6212C31.6902 13.4935 31.8557 13.1336 31.7873 12.7359C31.7652 12.6053 31.7917 12.8897 31.7895 12.7649C31.7895 12.7214 31.7895 12.6779 31.7895 12.6314C31.7895 12.6227 31.7895 12.585 31.7939 12.5763C31.8072 12.5589 31.7476 12.7533 31.7829 12.6808C31.7961 12.6517 31.8425 12.495 31.7895 12.6227C31.741 12.7446 31.7895 12.6372 31.8027 12.6082C31.8094 12.5937 31.8226 12.5821 31.827 12.5676C31.827 12.5676 31.7255 12.6895 31.7697 12.6488C31.7895 12.6314 31.8336 12.5908 31.8469 12.5676C31.8469 12.5676 31.7189 12.6605 31.7741 12.6256C31.7939 12.614 31.8116 12.5995 31.8314 12.585C31.8667 12.5618 31.9042 12.5415 31.9395 12.5211C32.041 12.4631 31.805 12.5705 31.9197 12.5298C31.9793 12.5095 32.0366 12.4892 32.0962 12.4689C32.2043 12.437 32.3146 12.4137 32.4271 12.3934C32.4338 12.3934 32.4713 12.3818 32.4801 12.3847C32.4977 12.3905 32.3014 12.405 32.3698 12.4021C32.3963 12.4021 32.4249 12.3963 32.4514 12.3934C32.5154 12.3876 32.5794 12.3818 32.6456 12.3789C32.7691 12.3731 32.8927 12.3789 33.0162 12.3905C33.1442 12.4021 32.9545 12.3702 32.9434 12.3789C32.95 12.3731 33.0118 12.3905 33.0206 12.3934C33.0802 12.405 33.1376 12.4195 33.1949 12.437C33.2236 12.4457 33.2501 12.4573 33.2766 12.466C33.3825 12.5008 33.1707 12.4108 33.206 12.4312C33.2545 12.4602 33.3031 12.4805 33.3494 12.5124C33.3759 12.5298 33.4509 12.5908 33.345 12.5066C33.2391 12.4195 33.3207 12.4863 33.345 12.5124C33.3604 12.5298 33.3737 12.5473 33.3913 12.5647C33.4421 12.614 33.292 12.3934 33.3516 12.5124C33.3626 12.5327 33.3715 12.556 33.3847 12.5734C33.4332 12.6517 33.3317 12.3992 33.3516 12.4921C33.3582 12.5211 33.367 12.5502 33.3737 12.5763C33.4068 12.6982 33.3692 12.4079 33.367 12.5037C33.367 12.5647 33.367 12.6314 33.367 12.6953C33.367 12.762 33.3737 12.5763 33.3825 12.5821C33.3847 12.5821 33.3759 12.6256 33.3737 12.6314C33.3626 12.6779 33.356 12.7243 33.3428 12.7678C33.3339 12.8056 33.3229 12.8404 33.3119 12.8781C33.3053 12.8985 33.2986 12.9159 33.2942 12.9333C33.2744 12.9942 33.2435 12.9797 33.3295 12.8462C33.2964 12.8985 33.2722 12.9594 33.2435 13.0116C33.1773 13.1335 33.3406 12.8955 33.2766 12.9681C33.2589 12.9884 33.2413 13.0116 33.2236 13.032C33.206 13.0523 33.1861 13.0726 33.1663 13.09C33.153 13.1016 33.1398 13.1132 33.1265 13.1277C33.0604 13.1916 33.2016 13.0639 33.1994 13.0668C33.1927 13.0987 33.0758 13.151 33.0537 13.1655C33.0295 13.18 33.0052 13.1916 32.9809 13.2032C32.8662 13.2671 33.142 13.1423 33.0162 13.1858C32.9633 13.2032 32.9125 13.2235 32.8596 13.238C32.8287 13.2467 32.7978 13.2555 32.7647 13.2613C32.7316 13.2671 32.6103 13.2874 32.7449 13.2671C32.8839 13.2467 32.7537 13.2642 32.7228 13.2671C32.6941 13.2671 32.6676 13.27 32.6389 13.27C32.5728 13.27 32.5088 13.27 32.4426 13.2642C32.4095 13.2642 32.2859 13.2438 32.4205 13.2642C32.5573 13.2845 32.4205 13.2642 32.3874 13.2555C32.319 13.2409 32.2528 13.2206 32.1867 13.1974C32.1558 13.1858 32.0432 13.1365 32.1646 13.1916C32.2859 13.2467 32.1734 13.1945 32.1469 13.18C32.0874 13.1481 32.03 13.1103 31.9726 13.0726C31.8623 13 32.0962 13.1916 32.0035 13.0987C31.9815 13.0755 31.9572 13.0552 31.9351 13.032C31.9109 13.0058 31.8888 12.9768 31.8645 12.9507C31.8005 12.8839 31.9616 13.1074 31.8976 12.9971C31.8756 12.9594 31.7917 12.8549 31.8005 12.8114C31.805 12.7882 31.8557 12.9884 31.8425 12.9159C31.8381 12.8926 31.827 12.8694 31.8204 12.8462C31.8094 12.8085 31.8005 12.7678 31.7939 12.7301C31.7211 12.3615 31.2975 12.1119 30.9665 12.228C30.6025 12.3528 30.4194 12.7185 30.4966 13.1132L30.49 13.1161Z" fill="#222222"/>
</svg>
