<svg width="44" height="22" viewBox="0 0 44 22" fill="none" xmlns="http://www.w3.org/2000/svg">
<path d="M7.68329 21.1656C9.11552 21.0753 10.9579 20.8947 13.0704 20.7874C14.7402 20.7028 16.5696 20.6124 18.4673 20.4742C20.2185 20.3472 22.0185 20.1129 23.8251 19.9097C25.6251 19.7065 27.4219 19.4808 29.1406 19.1731C30.9634 18.8458 32.7374 18.5099 34.3129 18.0273C36.0999 17.4799 37.6688 16.7912 38.9155 15.9954C40.3152 15.1008 41.4479 14.0396 41.8483 12.764C42.3008 11.3276 42.1803 9.98704 41.6498 8.87511C41.0606 7.64747 39.7814 6.66536 38.3394 5.82436C37.0015 5.04545 35.348 4.48948 33.574 4.04358C31.9009 3.62026 30.1204 3.36062 28.3106 3.22798C26.4682 3.09251 24.6128 2.90625 22.8876 3.06994C20.9509 3.25338 19.1411 3.68235 17.6958 4.23831C15.8893 4.93256 14.3887 5.8921 12.9011 6.83187C11.3973 7.78012 10.0009 8.7989 8.65655 9.87415C7.32524 10.9409 6.04926 12.05 4.71143 13.1196C3.35733 14.2005 1.80467 15.2927 1.28386 16.6953C0.763052 18.0951 1.34896 19.9125 3.06437 20.6858C4.3729 21.2756 6.13714 21.2672 7.68004 21.1684L7.68329 21.1656Z" fill="#222222"/>
<path d="M7.6832 21.9529C15.479 21.4421 23.3628 21.1175 30.9568 19.6528C34.4886 18.9727 37.9975 17.9116 40.5397 15.9671C42.994 14.0932 43.8306 11.4235 42.8345 8.95125C41.884 6.59475 38.8926 4.82244 35.8557 3.85444C32.2686 2.71147 28.1314 2.18936 24.2026 2.22323C20.5179 2.25427 17.1163 3.33798 14.2779 4.96072C11.127 6.75843 8.40908 8.85528 5.79527 11.0368C3.3963 13.0405 -0.285169 15.1515 0.0175508 18.064C0.134733 19.2013 0.746683 20.3527 2.00313 21.095C3.57858 22.0263 5.73668 22.0686 7.67994 21.9529C9.07962 21.8711 9.09264 20.2991 7.67994 20.3838C6.28678 20.4656 4.52254 20.57 3.38002 19.8786C2.45884 19.3227 2.14961 18.3659 2.20495 17.5391C2.27656 16.5061 3.11311 15.6172 4.01801 14.8524C5.1052 13.9352 6.25423 13.0603 7.34793 12.1487C9.62646 10.2466 11.9734 8.43761 14.623 6.79512C17.1098 5.25422 19.8734 4.07738 23.2131 3.83186C24.9057 3.70768 26.6309 3.88547 28.3105 4.01811C30.0552 4.1564 31.7738 4.41887 33.4307 4.84219C36.1942 5.55055 39.1823 6.80358 40.4323 8.80449C41.7083 10.8449 41.0117 13.3482 38.8829 14.937C36.6369 16.6106 33.6162 17.5108 30.5402 18.1119C23.0828 19.5682 15.3456 19.8871 7.6832 20.3894C6.28678 20.4797 6.27376 22.0517 7.6832 21.9585V21.9529Z" fill="#222222"/>
<path d="M7.65055 18.6736C9.08277 18.5833 10.9544 18.6115 13.067 18.5071C14.7368 18.4224 16.5466 18.2079 18.4443 18.0725C20.1955 17.9455 22.0509 18.0273 23.8575 17.8242C25.6575 17.621 27.4348 17.2992 29.1534 16.9888C30.9763 16.6614 32.6786 16.1929 34.2541 15.7103C36.0411 15.1628 37.7565 14.6464 39.0032 13.8506C40.4029 12.9559 41.0799 11.7706 41.4836 10.4922C41.936 9.05571 41.9848 7.82526 41.451 6.71051C40.8618 5.48287 39.7909 4.44432 38.3522 3.60614C37.0144 2.82723 35.4031 2.17813 33.6291 1.7294C31.956 1.30608 30.1495 0.964603 28.3429 0.831962C26.5006 0.696498 24.6419 0.817842 22.9167 0.981527C20.98 1.16497 19.2516 1.60524 17.8063 2.15838C15.9998 2.85263 14.4634 3.7303 12.9758 4.66726C11.472 5.6155 10.0691 6.61737 8.72471 7.69262C7.3934 8.75939 5.95141 9.76125 4.61033 10.8308C3.25623 11.9117 2.14951 13.1365 1.6287 14.5363C1.10789 15.9361 1.50501 17.5165 3.22368 18.2898C4.53221 18.8796 6.10765 18.7639 7.65055 18.6651V18.6736Z" fill="#BCE1A5"/>
<path d="M7.65073 19.4582C9.45077 19.3537 11.2638 19.3848 13.0671 19.2916C15.0332 19.19 16.9764 18.9304 18.9392 18.826C20.9118 18.7216 22.8681 18.7498 24.8211 18.4986C26.7676 18.2503 28.7272 17.9201 30.6249 17.5109C32.4607 17.1129 34.2347 16.5796 35.986 16.0236C37.5907 15.5156 39.2215 14.923 40.3933 13.9606C42.5254 12.2052 43.4042 9.32379 42.7304 7.06889C41.1843 1.88742 31.7251 -0.274338 25.2443 0.027632C21.4619 0.205428 18.0604 0.916595 14.9713 2.51676C11.8172 4.15078 9.25221 6.18839 6.58632 8.19212C3.91067 10.2043 0.701189 12.3435 0.343133 15.2842C0.193401 16.5005 0.710954 17.8072 2.026 18.6313C3.61121 19.6247 5.67491 19.5823 7.64747 19.4553C9.04714 19.3678 9.06016 17.7959 7.64747 17.8862C6.2185 17.9765 4.39242 18.1769 3.30523 17.3331C2.45566 16.6727 2.37103 15.6765 2.65422 14.8439C3.42567 12.5636 5.96461 10.9409 8.13898 9.30122C10.4501 7.56278 12.6668 5.78764 15.3034 4.28908C17.8521 2.84131 20.6481 1.93823 23.8967 1.68141C27.3926 1.40484 30.8137 1.71528 34.072 2.68892C36.7542 3.49041 39.42 4.88173 40.3868 6.91933C40.8881 7.97199 40.7774 9.08956 40.4551 10.1648C40.1589 11.1554 39.7 12.1601 38.7365 12.9277C37.7079 13.7518 36.2594 14.2287 34.8695 14.6689C33.3429 15.1544 31.7967 15.6087 30.1985 15.9615C28.3594 16.3679 26.4552 16.684 24.5672 16.9408C22.5882 17.2089 20.5993 17.1496 18.6007 17.2766C16.69 17.398 14.7988 17.6407 12.8848 17.731C11.1401 17.8128 9.38892 17.7903 7.64422 17.889C6.24454 17.9709 6.23152 19.54 7.64422 19.4582H7.65073Z" fill="#222222"/>
<path d="M25.2767 11.0594C27.1679 12.2898 30.3253 10.3821 28.4406 8.98791C26.5982 7.62481 23.1674 9.68779 25.2767 11.0594Z" fill="#222222"/>
<path d="M24.502 11.6154C25.0814 11.9879 25.7584 12.1996 26.5364 12.2362C27.1581 12.2673 27.7993 12.1347 28.3429 11.9286C29.3911 11.5279 30.2374 10.67 30.1137 9.79227C30.0356 9.24759 29.7068 8.75653 29.1437 8.37836C28.6033 8.01713 27.9556 7.81958 27.2232 7.76596C25.9895 7.67848 24.8014 8.17799 24.0853 8.86659C23.7175 9.22218 23.4897 9.69348 23.5157 10.1366C23.5482 10.7066 23.9161 11.2287 24.4987 11.6154C24.9219 11.8948 25.6412 11.9371 26.0546 11.6154C26.4452 11.3134 26.5038 10.8026 26.0546 10.5063C25.9537 10.4385 25.8593 10.368 25.7714 10.289C25.83 10.3426 25.8854 10.3962 25.944 10.447C25.8431 10.3511 25.7552 10.2494 25.6901 10.1394C25.7259 10.2015 25.7649 10.2636 25.8007 10.3257C25.7487 10.2297 25.7096 10.1337 25.6901 10.0321C25.7031 10.1027 25.7161 10.1704 25.7291 10.241C25.7096 10.1366 25.7128 10.035 25.7291 9.93055C25.7161 10.0011 25.7031 10.0688 25.6901 10.1394C25.7129 10.0237 25.7584 9.91079 25.8235 9.80072C25.7877 9.86281 25.7487 9.92491 25.7129 9.987C25.7877 9.86282 25.8854 9.74712 26.0026 9.63988C25.944 9.6935 25.8886 9.74712 25.83 9.79792C25.9635 9.67656 26.1165 9.56932 26.2857 9.47619C26.2109 9.5157 26.136 9.55803 26.0644 9.59754C26.2467 9.49876 26.4452 9.41692 26.6536 9.35201C26.5657 9.37741 26.4778 9.40562 26.3899 9.43102C26.5819 9.37458 26.7805 9.33507 26.9856 9.3125C26.8879 9.32096 26.7903 9.33226 26.6926 9.34073C26.8879 9.32097 27.0832 9.32097 27.2785 9.34073C27.1809 9.33226 27.0832 9.32096 26.9856 9.3125C27.1516 9.32943 27.3143 9.3633 27.4706 9.40846C27.3827 9.38306 27.2948 9.35483 27.2069 9.32943C27.3599 9.37741 27.5031 9.4395 27.6398 9.51005C27.565 9.46772 27.4901 9.42821 27.4185 9.3887C27.578 9.47619 27.718 9.58061 27.8417 9.6935C27.7831 9.63988 27.7277 9.58624 27.6691 9.53544C27.77 9.63139 27.8579 9.733 27.9263 9.84306C27.8905 9.78098 27.8514 9.7189 27.8156 9.65681C27.8742 9.75841 27.9165 9.86 27.9393 9.97006C27.9263 9.89951 27.9133 9.83178 27.9002 9.76123C27.9198 9.87129 27.9198 9.98135 27.9002 10.0914C27.9133 10.0209 27.9263 9.95313 27.9393 9.88258C27.9165 9.99829 27.8709 10.1112 27.8091 10.2184C27.8449 10.1563 27.884 10.0942 27.9198 10.0321C27.8449 10.1563 27.7505 10.2692 27.6366 10.3765C27.6952 10.3228 27.7505 10.2692 27.8091 10.2184C27.6756 10.3398 27.5259 10.4442 27.3567 10.5373C27.4315 10.4978 27.5064 10.4555 27.578 10.416C27.4055 10.5091 27.2199 10.5881 27.0181 10.6474C27.106 10.622 27.1939 10.5938 27.2818 10.5684C27.08 10.6276 26.8716 10.67 26.6568 10.6897C26.7545 10.6812 26.8521 10.67 26.9498 10.6615C26.7642 10.6784 26.5819 10.6784 26.3964 10.6615C26.4941 10.67 26.5917 10.6812 26.6894 10.6897C26.5103 10.6728 26.3378 10.6389 26.1718 10.5881C26.2597 10.6135 26.3476 10.6417 26.4355 10.6671C26.2695 10.6163 26.1165 10.5514 25.9733 10.4724C26.0481 10.5119 26.123 10.5542 26.1946 10.5937C26.1458 10.5655 26.0969 10.5373 26.0481 10.5063C25.83 10.368 25.5696 10.2777 25.2702 10.2777C25 10.2777 24.6777 10.3623 24.4922 10.5063C24.1081 10.8054 24.0365 11.3247 24.4922 11.6154H24.502Z" fill="#222222"/>
</svg>
