<svg width="250" height="33" viewBox="0 0 250 33" fill="none" xmlns="http://www.w3.org/2000/svg">
<path d="M8.8125 14.7812H22V6.65625C22 5.98958 21.9896 5.44792 21.9688 5.03125C21.9479 4.59375 21.8958 4.23958 21.8125 3.96875C21.7292 3.69792 21.6042 3.48958 21.4375 3.34375C21.2917 3.17708 21.0938 3.02083 20.8438 2.875C20.2604 2.54167 19.625 2.375 18.9375 2.375H17.9375V1.59375H30.0938V2.375H29.0938C28.8229 2.375 28.5312 2.40625 28.2188 2.46875C27.9271 2.53125 27.6458 2.625 27.375 2.75C27.125 2.875 26.8958 3.03125 26.6875 3.21875C26.4792 3.40625 26.3333 3.625 26.25 3.875C26.1042 4.3125 26.0312 5.23958 26.0312 6.65625V24.9688C26.0312 25.6354 26.0417 26.1771 26.0625 26.5938C26.1042 27.0104 26.1562 27.3542 26.2188 27.625C26.3021 27.8958 26.4167 28.1146 26.5625 28.2812C26.7083 28.4271 26.9062 28.5729 27.1562 28.7188C27.7396 29.0521 28.3854 29.2188 29.0938 29.2188H30.0938V30H17.9375V29.2188H18.9375C19.4167 29.2188 19.8438 29.1875 20.2188 29.125C20.5938 29.0417 20.9167 28.8646 21.1875 28.5938C21.4583 28.3021 21.6562 27.875 21.7812 27.3125C21.9271 26.7292 22 25.9479 22 24.9688V16.3125H8.8125V24.9688C8.8125 25.6354 8.82292 26.1771 8.84375 26.5938C8.86458 27.0104 8.91667 27.3542 9 27.625C9.08333 27.8958 9.19792 28.1146 9.34375 28.2812C9.51042 28.4271 9.71875 28.5729 9.96875 28.7188C10.5521 29.0521 11.1875 29.2188 11.875 29.2188H12.9062V30H0.71875V29.2188H1.75C2.89583 29.2188 3.73958 28.875 4.28125 28.1875C4.61458 27.7708 4.78125 26.6979 4.78125 24.9688V6.65625C4.78125 5.96875 4.77083 5.41667 4.75 5C4.72917 4.5625 4.67708 4.21875 4.59375 3.96875C4.51042 3.69792 4.39583 3.48958 4.25 3.34375C4.10417 3.17708 3.90625 3.02083 3.65625 2.875C3.07292 2.54167 2.4375 2.375 1.75 2.375H0.71875V1.59375H12.9062V2.375H11.875C11.625 2.375 11.3438 2.40625 11.0312 2.46875C10.7396 2.53125 10.4583 2.625 10.1875 2.75C9.9375 2.875 9.70833 3.03125 9.5 3.21875C9.29167 3.40625 9.14583 3.625 9.0625 3.875C8.89583 4.375 8.8125 5.30208 8.8125 6.65625V14.7812ZM38.9688 10.25V25.6562C38.9688 26.5729 39.0208 27.2812 39.125 27.7812C39.2292 28.2604 39.3958 28.6146 39.625 28.8438C39.875 29.0521 40.1771 29.1771 40.5312 29.2188C40.9062 29.2396 41.3542 29.25 41.875 29.25V30H32.5625V29.25C33.2083 29.25 33.7188 29.2083 34.0938 29.125C34.4896 29.0208 34.7917 28.8333 35 28.5625C35.2083 28.2917 35.3333 27.9271 35.375 27.4688C35.4375 26.9896 35.4688 26.3854 35.4688 25.6562V18.2812C35.4688 17.0729 35.4479 16.1146 35.4062 15.4062C35.3646 14.6979 35.2917 14.1771 35.1875 13.8438C35.0833 13.4896 34.9271 13.2708 34.7188 13.1875C34.5312 13.0833 34.2812 13.0312 33.9688 13.0312C33.7604 13.0312 33.5417 13.0625 33.3125 13.125C33.1042 13.1667 32.8542 13.2396 32.5625 13.3438L32.25 12.5938L38.0312 10.25H38.9688ZM37.2188 0.21875C37.8229 0.21875 38.3229 0.427083 38.7188 0.84375C39.1354 1.23958 39.3438 1.73958 39.3438 2.34375C39.3438 2.92708 39.1354 3.42708 38.7188 3.84375C38.3229 4.26042 37.8229 4.46875 37.2188 4.46875C36.6146 4.46875 36.1042 4.26042 35.6875 3.84375C35.2917 3.42708 35.0938 2.92708 35.0938 2.34375C35.0938 1.73958 35.2917 1.23958 35.6875 0.84375C36.1042 0.427083 36.6146 0.21875 37.2188 0.21875ZM81.005 3.28L83.373 3.792C82.125 8.912 80.109 13.84 77.645 17.104C77.229 16.688 76.269 15.92 75.725 15.568C78.093 12.592 79.949 7.984 81.005 3.28ZM80.461 16.848L82.797 17.328C81.805 21.52 80.077 25.584 78.125 28.272C77.645 27.888 76.621 27.248 76.045 26.96C78.029 24.496 79.565 20.688 80.461 16.848ZM80.717 9.296H95.117V11.536H79.789L80.717 9.296ZM85.677 10.224H88.077V29.648C88.077 31.024 87.789 31.728 86.893 32.112C86.029 32.528 84.653 32.592 82.669 32.592C82.509 31.92 82.157 30.864 81.805 30.16C83.309 30.224 84.685 30.192 85.133 30.192C85.549 30.192 85.677 30.064 85.677 29.648V10.224ZM90.381 17.328L92.525 16.624C94.381 19.984 95.981 24.4 96.525 27.376L94.253 28.144C93.741 25.2 92.141 20.688 90.381 17.328ZM94.413 9.296H94.733L95.149 9.232L96.813 9.584C96.365 11.952 95.821 14.704 95.405 16.432L93.325 16.048C93.677 14.448 94.093 11.76 94.413 9.648V9.296ZM74.573 3.248L76.845 3.952C74.733 9.392 71.437 14.8 67.981 18.384C67.725 17.84 67.053 16.56 66.605 16.016C69.773 12.912 72.781 8.112 74.573 3.248ZM71.245 11.504L73.485 9.232L73.549 9.264V32.528H71.245V11.504ZM102.317 8.272H112.045V29.2H102.317V27.024H109.805V10.416H102.317V8.272ZM100.877 8.272H103.117V31.76H100.877V8.272ZM102.157 17.168H110.989V19.312H102.157V17.168ZM105.773 3.056L108.365 3.536C107.725 5.52 106.925 7.728 106.285 9.168L104.365 8.688C104.909 7.152 105.517 4.72 105.773 3.056ZM116.589 8.176H126.413V10.416H116.589V8.176ZM125.581 8.176H127.821C127.821 8.176 127.821 9.072 127.821 9.424C127.309 24.112 126.861 29.072 125.581 30.64C124.877 31.568 124.141 31.856 123.021 31.952C121.933 32.08 120.045 32.016 118.253 31.92C118.189 31.216 117.901 30.224 117.453 29.584C119.533 29.744 121.453 29.776 122.189 29.776C122.829 29.776 123.213 29.68 123.565 29.264C124.621 28.112 125.133 22.8 125.581 8.688V8.176ZM117.261 2.992L119.565 3.536C118.381 8.304 116.493 13.008 114.285 16.048C113.869 15.664 112.877 14.992 112.301 14.672C114.477 11.856 116.237 7.44 117.261 2.992ZM115.789 16.496L117.645 15.408C119.469 17.68 121.677 20.784 122.701 22.672L120.653 23.952C119.693 22 117.549 18.832 115.789 16.496ZM135.597 3.12H138.029V32.528H135.597V3.12ZM132.653 9.2L134.477 9.488C134.317 12.08 133.741 15.792 132.877 18.096L130.989 17.456C131.853 15.312 132.429 11.792 132.653 9.2ZM138.253 9.008L139.917 8.272C140.909 10 141.901 12.272 142.253 13.648L140.461 14.544C140.109 13.136 139.149 10.8 138.253 9.008ZM144.781 4.624L147.117 5.008C146.285 9.68 144.877 14.224 143.085 17.232C142.605 16.88 141.517 16.368 140.909 16.112C142.797 13.296 144.077 8.944 144.781 4.624ZM144.813 9.904H159.693V12.208H144.077L144.813 9.904ZM149.997 3.248H152.397V30.448H149.997V3.248ZM143.181 18.864H158.989V21.136H143.181V18.864ZM140.781 29.136H160.461V31.44H140.781V29.136ZM182.157 6.992H184.461V24.72H182.157V6.992ZM188.941 3.728H191.309V29.424C191.309 31.024 190.893 31.728 189.933 32.144C188.909 32.56 187.245 32.624 184.365 32.592C184.269 31.952 183.885 30.864 183.533 30.16C185.677 30.256 187.565 30.224 188.141 30.192C188.717 30.192 188.941 30 188.941 29.424V3.728ZM167.277 6.704V12.88H175.533V6.704H167.277ZM165.101 4.56H177.837V15.056H165.101V4.56ZM163.885 18.64H176.973V20.848H163.885V18.64ZM176.045 18.64H178.413C178.413 18.64 178.381 19.344 178.349 19.696C178.029 27.44 177.677 30.288 176.877 31.28C176.333 31.92 175.789 32.176 174.893 32.24C174.157 32.336 172.781 32.304 171.373 32.24C171.309 31.536 171.085 30.576 170.701 29.936C172.045 30.064 173.325 30.096 173.805 30.096C174.285 30.096 174.573 30.032 174.829 29.744C175.405 29.072 175.757 26.384 176.045 19.056V18.64ZM169.613 15.856H171.917C171.533 23.408 170.605 29.424 164.685 32.688C164.397 32.112 163.693 31.312 163.149 30.928C168.653 28.048 169.325 22.64 169.613 15.856ZM195.981 17.232H224.301V19.408H195.981V17.232ZM210.221 22.96H222.189V25.072H210.221V22.96ZM209.165 18.192H211.597V30.32H209.165V18.192ZM202.893 23.408C204.845 28.656 209.069 29.648 215.341 29.68C216.557 29.68 223.245 29.68 224.909 29.648C224.557 30.192 224.173 31.248 224.045 31.952H215.245C207.757 31.952 203.405 30.608 200.909 24.144L202.893 23.408ZM201.517 20.432L203.917 20.784C202.893 26.096 200.589 30.064 197.069 32.624C196.717 32.176 195.789 31.312 195.245 30.928C198.637 28.72 200.685 25.136 201.517 20.432ZM201.677 10.608V13.232H218.349V10.608H201.677ZM201.677 6.288V8.88H218.349V6.288H201.677ZM199.341 4.464H220.781V15.056H199.341V4.464Z" fill="#282828"/>
<path d="M64.75 15.875H65.6875C65.6458 16.7917 65.4896 17.6146 65.2188 18.3438C64.9479 19.0521 64.5833 19.6562 64.125 20.1562C63.6667 20.6354 63.125 21.0104 62.5 21.2812C61.8958 21.5312 61.25 21.6562 60.5625 21.6562C60.1458 21.6562 59.8021 21.6458 59.5312 21.625C59.2604 21.6042 58.8854 21.5208 58.4062 21.375C57.9479 21.2083 57.2812 20.9583 56.4062 20.625C55.5521 20.2708 54.3333 19.7708 52.75 19.125C50.5417 18.2292 49.0104 17.7812 48.1562 17.7812C47.1771 17.7812 46.3542 18.0833 45.6875 18.6875C45.0417 19.2917 44.5729 20.2708 44.2812 21.625H43.3438C43.3854 20.6875 43.5417 19.8542 43.8125 19.125C44.1042 18.3958 44.4688 17.7917 44.9062 17.3125C45.3646 16.8125 45.875 16.4375 46.4375 16.1875C47.0208 15.9375 47.625 15.8125 48.25 15.8125C49.125 15.8125 50.1771 16.0312 51.4062 16.4688C52.6354 16.9062 54.1146 17.5 55.8438 18.25C57.0312 18.7708 58.0417 19.1562 58.875 19.4062C59.7292 19.6354 60.3958 19.75 60.875 19.75C61.9375 19.75 62.8125 19.4167 63.5 18.75C64.2083 18.0833 64.625 17.125 64.75 15.875ZM240.333 22.288C239.373 16.944 246.893 15.536 246.893 11.888C246.893 9.68 245.325 8.08 242.061 8.08C239.853 8.08 237.837 9.04 235.981 10.96L234.285 9.392C236.397 7.152 238.893 5.648 242.349 5.648C246.861 5.648 249.773 7.984 249.773 11.664C249.773 16.496 242.125 17.488 242.957 22.288H240.333ZM241.709 30.16C240.557 30.16 239.661 29.36 239.661 28.08C239.661 26.8 240.589 25.936 241.709 25.936C242.829 25.936 243.757 26.8 243.757 28.08C243.757 29.36 242.829 30.16 241.709 30.16Z" fill="#222534"/>
</svg>
