<svg width="133" height="50" viewBox="0 0 133 50" fill="none" xmlns="http://www.w3.org/2000/svg">
<path d="M0.878906 19.4507C2.79134 18.2137 4.47184 16.0531 5.92041 12.9688C4.96012 11.4876 3.77197 9.84782 2.35596 8.04932L3.43018 7.21924C4.62646 8.7085 5.69255 10.0675 6.62842 11.2964C7.23877 9.56299 7.67822 7.37386 7.94678 4.729H3.79639C3.36507 4.729 2.6652 4.77783 1.69678 4.87549V3.3252C2.55127 3.42285 3.25114 3.47168 3.79639 3.47168H7.97119C8.55713 3.47168 9.18376 3.43099 9.85107 3.34961C9.69645 3.84603 9.56217 4.52148 9.44824 5.37598C9.06576 8.00456 8.45133 10.4297 7.60498 12.6514C8.62223 14.165 9.57031 15.6828 10.4492 17.2046L9.04541 18.2544C8.21533 16.5535 7.49919 15.2515 6.89697 14.3481C5.57861 16.7977 4.15446 18.8241 2.62451 20.4272C2.03857 19.9797 1.45671 19.6541 0.878906 19.4507ZM7.01904 22.4292C10.2417 21.1597 12.5448 19.1333 13.9282 16.3501C14.6932 14.6818 15.0838 12.981 15.1001 11.2476C15.1001 10.6128 15.0513 9.9292 14.9536 9.19678L17.0044 9.4043C17.1834 9.42057 17.2811 9.45312 17.2974 9.50195C17.3136 9.56706 17.2648 9.65658 17.1509 9.77051C16.7521 10.1042 16.569 10.6576 16.6016 11.4307C16.6016 12.6921 16.8009 13.7744 17.1997 14.6777C18.9982 18.4619 21.3298 20.9603 24.1943 22.1729C23.4619 22.6204 22.8963 23.0884 22.4976 23.5767C19.397 21.2899 17.2241 18.3805 15.979 14.8486C14.9943 18.4131 12.561 21.3713 8.6792 23.7231C8.32926 23.243 7.77588 22.8117 7.01904 22.4292ZM9.27734 11.394C11.7106 8.86312 13.269 5.26611 13.9526 0.603027L15.9302 1.15234C16.1418 1.21745 16.2394 1.29069 16.2231 1.37207C16.2231 1.45345 16.1174 1.56331 15.9058 1.70166C15.6047 1.86442 15.3605 2.23877 15.1733 2.82471C15.0757 3.15837 14.9089 3.69141 14.6729 4.42383C14.4613 5.10742 14.2944 5.63232 14.1724 5.99854H21.1548H21.2036C21.7163 5.94971 22.408 5.90902 23.2788 5.87646C22.5789 7.74007 21.936 9.37988 21.3501 10.7959C20.9025 10.6331 20.3451 10.5518 19.6777 10.5518C20.2067 9.56706 20.6828 8.46842 21.106 7.25586H13.6963C12.9801 8.96484 12.1297 10.5396 11.145 11.98C10.6323 11.6626 10.0098 11.4673 9.27734 11.394ZM27.002 2.92236L28.1006 1.75049C29.8828 3.08512 31.2826 4.25293 32.2998 5.25391L31.2012 6.47461C29.8177 5.02604 28.418 3.84196 27.002 2.92236ZM39.7705 13.396C39.7624 13.5425 39.7583 13.693 39.7583 13.8477C39.7583 14.2464 39.7909 14.6208 39.856 14.9707C37.1867 16.403 35.5591 17.404 34.9731 17.9736L34.0454 16.2036C34.3628 15.9188 34.5133 15.4997 34.4971 14.9463V4.97314C34.4971 4.44417 34.4482 3.83789 34.3506 3.1543C36.1654 2.96712 37.6587 2.42594 38.8306 1.53076L40.271 2.70264C40.3931 2.80029 40.446 2.88167 40.4297 2.94678C40.3971 3.01188 40.3117 3.0363 40.1733 3.02002C39.8071 2.98747 39.4409 3.0485 39.0747 3.20312C38.1063 3.58561 37.0483 3.95182 35.9009 4.30176V15.6055C37.4308 14.8486 38.7207 14.1121 39.7705 13.396ZM45.8252 14.873V3.70361H42.1997V18.3276C42.1997 18.8566 42.2485 19.5809 42.3462 20.5005H40.6006C40.6982 19.6297 40.7471 18.9054 40.7471 18.3276V4.375C40.7471 3.85417 40.6982 3.16243 40.6006 2.2998C41.333 2.39746 42.0003 2.44629 42.6025 2.44629H45.3735C45.992 2.44629 46.6593 2.39746 47.3755 2.2998C47.2778 3.14616 47.229 3.83789 47.229 4.375V15.3735C47.2453 16.2931 47.0256 16.9035 46.5698 17.2046C46.1548 17.5382 45.2555 17.7458 43.8721 17.8271C43.8558 17.1273 43.6564 16.4681 43.2739 15.8496C43.8843 15.9391 44.3766 15.9839 44.751 15.9839C45.0439 15.9839 45.2515 15.9554 45.3735 15.8984C45.6909 15.8171 45.8415 15.4753 45.8252 14.873ZM31.2256 9.72168C31.1279 10.5924 31.0791 11.3005 31.0791 11.8457V19.1943C31.8604 19.4629 32.6823 19.8332 33.5449 20.3052C35.1969 21.2004 37.5244 21.6235 40.5273 21.5747C43.6117 21.5422 46.285 21.3346 48.5474 20.9521C48.1323 21.4648 47.9004 22.0793 47.8516 22.7954C44.7347 22.9826 42.4601 23.0762 41.0278 23.0762C37.3901 23.1413 34.5907 22.5472 32.6294 21.2939C31.7098 20.7975 31.0018 20.5493 30.5054 20.5493C30.0008 20.5168 29.4759 20.7243 28.9307 21.1719C28.5563 21.5055 28.1453 21.9979 27.6978 22.6489L26.5015 21.0986C27.6164 20.2848 28.6743 19.6785 29.6753 19.2798V11.1255H28.125C27.6286 11.1255 26.9857 11.1743 26.1963 11.272V9.72168C26.9287 9.82747 27.5716 9.88037 28.125 9.88037H29.1748C29.777 9.88037 30.4606 9.82747 31.2256 9.72168ZM56.25 6.02295C57.6009 7.48779 58.8175 8.86312 59.8999 10.1489L58.7524 11.2476C57.7677 9.84782 56.5348 8.44808 55.0537 7.04834L56.25 6.02295ZM67.8467 5.85205L69.397 6.9751C69.5516 7.08903 69.6208 7.18669 69.6045 7.26807C69.5882 7.34131 69.4865 7.38607 69.2993 7.40234C68.8192 7.46745 68.4041 7.74821 68.0542 8.24463C67.3218 9.26188 66.5527 10.2222 65.7471 11.1255C65.3483 10.7756 64.9251 10.4582 64.4775 10.1733C65.7796 8.99333 66.9027 7.5529 67.8467 5.85205ZM61.7554 11.7236V5.27832H55.1514C54.598 5.2946 53.9225 5.34342 53.125 5.4248V3.87451C53.8574 3.95589 54.5329 4.00472 55.1514 4.021H61.7554V2.80029C61.7391 2.13298 61.6862 1.40055 61.5967 0.603027L63.5254 0.847168C63.623 0.895996 63.6719 0.952962 63.6719 1.01807C63.6719 1.10758 63.5986 1.20931 63.4521 1.32324C63.2487 1.47786 63.147 2.0109 63.147 2.92236V4.021H69.6289C70.2637 4.00472 70.9391 3.95589 71.6553 3.87451V5.4248C70.9391 5.34342 70.2637 5.2946 69.6289 5.27832H63.147V11.7236H70.6543C71.2646 11.7074 71.9401 11.6585 72.6807 11.5771V13.1274C71.9808 13.0461 71.3135 12.9932 70.6787 12.9688H64.1479C66.7033 16.7529 70.0724 19.1699 74.2554 20.2197C73.4172 20.7568 72.8556 21.2736 72.5708 21.77C68.6239 19.939 65.4826 17.3307 63.147 13.9453V21.5015C63.1632 22.1362 63.2161 22.8849 63.3057 23.7476H61.5967C61.6862 22.8849 61.7391 22.1362 61.7554 21.5015V14.0308C58.9884 17.3918 55.9204 20.0895 52.5513 22.124C52.2339 21.5055 51.7171 21.0295 51.001 20.6958C54.248 19.5972 57.4707 17.0215 60.6689 12.9688H53.7231C53.1372 12.9932 52.4699 13.0461 51.7212 13.1274V11.5771C52.4943 11.6585 53.1616 11.7074 53.7231 11.7236H61.7554ZM82.3975 19.9023V15.4956H79.7485C79.2684 15.4956 78.6092 15.5485 77.771 15.6543V14.104C78.5604 14.2017 79.1951 14.2505 79.6753 14.2505H82.3975V12.9688C82.4137 12.4072 82.3649 11.6748 82.251 10.7715L84.0454 11.0278C84.2651 11.0441 84.3831 11.0929 84.3994 11.1743C84.432 11.2557 84.3669 11.3818 84.2041 11.5527C83.9518 11.7969 83.8175 12.2526 83.8013 12.9199V14.2505H86.2061C86.7025 14.2668 87.4105 14.2179 88.3301 14.104V15.6543C87.4268 15.5322 86.7432 15.4793 86.2793 15.4956H83.8013V19.7192C85.8521 19.5728 87.6668 19.3001 89.2456 18.9014C89.0666 19.3327 88.916 19.8901 88.7939 20.5737C82.9183 21.1597 79.0202 21.7171 77.0996 22.2461L76.355 20.2197C78.6987 20.2604 80.7129 20.1546 82.3975 19.9023ZM79.48 9.19678C82.4259 9.09912 84.8429 8.94857 86.731 8.74512C86.0067 7.86621 85.2132 6.99951 84.3506 6.14502L85.5713 5.18066C87.0768 6.77572 88.444 8.41553 89.6729 10.1001L88.3301 11.272C88.0452 10.7593 87.7767 10.3035 87.5244 9.90479C84.5785 10.1489 82.3527 10.3687 80.8472 10.564C79.3498 10.7511 78.2837 10.922 77.6489 11.0767L77.002 9.22119C77.7344 9.12354 78.2918 8.79801 78.6743 8.24463C79.9601 6.49495 80.9855 4.86328 81.7505 3.34961H79.0039C78.4505 3.34961 77.7425 3.39844 76.8799 3.49609V1.9458C77.8402 2.0516 78.5482 2.10449 79.0039 2.10449H86.8286C87.4064 2.12077 88.1144 2.06787 88.9526 1.9458V3.49609C88.147 3.39844 87.4634 3.34961 86.9019 3.34961H82.7759L83.5449 3.80127C83.7321 3.9152 83.8257 4.00472 83.8257 4.06982C83.8094 4.15934 83.6914 4.23665 83.4717 4.30176C83.1543 4.38314 82.8573 4.62321 82.5806 5.02197C81.5633 6.48682 80.5298 7.87842 79.48 9.19678ZM92.6758 16.7529H90.979C91.0767 15.8984 91.1255 15.1986 91.1255 14.6533V6.14502C91.1255 5.56722 91.0767 4.77783 90.979 3.77686L92.7734 4.021C92.9769 4.03727 93.0868 4.09017 93.103 4.17969C93.1193 4.24479 93.0501 4.36686 92.8955 4.5459C92.6514 4.81445 92.5293 5.28239 92.5293 5.94971V14.6533C92.5293 15.1335 92.5781 15.8333 92.6758 16.7529ZM93.2251 23.479C93.0786 22.8931 92.7938 22.2339 92.3706 21.5015C93.0542 21.5747 93.6117 21.6113 94.043 21.6113C94.4824 21.6113 94.7917 21.5747 94.9707 21.5015C95.3776 21.3875 95.5688 21.0213 95.5444 20.4028V2.99561C95.5444 2.41781 95.4956 1.62842 95.3979 0.627441L97.229 0.871582C97.4243 0.887858 97.5301 0.940755 97.5464 1.03027C97.5627 1.11165 97.4976 1.24186 97.3511 1.4209C97.0988 1.75456 96.9645 2.21436 96.9482 2.80029V20.9521C96.9645 21.9043 96.7163 22.5472 96.2036 22.8809C95.7479 23.2064 94.755 23.4058 93.2251 23.479ZM105.164 8.51318C104.862 8.51318 104.602 8.40332 104.382 8.18359C104.163 7.96387 104.053 7.69124 104.053 7.36572C104.053 7.04834 104.159 6.78385 104.37 6.57227C104.582 6.36068 104.846 6.25488 105.164 6.25488C105.481 6.25488 105.754 6.36068 105.981 6.57227C106.209 6.78385 106.323 7.04834 106.323 7.36572C106.323 7.66683 106.213 7.93538 105.994 8.17139C105.782 8.39925 105.505 8.51318 105.164 8.51318ZM105.164 20.2441C104.846 20.2441 104.582 20.1302 104.37 19.9023C104.159 19.6745 104.053 19.41 104.053 19.1089C104.053 18.7915 104.154 18.527 104.358 18.3154C104.569 18.0957 104.838 17.9858 105.164 17.9858C105.481 17.9858 105.754 18.0957 105.981 18.3154C106.209 18.527 106.323 18.7915 106.323 19.1089C106.323 19.41 106.213 19.6745 105.994 19.9023C105.774 20.1302 105.497 20.2441 105.164 20.2441ZM128.638 24.2969H127.246C129.964 20.9928 131.323 17.1558 131.323 12.7856C131.323 8.17952 129.948 4.28141 127.197 1.09131H128.601C131.303 4.20817 132.654 8.11442 132.654 12.8101C132.654 17.3755 131.315 21.2044 128.638 24.2969ZM4.77295 37.1499C5.67627 37.2476 6.40869 37.2964 6.97021 37.2964H12.2559V35.0259H6.4209C5.9082 35.0259 5.22461 35.0747 4.37012 35.1724V33.6221C5.19206 33.7279 5.87565 33.7808 6.4209 33.7808H18.5059C19.0511 33.7808 19.7754 33.7279 20.6787 33.6221C20.5729 34.4928 20.52 35.1276 20.52 35.5264V36.9546C20.52 37.451 20.5729 38.0329 20.6787 38.7002C19.8893 38.5863 19.222 38.5374 18.6768 38.5537H13.6475V41.3979H19.9463C20.5485 41.3979 21.2484 41.3491 22.0459 41.2515C21.932 44.3521 21.5739 46.0692 20.9717 46.4028C20.4264 46.9969 18.9697 47.355 16.6016 47.4771C16.5365 46.8748 16.3534 46.2482 16.0522 45.5972C16.9312 45.6785 17.6514 45.7192 18.2129 45.7192C18.4733 45.7192 18.7541 45.703 19.0552 45.6704C19.3644 45.6379 19.6208 45.4792 19.8242 45.1943C20.1253 44.9014 20.2759 44.055 20.2759 42.6553H13.6475V48.002C13.6475 48.4821 13.6963 49.1047 13.7939 49.8696H12.0972C12.203 49.1535 12.2559 48.5309 12.2559 48.002V43.2046C9.50521 45.5809 6.46973 47.355 3.14941 48.5269C2.70182 47.9084 2.16878 47.3835 1.55029 46.9521C4.71598 46.5046 7.7474 45.0723 10.6445 42.6553H6.37207C5.85938 42.639 5.17578 42.6878 4.32129 42.8018C4.41081 42.2972 4.47998 41.7316 4.52881 41.105L4.72412 38.7979C4.77295 38.1956 4.78923 37.6463 4.77295 37.1499ZM6.00586 41.3979H12.2559V38.5537H6.29883L6.00586 41.3979ZM13.6475 35.0259V37.2964H19.1284V35.0259H13.6475ZM1.17188 32.7188C3.39355 31.2539 5.10254 29.1991 6.29883 26.5542L8.10547 27.3477C8.30078 27.4128 8.38216 27.4982 8.34961 27.604C8.31706 27.6854 8.17464 27.7505 7.92236 27.7993C7.67008 27.8481 7.45443 27.9906 7.27539 28.2266C7.05566 28.4788 6.85628 28.7433 6.67725 29.02H10.9985C11.4868 29.02 12.1541 28.9712 13.0005 28.8735V30.4238C12.1704 30.3099 11.5031 30.2611 10.9985 30.2773H8.87451C9.37093 30.9772 9.85514 31.7178 10.3271 32.499L9.021 33.1704C8.36995 32.0392 7.77181 31.0749 7.22656 30.2773H5.79834C4.95199 31.376 3.96729 32.5519 2.84424 33.8052C2.44548 33.3983 1.88802 33.0361 1.17188 32.7188ZM15.9302 26.603L17.8223 27.1768C17.9443 27.2256 18.0054 27.2826 18.0054 27.3477C18.0054 27.3965 17.9199 27.4738 17.749 27.5796C17.4642 27.7098 17.2241 27.9255 17.0288 28.2266C16.8742 28.4382 16.7236 28.6701 16.5771 28.9224H21.7529C22.2005 28.9224 22.7987 28.8735 23.5474 28.7759V30.3262C22.8475 30.2285 22.2493 30.1797 21.7529 30.1797H18.8232C19.3278 30.8226 19.8364 31.5387 20.3491 32.3281L18.9209 33.0972C18.3431 32.0474 17.7287 31.0749 17.0776 30.1797H15.9058C15.3361 31.0749 14.624 32.0881 13.7695 33.2192C13.3708 32.8693 12.8459 32.5641 12.1948 32.3037C13.9445 30.9365 15.1896 29.0363 15.9302 26.603ZM26.7944 46.2197V44.6206C27.5513 44.7427 28.1698 44.7956 28.6499 44.7793H46.1792C46.7082 44.7956 47.3836 44.7427 48.2056 44.6206V46.2197C47.3348 46.1221 46.6349 46.0732 46.106 46.0732H28.6987C28.2674 46.0732 27.6326 46.1221 26.7944 46.2197ZM28.8696 31.7788V30.1797C29.6265 30.2773 30.2531 30.3262 30.7495 30.3262H44.2261C44.755 30.3424 45.4061 30.2936 46.1792 30.1797V31.7788C45.3573 31.673 44.6981 31.6201 44.2017 31.6201H30.896C30.3507 31.6201 29.6753 31.673 28.8696 31.7788ZM60.2295 46.9277C62.6465 46.8789 65.5802 46.7528 69.0308 46.5493C68.1925 45.4995 67.3258 44.4823 66.4307 43.4976L67.6514 42.521C69.1488 44.2869 70.7153 46.1953 72.3511 48.2461L71.0693 49.2715C70.6868 48.6774 70.2962 48.1281 69.8975 47.6235C65.9993 47.8595 63.151 48.0752 61.3525 48.2705C59.5703 48.474 58.5531 48.6855 58.3008 48.9053L57.6538 47.0742C58.4188 46.7894 59.1756 46.1709 59.9243 45.2188C60.8927 43.9248 61.6496 42.5942 62.1948 41.2271H58.1543C57.5684 41.2271 56.9255 41.2759 56.2256 41.3735V39.8232C56.958 39.9046 57.6009 39.9535 58.1543 39.9697H71.3989C72.05 39.9535 72.701 39.9046 73.3521 39.8232V41.3735C72.701 41.2759 72.05 41.2271 71.3989 41.2271H63.0249L64.27 41.7764C64.3758 41.8252 64.4287 41.8984 64.4287 41.9961C64.4124 42.0612 64.3351 42.1222 64.1968 42.1792C63.8306 42.228 63.5335 42.4274 63.3057 42.7773C62.2884 44.2422 61.263 45.6257 60.2295 46.9277ZM57.7759 37.272V35.7217C58.5571 35.8031 59.257 35.856 59.8755 35.8804H69.4702C70.0887 35.856 70.7479 35.8031 71.4478 35.7217V37.272C70.7316 37.1743 70.0724 37.1255 69.4702 37.1255H59.8755C59.257 37.1255 58.5571 37.1743 57.7759 37.272ZM50.6226 48.5513C52.0223 47.3631 52.9744 45.8698 53.479 44.0713C53.9754 42.3216 54.2236 39.5994 54.2236 35.9048V29.8257C54.2074 29.1746 54.1585 28.4422 54.0771 27.6284C54.9235 27.7098 55.6885 27.7586 56.3721 27.7749H69.4214C70.0724 27.7586 70.7967 27.7098 71.5942 27.6284C71.4966 28.4259 71.4478 29.1258 71.4478 29.728V31.0464C71.4478 31.6323 71.4966 32.2996 71.5942 33.0483C70.8944 32.9507 70.2148 32.9019 69.5557 32.9019H55.6274V35.6484C55.6356 35.9984 55.6396 36.3931 55.6396 36.8325C55.6396 42.5047 54.6346 46.6348 52.6245 49.2227C52.0223 48.8564 51.355 48.6326 50.6226 48.5513ZM55.6274 29.02V31.6445H70.0439V29.02H55.6274ZM79.6265 43.2534V34.6475H78.0273C77.5553 34.6475 76.9613 34.6963 76.2451 34.7939V33.2559C77.0345 33.3698 77.6286 33.4186 78.0273 33.4023H79.6265V29.1787C79.6265 28.5928 79.5776 27.8319 79.48 26.896L81.1768 27.1523C81.429 27.1849 81.5633 27.2337 81.5796 27.2988C81.5959 27.3477 81.5023 27.4819 81.2988 27.7017C81.1035 27.8807 81.014 28.3649 81.0303 29.1543V33.4023H82.3975C82.8532 33.4023 83.4106 33.3535 84.0698 33.2559V34.7939C83.3537 34.6963 82.7962 34.6475 82.3975 34.6475H81.0303V42.7773C82.3975 42.3216 83.6548 41.8455 84.8022 41.3491C84.7046 41.9025 84.6558 42.4274 84.6558 42.9238C82.3039 43.6237 79.6509 44.6328 76.6968 45.9512L75.8301 44.4009C77.0101 44.1486 78.2756 43.7661 79.6265 43.2534ZM86.0718 35.2212V30.3018C86.0718 29.6344 86.0229 28.8166 85.9253 27.8481L87.7808 28.1045C88.0086 28.137 88.1307 28.1859 88.147 28.251C88.1632 28.3324 88.0819 28.4504 87.9028 28.605C87.6343 28.8654 87.4919 29.2723 87.4756 29.8257V34.8794L90.4785 34.1714V28.8247C90.4785 28.1248 90.4256 27.3151 90.3198 26.3955L92.1997 26.6519C92.4357 26.6844 92.5618 26.7414 92.5781 26.8228C92.5944 26.8879 92.5008 27.0303 92.2974 27.25C92.0125 27.5674 91.8701 28.1411 91.8701 28.9712V33.8784L94.9219 33.0972C95.4264 32.9832 96.0612 32.7757 96.8262 32.4746C96.8099 32.8896 96.7936 33.5326 96.7773 34.4033C96.7122 37.2842 96.6349 39.3146 96.5454 40.4946C96.5617 42.4315 95.5282 43.4162 93.4448 43.4487C93.3309 42.9035 93.099 42.346 92.749 41.7764C93.1478 41.8984 93.5059 41.9595 93.8232 41.9595C94.7428 41.9595 95.2026 41.3979 95.2026 40.2749C95.3003 39.0216 95.3491 37.6382 95.3491 36.1245C95.3491 35.6851 95.341 35.0788 95.3247 34.3057L91.8701 35.0991V42.7041C91.8701 43.1517 91.923 43.8678 92.0288 44.8525H90.3198C90.4256 43.9818 90.4785 43.2656 90.4785 42.7041V35.4531L87.4756 36.2466V45.9023C87.3779 47.2044 88.2853 47.8188 90.1978 47.7456H93.6768C95.1253 47.7619 96.0734 47.5544 96.521 47.123C97.0256 46.7406 97.286 45.9064 97.3022 44.6206C97.7336 44.9705 98.2829 45.3205 98.9502 45.6704C98.6003 46.9888 98.0835 47.8636 97.3999 48.2949C96.7163 48.7832 95.5811 49.0192 93.9941 49.0029H89.5752C87.1582 49.068 85.9904 48.1769 86.0718 46.3296V36.5273L85.2051 36.7715C84.7331 36.8936 84.1064 37.1133 83.3252 37.4307L83.02 35.7705C83.6873 35.7542 84.2977 35.6729 84.8511 35.5264L86.0718 35.2212ZM109.131 35.2456L110.095 34.0737C110.445 34.6108 111.08 35.152 112 35.6973C112.846 35.0462 113.688 34.2039 114.526 33.1704H109.851C108.899 34.326 108.016 35.3188 107.202 36.1489C106.73 35.7013 106.197 35.3351 105.603 35.0503C107.703 33.9679 109.2 32.2264 110.095 29.8257L111.694 30.3506C111.865 30.3994 111.951 30.4564 111.951 30.5215C111.951 30.5866 111.865 30.6639 111.694 30.7534C111.466 30.8511 111.1 31.2417 110.596 31.9253H115.027C115.662 31.909 116.435 31.8602 117.346 31.7788C116.182 33.439 114.807 34.9893 113.22 36.4297C115.304 37.6585 117.521 38.4398 119.873 38.7734C119.271 39.3757 118.856 39.9331 118.628 40.4458C116.528 39.6646 114.384 38.6473 112.195 37.394C110.746 38.4845 108.708 39.571 106.079 40.6533C105.64 40.0348 105.188 39.5588 104.724 39.2251C107.141 38.6554 109.208 37.7562 110.925 36.5273C110.291 36.1123 109.692 35.6851 109.131 35.2456ZM109.021 43.1802L109.68 41.874C111.959 42.8099 114.189 43.8353 116.37 44.9502L115.601 46.1953C113.534 44.9665 111.34 43.9614 109.021 43.1802ZM110.449 40.0308L111.072 38.8955C112.659 39.5954 114.144 40.3237 115.527 41.0806L114.88 42.3257C113.66 41.5444 112.183 40.7795 110.449 40.0308ZM104.529 49.6987H102.82C102.909 48.8361 102.962 48.0874 102.979 47.4526V30.3994C102.962 29.7158 102.909 28.9753 102.82 28.1777C103.707 28.2591 104.484 28.3079 105.151 28.3242H120.02C120.671 28.3079 121.44 28.2591 122.327 28.1777C122.245 29.0078 122.196 29.7321 122.18 30.3506V46.9766C122.196 47.5055 122.245 48.2461 122.327 49.1982H120.63C120.711 48.7018 120.76 48.2257 120.776 47.77H104.37C104.386 48.3397 104.439 48.9826 104.529 49.6987ZM104.37 46.5737H120.776V29.5693H104.37V46.5737Z" fill="black"/>
</svg>
