<svg width="369" height="192" viewBox="0 0 369 192" fill="none" xmlns="http://www.w3.org/2000/svg">
<rect x="34" width="326" height="44" rx="22" fill="#E4EBF8"/>
<path d="M75.2383 16.6494C76.6107 15.5426 77.557 13.9351 78.0771 11.8267L79.1147 12.167C79.2752 12.2113 79.361 12.2611 79.3721 12.3164C79.3721 12.3607 79.3057 12.416 79.1729 12.4824C79.0345 12.5544 78.9266 12.665 78.8491 12.8145C78.6554 13.2184 78.5005 13.5283 78.3843 13.7441H80.667C81.071 13.7441 81.5967 13.7109 82.2441 13.6445C81.5745 14.6296 80.952 15.6672 80.3765 16.7573H81.5137C81.8789 16.7684 82.3382 16.7324 82.8916 16.6494C82.8252 17.2305 82.792 17.6842 82.792 18.0107V19.6626C83.1628 19.6626 83.6221 19.6294 84.1699 19.563V20.6006C83.6442 20.5176 83.1849 20.4816 82.792 20.4927V22.709C82.792 23.0576 82.8252 23.5086 82.8916 24.062H81.771C81.8042 23.7687 81.8263 23.4976 81.8374 23.2485H79.6958V26.0874C79.7179 26.6795 79.5768 27.0586 79.2725 27.2246C79.0234 27.4072 78.3649 27.5262 77.2969 27.5815C77.2747 27.2108 77.1281 26.8096 76.8569 26.3779C77.4048 26.4775 77.8143 26.5273 78.0854 26.5273C78.2072 26.5273 78.3068 26.5163 78.3843 26.4941C78.6333 26.4499 78.7523 26.2534 78.7412 25.9048V23.2485H77.5708C77.1945 23.2485 76.7407 23.2817 76.2095 23.3481V22.3271C76.7684 22.3991 77.2222 22.4351 77.5708 22.4351H78.7412V20.4761H77.1807C76.7933 20.4761 76.334 20.512 75.8027 20.584V19.563C76.3451 19.6294 76.8044 19.6626 77.1807 19.6626H78.7412V17.5708H77.6206C77.2941 17.5708 76.8929 17.604 76.417 17.6704V16.9565L76.2261 17.1973C75.9771 16.9261 75.6478 16.7435 75.2383 16.6494ZM77.6206 16.7573H79.4385C79.848 16.0767 80.2686 15.3324 80.7002 14.5244H78.0439C77.5902 15.3102 77.1253 16.0186 76.6494 16.6494C76.9593 16.7214 77.283 16.7573 77.6206 16.7573ZM79.6958 19.6626H81.8706V17.5708H79.6958V19.6626ZM79.6958 20.4761V22.4351H81.8706V20.4761H79.6958ZM70.1914 17.8447H71.9595V16.583H71.1958C70.8084 16.583 70.3491 16.619 69.8179 16.6909V15.7363C70.3879 15.8027 70.8472 15.8359 71.1958 15.8359H71.9595V14.5991H70.5317C70.1499 14.5991 69.6961 14.6323 69.1704 14.6987V13.7109C69.7293 13.7773 70.1831 13.8105 70.5317 13.8105H71.9595V13.271C71.9595 12.8726 71.9263 12.4188 71.8599 11.9097L73.1548 12.084C73.2765 12.0951 73.3429 12.1227 73.354 12.167C73.3651 12.2113 73.3208 12.2721 73.2212 12.3496C72.9832 12.5212 72.8698 12.8947 72.8809 13.4702V13.8105H74.1177C74.5161 13.8105 74.981 13.7773 75.5122 13.7109V14.6987C74.992 14.6323 74.5382 14.5991 74.1509 14.5991H72.8809V15.8359H73.7607C74.1481 15.8359 74.613 15.8027 75.1553 15.7363V16.6909C74.6683 16.619 74.2145 16.583 73.7939 16.583H72.8809V17.8447H74.3086C74.7181 17.8447 75.1829 17.8088 75.7031 17.7368V18.7246C75.1663 18.6582 74.7126 18.625 74.3418 18.625H70.1914C69.7598 18.625 69.3005 18.6582 68.8135 18.7246V17.7368C69.3613 17.8088 69.8206 17.8447 70.1914 17.8447ZM75.2383 19.4219C75.1719 19.9199 75.1387 20.3903 75.1387 20.833V26.2036C75.1497 26.6795 75.0031 27.0033 74.6987 27.1748C74.4165 27.3574 73.8382 27.4819 72.9639 27.5483C72.9639 27.1388 72.8283 26.7376 72.5571 26.3447C72.9334 26.4222 73.2489 26.4609 73.5034 26.4609C74.0513 26.4609 74.3086 26.4997 74.2754 26.5771C74.2477 26.6546 74.2339 26.4692 74.2339 26.021C74.2339 25.9712 74.2311 25.9325 74.2256 25.9048V24.2861H70.8887V26.2783C70.8887 26.6602 70.9219 27.1112 70.9883 27.6313H69.8677C69.9396 27.1112 69.9756 26.6602 69.9756 26.2783V20.833C69.9867 20.5176 69.9507 20.0472 69.8677 19.4219C70.4709 19.4938 70.9302 19.5298 71.2456 19.5298H73.8853C74.2671 19.5298 74.7181 19.4938 75.2383 19.4219ZM70.8887 23.5391H74.2256V22.2607H70.8887V23.5391ZM70.8887 20.2769V21.5137H74.2256V20.2769H70.8887ZM85.8633 25.9048C86.8981 25.1632 87.6203 24.0011 88.0298 22.4185L89.2168 22.8916C89.3385 22.9469 89.3939 22.9967 89.3828 23.041C89.3828 23.0908 89.3219 23.1434 89.2002 23.1987C89.0397 23.2541 88.8626 23.4644 88.6689 23.8296C88.182 24.7593 87.6396 25.6419 87.042 26.4775C86.721 26.2396 86.3281 26.0487 85.8633 25.9048ZM92.0059 15.4126H87.8721C87.4404 15.4126 86.9313 15.4458 86.3447 15.5122V14.458C86.9202 14.5299 87.4294 14.5659 87.8721 14.5659H92.2964C92.5786 13.7469 92.7474 12.856 92.8027 11.8931L94.1641 12.1836C94.2747 12.2057 94.3356 12.2445 94.3467 12.2998C94.3467 12.3551 94.2913 12.4188 94.1807 12.4907C93.9316 12.6457 93.7795 12.8781 93.7241 13.188C93.6079 13.7192 93.4889 14.1785 93.3672 14.5659H98.854C99.3299 14.5659 99.8695 14.5299 100.473 14.458V15.5122C99.9137 15.4458 99.3742 15.4126 98.854 15.4126H95.2847C96.2808 17.77 98.2979 19.2365 101.336 19.812C100.882 20.133 100.542 20.5425 100.315 21.0405C97.299 19.8507 95.2708 17.9748 94.2305 15.4126H93.0933C92.1193 17.8143 90.0967 19.7926 87.0254 21.3477C86.7874 20.9714 86.4416 20.6089 85.9878 20.2603C88.7658 19.6128 90.7718 17.9969 92.0059 15.4126ZM96.4053 24.5601C96.7705 24.8755 97.1689 25.0913 97.6006 25.2075C97.3018 26.5301 96.5741 27.1859 95.4175 27.1748C94.8198 27.2467 94.1724 27.2827 93.4751 27.2827C93.2482 27.2827 93.0407 27.2799 92.8525 27.2744C91.8454 27.2523 91.2062 27.1333 90.9351 26.9175C90.6252 26.7404 90.484 26.3171 90.5117 25.6475V24.0952C90.5117 23.6912 90.4757 23.1987 90.4038 22.6177L91.7817 22.792C91.9312 22.8031 92.0114 22.8363 92.0225 22.8916C92.0335 22.9359 91.9754 23.0106 91.8481 23.1157C91.5991 23.3537 91.4691 23.7438 91.458 24.2861V25.5063C91.4469 25.8494 91.5327 26.0653 91.7153 26.1538C91.8758 26.259 92.1746 26.3226 92.6118 26.3447C93.0545 26.3669 93.3534 26.3779 93.5083 26.3779C94.0063 26.3779 94.5708 26.3447 95.2017 26.2783C96.0594 26.2673 96.4606 25.6945 96.4053 24.5601ZM92.1387 18.708L92.8027 18.0107C93.6162 18.6582 94.3024 19.2586 94.8613 19.812L94.1973 20.6006C93.6549 19.9531 92.9688 19.3223 92.1387 18.708ZM94.604 24.0288C93.9123 23.2153 93.1182 22.4849 92.2217 21.8374L92.9023 21.0903C93.7878 21.7599 94.604 22.4517 95.3511 23.1655L94.604 24.0288ZM97.6338 23.0244L98.3145 22.3105C99.2663 23.1296 100.127 23.9569 100.896 24.7925L100.182 25.5977C99.4461 24.6901 98.5967 23.8324 97.6338 23.0244ZM109.637 17.8779C111.064 16.5166 112.033 14.4884 112.542 11.7935L113.762 12.2168C113.923 12.2721 113.992 12.3219 113.97 12.3662C113.97 12.4271 113.878 12.5239 113.696 12.6567C113.535 12.7619 113.405 12.9611 113.306 13.2544C113.023 14.0568 112.747 14.7817 112.476 15.4292H115.871C116.28 15.4292 116.756 15.396 117.298 15.3296C117.232 16.0435 117.199 16.6273 117.199 17.0811L117.116 24.9502C117.127 25.8688 116.894 26.4914 116.418 26.8179C115.965 27.1831 115.018 27.4377 113.58 27.5815C113.53 27.1665 113.358 26.7321 113.065 26.2783C113.469 26.3171 113.831 26.3364 114.152 26.3364C114.739 26.3364 115.176 26.27 115.464 26.1372C115.907 25.9435 116.128 25.5312 116.128 24.9004L116.261 16.2759H112.135C111.726 17.0506 111.3 17.7783 110.857 18.459C110.436 18.2155 110.03 18.0218 109.637 17.8779ZM111.521 19.6958L112.334 19.0151C113.22 19.9338 114.111 20.9714 115.007 22.1279L114.069 22.8418C113.322 21.6852 112.473 20.6366 111.521 19.6958ZM104.938 27.125H103.851C103.923 26.4333 103.959 25.9242 103.959 25.5977V17.0977C103.959 16.6771 103.923 16.1154 103.851 15.4126C104.294 15.479 104.742 15.5122 105.196 15.5122C105.672 14.2671 106.007 13.0607 106.2 11.8931L107.404 12.2168C107.575 12.2611 107.661 12.3109 107.661 12.3662C107.672 12.4382 107.603 12.5184 107.454 12.6069C107.238 12.7453 107.08 12.9722 106.98 13.2876C106.709 14.0457 106.433 14.7873 106.15 15.5122H108.001C108.488 15.5122 109.003 15.479 109.545 15.4126C109.479 16.0933 109.446 16.6549 109.446 17.0977V25.2075C109.446 25.5783 109.479 26.0487 109.545 26.6187H108.408C108.464 26.2645 108.497 25.9408 108.508 25.6475H104.839C104.839 26.0293 104.872 26.5218 104.938 27.125ZM104.872 20.9907V24.7925H108.524V20.9907H104.872ZM104.872 16.3672V20.1689H108.524V16.3672H104.872ZM131.227 18.2515L132.348 19.2891C132.397 19.3333 132.422 19.3693 132.422 19.397C132.422 19.408 132.414 19.4246 132.397 19.4468C132.386 19.4634 132.323 19.4717 132.207 19.4717C131.902 19.4717 131.518 19.5741 131.053 19.7788C129.204 20.5757 127.096 21.2453 124.728 21.7876V24.4688C124.661 25.3874 125.024 25.8411 125.815 25.8301C126.418 25.8965 127.052 25.9297 127.716 25.9297C128.712 25.9297 129.824 25.8577 131.053 25.7139C131.905 25.7581 132.375 24.9751 132.464 23.3647C132.84 23.6414 133.241 23.8628 133.667 24.0288C133.264 25.5949 132.641 26.4443 131.8 26.5771C131.191 26.7266 130.297 26.8179 129.119 26.8511C128.709 26.8621 128.396 26.8677 128.181 26.8677C127.273 26.8677 126.288 26.8289 125.226 26.7515C124.285 26.6353 123.801 26.0736 123.773 25.0664V18.4175C123.773 17.8309 123.74 17.3799 123.673 17.0645L125.051 17.2637C125.156 17.2858 125.215 17.3135 125.226 17.3467C125.226 17.3965 125.179 17.4435 125.084 17.4878C124.869 17.6704 124.75 18.055 124.728 18.6416V20.9409C127.854 20.144 130.021 19.2476 131.227 18.2515ZM126.462 11.6357C127.043 12.0452 127.791 12.737 128.704 13.7109L128.081 14.4082H132.871C133.452 14.4082 133.917 14.375 134.265 14.3086C134.199 14.6351 134.166 15.0778 134.166 15.6367V16.1099C134.166 16.6743 134.199 17.117 134.265 17.438H133.111C133.178 17.0949 133.211 16.6522 133.211 16.1099V15.2549H121.723V16.2261C121.723 16.7961 121.756 17.2388 121.822 17.5542H120.668C120.735 17.2 120.768 16.7573 120.768 16.2261V15.6865C120.768 15.1608 120.735 14.7015 120.668 14.3086C120.962 14.375 121.421 14.4082 122.046 14.4082H127.923C127.265 13.6943 126.534 13.0192 125.732 12.3828L126.462 11.6357ZM145.164 13.8853H138.772C138.33 13.8963 137.821 13.9406 137.245 14.0181V12.8975C137.743 12.9749 138.252 13.0192 138.772 13.0303H150.535C151.066 13.0192 151.586 12.9749 152.095 12.8975V14.0181C151.586 13.9406 151.066 13.8963 150.535 13.8853H146.575C146.132 14.7209 145.646 15.5537 145.114 16.3838V25.7139C145.114 26.1123 145.159 26.6574 145.247 27.3491H144.027C144.104 26.7238 144.149 26.1842 144.16 25.7305V17.7368C142.621 19.895 140.546 21.688 137.934 23.1157C137.563 22.6841 137.157 22.3327 136.714 22.0615C140.139 21.0156 142.956 18.2902 145.164 13.8853ZM151.265 22.9082C149.677 21.1872 148.011 19.6128 146.268 18.1851L147.115 17.2803C148.875 18.8464 150.549 20.4152 152.137 21.9868L151.265 22.9082ZM157.333 11.7437L158.545 12.2666C158.75 12.3441 158.852 12.4077 158.852 12.4575C158.863 12.5018 158.777 12.5627 158.595 12.6401C158.335 12.7176 158.075 12.9556 157.814 13.354C157.222 14.1841 156.478 15.194 155.582 16.3838C157.181 16.3229 158.639 16.2427 159.956 16.1431C159.513 15.4292 159.018 14.7485 158.47 14.1011L159.342 13.5283C160.26 14.7513 161.088 15.9411 161.824 17.0977L160.886 17.7617C160.775 17.5072 160.628 17.2498 160.446 16.9897C156.683 17.1834 154.699 17.3771 154.494 17.5708L153.971 16.3838C154.48 16.2122 154.832 15.9964 155.025 15.7363C156.044 14.4303 156.813 13.0994 157.333 11.7437ZM156.295 27.2246H155.142C155.208 26.7376 155.241 26.2617 155.241 25.7969V19.5298C155.241 19.0981 155.208 18.6554 155.142 18.2017C155.584 18.2681 156.071 18.3013 156.603 18.3013H159.309C159.796 18.3013 160.277 18.2681 160.753 18.2017C160.687 18.6665 160.653 19.1009 160.653 19.5049V25.6309C160.664 26.2507 160.521 26.6574 160.222 26.8511C159.962 27.0558 159.361 27.1582 158.42 27.1582C158.376 26.7819 158.246 26.3641 158.03 25.9048C158.495 25.9767 158.841 26.0127 159.068 26.0127C159.201 26.0127 159.309 25.9989 159.392 25.9712C159.607 25.9103 159.71 25.7166 159.699 25.3901V23.5225H156.196V25.7969C156.196 26.2617 156.229 26.7376 156.295 27.2246ZM159.699 20.4927V19.1479H156.196V20.4927H159.699ZM159.699 22.6675V21.3477H156.196V22.6675H159.699ZM163.235 13.5781V14.5991C164.834 13.9295 166.046 13.2378 166.871 12.5239L167.618 13.437C167.667 13.4979 167.692 13.5532 167.692 13.603C167.692 13.6805 167.629 13.7386 167.501 13.7773C167.208 13.7441 166.851 13.8354 166.431 14.0513C166.237 14.1564 165.421 14.5244 163.982 15.1553C163.572 15.3268 163.323 15.4347 163.235 15.479V16.8901C163.191 17.4435 163.39 17.7202 163.833 17.7202C164.07 17.759 164.438 17.7783 164.937 17.7783C165.446 17.7673 165.786 17.7424 165.958 17.7036C166.716 17.6593 167.089 17.0257 167.078 15.8027C167.438 16.0407 167.811 16.2454 168.199 16.417C167.872 17.889 167.175 18.6361 166.107 18.6582C165.869 18.6803 165.462 18.6914 164.887 18.6914C164.339 18.6914 163.863 18.6748 163.459 18.6416C162.64 18.6084 162.247 18.2238 162.28 17.4878V13.5781C162.28 13.1354 162.247 12.5903 162.181 11.9429L163.525 12.1504C163.669 12.1725 163.747 12.2057 163.758 12.25C163.78 12.2943 163.736 12.3634 163.625 12.4575C163.365 12.6678 163.235 13.0413 163.235 13.5781ZM163.318 20.8662V22.0947C164.851 21.4805 166.088 20.833 167.028 20.1523L167.825 21.0571C167.958 21.201 168.016 21.2979 168 21.3477C167.983 21.3919 167.936 21.4141 167.858 21.4141C167.814 21.4141 167.764 21.4085 167.709 21.3975C167.659 21.3809 167.601 21.3726 167.535 21.3726C167.352 21.3726 167.125 21.4417 166.854 21.5801C165.642 22.1279 164.463 22.6287 163.318 23.0825V25.0332C163.307 25.1051 163.301 25.1632 163.301 25.2075C163.301 25.5894 163.534 25.7803 163.999 25.7803C164.181 25.8024 164.582 25.8245 165.202 25.8467C165.966 25.8577 166.45 25.8522 166.655 25.8301C167.424 25.7526 167.814 25.119 167.825 23.9292C168.196 24.1893 168.575 24.3774 168.962 24.4937C168.542 25.9989 167.878 26.7625 166.97 26.7847C166.633 26.8289 165.977 26.8455 165.003 26.8345C164.14 26.8345 163.595 26.8068 163.368 26.7515C162.643 26.6463 162.308 26.1372 162.363 25.2241V20.8662C162.363 20.4014 162.33 19.8231 162.264 19.1313L163.608 19.3389C163.758 19.361 163.838 19.3942 163.849 19.4385C163.86 19.4717 163.808 19.5353 163.691 19.6294C163.442 19.8231 163.318 20.2354 163.318 20.8662ZM183.754 20.833H180.542V25.2241C180.52 25.6281 180.617 25.8716 180.833 25.9546C180.999 26.0542 181.508 26.0985 182.36 26.0874C183.561 26.0985 184.275 25.974 184.501 25.7139C184.695 25.5866 184.792 25.2795 184.792 24.7925C184.792 24.5767 184.77 24.3055 184.726 23.979C185.19 24.3553 185.603 24.5822 185.962 24.6597C185.802 25.7388 185.478 26.3973 184.991 26.6353C184.549 26.9396 183.53 27.0752 181.937 27.042C181.018 27.042 180.393 26.9507 180.061 26.7681C179.734 26.5965 179.576 26.2673 179.587 25.7803V20.833H177.512C177.424 22.9414 176.995 24.4217 176.226 25.2739C175.523 26.1427 174.054 26.8732 171.818 27.4653C171.613 26.9784 171.325 26.5827 170.955 26.2783C173.163 25.9684 174.607 25.451 175.288 24.7261C176.035 24.0454 176.419 22.7477 176.441 20.833H173.387C172.999 20.8441 172.515 20.88 171.934 20.9409V19.8867C172.482 19.9421 172.966 19.9753 173.387 19.9863H183.754C184.186 19.9753 184.662 19.9421 185.182 19.8867V20.9409C184.651 20.88 184.175 20.8441 183.754 20.833ZM183.007 16.8901V17.9443C182.542 17.889 182.1 17.8558 181.679 17.8447H175.454C175.072 17.8558 174.626 17.889 174.117 17.9443V16.8901C174.593 16.9455 175.039 16.9787 175.454 16.9897H181.679C182.133 16.9787 182.576 16.9455 183.007 16.8901ZM177.919 11.7021C178.577 12.2611 179.219 12.8394 179.845 13.437L179.131 14.0845H183.854C184.33 14.0734 184.828 14.0402 185.348 13.9849C185.293 14.5161 185.26 14.9754 185.249 15.3628V15.7861C185.26 16.2067 185.293 16.6549 185.348 17.1309H184.194C184.25 16.6549 184.283 16.2067 184.294 15.7861V14.9395H172.855V15.9521C172.867 16.3617 172.9 16.8099 172.955 17.2969H171.801C171.857 16.7546 171.89 16.3008 171.901 15.9355V15.396C171.89 14.9754 171.857 14.505 171.801 13.9849C172.382 14.0402 172.869 14.0734 173.262 14.0845H178.957C178.392 13.52 177.77 12.9777 177.089 12.4575L177.919 11.7021ZM187.374 18.2847C190.5 17.106 192.943 14.9865 194.703 11.9263L195.874 12.3164C196.056 12.3496 196.131 12.4022 196.098 12.4741C196.087 12.5073 195.943 12.6069 195.666 12.7729C198.073 15.5399 200.688 17.2139 203.51 17.7949C203.045 18.0993 202.675 18.4784 202.398 18.9321C199.354 17.5929 196.931 15.7391 195.126 13.3706C193.594 15.6174 191.394 17.557 188.527 19.1895C188.19 18.791 187.805 18.4894 187.374 18.2847ZM190.619 18.9819V17.8945C190.962 17.9609 191.433 17.9941 192.03 17.9941H198.762C199.332 17.9941 199.786 17.9609 200.124 17.8945V18.9819C199.681 18.9155 199.222 18.8823 198.746 18.8823H195.666V21.771H198.256C198.743 21.771 199.191 21.7378 199.601 21.6714V22.7588C199.086 22.6868 198.638 22.6509 198.256 22.6509H195.666V25.9214H200.464C200.84 25.9214 201.316 25.8854 201.892 25.8135V26.9009C201.554 26.8345 201.078 26.8013 200.464 26.8013H190.005C189.429 26.8013 188.967 26.8345 188.619 26.9009V25.8135C189.083 25.8854 189.554 25.9214 190.03 25.9214H194.703V22.6509H192.13C191.759 22.6509 191.336 22.6868 190.86 22.7588V21.6714C191.358 21.7378 191.781 21.771 192.13 21.771H194.703V18.8823H192.03C191.599 18.8823 191.128 18.9155 190.619 18.9819ZM204.49 19.3223C206.62 17.474 208.214 14.9644 209.271 11.7935L210.475 12.416C210.602 12.4769 210.66 12.5239 210.649 12.5571C210.649 12.6014 210.58 12.6512 210.441 12.7065C210.248 12.7896 210.037 13.0441 209.811 13.4702C209.656 13.7801 209.423 14.2228 209.113 14.7983C208.914 15.1968 208.767 15.4818 208.673 15.6533V25.9048C208.673 26.2202 208.707 26.7515 208.773 27.4985H207.652C207.713 26.8179 207.749 26.2866 207.76 25.9048V17.1143C207.102 18.1436 206.404 19.1009 205.668 19.9863C205.281 19.7152 204.888 19.4938 204.49 19.3223ZM209.437 19.5464L209.221 18.4341C210.001 18.4119 210.516 18.3732 210.765 18.3179L213.28 17.8945C213.087 16.013 212.984 14.5327 212.973 13.4536C212.973 13.2046 212.951 12.7923 212.907 12.2168C212.896 12.1283 212.89 12.0591 212.89 12.0093L214.168 12.2002C214.334 12.2223 214.417 12.25 214.417 12.2832C214.445 12.3164 214.401 12.3966 214.285 12.5239C214.047 12.7508 213.939 13.0801 213.961 13.5117C213.994 15.2549 214.091 16.6632 214.251 17.7368C216.664 17.3882 218.524 16.998 219.83 16.5664L220.045 17.687C218.928 17.8254 217.024 18.127 214.334 18.5918C214.689 22.1169 215.851 24.4854 217.821 25.6973C218.081 25.8743 218.305 25.9629 218.493 25.9629C218.77 25.9629 218.966 25.7664 219.083 25.3735C219.149 25.1799 219.221 24.7786 219.298 24.1699C219.514 24.5296 219.913 24.7371 220.494 24.7925C220.289 25.4399 220.106 25.9352 219.946 26.2783C219.719 26.9258 219.351 27.2495 218.842 27.2495C218.465 27.2495 218.006 27.0669 217.464 26.7017C215.206 25.4067 213.839 22.7533 213.363 18.7412L210.765 19.2227C210.743 19.2227 210.3 19.3306 209.437 19.5464ZM215.189 13.2544L216.069 12.5405C216.706 13.2323 217.483 14.1619 218.402 15.3296L217.547 16.0933C216.678 14.8813 215.892 13.9351 215.189 13.2544ZM221.73 24.2197C224.271 23.4007 226.384 21.8651 228.072 19.6128H223.482C222.929 19.6128 222.469 19.646 222.104 19.7124V18.6582C222.375 18.7246 222.834 18.7578 223.482 18.7578H229.027V17.0479H225.507C224.915 17.0479 224.45 17.0811 224.113 17.1475V16.0933C224.472 16.1597 224.937 16.1929 225.507 16.1929H229.027V14.6655H224.603C224.016 14.6655 223.551 14.6987 223.208 14.7651V13.7109C223.54 13.7773 224.005 13.8105 224.603 13.8105H229.027V13.3872C229.027 12.7674 228.991 12.2528 228.919 11.8433L230.28 12.0591C230.419 12.0868 230.493 12.1283 230.504 12.1836C230.515 12.2279 230.463 12.2887 230.347 12.3662C230.064 12.5046 229.94 12.8228 229.973 13.3208V13.8105H234.53C235.167 13.8105 235.632 13.7773 235.925 13.7109V14.7651C235.576 14.7098 235.111 14.6766 234.53 14.6655H229.973V16.1929H233.717C234.364 16.1929 234.824 16.1597 235.095 16.0933V17.1475C234.752 17.0811 234.292 17.0479 233.717 17.0479H229.973V18.7578H235.651C236.287 18.7578 236.752 18.7246 237.045 18.6582V19.7124C236.719 19.646 236.254 19.6128 235.651 19.6128H230.795C231.011 20.6089 231.456 21.5828 232.131 22.5347C233.199 21.7876 234.107 20.9437 234.854 20.0029L235.684 20.8164C235.856 20.988 235.93 21.1069 235.908 21.1733C235.886 21.2287 235.75 21.2563 235.501 21.2563C235.241 21.284 234.981 21.3919 234.721 21.5801C234.638 21.652 234.508 21.7599 234.331 21.9038C233.772 22.3687 233.244 22.7948 232.746 23.1821C233.924 24.4383 235.358 25.2656 237.045 25.6641C236.641 26.0238 236.326 26.3752 236.099 26.7183C232.502 25.1743 230.416 22.8058 229.84 19.6128H229.309C228.994 20.0887 228.479 20.7168 227.765 21.4971V25.9214C229.259 25.2075 230.352 24.5822 231.044 24.0454L230.928 25.3901C228.991 26.2866 227.682 26.9894 227.001 27.4985C226.775 27.0669 226.559 26.7155 226.354 26.4443C226.559 26.3337 226.683 26.2147 226.728 26.0874C226.783 25.938 226.811 25.6834 226.811 25.3237V22.3687C225.704 23.3869 224.351 24.3387 222.751 25.2241C222.447 24.8146 222.107 24.4798 221.73 24.2197ZM242.881 24.9668C244.215 23.9486 245.247 22.2718 245.977 19.9365L247.297 20.5591C247.402 20.62 247.449 20.6781 247.438 20.7334C247.416 20.7998 247.341 20.8441 247.214 20.8662C246.998 20.9492 246.788 21.1927 246.583 21.5967C245.996 22.9248 245.191 24.2861 244.167 25.6807C243.775 25.3984 243.346 25.1605 242.881 24.9668ZM246.467 11.6357L247.895 12.0425C248.033 12.0812 248.094 12.1172 248.077 12.1504C248.077 12.1836 248.011 12.2445 247.878 12.333C247.695 12.4271 247.543 12.654 247.421 13.0137C247.206 13.6501 246.954 14.3141 246.666 15.0059H252.228C252.726 15.0059 253.235 14.9699 253.755 14.8979C253.517 15.8885 253.127 17.0506 252.584 18.3843C252.153 18.2736 251.724 18.2072 251.298 18.1851C251.724 17.4712 252.062 16.6937 252.311 15.8525H246.276C245.7 17.0312 245.056 18.0854 244.342 19.0151C243.91 18.8104 243.429 18.6637 242.897 18.5752C244.746 17.0312 245.936 14.7181 246.467 11.6357ZM246.55 27.6147C246.506 27.1056 246.392 26.6131 246.209 26.1372C246.885 26.2977 247.391 26.3779 247.729 26.3779C247.861 26.3779 247.961 26.3669 248.027 26.3447C248.299 26.2894 248.423 26.0099 248.401 25.5063V18.9321C248.401 18.4451 248.368 17.889 248.301 17.2637L249.58 17.438C249.701 17.4491 249.762 17.4712 249.762 17.5044C249.773 17.5376 249.729 17.5985 249.629 17.687C249.447 17.8364 249.355 18.2515 249.355 18.9321V25.8467C249.378 26.6325 249.231 27.1029 248.916 27.2578C248.644 27.4626 247.856 27.5815 246.55 27.6147ZM251.331 20.1191C252.438 21.5801 253.456 23.0382 254.386 24.4937L253.365 25.2573C252.435 23.647 251.433 22.1667 250.36 20.8164L251.331 20.1191ZM238.44 18.8325C240.167 17.366 241.42 15.0418 242.2 11.8599L243.437 12.3496C243.62 12.4215 243.705 12.4741 243.694 12.5073C243.716 12.5405 243.656 12.5959 243.512 12.6733C243.329 12.7674 243.152 13.0275 242.98 13.4536C242.632 14.339 242.339 15.0197 242.101 15.4956V25.9546C242.101 26.4637 242.134 27.0226 242.2 27.6313H241.046C241.113 27.0448 241.146 26.4858 241.146 25.9546V17.3799C240.637 18.2321 240.194 18.9238 239.818 19.4551C239.419 19.2282 238.96 19.0207 238.44 18.8325ZM262.637 17.8779C264.064 16.5166 265.033 14.4884 265.542 11.7935L266.762 12.2168C266.923 12.2721 266.992 12.3219 266.97 12.3662C266.97 12.4271 266.878 12.5239 266.696 12.6567C266.535 12.7619 266.405 12.9611 266.306 13.2544C266.023 14.0568 265.747 14.7817 265.476 15.4292H268.871C269.28 15.4292 269.756 15.396 270.298 15.3296C270.232 16.0435 270.199 16.6273 270.199 17.0811L270.116 24.9502C270.127 25.8688 269.894 26.4914 269.418 26.8179C268.965 27.1831 268.018 27.4377 266.58 27.5815C266.53 27.1665 266.358 26.7321 266.065 26.2783C266.469 26.3171 266.831 26.3364 267.152 26.3364C267.739 26.3364 268.176 26.27 268.464 26.1372C268.907 25.9435 269.128 25.5312 269.128 24.9004L269.261 16.2759H265.135C264.726 17.0506 264.3 17.7783 263.857 18.459C263.436 18.2155 263.03 18.0218 262.637 17.8779ZM264.521 19.6958L265.334 19.0151C266.22 19.9338 267.111 20.9714 268.007 22.1279L267.069 22.8418C266.322 21.6852 265.473 20.6366 264.521 19.6958ZM257.938 27.125H256.851C256.923 26.4333 256.959 25.9242 256.959 25.5977V17.0977C256.959 16.6771 256.923 16.1154 256.851 15.4126C257.294 15.479 257.742 15.5122 258.196 15.5122C258.672 14.2671 259.007 13.0607 259.2 11.8931L260.404 12.2168C260.575 12.2611 260.661 12.3109 260.661 12.3662C260.672 12.4382 260.603 12.5184 260.454 12.6069C260.238 12.7453 260.08 12.9722 259.98 13.2876C259.709 14.0457 259.433 14.7873 259.15 15.5122H261.001C261.488 15.5122 262.003 15.479 262.545 15.4126C262.479 16.0933 262.446 16.6549 262.446 17.0977V25.2075C262.446 25.5783 262.479 26.0487 262.545 26.6187H261.408C261.464 26.2645 261.497 25.9408 261.508 25.6475H257.839C257.839 26.0293 257.872 26.5218 257.938 27.125ZM257.872 20.9907V24.7925H261.524V20.9907H257.872ZM257.872 16.3672V20.1689H261.524V16.3672H257.872ZM272.506 17.0479C273.497 16.6273 274.427 16.0075 275.295 15.1885C274.593 14.3971 273.873 13.7358 273.137 13.2046L273.751 12.4907C274.432 12.9888 275.179 13.6805 275.993 14.5659C277.127 13.4979 277.797 12.6927 278.001 12.1504L279.089 12.9141C279.216 12.9971 279.28 13.0579 279.28 13.0967C279.28 13.1077 279.271 13.1243 279.255 13.1465C279.244 13.1631 279.136 13.1935 278.931 13.2378C278.721 13.2821 278.491 13.4287 278.242 13.6777C277.672 14.2422 277.105 14.8094 276.541 15.3794C277.149 16.6245 277.512 18.2791 277.628 20.3433C277.678 21.2287 277.703 21.9868 277.703 22.6177C277.703 24.0565 277.592 25.0996 277.371 25.7471C277.077 26.8262 276.076 27.4211 274.366 27.5317C274.355 27.0558 274.183 26.6131 273.851 26.2036C274.222 26.27 274.554 26.3032 274.847 26.3032C275.976 26.3032 276.557 25.819 276.59 24.8506C276.701 23.9762 276.756 23.0742 276.756 22.1445C276.756 21.2646 276.707 20.3626 276.607 19.4385C275.816 20.6061 274.806 21.8374 273.577 23.1323C273.328 22.8335 272.96 22.6011 272.473 22.4351C273.984 21.3892 275.293 19.8923 276.399 17.9443C276.3 17.4352 276.109 16.8071 275.827 16.0601C274.941 16.785 274.158 17.391 273.478 17.8779C273.24 17.5348 272.916 17.2581 272.506 17.0479ZM282.675 25.5063V21.7378H280.566C280.174 21.7378 279.714 21.771 279.188 21.8374C279.271 21.3062 279.307 20.8524 279.296 20.4761V17.1475C279.307 16.5775 279.271 16.0103 279.188 15.4458C279.803 15.5233 280.387 15.5565 280.94 15.5454H282.675V13.7109C282.686 13.1465 282.653 12.535 282.575 11.8765L283.87 12.0259C284.025 12.0369 284.103 12.0674 284.103 12.1172C284.103 12.1504 284.025 12.2168 283.87 12.3164C283.688 12.3607 283.607 12.7176 283.629 13.3872V15.5454H285.497C285.918 15.5454 286.474 15.5122 287.166 15.4458C287.083 15.966 287.049 16.4917 287.066 17.0229V20.2769C287.066 20.7196 287.099 21.2397 287.166 21.8374C286.507 21.771 285.956 21.7378 285.514 21.7378H283.629V25.4067C284.67 25.3514 285.622 25.2601 286.485 25.1328C286.031 24.2861 285.522 23.5169 284.958 22.8252L285.887 22.2441C286.623 23.3896 287.478 24.8755 288.452 26.7017L287.473 27.2246C287.312 26.7155 287.124 26.2673 286.908 25.8799C283.123 26.3005 280.442 26.6657 278.865 26.9756L278.325 25.6475C278.635 25.6862 279.014 25.7056 279.462 25.7056C280.298 25.7056 281.369 25.6392 282.675 25.5063ZM280.243 16.4004V20.8828H282.675V16.4004H280.243ZM283.629 16.4004V20.8828H286.111V16.4004H283.629ZM290.004 20.0527V18.8657C290.641 18.9321 291.208 18.9653 291.706 18.9653H303.244C303.764 18.9653 304.304 18.9321 304.863 18.8657V20.0527C304.315 19.9863 303.764 19.9531 303.211 19.9531H291.723C290.987 19.9421 290.414 19.9753 290.004 20.0527ZM308.449 17.9443H313.255C313.415 16.915 313.523 15.6229 313.579 14.0679H309.893C309.611 14.0568 309.259 14.09 308.839 14.1675V13.0801C309.193 13.1631 309.539 13.1991 309.876 13.188H319.464C319.779 13.1991 320.131 13.1631 320.518 13.0801V14.1675C320.169 14.09 319.829 14.0568 319.497 14.0679H314.583C314.55 15.5509 314.453 16.8431 314.292 17.9443H320.775C321.08 17.9554 321.431 17.9222 321.83 17.8447V18.9321C321.42 18.8547 321.063 18.8215 320.759 18.8325H315.978V24.8506C315.955 25.2878 316.069 25.5423 316.318 25.6143C316.512 25.7139 317.129 25.7581 318.169 25.7471C319.259 25.7692 319.923 25.6613 320.161 25.4233C320.443 25.2407 320.67 24.6071 320.842 23.5225C321.168 23.9541 321.536 24.1921 321.946 24.2363C321.597 25.3929 321.201 26.0902 320.759 26.3281C320.521 26.4831 320.203 26.591 319.804 26.6519C319.439 26.7072 318.861 26.7349 318.069 26.7349C316.719 26.7459 315.87 26.6602 315.521 26.4775C315.134 26.3447 314.957 25.9767 314.99 25.3735V18.8325H314.143C313.551 22.2414 311.55 25.0221 308.142 27.1748C307.915 26.6989 307.585 26.342 307.154 26.104C310.081 25.0636 312.065 22.6398 313.105 18.8325H308.532C308.216 18.8215 307.848 18.8547 307.428 18.9321V17.8447C307.793 17.9222 308.133 17.9554 308.449 17.9443ZM324.22 25.1494V24.062C324.735 24.145 325.155 24.181 325.482 24.1699H337.402C337.762 24.181 338.221 24.145 338.78 24.062V25.1494C338.188 25.083 337.712 25.0498 337.352 25.0498H325.515C325.222 25.0498 324.79 25.083 324.22 25.1494ZM325.631 15.3296V14.2422C326.146 14.3086 326.572 14.3418 326.91 14.3418H336.074C336.433 14.3529 336.876 14.3197 337.402 14.2422V15.3296C336.843 15.2576 336.395 15.2217 336.057 15.2217H327.009C326.639 15.2217 326.179 15.2576 325.631 15.3296Z" fill="black"/>
<rect y="71" width="262" height="44" rx="22" fill="#F2F9ED"/>
<path d="M61.4624 88.0107H59.437C58.939 88.0107 58.488 88.0467 58.084 88.1187V87.0645C58.4105 87.1309 58.8615 87.1641 59.437 87.1641H61.6201C61.6865 86.5166 61.7253 85.9826 61.7363 85.562C61.7474 85.1193 61.7253 84.6434 61.6699 84.1343L63.0229 84.3086C63.1724 84.3197 63.2526 84.3529 63.2637 84.4082C63.2637 84.4746 63.1973 84.5493 63.0645 84.6323C62.8929 84.8592 62.7905 85.2217 62.7573 85.7197C62.7463 86.2067 62.7048 86.6882 62.6328 87.1641H65.4551C65.931 87.1641 66.3903 87.1309 66.833 87.0645V88.1187C66.3018 88.0467 65.8424 88.0107 65.4551 88.0107H62.5L62.3838 88.5752C63.9001 89.8424 65.2697 91.2314 66.4927 92.7422L65.6792 93.6221C64.7716 92.2054 63.5653 90.8413 62.0601 89.5298C61.3351 91.0903 60.2809 92.4987 58.8975 93.7549C58.5765 93.373 58.1919 93.0798 57.7437 92.875C59.4647 92.377 60.7043 90.7555 61.4624 88.0107ZM57.4531 97.0586H56.291C56.363 96.5827 56.3989 96.1123 56.3989 95.6475V84.2588C56.3989 83.722 56.363 83.2212 56.291 82.7563C56.6895 82.8283 57.1377 82.8643 57.6357 82.8643H67.2979C67.7959 82.8643 68.2663 82.8283 68.709 82.7563C68.637 83.3153 68.6011 83.8161 68.6011 84.2588V95.2573C68.6011 95.7111 68.637 96.2368 68.709 96.8345H67.5469C67.6188 96.3918 67.6548 96.0072 67.6548 95.6807H57.3452C57.3231 96.2562 57.359 96.7155 57.4531 97.0586ZM57.3452 94.8672H67.6548V83.7109H57.3452V94.8672ZM73.1582 95.3569V86.666C73.1471 86.2399 73.1139 85.7087 73.0586 85.0723L74.312 85.2798C74.4725 85.3019 74.5527 85.3351 74.5527 85.3794C74.5749 85.4126 74.5251 85.4679 74.4033 85.5454C74.2207 85.7059 74.1239 86.0462 74.1128 86.5664V95.2241C74.882 95.0415 75.6291 94.8423 76.354 94.6265V84.1343C76.3429 83.5256 76.3097 82.9832 76.2544 82.5073L77.541 82.6899C77.6683 82.7121 77.743 82.748 77.7651 82.7979C77.7873 82.8421 77.7541 82.8975 77.6655 82.9639C77.4386 83.1576 77.3197 83.5034 77.3086 84.0015V87.2139H78.2051C78.5482 87.2139 79.0075 87.1807 79.583 87.1143V88.1685C78.9743 88.0965 78.515 88.0605 78.2051 88.0605H77.3086V94.3359C78.2936 94.0426 79.0988 93.7244 79.7241 93.3813C79.6632 93.8573 79.6383 94.2778 79.6494 94.6431C75.9251 95.6945 73.5234 96.4305 72.4443 96.8511L71.7471 95.5479C72.2562 95.5091 72.7266 95.4455 73.1582 95.3569ZM81.5752 83.5283V88.9487C83.3516 87.7811 84.569 86.7158 85.2275 85.7529L86.1987 86.7241C86.2873 86.8016 86.3205 86.8569 86.2983 86.8901C86.2762 86.9233 86.1904 86.951 86.041 86.9731C85.8031 87.0229 85.4821 87.2111 85.0781 87.5376C83.9215 88.4562 82.7539 89.3112 81.5752 90.1025V94.8672C81.5531 95.498 81.6665 95.8716 81.9155 95.9878C82.0815 96.1151 82.5381 96.1787 83.2852 96.1787C83.4512 96.1787 83.6227 96.1759 83.7998 96.1704C84.652 96.1704 85.175 96.068 85.3687 95.8633C85.6066 95.6973 85.7643 95.2158 85.8418 94.4189C85.8418 94.3747 85.8473 94.3083 85.8584 94.2197C85.8916 93.8766 85.9193 93.5252 85.9414 93.1655C86.1572 93.3371 86.5889 93.528 87.2363 93.7383C87.0316 94.6901 86.8794 95.321 86.7798 95.6309C86.4699 96.627 85.7477 97.1305 84.6133 97.1416C84.2536 97.1637 83.7832 97.1748 83.2021 97.1748C82.1396 97.1859 81.4396 97.0503 81.1021 96.7681C80.759 96.5522 80.5985 96.0376 80.6206 95.2241V83.7441C80.6206 83.3844 80.5874 82.8117 80.521 82.0259L81.8657 82.2334C81.9764 82.2445 82.0317 82.2721 82.0317 82.3164C82.0428 82.3607 82.0041 82.4188 81.9155 82.4907C81.6997 82.6567 81.5863 83.0026 81.5752 83.5283ZM92.8643 86.8071V84.3252C92.2057 84.4359 91.3203 84.5604 90.208 84.6987C89.9368 84.1564 89.6823 83.7607 89.4443 83.5117C89.8317 83.556 90.2246 83.5781 90.623 83.5781C92.2279 83.5781 93.9268 83.2212 95.7197 82.5073L96.3506 83.437C96.417 83.5311 96.4502 83.5975 96.4502 83.6362C96.4502 83.6528 96.4419 83.6694 96.4253 83.686C96.4087 83.7026 96.3755 83.7109 96.3257 83.7109C96.2759 83.7109 96.2095 83.7054 96.1265 83.6943C96.0379 83.6777 95.9577 83.6694 95.8857 83.6694C95.8083 83.6694 95.7363 83.6777 95.6699 83.6943C95.0667 83.8659 94.4608 84.0125 93.8521 84.1343V86.8071H97.6206C97.4491 84.494 97.3411 82.7923 97.2969 81.7021L98.8325 82.0591C98.9432 82.0868 98.9985 82.1227 98.9985 82.167C99.0096 82.2002 98.9653 82.25 98.8657 82.3164C98.6056 82.5212 98.4756 82.8947 98.4756 83.437C98.4867 84.7209 98.5365 85.8442 98.625 86.8071H102.792C103.063 86.8182 103.409 86.785 103.83 86.7075V87.7617C103.354 87.6787 102.997 87.6427 102.759 87.6538H98.6748C98.8132 89.3914 99.1037 90.8773 99.5464 92.1113C100.382 90.9548 100.958 89.6847 101.273 88.3013L102.535 89.0151C102.634 89.0705 102.673 89.1147 102.651 89.1479C102.651 89.1867 102.579 89.2448 102.435 89.3223C102.208 89.444 102.02 89.6654 101.871 89.9863C101.361 91.0488 100.733 92.1196 99.9863 93.1987C100.744 94.964 101.561 95.938 102.435 96.1206C102.839 96.187 103.088 95.6198 103.182 94.4189C103.52 94.668 103.871 94.8617 104.236 95C103.821 96.5938 103.329 97.3906 102.759 97.3906C102.703 97.3906 102.662 97.3879 102.634 97.3823C101.516 97.2772 100.401 96.1759 99.2891 94.0786C98.2708 95.1134 97.0811 96.1068 95.7197 97.0586C95.3324 96.7764 94.8952 96.555 94.4082 96.3945C96.0186 95.7803 97.4989 94.6624 98.8491 93.041C98.3013 91.9232 97.9139 90.1274 97.687 87.6538H93.8521V90.7334C94.9146 90.3571 95.7972 89.978 96.5 89.5962L96.5166 90.6836C95.4264 91.0765 94.5382 91.4168 93.8521 91.7046V95.6807C93.8742 96.3613 93.6916 96.8096 93.3042 97.0254C92.939 97.2633 92.1449 97.41 90.9219 97.4653C90.9329 97.0226 90.825 96.5854 90.5981 96.1538C91.2788 96.259 91.7769 96.3115 92.0923 96.3115C92.2749 96.3115 92.4077 96.2949 92.4907 96.2617C92.7619 96.2008 92.8864 95.938 92.8643 95.4731V92.0947C91.5029 92.5596 90.4709 93.0078 89.7681 93.4395L89.0044 92.3105C90.2938 92.0505 91.5804 91.6437 92.8643 91.0903V87.6538H90.1914C89.8649 87.6427 89.4222 87.6787 88.8633 87.7617V86.7075C89.3392 86.785 89.7708 86.8182 90.1582 86.8071H92.8643ZM99.3887 83.354L100.119 82.6899C100.971 83.3927 101.851 84.1979 102.759 85.1055L101.995 85.8857C101.076 84.8675 100.208 84.0236 99.3887 83.354ZM105.614 89.0981C107.164 87.8088 108.517 85.4292 109.673 81.9595L110.852 82.4575C110.974 82.5129 111.035 82.5571 111.035 82.5903C111.035 82.6235 110.974 82.6623 110.852 82.7065C110.703 82.7896 110.589 82.9251 110.512 83.1133C110.069 84.2477 109.682 85.1331 109.35 85.7695V96.1704C109.35 96.7847 109.386 97.2661 109.458 97.6147H108.295C108.367 97.2661 108.403 96.7847 108.403 96.1704V87.5044C107.927 88.2957 107.427 89.0649 106.901 89.812C106.608 89.5519 106.179 89.314 105.614 89.0981ZM112.977 97.4321H111.815C111.887 97.0558 111.923 96.5633 111.923 95.9546V86.583C111.923 85.9964 111.887 85.5205 111.815 85.1553L113.126 85.313C113.265 85.3351 113.334 85.3628 113.334 85.396C113.334 85.4403 113.276 85.5011 113.16 85.5786C112.977 85.728 112.88 86.1541 112.869 86.8569V95.9712C112.869 96.591 112.905 97.078 112.977 97.4321ZM113.143 82.2832C113.912 83.1022 114.576 83.8742 115.135 84.5991L114.214 85.3794C113.738 84.505 113.085 83.7109 112.255 82.9971L113.143 82.2832ZM115.658 84.541V83.4868C116.023 83.5588 116.494 83.5947 117.069 83.5947H119.145C119.654 83.5947 120.066 83.5588 120.381 83.4868C120.315 83.7746 120.282 84.173 120.282 84.6821V95.9878C120.315 96.5854 120.157 96.9701 119.809 97.1416C119.443 97.3574 118.682 97.4985 117.526 97.5649C117.459 97.0448 117.291 96.5799 117.02 96.1704C117.54 96.2922 117.969 96.353 118.306 96.353C119.07 96.353 119.432 96.4111 119.394 96.5273C119.355 96.6491 119.335 96.3475 119.335 95.6226C119.335 95.5506 119.333 95.4953 119.327 95.4565V84.4414H117.053C116.544 84.4414 116.079 84.4746 115.658 84.541ZM122.614 91.2979C123.644 91.0931 124.742 90.4069 125.91 89.2393C125.91 88.874 125.876 88.4756 125.81 88.0439L126.798 88.2183C126.853 88.2238 126.881 88.2432 126.881 88.2764C126.881 88.293 126.87 88.3179 126.848 88.3511C127.628 87.366 128.295 86.3174 128.848 85.2051H125.005C124.612 85.2051 124.144 85.241 123.602 85.313V84.292C124.111 84.3584 124.579 84.3916 125.005 84.3916H129.238C129.581 83.4951 129.839 82.6512 130.01 81.8599L131.438 82.2334C131.582 82.2666 131.648 82.3136 131.637 82.3745C131.626 82.4299 131.54 82.4907 131.38 82.5571C131.076 82.701 130.851 82.9888 130.708 83.4204C130.602 83.7414 130.478 84.0651 130.334 84.3916H136.327C136.77 84.3916 137.218 84.3584 137.672 84.292V85.313C137.207 85.241 136.759 85.2051 136.327 85.2051H129.936C129.1 86.8708 128.076 88.4175 126.864 89.8452V96.2036C126.864 96.6463 126.897 97.1416 126.964 97.6895H125.81C125.876 97.2135 125.91 96.7183 125.91 96.2036V90.6006C125.174 91.2204 124.416 91.7848 123.635 92.2939C123.27 91.8678 122.93 91.5358 122.614 91.2979ZM129.67 89.9199H131.878V88.1519C131.878 87.604 131.845 87.0146 131.778 86.3838L133.082 86.583C133.209 86.5941 133.284 86.6356 133.306 86.7075C133.317 86.7629 133.272 86.8293 133.173 86.9067C132.957 87.0008 132.855 87.4159 132.866 88.1519V89.9199H135.447C135.923 89.9199 136.377 89.884 136.809 89.812V90.8662C136.355 90.7998 135.901 90.7666 135.447 90.7666H132.866V95.3403H136.385C136.894 95.3403 137.351 95.3071 137.755 95.2407V96.2617C137.279 96.1898 136.822 96.1538 136.385 96.1538H128.782C128.35 96.1538 127.885 96.1898 127.387 96.2617V95.2407C127.819 95.3071 128.284 95.3403 128.782 95.3403H131.878V90.7666H129.67C129.216 90.7666 128.729 90.7998 128.209 90.8662V89.812C128.729 89.884 129.216 89.9199 129.67 89.9199ZM140.868 83.354L141.598 82.7065C142.55 83.603 143.372 84.4884 144.063 85.3628L143.3 86.0435C142.619 85.1691 141.808 84.2726 140.868 83.354ZM149.011 90.75C147.959 89.8314 146.844 88.9653 145.666 88.1519L146.413 87.4214C147.503 88.2349 148.568 89.0677 149.608 89.9199C150.344 88.7412 150.787 87.4186 150.937 85.9521H146.379C145.981 85.9632 145.511 85.9992 144.968 86.0601V84.9727C145.466 85.028 145.937 85.0612 146.379 85.0723H153.111C153.532 85.0612 153.997 85.028 154.506 84.9727V86.0601C153.997 85.9992 153.532 85.9632 153.111 85.9521H151.958C151.731 87.7562 151.208 89.2863 150.389 90.5425C151.728 91.7101 152.918 92.8058 153.958 93.8296L153.111 94.7261C152.076 93.4588 150.97 92.3548 149.791 91.4141C148.59 92.6702 146.924 93.7521 144.794 94.6597C144.523 94.2059 144.218 93.849 143.881 93.5889C145.967 93.1351 147.677 92.1888 149.011 90.75ZM147.6 82.5073L148.297 81.7769C149.116 82.4077 149.938 83.0856 150.762 83.8105L150.098 84.5825C149.351 83.8521 148.518 83.1603 147.6 82.5073ZM143.491 87.9775C143.43 88.4977 143.394 88.9681 143.383 89.3887V94.5767C143.859 94.7205 144.324 94.9004 144.777 95.1162C145.663 95.5257 146.49 95.7803 147.259 95.8799C147.735 95.9574 148.347 95.9961 149.094 95.9961C149.575 95.9961 150.07 95.9823 150.58 95.9546C152.107 95.8826 153.643 95.7332 155.187 95.5063C154.899 95.9269 154.738 96.3752 154.705 96.8511C152.962 96.923 151.08 96.9867 149.061 97.042C147.157 97.0973 145.588 96.7736 144.354 96.0708C143.778 95.7388 143.269 95.5728 142.827 95.5728C142.373 95.5728 141.988 95.7443 141.673 96.0874C141.352 96.3696 141.045 96.6989 140.751 97.0752L139.847 96.021C140.882 95.1577 141.745 94.6818 142.437 94.5933V88.9653H141.291C140.965 88.9764 140.53 89.0096 139.988 89.0649V87.9775C140.53 88.0329 140.965 88.0661 141.291 88.0771H142.046C142.5 88.0661 142.982 88.0329 143.491 87.9775ZM158.225 95.5811H164.043V92.8916H159.86C159.45 92.9027 158.986 92.9359 158.465 92.9912V91.9702C158.974 92.0311 159.439 92.0671 159.86 92.0781H164.043V89.8452H160.25C159.829 89.8563 159.331 89.8923 158.756 89.9531C158.811 89.4163 158.844 88.957 158.855 88.5752V84.3418C158.844 83.9544 158.811 83.4619 158.756 82.8643C159.331 82.9196 159.835 82.9528 160.267 82.9639H168.8C169.243 82.9528 169.741 82.9196 170.294 82.8643C170.239 83.3844 170.205 83.8438 170.194 84.2422V88.5752C170.205 88.9958 170.239 89.4551 170.294 89.9531C169.774 89.8923 169.287 89.8563 168.833 89.8452H165.023V92.0781H169.331C169.746 92.0671 170.211 92.0311 170.726 91.9702V92.9912C170.261 92.9359 169.796 92.9027 169.331 92.8916H165.023V95.5811H170.825C171.224 95.57 171.683 95.534 172.203 95.4731V96.4609C171.683 96.4056 171.224 96.3724 170.825 96.3613H158.225C157.854 96.3724 157.395 96.4056 156.847 96.4609V95.4731C157.334 95.534 157.793 95.57 158.225 95.5811ZM159.81 83.7773V86.0269H164.043V83.7773H159.81ZM165.023 83.7773V86.0269H169.24V83.7773H165.023ZM159.81 86.8403V89.0317H164.043V86.8403H159.81ZM165.023 86.8403V89.0317H169.24V86.8403H165.023ZM181.06 82.8809C181.602 82.9473 182.111 82.9805 182.587 82.9805H186.887C187.341 82.9805 187.839 82.9473 188.381 82.8809C188.315 83.3678 188.282 83.8382 188.282 84.292V95.4731C188.282 95.9269 188.315 96.4333 188.381 96.9922H187.228C187.294 96.4443 187.327 95.9961 187.327 95.6475H182.114C182.114 96.1234 182.147 96.6546 182.214 97.2412H181.06C181.126 96.6325 181.16 96.1012 181.16 95.6475V84.292C181.16 83.8604 181.126 83.39 181.06 82.8809ZM182.147 91.6299V94.7593H187.294V91.6299H182.147ZM182.147 87.7368V90.75H187.294V87.7368H182.147ZM182.147 83.8687V86.8901H187.294V83.8687H182.147ZM176.727 86.7075H175.673C175.197 86.7075 174.696 86.7407 174.17 86.8071V85.7197C174.646 85.7861 175.147 85.8193 175.673 85.8193H177.059V83.3706C177.059 82.9611 177.026 82.4575 176.959 81.8599L178.238 82.0259C178.348 82.0369 178.409 82.0674 178.42 82.1172C178.431 82.1504 178.387 82.1947 178.288 82.25C178.105 82.3385 178.014 82.7121 178.014 83.3706V85.8193H179.018C179.494 85.8193 179.959 85.7861 180.413 85.7197V86.8071C179.903 86.7407 179.439 86.7075 179.018 86.7075H178.014V87.687C178.877 88.423 179.677 89.2116 180.413 90.0527L179.649 90.9409C179.206 90.2935 178.661 89.6515 178.014 89.0151V95.6807C178.014 96.1566 178.047 96.6934 178.113 97.291H176.959C177.026 96.6934 177.059 96.1566 177.059 95.6807V88.6748C176.45 90.1247 175.714 91.486 174.851 92.7588C174.48 92.5651 174.032 92.3825 173.506 92.2109C174.973 90.9105 176.046 89.076 176.727 86.7075ZM194.947 84.8813L194.217 85.7197C193.437 84.8564 192.501 84.0457 191.411 83.2876L192.125 82.5073C193.11 83.2433 194.051 84.0347 194.947 84.8813ZM195.885 88.8989C196.428 88.9653 196.926 88.9985 197.379 88.9985H199.861V87.9111H197.836C197.487 87.9111 196.995 87.9443 196.358 88.0107C196.425 87.4352 196.458 86.9538 196.458 86.5664V83.9849C196.458 83.6086 196.425 83.1326 196.358 82.5571C196.89 82.6235 197.388 82.6567 197.853 82.6567H203.041C203.461 82.6567 203.92 82.6235 204.418 82.5571C204.347 83.1437 204.311 83.6196 204.311 83.9849V86.5498C204.311 86.9482 204.347 87.4352 204.418 88.0107C203.92 87.9443 203.461 87.9111 203.041 87.9111H200.816V88.9985H203.58C203.979 88.9985 204.449 88.9653 204.991 88.8989C204.925 89.4523 204.892 89.9338 204.892 90.3433V93.5225C204.903 94.0869 204.762 94.466 204.468 94.6597C204.175 94.8755 203.569 95.0221 202.65 95.0996C202.628 94.668 202.473 94.2502 202.186 93.8462C202.59 93.9126 202.927 93.9458 203.198 93.9458C203.801 93.9458 204.084 93.979 204.045 94.0454C204.006 94.1118 203.987 93.9513 203.987 93.564C203.987 93.5252 203.981 93.4837 203.97 93.4395V89.8452H200.816V91.688C200.904 91.6769 201.035 91.6659 201.206 91.6548C201.599 91.6271 201.909 91.6022 202.136 91.5801C201.97 91.32 201.801 91.082 201.629 90.8662L202.327 90.4429C202.803 91.1125 203.204 91.7599 203.53 92.3853L202.8 92.9082C202.733 92.6924 202.642 92.4876 202.526 92.2939C200.274 92.5319 198.738 92.7477 197.919 92.9414L197.529 91.771C197.767 91.8042 198.079 91.8208 198.467 91.8208C198.86 91.8208 199.325 91.8042 199.861 91.771V89.8452H196.898V93.4229C196.898 93.7715 196.934 94.228 197.006 94.7925H195.885C195.952 94.2391 195.985 93.7826 195.985 93.4229V90.3765C195.985 90.0002 195.952 89.5076 195.885 88.8989ZM197.379 87.0645H199.861V85.7031H197.379V87.0645ZM199.861 84.8813V83.5117H197.379V84.8813H199.861ZM200.816 85.7031V87.0645H203.397V85.7031H200.816ZM200.816 83.5117V84.8813H203.397V83.5117H200.816ZM194.15 87.8281C194.078 88.3926 194.042 88.874 194.042 89.2725V94.5435C194.579 94.6541 195.135 94.8506 195.711 95.1328C196.48 95.487 197.161 95.7194 197.753 95.8301C198.328 95.9574 199.076 96.0155 199.994 96.0044C202.728 95.9933 204.853 95.8411 206.369 95.5479C206.087 95.9297 205.94 96.3641 205.929 96.8511C204.114 96.923 202.222 96.959 200.251 96.959C199.062 96.959 198.154 96.8843 197.529 96.7349C196.92 96.6076 196.19 96.3171 195.337 95.8633C194.69 95.5479 194.175 95.4012 193.793 95.4233C193.406 95.4123 193.008 95.5728 192.598 95.9048C192.194 96.2424 191.832 96.6048 191.511 96.9922L190.631 95.9878C191.572 95.3182 192.393 94.8589 193.096 94.6099V88.7744H192.059C191.66 88.7744 191.217 88.8104 190.73 88.8823V87.8281C191.229 87.8945 191.671 87.9277 192.059 87.9277H192.772C193.154 87.9277 193.614 87.8945 194.15 87.8281Z" fill="black"/>
<rect x="139" y="148" width="230" height="44" rx="22" fill="#F4ECFD"/>
<path d="M185.851 168.597H186.889V162.022H186.258C185.953 162.011 185.608 162.045 185.22 162.122V161.101C185.585 161.184 185.909 161.22 186.191 161.209H186.889V160.42C186.9 159.79 186.867 159.242 186.789 158.777L188.134 158.943C188.267 158.954 188.339 159.001 188.35 159.084C188.35 159.15 188.289 159.233 188.167 159.333C187.962 159.482 187.854 159.867 187.843 160.487V161.209H190.898V160.188C190.915 159.712 190.881 159.217 190.798 158.702L192.226 158.876C192.331 158.888 192.384 158.926 192.384 158.993C192.373 159.076 192.315 159.161 192.209 159.25C191.972 159.455 191.853 159.839 191.853 160.404V161.209C192.328 161.209 192.652 161.201 192.824 161.184C193.017 161.173 193.222 161.145 193.438 161.101V162.122C193.233 162.078 193.034 162.05 192.84 162.039C192.658 162.028 192.328 162.022 191.853 162.022V168.597H192.708C193.001 168.608 193.352 168.575 193.762 168.497V169.518C193.352 169.452 193.006 169.418 192.724 169.418H185.884C185.657 169.407 185.331 169.441 184.905 169.518V168.497C185.253 168.575 185.569 168.608 185.851 168.597ZM187.843 168.597H190.898V166.845H187.843V168.597ZM187.843 164.438V166.032H190.898V164.438H187.843ZM187.843 162.022V163.616H190.898V162.022H187.843ZM187.81 169.908L188.848 170.622C188.98 170.711 189.041 170.78 189.03 170.83C189.019 170.874 188.928 170.918 188.756 170.962C188.546 171.007 188.344 171.153 188.15 171.402C187.818 171.812 187.188 172.567 186.258 173.668C186.147 173.79 186.064 173.887 186.009 173.959C185.666 173.682 185.289 173.455 184.88 173.278C186.164 172.315 187.14 171.192 187.81 169.908ZM190.358 169.941C191.039 170.5 191.753 171.153 192.5 171.9L191.736 172.747C191.045 171.989 190.336 171.297 189.611 170.672L190.358 169.941ZM191.753 173.619C192.815 172.744 193.518 171.701 193.861 170.489C194.243 169.288 194.429 167.371 194.417 164.737V160.827C194.417 160.445 194.412 160.169 194.401 159.997C194.39 159.814 194.362 159.599 194.318 159.35C194.816 159.433 195.275 159.469 195.696 159.458H198.327C198.77 159.469 199.246 159.433 199.755 159.35C199.677 159.848 199.644 160.354 199.655 160.869V172.066C199.677 172.908 199.547 173.431 199.265 173.635C199.038 173.884 198.341 174.075 197.173 174.208C197.151 173.815 196.988 173.356 196.684 172.83C197.148 172.902 197.511 172.938 197.771 172.938C198.048 172.938 198.241 172.902 198.352 172.83C198.601 172.73 198.72 172.39 198.709 171.809V167.816H195.322C195.195 170.617 194.384 172.769 192.89 174.274C192.586 174.003 192.207 173.785 191.753 173.619ZM195.322 167.003H198.709V164.081H195.372C195.372 164.723 195.367 165.215 195.355 165.559C195.355 165.979 195.344 166.461 195.322 167.003ZM195.372 160.271V163.259H198.709V160.271H195.372ZM205.59 163.093L206.744 163.874C206.816 163.918 206.844 163.951 206.827 163.973C206.816 164.006 206.766 164.042 206.678 164.081C206.351 164.203 206.102 164.416 205.931 164.72C205.759 165.008 205.607 165.265 205.474 165.492V172.938C205.485 173.32 205.518 173.84 205.574 174.499H204.42C204.475 173.895 204.508 173.37 204.52 172.921V166.746C203.894 167.542 203.305 168.207 202.751 168.738C202.397 168.406 202.024 168.162 201.631 168.007C203.125 167.166 204.445 165.528 205.59 163.093ZM201.83 162.67C203.701 161.624 205.045 160.301 205.864 158.702L207.068 159.524C207.162 159.579 207.201 159.624 207.184 159.657C207.173 159.701 207.107 159.74 206.985 159.773C206.692 159.834 206.42 160.016 206.171 160.321C205.081 161.522 203.969 162.576 202.834 163.483C202.519 163.129 202.184 162.858 201.83 162.67ZM208.512 164.554H211.675V162.188H209.691C209.337 162.188 208.836 162.224 208.188 162.296V161.242C208.858 161.309 209.359 161.342 209.691 161.342H211.675V160.205C211.675 159.884 211.642 159.339 211.575 158.569L212.92 158.777C213.031 158.788 213.091 158.821 213.103 158.876C213.114 158.943 213.075 159.012 212.986 159.084C212.726 159.261 212.596 159.668 212.596 160.304V161.342H214.613C214.945 161.331 215.405 161.298 215.991 161.242V162.296C215.394 162.224 214.934 162.188 214.613 162.188H212.596V164.554H215.892C216.229 164.543 216.683 164.51 217.253 164.455V165.509C216.639 165.437 216.185 165.401 215.892 165.401H208.512C208.208 165.401 207.721 165.437 207.051 165.509V164.455C207.632 164.51 208.119 164.543 208.512 164.554ZM209.209 167.634H213.75V167.493C213.75 167.166 213.717 166.635 213.65 165.899L215.028 166.098C215.139 166.12 215.2 166.162 215.211 166.223C215.2 166.3 215.139 166.378 215.028 166.455C214.824 166.627 214.71 167.02 214.688 167.634H215.501C215.773 167.634 216.226 167.603 216.863 167.542V168.58C216.237 168.514 215.784 168.48 215.501 168.48H214.705V173.004C214.727 173.525 214.583 173.87 214.273 174.042C214.024 174.208 213.357 174.36 212.272 174.499C212.206 174.056 212.018 173.602 211.708 173.137C212.162 173.22 212.535 173.262 212.829 173.262C213.531 173.262 213.863 173.303 213.825 173.386C213.786 173.469 213.767 173.253 213.767 172.739C213.767 172.7 213.761 172.653 213.75 172.598V168.48H209.209C208.938 168.48 208.548 168.508 208.039 168.563C207.945 168.575 207.887 168.58 207.865 168.58V167.542C208.413 167.603 208.861 167.634 209.209 167.634ZM208.803 170.024L209.566 169.327C210.302 170.041 210.944 170.694 211.492 171.286L210.67 172.017C210.073 171.292 209.45 170.628 208.803 170.024ZM218.614 168.298C219.644 168.093 220.742 167.407 221.91 166.239C221.91 165.874 221.876 165.476 221.81 165.044L222.798 165.218C222.853 165.224 222.881 165.243 222.881 165.276C222.881 165.293 222.87 165.318 222.848 165.351C223.628 164.366 224.295 163.317 224.848 162.205H221.005C220.612 162.205 220.144 162.241 219.602 162.313V161.292C220.111 161.358 220.579 161.392 221.005 161.392H225.238C225.581 160.495 225.839 159.651 226.01 158.86L227.438 159.233C227.582 159.267 227.648 159.314 227.637 159.375C227.626 159.43 227.54 159.491 227.38 159.557C227.076 159.701 226.851 159.989 226.708 160.42C226.602 160.741 226.478 161.065 226.334 161.392H232.327C232.77 161.392 233.218 161.358 233.672 161.292V162.313C233.207 162.241 232.759 162.205 232.327 162.205H225.936C225.1 163.871 224.076 165.417 222.864 166.845V173.204C222.864 173.646 222.897 174.142 222.964 174.689H221.81C221.876 174.214 221.91 173.718 221.91 173.204V167.601C221.174 168.22 220.416 168.785 219.635 169.294C219.27 168.868 218.93 168.536 218.614 168.298ZM225.67 166.92H227.878V165.152C227.878 164.604 227.845 164.015 227.778 163.384L229.082 163.583C229.209 163.594 229.284 163.636 229.306 163.708C229.317 163.763 229.272 163.829 229.173 163.907C228.957 164.001 228.855 164.416 228.866 165.152V166.92H231.447C231.923 166.92 232.377 166.884 232.809 166.812V167.866C232.355 167.8 231.901 167.767 231.447 167.767H228.866V172.34H232.385C232.894 172.34 233.351 172.307 233.755 172.241V173.262C233.279 173.19 232.822 173.154 232.385 173.154H224.782C224.35 173.154 223.885 173.19 223.387 173.262V172.241C223.819 172.307 224.284 172.34 224.782 172.34H227.878V167.767H225.67C225.216 167.767 224.729 167.8 224.209 167.866V166.812C224.729 166.884 225.216 166.92 225.67 166.92ZM238.246 165.982C238.86 166.048 239.358 166.082 239.74 166.082H243.334V164.538H239.366C239.018 164.538 238.553 164.571 237.972 164.637V163.583C238.531 163.655 238.995 163.691 239.366 163.691H247.584C247.955 163.691 248.447 163.655 249.062 163.583C248.99 164.175 248.954 164.607 248.954 164.878V165.849C248.954 166.187 248.99 166.582 249.062 167.036C248.525 166.959 248.071 166.925 247.7 166.937H244.28V168.871H248.563C248.973 168.871 249.449 168.837 249.991 168.771C249.914 170.879 249.67 172.047 249.261 172.274C248.89 172.678 247.899 172.921 246.289 173.004C246.245 172.595 246.12 172.169 245.916 171.726C246.513 171.781 247.003 171.809 247.385 171.809C247.562 171.809 247.753 171.798 247.958 171.776C248.168 171.754 248.342 171.646 248.48 171.452C248.685 171.253 248.788 170.677 248.788 169.726H244.28V173.361C244.28 173.688 244.313 174.111 244.38 174.631H243.226C243.298 174.144 243.334 173.721 243.334 173.361V170.099C241.464 171.715 239.399 172.921 237.142 173.718C236.837 173.298 236.475 172.941 236.054 172.647C238.207 172.343 240.268 171.369 242.238 169.726H239.333C238.984 169.715 238.52 169.748 237.938 169.825C237.999 169.482 238.046 169.097 238.08 168.671L238.212 167.103C238.246 166.693 238.257 166.319 238.246 165.982ZM239.084 168.871H243.334V166.937H239.283L239.084 168.871ZM244.28 164.538V166.082H248.007V164.538H244.28ZM235.797 162.969C237.308 161.973 238.47 160.575 239.283 158.777L240.512 159.316C240.645 159.361 240.7 159.419 240.678 159.491C240.656 159.546 240.559 159.59 240.387 159.624C240.216 159.657 240.069 159.754 239.947 159.914C239.798 160.086 239.662 160.265 239.541 160.454H242.479C242.811 160.454 243.265 160.42 243.84 160.354V161.408C243.276 161.331 242.822 161.298 242.479 161.309H241.035C241.372 161.785 241.701 162.288 242.022 162.819L241.134 163.276C240.692 162.507 240.285 161.851 239.914 161.309H238.943C238.367 162.056 237.698 162.855 236.934 163.708C236.663 163.431 236.284 163.185 235.797 162.969ZM245.833 158.81L247.119 159.2C247.202 159.233 247.244 159.272 247.244 159.316C247.244 159.35 247.186 159.402 247.069 159.474C246.876 159.563 246.712 159.709 246.58 159.914C246.474 160.058 246.372 160.216 246.272 160.387H249.792C250.096 160.387 250.503 160.354 251.012 160.288V161.342C250.536 161.275 250.13 161.242 249.792 161.242H247.8C248.143 161.679 248.489 162.166 248.837 162.703L247.866 163.226C247.473 162.512 247.056 161.851 246.613 161.242H245.816C245.429 161.851 244.944 162.54 244.363 163.309C244.092 163.071 243.735 162.864 243.292 162.687C244.482 161.757 245.329 160.465 245.833 158.81ZM253.22 172.149V171.062C253.735 171.145 254.155 171.181 254.482 171.17H266.402C266.762 171.181 267.221 171.145 267.78 171.062V172.149C267.188 172.083 266.712 172.05 266.352 172.05H254.515C254.222 172.05 253.79 172.083 253.22 172.149ZM254.631 162.33V161.242C255.146 161.309 255.572 161.342 255.91 161.342H265.074C265.433 161.353 265.876 161.32 266.402 161.242V162.33C265.843 162.258 265.395 162.222 265.057 162.222H256.009C255.639 162.222 255.179 162.258 254.631 162.33ZM275.956 172.631C277.6 172.598 279.595 172.512 281.941 172.374C281.371 171.66 280.782 170.968 280.173 170.298L281.003 169.634C282.021 170.835 283.086 172.133 284.199 173.527L283.327 174.225C283.067 173.821 282.801 173.447 282.53 173.104C279.88 173.264 277.943 173.411 276.72 173.544C275.508 173.682 274.816 173.826 274.645 173.976L274.205 172.73C274.725 172.537 275.239 172.116 275.749 171.469C276.407 170.589 276.922 169.684 277.292 168.754H274.545C274.146 168.754 273.709 168.788 273.233 168.854V167.8C273.731 167.855 274.169 167.888 274.545 167.899H283.551C283.994 167.888 284.437 167.855 284.879 167.8V168.854C284.437 168.788 283.994 168.754 283.551 168.754H277.857L278.704 169.128C278.776 169.161 278.812 169.211 278.812 169.277C278.8 169.322 278.748 169.363 278.654 169.402C278.405 169.435 278.203 169.571 278.048 169.809C277.356 170.805 276.659 171.745 275.956 172.631ZM274.288 166.065V165.011C274.819 165.066 275.295 165.102 275.715 165.119H282.24C282.66 165.102 283.109 165.066 283.584 165.011V166.065C283.097 165.999 282.649 165.965 282.24 165.965H275.715C275.295 165.965 274.819 165.999 274.288 166.065ZM269.423 173.735C270.375 172.927 271.023 171.911 271.366 170.688C271.703 169.499 271.872 167.648 271.872 165.135V161.001C271.861 160.559 271.828 160.061 271.772 159.507C272.348 159.563 272.868 159.596 273.333 159.607H282.207C282.649 159.596 283.142 159.563 283.684 159.507C283.618 160.05 283.584 160.526 283.584 160.935V161.832C283.584 162.23 283.618 162.684 283.684 163.193C283.208 163.126 282.746 163.093 282.298 163.093H272.827V164.961C272.832 165.199 272.835 165.467 272.835 165.766C272.835 169.623 272.152 172.432 270.785 174.191C270.375 173.942 269.921 173.79 269.423 173.735ZM272.827 160.454V162.238H282.63V160.454H272.827ZM289.146 170.132V164.28H288.059C287.738 164.28 287.334 164.313 286.847 164.38V163.334C287.383 163.411 287.787 163.445 288.059 163.434H289.146V160.562C289.146 160.163 289.113 159.646 289.046 159.009L290.2 159.184C290.372 159.206 290.463 159.239 290.474 159.283C290.485 159.316 290.422 159.408 290.283 159.557C290.15 159.679 290.09 160.008 290.101 160.545V163.434H291.03C291.34 163.434 291.719 163.4 292.167 163.334V164.38C291.681 164.313 291.301 164.28 291.03 164.28H290.101V169.809C291.03 169.499 291.885 169.175 292.666 168.837C292.599 169.214 292.566 169.571 292.566 169.908C290.967 170.384 289.163 171.07 287.154 171.967L286.564 170.913C287.367 170.741 288.227 170.481 289.146 170.132ZM293.529 164.67V161.325C293.529 160.871 293.496 160.315 293.429 159.657L294.691 159.831C294.846 159.853 294.929 159.886 294.94 159.931C294.951 159.986 294.896 160.066 294.774 160.171C294.591 160.348 294.494 160.625 294.483 161.001V164.438L296.525 163.957V160.321C296.525 159.845 296.489 159.294 296.417 158.669L297.696 158.843C297.856 158.865 297.942 158.904 297.953 158.959C297.964 159.004 297.901 159.101 297.762 159.25C297.569 159.466 297.472 159.856 297.472 160.42V163.757L299.547 163.226C299.89 163.149 300.322 163.007 300.842 162.803C300.831 163.085 300.82 163.522 300.809 164.114C300.764 166.073 300.712 167.454 300.651 168.256C300.662 169.573 299.959 170.243 298.542 170.265C298.465 169.894 298.307 169.515 298.069 169.128C298.34 169.211 298.584 169.252 298.8 169.252C299.425 169.252 299.738 168.871 299.738 168.107C299.804 167.255 299.837 166.314 299.837 165.285C299.837 164.986 299.832 164.574 299.821 164.048L297.472 164.587V169.759C297.472 170.063 297.508 170.55 297.58 171.22H296.417C296.489 170.628 296.525 170.141 296.525 169.759V164.828L294.483 165.368V171.934C294.417 172.819 295.034 173.237 296.334 173.187H298.7C299.685 173.198 300.33 173.057 300.634 172.764C300.977 172.504 301.154 171.936 301.166 171.062C301.459 171.3 301.832 171.538 302.286 171.776C302.048 172.672 301.697 173.267 301.232 173.561C300.767 173.893 299.995 174.053 298.916 174.042H295.911C294.268 174.086 293.473 173.48 293.529 172.224V165.559L292.939 165.725C292.618 165.808 292.192 165.957 291.661 166.173L291.454 165.044C291.907 165.033 292.322 164.978 292.699 164.878L293.529 164.67ZM309.209 164.687L309.865 163.89C310.103 164.255 310.534 164.623 311.16 164.994C311.735 164.551 312.308 163.979 312.878 163.276H309.699C309.051 164.062 308.451 164.737 307.897 165.301C307.576 164.997 307.214 164.748 306.81 164.554C308.238 163.818 309.256 162.634 309.865 161.001L310.952 161.358C311.068 161.392 311.126 161.43 311.126 161.475C311.126 161.519 311.068 161.571 310.952 161.632C310.797 161.699 310.548 161.964 310.205 162.429H313.218C313.65 162.418 314.176 162.385 314.795 162.33C314.004 163.458 313.069 164.513 311.99 165.492C313.406 166.328 314.914 166.859 316.514 167.086C316.104 167.495 315.822 167.875 315.667 168.223C314.239 167.692 312.781 167 311.292 166.148C310.307 166.889 308.921 167.628 307.134 168.364C306.835 167.944 306.528 167.62 306.212 167.393C307.856 167.006 309.262 166.394 310.429 165.559C309.998 165.276 309.591 164.986 309.209 164.687ZM309.134 170.083L309.583 169.194C311.132 169.831 312.648 170.528 314.131 171.286L313.608 172.133C312.203 171.297 310.711 170.614 309.134 170.083ZM310.105 167.941L310.529 167.169C311.608 167.645 312.618 168.14 313.559 168.655L313.119 169.501C312.289 168.97 311.284 168.45 310.105 167.941ZM306.08 174.515H304.917C304.978 173.929 305.014 173.419 305.025 172.988V161.392C305.014 160.927 304.978 160.423 304.917 159.881C305.521 159.936 306.049 159.969 306.503 159.98H316.613C317.056 159.969 317.579 159.936 318.182 159.881C318.127 160.445 318.094 160.938 318.083 161.358V172.664C318.094 173.024 318.127 173.527 318.182 174.175H317.028C317.084 173.837 317.117 173.514 317.128 173.204H305.972C305.983 173.591 306.019 174.028 306.08 174.515ZM305.972 172.39H317.128V160.827H305.972V172.39ZM329.006 160.254V162.139H333.53C333.896 162.15 334.299 162.117 334.742 162.039C334.659 162.438 334.623 162.822 334.634 163.193V168.298C334.623 168.658 334.659 169.006 334.742 169.344H333.58C333.663 169.006 333.699 168.707 333.688 168.447H329.006V173.104C328.995 173.58 329.031 174.034 329.114 174.465H327.919C328.002 174.056 328.038 173.613 328.027 173.137V168.447H323.403C323.392 168.835 323.425 169.225 323.503 169.618H322.349C322.427 169.214 322.46 168.801 322.449 168.381V163.16C322.46 162.833 322.427 162.46 322.349 162.039C322.825 162.117 323.232 162.15 323.569 162.139H328.027V160.205C328.038 159.751 328.002 159.275 327.919 158.777L329.214 158.943C329.341 158.954 329.41 158.982 329.421 159.026C329.432 159.048 329.38 159.112 329.264 159.217C329.07 159.327 328.984 159.673 329.006 160.254ZM328.027 163.027H323.403V167.559H328.027V163.027ZM329.006 163.027V167.559H333.688V163.027H329.006Z" fill="black"/>
</svg>
