<svg width="22" height="22" viewBox="0 0 22 22" fill="none" xmlns="http://www.w3.org/2000/svg">
<path d="M4.93076 8.97617C6.11885 9.68945 8.42412 10.0762 10.0548 10.0418C9.23623 9.2125 8.48213 8.37676 8.02666 7.57109C7.21025 6.12734 6.90732 3.35371 6.7956 1.40937H2.46865C1.86924 1.40937 1.37939 1.89922 1.37939 2.49863V9.48965C1.86064 9.18027 2.35693 8.92891 2.83604 8.78926C3.82646 8.49922 4.52256 8.73125 4.93076 8.97617ZM13.0905 13.3354C13.0132 13.0324 12.3493 12.3213 11.6919 11.6617C9.64228 12.1688 5.87393 11.6596 3.99619 10.5338C3.85654 10.45 3.646 10.4479 3.36885 10.5252C2.74365 10.6992 2.02178 11.1998 1.37939 11.7541V19.5529C1.37939 20.1523 1.86924 20.6422 2.46865 20.6422H12.1001C12.6952 17.1703 13.1657 13.9262 13.0905 13.3354ZM12.1173 9.53047C12.1796 9.50039 12.2419 9.46817 12.3085 9.43594C14.2442 8.46484 17.7892 6.68809 20.6101 7.48731V2.49648C20.6101 1.89707 20.1202 1.40723 19.5208 1.40723H8.61748C8.7335 3.27207 9.01064 5.62031 9.60791 6.6752C10.0849 7.51953 11.1419 8.57656 12.1173 9.53047ZM13.4687 10.8818C14.3087 11.7627 14.7921 12.418 14.8866 13.0732C15.0198 13.9992 14.4333 17.759 13.9413 20.64H19.5229C20.1224 20.64 20.6122 20.1502 20.6122 19.5508V9.40371C20.5155 9.36719 20.4145 9.33066 20.305 9.29199C18.3026 8.57441 15.2927 9.9752 13.4687 10.8818Z" fill="#D3D3D6"/>
</svg>
