<svg width="169" height="19" viewBox="0 0 169 19" fill="none" xmlns="http://www.w3.org/2000/svg">
<path d="M0.911932 18L3.09375 4.90909H4.56818L4.22727 6.92045H4.36364C4.74432 6.24432 5.27273 5.71307 5.94886 5.3267C6.625 4.93466 7.39205 4.73864 8.25 4.73864C9.14773 4.73864 9.85227 4.9517 10.3636 5.37784C10.875 5.7983 11.2159 6.37784 11.3864 7.11648H11.4972C11.9063 6.3892 12.483 5.8125 13.2273 5.38636C13.9716 4.95455 14.821 4.73864 15.7756 4.73864C16.9858 4.73864 17.8807 5.12216 18.4602 5.8892C19.0398 6.65625 19.2074 7.76989 18.9631 9.23011L17.4972 18H15.9801L17.446 9.23011C17.6108 8.19602 17.4773 7.42045 17.0455 6.90341C16.6136 6.38636 15.9659 6.12784 15.1023 6.12784C14.1023 6.12784 13.2756 6.43466 12.6222 7.0483C11.9744 7.65625 11.5739 8.43466 11.4205 9.38352L9.98011 18H8.42898L9.92045 9.09375C10.0625 8.20739 9.93466 7.49148 9.53693 6.94602C9.14489 6.40057 8.5 6.12784 7.60227 6.12784C6.99432 6.12784 6.4233 6.27841 5.8892 6.57955C5.3608 6.875 4.91193 7.28693 4.54261 7.81534C4.17898 8.33807 3.94034 8.9375 3.8267 9.61364L2.42898 18H0.911932ZM26.6612 18.2727C25.5135 18.2727 24.5476 17.983 23.7635 17.4034C22.9794 16.8182 22.4254 16.0085 22.1016 14.9744C21.7777 13.9403 21.7237 12.7472 21.9396 11.3949C22.1555 10.0767 22.5845 8.91761 23.2266 7.91761C23.8743 6.91193 24.6697 6.13068 25.6129 5.57386C26.5561 5.01136 27.5817 4.73011 28.6896 4.73011C29.843 4.73011 30.8089 5.02273 31.5874 5.60795C32.3714 6.19318 32.9254 7.00284 33.2493 8.03693C33.5788 9.07102 33.6357 10.267 33.4197 11.625C33.2038 12.9375 32.772 14.0938 32.1243 15.0938C31.4766 16.0881 30.6811 16.8665 29.7379 17.429C28.8004 17.9915 27.7749 18.2727 26.6612 18.2727ZM26.6783 16.8835C27.6101 16.8835 28.4396 16.6364 29.1669 16.142C29.8999 15.642 30.505 14.9773 30.9822 14.1477C31.4595 13.3125 31.7805 12.3949 31.9453 11.3949C32.0987 10.4403 32.0817 9.5625 31.8942 8.76136C31.7067 7.96023 31.3459 7.31818 30.8118 6.83523C30.2777 6.35227 29.5675 6.1108 28.6811 6.1108C27.755 6.1108 26.9254 6.36364 26.1925 6.86932C25.4595 7.36932 24.8544 8.03977 24.3771 8.88068C23.8999 9.71591 23.5817 10.6307 23.4226 11.625C23.2635 12.5852 23.2749 13.4631 23.4567 14.2585C23.6442 15.054 24.005 15.6903 24.5391 16.1676C25.0788 16.6449 25.7919 16.8835 26.6783 16.8835ZM35.6932 18L37.875 4.90909H39.3494L39.0085 6.92045H39.1193C39.483 6.26136 40.0256 5.73011 40.7472 5.3267C41.4744 4.91761 42.25 4.71307 43.0739 4.71307C43.1989 4.71307 43.3381 4.71591 43.4915 4.72159C43.6449 4.72159 43.7727 4.72727 43.875 4.73864L43.6108 6.28125C43.5426 6.26989 43.4233 6.25284 43.2528 6.23011C43.0881 6.20739 42.9034 6.19602 42.6989 6.19602C42.017 6.19602 41.3864 6.34091 40.8068 6.63068C40.233 6.91477 39.75 7.30966 39.358 7.81534C38.9716 8.32102 38.7216 8.89773 38.608 9.54545L37.2102 18H35.6932ZM49.1314 18.2727C47.9098 18.2727 46.9013 17.9886 46.1058 17.4205C45.3104 16.8466 44.7536 16.054 44.4354 15.0426C44.1172 14.0256 44.0689 12.8551 44.2905 11.5312C44.5121 10.2131 44.9496 9.04261 45.603 8.01989C46.2564 6.99148 47.0632 6.1875 48.0234 5.60795C48.9837 5.02273 50.0263 4.73011 51.1513 4.73011C51.8615 4.73011 52.5263 4.8608 53.1456 5.12216C53.7649 5.37784 54.2905 5.77273 54.7223 6.30682C55.1598 6.83523 55.4638 7.50284 55.6342 8.30966C55.8047 9.1108 55.799 10.0597 55.6172 11.1562L55.4979 11.9062H45.2706L45.4837 10.5682H54.1683C54.3104 9.72727 54.2706 8.97159 54.049 8.30114C53.8274 7.63068 53.4496 7.09943 52.9155 6.70739C52.3871 6.30966 51.7308 6.1108 50.9467 6.1108C50.1456 6.1108 49.3871 6.33523 48.6712 6.78409C47.9609 7.23295 47.3587 7.81818 46.8643 8.53977C46.3757 9.25568 46.0604 10.0199 45.9183 10.8324L45.7479 11.8381C45.5661 12.946 45.5888 13.875 45.8161 14.625C46.0433 15.3693 46.4553 15.9318 47.0518 16.3125C47.6484 16.6932 48.4126 16.8835 49.3445 16.8835C49.9695 16.8835 50.5348 16.7869 51.0405 16.5938C51.5462 16.4006 51.9865 16.142 52.3615 15.8182C52.7365 15.4886 53.0376 15.1278 53.2649 14.7358L54.62 15.2045C54.3303 15.7557 53.9212 16.2642 53.3928 16.7301C52.87 17.196 52.2479 17.571 51.5263 17.8551C50.8104 18.1335 50.0121 18.2727 49.1314 18.2727ZM68.1903 18.2983C67.4006 18.2983 66.7045 18.1449 66.1023 17.8381C65.5 17.5256 65.0511 17.0767 64.7557 16.4915C64.4659 15.9006 64.3864 15.1847 64.517 14.3438C64.6307 13.696 64.8466 13.1506 65.1648 12.7074C65.4886 12.2642 65.8977 11.9006 66.392 11.6165C66.8864 11.3267 67.4545 11.0994 68.0966 10.9347C68.7386 10.7699 69.4375 10.6449 70.1932 10.5597C70.9318 10.4687 71.5625 10.3892 72.0852 10.321C72.608 10.2528 73.0142 10.1449 73.304 9.99716C73.5938 9.84943 73.767 9.6108 73.8239 9.28125L73.875 8.97443C74.0227 8.08239 73.8864 7.38068 73.4659 6.86932C73.0455 6.35227 72.3409 6.09375 71.3523 6.09375C70.4091 6.09375 69.5909 6.30398 68.8977 6.72443C68.2102 7.1392 67.6989 7.625 67.3636 8.18182L66.017 7.66193C66.4261 6.94602 66.929 6.375 67.5256 5.94886C68.1222 5.51705 68.7614 5.20739 69.4432 5.01989C70.125 4.8267 70.7983 4.73011 71.4631 4.73011C71.9631 4.73011 72.4716 4.79545 72.9886 4.92614C73.5057 5.05682 73.9688 5.28409 74.3778 5.60795C74.7926 5.92614 75.0966 6.37216 75.2898 6.94602C75.4886 7.5142 75.517 8.2358 75.375 9.1108L73.892 18H72.375L72.7244 15.929H72.6307C72.392 16.3153 72.0625 16.6903 71.642 17.054C71.2273 17.4176 70.7301 17.7159 70.1506 17.9489C69.571 18.1818 68.9176 18.2983 68.1903 18.2983ZM68.5739 16.9091C69.3807 16.9091 70.1108 16.7301 70.7642 16.3722C71.4233 16.0142 71.9631 15.5398 72.3835 14.9489C72.8097 14.3523 73.0824 13.696 73.2017 12.9801L73.517 11.0881C73.392 11.196 73.1875 11.2926 72.9034 11.3778C72.625 11.4631 72.3097 11.5398 71.9574 11.608C71.6108 11.6705 71.2614 11.7244 70.9091 11.7699C70.5625 11.8153 70.2557 11.8551 69.9886 11.8892C69.233 11.9801 68.5739 12.1222 68.0114 12.3153C67.4545 12.5085 67.0085 12.7756 66.6733 13.1165C66.3381 13.4517 66.1278 13.8835 66.0426 14.4119C65.9119 15.2074 66.0852 15.8239 66.5625 16.2614C67.0455 16.6932 67.7159 16.9091 68.5739 16.9091ZM78.2429 18L81.1406 0.545454H82.6662L81.5412 7.40625H81.6776C81.9105 7.0142 82.2202 6.6108 82.6065 6.19602C82.9986 5.78125 83.4815 5.43466 84.0554 5.15625C84.6293 4.87216 85.3168 4.73011 86.1179 4.73011C87.1918 4.73011 88.0866 5.0142 88.8026 5.58239C89.5241 6.14489 90.027 6.93466 90.3111 7.9517C90.5952 8.96307 90.6264 10.142 90.4048 11.4886C90.1776 12.8409 89.7543 14.0256 89.1349 15.0426C88.5156 16.0597 87.7543 16.8523 86.8509 17.4205C85.9474 17.9886 84.9616 18.2727 83.8935 18.2727C83.098 18.2727 82.456 18.1307 81.9673 17.8466C81.4844 17.5625 81.1151 17.2131 80.8594 16.7983C80.6094 16.3778 80.4276 15.9687 80.3139 15.571H80.1264L79.7173 18H78.2429ZM80.8338 11.4631C80.6634 12.5199 80.6634 13.4574 80.8338 14.2756C81.0099 15.0881 81.3537 15.7273 81.8651 16.1932C82.3821 16.6534 83.0639 16.8835 83.9105 16.8835C84.7798 16.8835 85.5554 16.6449 86.2372 16.1676C86.9247 15.6847 87.4929 15.0341 87.9418 14.2159C88.3963 13.3977 88.7088 12.4801 88.8793 11.4631C89.044 10.4574 89.0412 9.55114 88.8707 8.74432C88.7003 7.9375 88.3565 7.2983 87.8395 6.8267C87.3224 6.34943 86.6264 6.1108 85.7514 6.1108C84.8991 6.1108 84.1321 6.34091 83.4503 6.80114C82.7741 7.25568 82.2116 7.88636 81.7628 8.69318C81.3139 9.49432 81.0043 10.4176 80.8338 11.4631ZM97.794 18.2727C96.6463 18.2727 95.6804 17.983 94.8963 17.4034C94.1122 16.8182 93.5582 16.0085 93.2344 14.9744C92.9105 13.9403 92.8565 12.7472 93.0724 11.3949C93.2884 10.0767 93.7173 8.91761 94.3594 7.91761C95.0071 6.91193 95.8026 6.13068 96.7457 5.57386C97.6889 5.01136 98.7145 4.73011 99.8224 4.73011C100.976 4.73011 101.942 5.02273 102.72 5.60795C103.504 6.19318 104.058 7.00284 104.382 8.03693C104.712 9.07102 104.768 10.267 104.553 11.625C104.337 12.9375 103.905 14.0938 103.257 15.0938C102.609 16.0881 101.814 16.8665 100.871 17.429C99.9332 17.9915 98.9077 18.2727 97.794 18.2727ZM97.8111 16.8835C98.7429 16.8835 99.5724 16.6364 100.3 16.142C101.033 15.642 101.638 14.9773 102.115 14.1477C102.592 13.3125 102.913 12.3949 103.078 11.3949C103.232 10.4403 103.214 9.5625 103.027 8.76136C102.839 7.96023 102.479 7.31818 101.945 6.83523C101.411 6.35227 100.7 6.1108 99.8139 6.1108C98.8878 6.1108 98.0582 6.36364 97.3253 6.86932C96.5923 7.36932 95.9872 8.03977 95.5099 8.88068C95.0327 9.71591 94.7145 10.6307 94.5554 11.625C94.3963 12.5852 94.4077 13.4631 94.5895 14.2585C94.777 15.054 95.1378 15.6903 95.6719 16.1676C96.2116 16.6449 96.9247 16.8835 97.8111 16.8835ZM115.971 12.9972L117.326 4.90909H118.843L116.661 18H115.144L115.502 15.8267H115.391C114.982 16.4972 114.403 17.0568 113.653 17.5057C112.908 17.9489 112.056 18.1705 111.096 18.1705C110.261 18.1705 109.548 17.9886 108.957 17.625C108.371 17.2557 107.954 16.7159 107.704 16.0057C107.454 15.2955 107.414 14.4233 107.585 13.3892L109.008 4.90909H110.525L109.127 13.2955C108.962 14.3182 109.127 15.142 109.621 15.767C110.121 16.3864 110.843 16.696 111.786 16.696C112.377 16.696 112.968 16.554 113.559 16.2699C114.156 15.9858 114.673 15.571 115.11 15.0256C115.553 14.4744 115.84 13.7983 115.971 12.9972ZM128.016 4.90909L127.803 6.23011H121.547L121.768 4.90909H128.016ZM124.232 1.77273H125.757L123.626 14.5824C123.536 15.1278 123.558 15.5568 123.695 15.8693C123.831 16.1761 124.041 16.3949 124.325 16.5256C124.609 16.6506 124.922 16.7131 125.263 16.7131C125.462 16.7131 125.632 16.7017 125.774 16.679C125.922 16.6506 126.053 16.6222 126.166 16.5938L126.277 17.9659C126.112 18.0227 125.916 18.0739 125.689 18.1193C125.462 18.1705 125.189 18.196 124.871 18.196C124.314 18.196 123.8 18.0739 123.328 17.8295C122.857 17.5852 122.499 17.2216 122.254 16.7386C122.01 16.2557 121.945 15.6562 122.058 14.9403L124.232 1.77273ZM136.029 18L138.211 4.90909H139.685L139.344 6.92045H139.481C139.862 6.24432 140.39 5.71307 141.066 5.3267C141.742 4.93466 142.509 4.73864 143.367 4.73864C144.265 4.73864 144.969 4.9517 145.481 5.37784C145.992 5.7983 146.333 6.37784 146.504 7.11648H146.614C147.023 6.3892 147.6 5.8125 148.344 5.38636C149.089 4.95455 149.938 4.73864 150.893 4.73864C152.103 4.73864 152.998 5.12216 153.577 5.8892C154.157 6.65625 154.325 7.76989 154.08 9.23011L152.614 18H151.097L152.563 9.23011C152.728 8.19602 152.594 7.42045 152.163 6.90341C151.731 6.38636 151.083 6.12784 150.219 6.12784C149.219 6.12784 148.393 6.43466 147.739 7.0483C147.092 7.65625 146.691 8.43466 146.538 9.38352L145.097 18H143.546L145.038 9.09375C145.18 8.20739 145.052 7.49148 144.654 6.94602C144.262 6.40057 143.617 6.12784 142.719 6.12784C142.112 6.12784 141.54 6.27841 141.006 6.57955C140.478 6.875 140.029 7.28693 139.66 7.81534C139.296 8.33807 139.058 8.9375 138.944 9.61364L137.546 18H136.029ZM161.889 18.2727C160.668 18.2727 159.659 17.9886 158.864 17.4205C158.068 16.8466 157.511 16.054 157.193 15.0426C156.875 14.0256 156.827 12.8551 157.048 11.5312C157.27 10.2131 157.707 9.04261 158.361 8.01989C159.014 6.99148 159.821 6.1875 160.781 5.60795C161.741 5.02273 162.784 4.73011 163.909 4.73011C164.619 4.73011 165.284 4.8608 165.903 5.12216C166.523 5.37784 167.048 5.77273 167.48 6.30682C167.918 6.83523 168.222 7.50284 168.392 8.30966C168.562 9.1108 168.557 10.0597 168.375 11.1562L168.256 11.9062H158.028L158.241 10.5682H166.926C167.068 9.72727 167.028 8.97159 166.807 8.30114C166.585 7.63068 166.207 7.09943 165.673 6.70739C165.145 6.30966 164.489 6.1108 163.705 6.1108C162.903 6.1108 162.145 6.33523 161.429 6.78409C160.719 7.23295 160.116 7.81818 159.622 8.53977C159.134 9.25568 158.818 10.0199 158.676 10.8324L158.506 11.8381C158.324 12.946 158.347 13.875 158.574 14.625C158.801 15.3693 159.213 15.9318 159.81 16.3125C160.406 16.6932 161.17 16.8835 162.102 16.8835C162.727 16.8835 163.293 16.7869 163.798 16.5938C164.304 16.4006 164.744 16.142 165.119 15.8182C165.494 15.4886 165.795 15.1278 166.023 14.7358L167.378 15.2045C167.088 15.7557 166.679 16.2642 166.151 16.7301C165.628 17.196 165.006 17.571 164.284 17.8551C163.568 18.1335 162.77 18.2727 161.889 18.2727Z" fill="black"/>
</svg>
