<svg width="45" height="28" viewBox="0 0 45 28" fill="none" xmlns="http://www.w3.org/2000/svg">
<path d="M32.8134 18.4925C33.639 18.4925 34.481 18.346 35.3393 18.1783C36.1621 18.0177 36.9714 17.7436 37.7915 17.472C38.6062 17.2003 39.4481 17.009 40.2274 16.6688C41.0366 16.3144 41.8568 16.0168 42.5924 15.6341C42.9521 15.4474 43.2954 15.1474 43.5025 14.7813C43.6578 14.5072 43.6033 14.1623 43.6251 13.8434C43.6823 13.0001 43.7586 12.1473 43.5979 11.3204C43.4371 10.496 43.0366 9.74711 42.6824 8.99352C42.3254 8.23993 41.9385 7.50997 41.4126 6.88159C40.8868 6.2532 40.2628 5.74293 39.5953 5.29173C38.8787 4.80981 38.1621 4.31608 37.3583 4.02315C36.5599 3.73258 35.7343 3.47273 34.9088 3.28846C34.0695 3.09948 33.1895 2.96718 32.2958 2.84198C31.4375 2.72386 30.5465 2.81599 29.6528 2.75929C28.7863 2.7026 27.909 2.67425 27.0207 2.67897C26.1488 2.6837 25.2715 2.70496 24.3886 2.77111C23.514 2.83726 22.6448 2.95537 21.7702 3.08293C20.8983 3.20814 19.9964 3.15853 19.1354 3.34988C18.2717 3.53887 17.4515 3.92865 16.6096 4.18379C15.7595 4.44128 14.923 4.7224 14.1029 5.04841C13.2746 5.37913 12.4517 5.70986 11.6642 6.11382C10.8659 6.52251 10.133 7.03986 9.38639 7.5265C8.63165 8.02023 7.85783 8.47144 7.1712 9.04785C6.4764 9.62899 5.87969 10.3164 5.26391 10.985C4.64812 11.6535 3.96695 12.2654 3.4438 13.026C2.92611 13.7749 2.57462 14.6466 2.15774 15.4852C1.76538 16.2814 1.34032 17.1294 1.07875 18.0578C0.822623 18.9626 0.618271 19.9052 0.585574 20.8383C0.552878 21.7951 0.650966 22.7636 0.958858 23.6424C1.34304 24.7433 2.02422 25.5488 2.81984 26.1252C3.62908 26.7135 4.62088 26.9804 5.63174 27.1647C6.62354 27.3466 7.6453 27.408 8.61257 27.3418C9.48993 27.2828 10.3537 27.2355 11.1847 27.0442C12.0321 26.8458 12.8332 26.4867 13.6424 26.1843C14.4544 25.8796 15.2391 25.511 16.0265 25.1283C16.8085 24.748 17.615 24.4125 18.3807 23.992C19.1463 23.5715 19.9065 23.1369 20.6694 22.7069C21.4323 22.277 22.1489 21.7502 22.92 21.3439C23.6938 20.9352 24.5222 20.6493 25.315 20.2973C26.1107 19.943 26.9117 19.6146 27.7373 19.35C28.5547 19.0878 29.383 18.8209 30.244 18.6744C31.0778 18.535 31.9388 18.4925 32.8243 18.4949L32.8134 18.4925Z" fill="#222222"/>
<path d="M32.8134 19.0831C34.6662 19.0618 36.4237 18.5161 38.1838 17.961C39.0612 17.6846 39.9249 17.4223 40.7805 17.0633C41.5652 16.7349 42.4589 16.468 43.1646 15.9601C43.4507 15.7545 43.7123 15.5041 43.9057 15.197C44.1564 14.8001 44.1564 14.382 44.1755 13.9213C44.2136 12.9362 44.3226 11.97 44.0965 10.9968C43.8948 10.1321 43.4698 9.32895 43.0883 8.54229C42.7069 7.75091 42.2682 6.99023 41.6987 6.33587C41.1292 5.68386 40.4426 5.16178 39.7396 4.68695C39.0258 4.20503 38.3037 3.7491 37.5054 3.44908C35.7752 2.79707 33.9469 2.4191 32.1214 2.22539C31.1595 2.12381 30.1814 2.18995 29.2168 2.13798C28.2822 2.08837 27.3449 2.0742 26.4076 2.09073C25.4703 2.10727 24.533 2.14979 23.6012 2.24901C22.6366 2.35295 21.683 2.52304 20.713 2.5821C19.7893 2.63879 18.912 2.74983 18.0292 3.05693C17.1681 3.35459 16.3099 3.64515 15.4461 3.93336C13.7078 4.51213 11.9367 5.19722 10.3645 6.1894C8.8714 7.12961 7.29652 8.0462 6.02953 9.32186C5.37015 9.98568 4.74891 10.692 4.10043 11.3677C3.47102 12.022 2.90974 12.7165 2.47651 13.5363C0.787187 16.7231 -0.986597 20.7532 0.648229 24.3771C2.20949 27.8379 6.34287 28.1261 9.47902 27.8757C11.3591 27.7245 13.092 27.0938 14.8276 26.3284C16.5169 25.5819 18.1845 24.7787 19.8002 23.8668C20.6422 23.392 21.4677 22.903 22.2879 22.3903C23.0971 21.8824 23.9391 21.5021 24.8137 21.143C26.5275 20.4367 28.225 19.6831 30.0424 19.3122C30.9552 19.1256 31.8898 19.0902 32.8189 19.0878C33.5328 19.0878 33.5328 17.9019 32.8189 17.9043C31.0642 17.909 29.4266 18.1901 27.7482 18.7287C26.1243 19.2508 24.4922 19.9311 22.9473 20.6777C22.1598 21.058 21.4405 21.5706 20.6885 22.0218C19.9637 22.4565 19.2198 22.8628 18.4815 23.2715C16.9611 24.1172 15.3453 24.8873 13.735 25.5205C12.9285 25.837 12.122 26.1843 11.2882 26.4111C10.4408 26.6402 9.56893 26.6898 8.69974 26.7465C7.08672 26.8528 5.26934 26.7323 3.77347 26.0189C0.495645 24.455 0.754488 19.9713 2.04873 17.0207C2.73535 15.4545 3.44923 13.7583 4.59633 12.5158C5.72164 11.2944 6.83877 9.94316 8.19022 9.00295C9.5662 8.0462 10.9967 7.05165 12.5034 6.35476C14.1219 5.6059 15.8058 5.11925 17.4679 4.51449C18.2444 4.23337 19.0155 3.92391 19.8356 3.83178C20.7157 3.73492 21.5931 3.69476 22.4732 3.57429C24.2197 3.33569 25.9717 3.24592 27.7318 3.27191C28.6119 3.28372 29.4893 3.36404 30.3694 3.36876C31.274 3.37349 32.1432 3.40184 33.0396 3.53885C34.6826 3.79162 36.4645 4.11762 37.955 4.93499C39.3228 5.68622 40.7042 6.65005 41.5543 8.0462C41.9821 8.75018 42.3363 9.51558 42.6742 10.2739C43.0447 11.1054 43.1728 11.9275 43.1401 12.8441C43.1237 13.2575 43.0829 13.6686 43.072 14.0843C43.0611 14.5379 42.8594 14.7883 42.497 15.0198C41.7804 15.4758 40.9385 15.7333 40.1701 16.064C39.4045 16.39 38.6062 16.5979 37.816 16.8507C37.004 17.1105 36.1975 17.3987 35.3665 17.5783C34.5273 17.7578 33.6799 17.8948 32.8243 17.9043C32.1105 17.9113 32.1105 19.0949 32.8243 19.0878L32.8134 19.0831Z" fill="#222222"/>
<path d="M32.8134 16.4727C33.639 16.4727 34.4973 16.4042 35.3556 16.2364C36.1785 16.0758 37.0177 15.8632 37.8378 15.5892C38.6525 15.3175 39.4209 14.8923 40.1974 14.5521C41.0067 14.1977 41.835 13.9284 42.5706 13.5481C42.9303 13.3615 43.3445 13.137 43.5515 12.7732C43.7068 12.4992 43.7668 12.1354 43.7886 11.8165C43.8458 10.9731 43.7804 10.1014 43.6197 9.27697C43.4589 8.45251 43.1238 7.66113 42.7668 6.90754C42.4099 6.15395 41.9385 5.46887 41.4126 4.84049C40.8868 4.21211 40.2546 3.71365 39.5844 3.26245C38.8678 2.78053 38.1076 2.42381 37.3065 2.13088C36.5082 1.84031 35.7234 1.46471 34.8951 1.28044C34.0559 1.09146 33.1704 1.01586 32.2767 0.893015C31.4184 0.774898 30.5438 0.678043 29.6501 0.621347C28.7836 0.564651 27.9008 0.590633 27.0125 0.595358C26.1406 0.600082 25.2605 0.609536 24.3777 0.673319C23.5031 0.739465 22.6149 0.72765 21.7402 0.855217C20.8683 0.980421 20.0128 1.23083 19.1517 1.41982C18.288 1.60881 17.457 1.92772 16.615 2.18285C15.7649 2.44035 14.893 2.6128 14.0729 2.93881C13.2446 3.26953 12.4326 3.64042 11.6452 4.04438C10.8468 4.45307 10.0539 4.8712 9.30737 5.35784C8.55262 5.85157 7.89324 6.48468 7.20389 7.05873C6.50909 7.63987 5.76524 8.16431 5.14946 8.83049C4.53367 9.49903 3.99691 10.2526 3.47376 11.0109C2.95607 11.7598 2.56643 12.6032 2.15228 13.4418C1.75992 14.2379 1.38391 15.1025 1.12234 16.0309C0.866214 16.9357 0.626438 17.8641 0.593742 18.7949C0.561045 19.7516 0.656415 20.7131 0.964307 21.5942C1.34849 22.6951 2.01332 23.5101 2.80893 24.0865C3.61817 24.6747 4.60997 24.9629 5.61811 25.1496C6.6099 25.3315 7.64257 25.4637 8.60984 25.3976C9.4872 25.3385 10.3319 25.1236 11.1602 24.9299C12.0076 24.7314 12.8222 24.4432 13.6315 24.1385C14.4434 23.8337 15.2118 23.4227 15.9965 23.0423C16.7785 22.662 17.615 22.3998 18.3834 21.9769C19.149 21.5564 19.8711 21.0438 20.6313 20.6139C21.3942 20.1839 22.1517 19.7445 22.9227 19.3358C23.6966 18.9271 24.4568 18.4807 25.2524 18.1263C26.048 17.772 26.9199 17.6468 27.7455 17.3822C28.5629 17.1199 29.3885 16.9097 30.2495 16.7656C31.0833 16.6262 31.9252 16.4679 32.8107 16.4679L32.8134 16.4727Z" fill="#C6A2F5"/>
<path d="M32.8133 17.0656C34.6143 17.0562 36.4371 16.7207 38.1455 16.1042C39.0365 15.7829 39.8703 15.3104 40.7503 14.9513C41.5596 14.6206 42.3961 14.3395 43.1563 13.8906C43.862 13.4749 44.2271 12.8725 44.3197 12.0244C44.4232 11.0913 44.3415 10.1227 44.1671 9.20612C43.8238 7.39656 42.8756 5.63189 41.6958 4.29717C40.5024 2.94355 38.9112 2.112 37.2927 1.50016C36.4371 1.17651 35.6034 0.810348 34.7042 0.640259C33.7887 0.465446 32.8569 0.373318 31.9332 0.252839C30.0586 0.00715517 28.1976 -0.0164703 26.3121 0.00715313C24.4648 0.0307766 22.5384 0.0496768 20.7237 0.444188C18.8464 0.850511 17.0345 1.46 15.1817 1.96554C13.3806 2.45691 11.6559 3.32624 10.0156 4.24992C8.41893 5.14997 7.03478 6.41855 5.62065 7.60445C4.27192 8.73601 3.12755 10.3046 2.29378 11.8992C0.658957 15.0175 -1.00585 19.1492 0.789738 22.6053C1.56628 24.1007 2.92318 25.0527 4.44902 25.4897C6.20646 25.9929 8.08652 26.1607 9.87938 25.8228C11.6777 25.485 13.4378 24.9346 15.1054 24.1361C15.95 23.7322 16.7892 23.3447 17.6475 22.9762C18.4786 22.6195 19.2442 22.1612 20.0153 21.6746C21.5956 20.6824 23.2495 19.78 24.9062 18.9437C25.7208 18.5326 26.5601 18.3319 27.4292 18.0956C28.3066 17.857 29.1649 17.5735 30.0613 17.4035C30.9714 17.231 31.8896 17.0775 32.816 17.0656C33.5299 17.0586 33.5299 15.875 32.816 15.8821C31.1294 15.901 29.3829 16.2648 27.7671 16.7633C26.9878 17.0042 26.1759 17.1507 25.4102 17.4365C24.6119 17.7342 23.8626 18.1712 23.1106 18.5799C21.5956 19.402 20.1161 20.269 18.6366 21.1619C17.9091 21.6013 17.1462 21.9084 16.3724 22.2392C15.5849 22.577 14.8329 22.9975 14.0482 23.34C10.9366 24.7055 7.30453 25.4283 4.06485 24.1149C2.66434 23.5479 1.65892 22.3124 1.31016 20.7627C0.904177 18.9697 1.30198 17.1082 1.90414 15.4191C2.48178 13.7961 3.321 12.1945 4.29917 10.8125C4.78416 10.1298 5.29914 9.45652 5.9013 8.88484C6.51981 8.29898 7.20916 7.80761 7.85219 7.25482C8.51157 6.69022 9.1546 6.12799 9.88755 5.67205C10.6477 5.19959 11.4434 4.78617 12.2417 4.3893C13.0455 3.99006 13.8711 3.60264 14.7185 3.32389C15.5604 3.04749 16.4241 2.86087 17.2688 2.58684C18.9118 2.05531 20.6393 1.51669 22.3585 1.37022C24.1133 1.2214 25.8789 1.19069 27.639 1.17415C29.3829 1.15761 31.0858 1.33006 32.816 1.5474C33.6879 1.65843 34.5625 1.75292 35.4045 2.02695C36.2083 2.28917 37.0148 2.61045 37.794 2.94354C40.8784 4.25701 43.1753 7.38475 43.2516 10.9921C43.2598 11.3936 43.2761 11.8307 43.1672 12.2205C43.0636 12.5984 42.7857 12.7662 42.4751 12.9363C41.7258 13.3497 40.9138 13.6072 40.1346 13.9426C39.3716 14.271 38.636 14.6773 37.8567 14.9584C37.0502 15.249 36.2137 15.4592 35.3772 15.6293C34.5326 15.8018 33.6797 15.8727 32.8187 15.8774C32.1048 15.8821 32.1048 17.0633 32.8187 17.0609L32.8133 17.0656Z" fill="#222222"/>
<path d="M4.76796 16.1916C4.3538 17.2286 5.10037 18.483 6.20661 18.131C7.25834 17.7956 7.242 15.9742 6.18481 15.5537C5.45186 15.2632 4.99684 15.6246 4.77069 16.1892L4.76796 16.1916Z" fill="#222222"/>
<path d="M4.23391 16.0333C3.95054 16.7633 4.12219 17.6515 4.62081 18.2232C5.14941 18.828 6.04039 18.9461 6.70522 18.5398C7.88502 17.8192 7.77331 15.7238 6.57171 15.0931C6.15755 14.8758 5.64258 14.7695 5.19845 14.949C4.7843 15.1191 4.46551 15.4569 4.2884 15.8892C4.22573 16.0404 4.19031 16.1798 4.23118 16.3451C4.2666 16.4822 4.36469 16.631 4.48458 16.6995C4.72435 16.8341 5.11944 16.7893 5.24205 16.4869C5.26657 16.4278 5.2911 16.3711 5.32107 16.3144C5.33469 16.2885 5.35104 16.2601 5.36739 16.2341C5.38101 16.2129 5.44913 16.1113 5.39191 16.1963C5.33469 16.279 5.39736 16.1963 5.41371 16.1774C5.4355 16.1514 5.46003 16.1302 5.48455 16.1066C5.54722 16.0404 5.38374 16.1774 5.46003 16.1278C5.48728 16.1113 5.51452 16.0924 5.54177 16.0735C5.55267 16.0664 5.56902 16.0617 5.57719 16.0546C5.57719 16.0546 5.4573 16.0995 5.50907 16.0853C5.53632 16.0782 5.56084 16.064 5.58809 16.0569C5.61534 16.0499 5.64531 16.0451 5.67256 16.0357C5.72433 16.0191 5.59898 16.0451 5.59898 16.0451C5.61533 16.0499 5.64258 16.0404 5.65893 16.0404C5.69163 16.0404 5.7216 16.0404 5.7543 16.0404C5.77064 16.0404 5.78699 16.0428 5.80334 16.0451C5.86328 16.0451 5.73795 16.0357 5.74068 16.0357C5.81152 16.0664 5.90143 16.0735 5.975 16.0995C5.99952 16.1089 6.11123 16.1562 6.01587 16.1136C5.92323 16.0711 6.02132 16.1184 6.04584 16.1325C6.06764 16.1467 6.09216 16.1585 6.11396 16.1751C6.13576 16.1892 6.22295 16.2577 6.14121 16.1916C6.06219 16.1254 6.13576 16.1892 6.15483 16.2058C6.1739 16.2247 6.19298 16.2412 6.20933 16.2601C6.22567 16.279 6.24475 16.2979 6.2611 16.3192C6.26927 16.3286 6.27744 16.3404 6.28562 16.3499C6.33466 16.4089 6.24747 16.3003 6.24475 16.2932C6.26655 16.3381 6.30196 16.3806 6.32376 16.4255C6.33466 16.4491 6.34828 16.4727 6.35918 16.4963C6.36463 16.5081 6.37008 16.52 6.37553 16.5318C6.4055 16.5885 6.32921 16.4018 6.34828 16.4633C6.38098 16.5743 6.40822 16.6806 6.43275 16.794C6.44092 16.8318 6.41912 16.6334 6.42457 16.742C6.42457 16.768 6.4273 16.794 6.43003 16.8223C6.43003 16.879 6.43003 16.9357 6.43003 16.9948C6.43003 17.0019 6.42185 17.0727 6.42457 17.0727C6.4164 17.0704 6.4491 16.9003 6.43003 17.0184C6.41913 17.0727 6.40822 17.1271 6.39188 17.1814C6.3837 17.2098 6.3728 17.2381 6.36463 17.2665C6.33738 17.3539 6.42457 17.1389 6.3837 17.2192C6.35918 17.2688 6.33739 17.3161 6.31014 17.3633C6.29651 17.3846 6.28289 17.4035 6.26927 17.4247C6.24475 17.472 6.32649 17.3515 6.32104 17.3539C6.31287 17.3609 6.30469 17.3751 6.29924 17.3822C6.26382 17.4224 6.22567 17.4602 6.19025 17.498C6.13031 17.5617 6.29924 17.42 6.22567 17.4672C6.20388 17.4814 6.1848 17.4956 6.163 17.5098C6.1412 17.524 6.11941 17.5334 6.09761 17.5476C6.02949 17.5901 6.23112 17.5003 6.12486 17.5358C6.06219 17.557 5.99952 17.5783 5.93413 17.5925C5.91778 17.5948 5.90143 17.5972 5.8878 17.6019C5.83058 17.6137 5.96137 17.5925 5.95592 17.5925C5.92595 17.5854 5.87963 17.5972 5.84966 17.5995C5.81969 17.5995 5.78972 17.5996 5.75975 17.5972C5.74613 17.5972 5.72978 17.5925 5.71615 17.5925C5.7107 17.5925 5.84694 17.6184 5.79245 17.6019C5.73523 17.583 5.67528 17.5712 5.61533 17.5523C5.52814 17.5263 5.72705 17.6114 5.64531 17.5665C5.62079 17.5523 5.59627 17.5405 5.57174 17.5263C5.54722 17.5121 5.52542 17.4956 5.50363 17.4814C5.49273 17.4743 5.48182 17.4649 5.47092 17.4554C5.41915 17.4224 5.56084 17.5405 5.51997 17.4956C5.47365 17.4436 5.42189 17.3964 5.37556 17.3421C5.31835 17.2783 5.44913 17.4578 5.38646 17.3562C5.36738 17.3279 5.35104 17.2995 5.33469 17.2688C5.31834 17.2381 5.302 17.2098 5.28837 17.1767C5.28292 17.1625 5.27747 17.1507 5.2693 17.1365C5.2366 17.0657 5.28837 17.1814 5.2911 17.1956C5.2802 17.1271 5.2475 17.0609 5.23116 16.9924C5.22298 16.957 5.22025 16.9216 5.21208 16.8885C5.19846 16.8294 5.22026 16.9759 5.22298 16.9688C5.22298 16.9499 5.22025 16.9263 5.21753 16.9074C5.21208 16.8294 5.2148 16.7515 5.21753 16.6735C5.22298 16.5459 5.19574 16.7822 5.21481 16.6877C5.22298 16.6499 5.22843 16.6145 5.2366 16.5767C5.25567 16.4963 5.28019 16.4184 5.31017 16.3428C5.36194 16.2105 5.31834 16.005 5.25295 15.8868C5.18483 15.764 5.05405 15.6483 4.92053 15.6152C4.77885 15.5797 4.61809 15.5892 4.49275 15.6742C4.36469 15.764 4.29658 15.8774 4.23936 16.0286L4.23391 16.0333Z" fill="#222222"/>
<path d="M16.7513 14.4245C16.3372 15.4616 17.1655 16.7467 18.2717 16.3947C19.3234 16.0593 19.3616 14.0938 18.3017 13.6757C17.5687 13.3851 16.9748 13.8576 16.7513 14.4245Z" fill="#222222"/>
<path d="M16.2172 14.2662C15.9311 15.0104 16.1381 15.9293 16.6667 16.4916C17.2171 17.0751 18.1326 17.2381 18.8029 16.7821C19.9255 16.0191 19.9146 13.9308 18.7266 13.2339C18.2961 12.9811 17.743 12.9102 17.2825 13.111C16.8411 13.3024 16.4678 13.6544 16.2744 14.1245C16.1572 14.408 16.1872 14.7741 16.4733 14.9348C16.713 15.0694 17.1081 15.0245 17.2307 14.7222C17.258 14.6584 17.2852 14.597 17.3179 14.5379C17.3343 14.5072 17.3534 14.4788 17.3724 14.4505C17.4351 14.3465 17.2852 14.5497 17.367 14.4599C17.4133 14.408 17.4596 14.3584 17.5087 14.3087C17.5931 14.2213 17.4024 14.3796 17.5032 14.3135C17.5414 14.2875 17.5795 14.2615 17.6177 14.2379C17.6286 14.2331 17.6367 14.2261 17.6476 14.2213C17.7021 14.1954 17.6885 14.2001 17.6095 14.2379C17.6258 14.2426 17.6885 14.2072 17.7076 14.2024C17.7403 14.193 17.7757 14.1859 17.8084 14.1765C17.9283 14.1457 17.6776 14.1765 17.8029 14.1788C17.8411 14.1788 17.8765 14.1788 17.9146 14.1788C17.9283 14.1788 17.9392 14.1788 17.9528 14.1812C18.0155 14.1883 18.0046 14.1859 17.9201 14.1741C17.9364 14.1646 18.0209 14.1977 18.0373 14.2024C18.0836 14.2166 18.1353 14.245 18.1844 14.2544C18.0618 14.2332 18.0863 14.2072 18.149 14.2426C18.1708 14.2544 18.1953 14.2686 18.2171 14.2828C18.2389 14.2969 18.258 14.3158 18.2798 14.3276C18.149 14.252 18.2062 14.2615 18.2471 14.3017C18.2825 14.3395 18.3179 14.3773 18.3533 14.4151C18.4105 14.4788 18.3533 14.4765 18.3288 14.3796C18.337 14.408 18.3697 14.4434 18.386 14.4694C18.4133 14.5166 18.4323 14.5639 18.4596 14.6111C18.5086 14.7056 18.4105 14.467 18.4432 14.571C18.4487 14.5875 18.4541 14.604 18.4596 14.6229C18.4759 14.6749 18.4896 14.7269 18.5032 14.7812C18.5086 14.8072 18.5141 14.8356 18.5195 14.8615C18.5468 15.0127 18.5114 14.7387 18.5195 14.8426C18.5277 14.9537 18.5332 15.0647 18.525 15.1757C18.525 15.2041 18.5195 15.2301 18.5168 15.2584C18.5304 15.0647 18.5304 15.1615 18.5195 15.2112C18.5086 15.2749 18.495 15.3364 18.4759 15.3978C18.4678 15.4238 18.4596 15.4498 18.4514 15.4757C18.4269 15.5561 18.3996 15.5159 18.4705 15.4356C18.4405 15.4687 18.4242 15.5372 18.4024 15.5773C18.3887 15.6009 18.3751 15.6222 18.3615 15.6435C18.3234 15.712 18.2988 15.6718 18.3887 15.608C18.3479 15.6364 18.307 15.7025 18.2716 15.7403C18.2198 15.797 18.2035 15.7545 18.307 15.7143C18.2879 15.7214 18.2634 15.7474 18.2471 15.7592C18.2089 15.7852 18.1462 15.8041 18.1163 15.8348C18.1844 15.764 18.2307 15.7876 18.1544 15.8136C18.1245 15.8254 18.0918 15.8325 18.0618 15.8419C18.04 15.8466 18.0155 15.8514 17.9937 15.8584C17.9337 15.8703 17.9501 15.8679 18.0427 15.8537C18.0209 15.8561 17.9991 15.8584 17.9773 15.8584C17.9147 15.8632 17.8493 15.8466 17.7866 15.8537C17.9119 15.8372 17.882 15.8703 17.8138 15.8537C17.7839 15.8466 17.7539 15.8395 17.7266 15.8301C17.6994 15.8206 17.6694 15.8041 17.6422 15.7994C17.7621 15.8183 17.7266 15.8395 17.6667 15.8088C17.604 15.7758 17.5523 15.7262 17.4923 15.6931C17.6149 15.7592 17.555 15.7474 17.5141 15.7073C17.4841 15.6789 17.4569 15.6506 17.4296 15.6199C17.4106 15.5986 17.3915 15.5655 17.3697 15.549C17.4242 15.6269 17.4351 15.6411 17.4024 15.5939C17.3915 15.5773 17.3806 15.5584 17.3697 15.5419C17.3316 15.4781 17.2989 15.4143 17.2662 15.3458C17.2144 15.2395 17.3098 15.4828 17.2743 15.3671C17.2607 15.3269 17.2471 15.2868 17.2362 15.2442C17.228 15.2135 17.2198 15.1804 17.2144 15.1497C17.1817 14.9891 17.2171 15.2513 17.2117 15.145C17.2062 15.0671 17.2035 14.9915 17.2062 14.9159C17.2062 14.8828 17.2144 14.8497 17.2144 14.8167C17.2144 14.9962 17.2089 14.8663 17.2226 14.8096C17.2389 14.7316 17.2634 14.656 17.2934 14.5828C17.4051 14.2969 17.1735 13.919 16.9065 13.8552C16.585 13.7772 16.3425 13.9615 16.2253 14.2686L16.2172 14.2662Z" fill="#222222"/>
<path d="M23.5384 5.95085C23.1488 6.93122 23.9389 8.09113 24.9852 7.76041C25.9797 7.44385 26.0151 5.70753 25.0152 5.31066C24.3231 5.03663 23.7536 5.41696 23.5411 5.95085H23.5384Z" fill="#222222"/>
<path d="M23.0045 5.79489C22.7347 6.49651 22.9282 7.35876 23.4322 7.88556C23.969 8.44544 24.83 8.58009 25.4867 8.17141C26.5956 7.47688 26.5711 5.46889 25.3995 4.84995C24.9826 4.62789 24.4649 4.54757 24.0208 4.72711C23.6066 4.89484 23.2442 5.21375 23.0617 5.65551C22.999 5.8067 22.9636 5.94608 23.0045 6.11144C23.0399 6.24846 23.138 6.39729 23.2606 6.46579C23.5003 6.60045 23.8954 6.55556 24.018 6.25318C24.0426 6.19649 24.0671 6.13979 24.0998 6.08782C24.1134 6.06419 24.1379 6.03585 24.1488 6.00986C24.1488 6.00986 24.0698 6.10908 24.108 6.06892C24.1216 6.05475 24.1325 6.03585 24.1461 6.02167C24.1652 5.99805 24.187 5.97679 24.2088 5.95553C24.2251 5.93899 24.3069 5.86812 24.2306 5.92954C24.1543 5.99097 24.2415 5.92482 24.2605 5.91301C24.2905 5.89411 24.3205 5.87757 24.3505 5.85867C24.4322 5.8067 24.2387 5.89883 24.3287 5.86576C24.3586 5.85631 24.3859 5.8445 24.4158 5.83505C24.4458 5.8256 24.4758 5.82087 24.5085 5.81378C24.5957 5.79489 24.3804 5.82324 24.5058 5.81851C24.5385 5.81851 24.5712 5.81851 24.6066 5.81851C24.6284 5.81851 24.7455 5.83269 24.6529 5.81851C24.5603 5.8067 24.6802 5.82796 24.7019 5.83269C24.7455 5.8445 24.7864 5.85631 24.83 5.87284C24.8464 5.87993 24.8627 5.88702 24.8791 5.89175C24.9308 5.90828 24.7973 5.86103 24.8055 5.85867C24.8137 5.85395 24.8627 5.88939 24.8709 5.89411C24.8927 5.90592 24.9145 5.92009 24.9336 5.93427C24.9553 5.94844 25.0398 6.01459 24.9553 5.94608C24.8736 5.87994 24.9444 5.93899 24.9635 5.95553C24.9799 5.97206 24.9989 5.9886 25.0153 6.0075C25.0316 6.0264 25.048 6.0453 25.0616 6.06184C25.1325 6.14688 24.9962 5.96025 25.0398 6.03112C25.0643 6.07365 25.0916 6.11381 25.1134 6.15869C25.1243 6.17995 25.1352 6.20358 25.1433 6.22484C25.1788 6.30043 25.0943 6.07837 25.127 6.18704C25.1434 6.23429 25.157 6.28153 25.1679 6.33114C25.1733 6.35476 25.1788 6.38075 25.1842 6.40437C25.1842 6.41618 25.1897 6.42799 25.1897 6.44217C25.206 6.52013 25.1788 6.36422 25.1815 6.35949C25.1706 6.39493 25.1897 6.47052 25.1924 6.51068C25.1924 6.56501 25.1924 6.61935 25.1869 6.67368C25.1869 6.70203 25.1733 6.79889 25.1869 6.68313C25.2006 6.56738 25.1869 6.66423 25.1842 6.69022C25.1733 6.74219 25.1624 6.79416 25.1461 6.84613C25.1379 6.87448 25.127 6.90047 25.1188 6.92645C25.1079 6.96189 25.1842 6.78235 25.1379 6.87448C25.1134 6.92173 25.0916 6.96897 25.0643 7.01386C25.0562 7.02803 25.0398 7.06583 25.0262 7.07292C25.0507 7.06111 25.1216 6.9548 25.0562 7.02803C25.0235 7.06583 24.988 7.10363 24.9499 7.13906C24.9444 7.14615 24.9308 7.16033 24.9226 7.16269C24.9063 7.16741 25.0398 7.07764 24.988 7.10599C24.969 7.1178 24.9499 7.13434 24.9308 7.14615C24.9117 7.15796 24.8899 7.16977 24.8682 7.18158C24.7755 7.23828 24.9771 7.14142 24.9009 7.16741C24.8464 7.18631 24.7919 7.20521 24.7374 7.21938C24.721 7.22411 24.7047 7.22411 24.691 7.22883C24.6338 7.24537 24.7646 7.21938 24.7619 7.21938C24.7265 7.21938 24.691 7.22647 24.6556 7.22883C24.6257 7.22883 24.5957 7.22883 24.5684 7.22883C24.5439 7.22883 24.4404 7.21466 24.5412 7.22883C24.6447 7.24301 24.5412 7.22883 24.5167 7.22175C24.484 7.21466 24.454 7.20521 24.424 7.19576C24.3995 7.18631 24.3723 7.17213 24.3477 7.16505C24.3423 7.16505 24.4649 7.22647 24.4186 7.19576C24.4077 7.18867 24.3941 7.18395 24.3832 7.17686C24.3314 7.14851 24.2851 7.11071 24.2333 7.07764C24.187 7.04693 24.296 7.13198 24.2932 7.12725C24.2823 7.11308 24.266 7.10127 24.2524 7.08946C24.2279 7.06819 24.2061 7.04457 24.1843 7.01858C24.1625 6.99496 24.1434 6.96425 24.1216 6.94298C24.1161 6.93826 24.1952 7.05638 24.1679 7.00677C24.157 6.99024 24.1461 6.97606 24.1379 6.95952C24.1025 6.90283 24.0725 6.84377 24.0426 6.78235C23.9908 6.67368 24.0753 6.88865 24.0507 6.80361C24.0398 6.77053 24.0289 6.73982 24.0208 6.70675C24.0126 6.67368 24.0044 6.64061 23.9962 6.60754C23.9935 6.59336 23.9935 6.57683 23.9881 6.56502C23.9717 6.49887 23.999 6.70203 23.9962 6.63352C23.9962 6.56265 23.9881 6.49414 23.9908 6.42327C23.9908 6.4091 23.9908 6.39256 23.9908 6.37839C23.9908 6.29807 23.9854 6.43036 23.9799 6.44453C23.9881 6.41146 23.9908 6.37366 23.999 6.33823C24.0153 6.26027 24.0398 6.18704 24.0671 6.11381C24.1189 5.98152 24.0753 5.77599 24.0099 5.65788C23.9418 5.53503 23.811 5.41927 23.6775 5.3862C23.5358 5.35077 23.375 5.36022 23.2497 5.44526C23.1216 5.53503 23.0535 5.64842 22.9936 5.79961L23.0045 5.79489Z" fill="#222222"/>
</svg>
