<svg width="41" height="29" viewBox="0 0 41 29" fill="none" xmlns="http://www.w3.org/2000/svg">
<path d="M21.9232 26.8033C20.757 27.1322 19.0975 27.2892 17.2286 27.2967C15.756 27.3042 14.1638 27.0201 12.5491 26.7958C10.9792 26.5791 9.34209 26.5417 7.88439 26.0782C6.27718 25.5699 4.87931 24.7177 3.71315 23.8879C2.31525 22.8937 1.31353 21.6902 1.03694 20.1726C0.805206 18.8794 1.11919 17.3993 2.08352 15.6874C2.73388 14.5287 3.64584 13.3775 4.94656 12.4805C6.04545 11.718 7.48072 11.2919 8.87115 10.6789C10.1494 10.1182 11.4726 9.53515 12.863 9.07167C14.231 8.61567 15.599 8.10735 16.9595 7.71115C18.4023 7.3 19.7778 6.77673 21.0785 6.41791C22.6483 5.97686 24.1658 5.87968 25.3021 5.46853C26.3561 5.08729 27.313 4.39955 28.3969 4.10054C29.4808 3.79404 30.6246 3.80152 31.7459 3.75667C32.8597 3.71181 34.0035 3.76414 35.05 4.13791C36.119 4.51916 37.1955 5.03496 37.9131 5.90958C38.6307 6.7842 38.8475 7.96531 38.997 9.0941C39.1465 10.2005 39.0868 11.3442 38.7653 12.4132C38.4439 13.4971 37.9804 14.5212 37.3599 15.4706C36.7469 16.4125 35.8872 17.1675 35.1397 17.9973C34.2427 18.9915 33.3232 19.9559 32.314 20.838C31.2974 21.7201 30.348 22.6844 29.2267 23.4244C28.1054 24.1645 26.857 24.6878 25.6385 25.2559C24.4274 25.824 23.2239 26.4445 21.9232 26.8108V26.8033Z" fill="#222222"/>
<path d="M21.6842 25.9288C18.7613 26.7137 15.7413 26.325 12.796 25.9288C11.1962 25.712 9.55165 25.6746 8.00424 25.1738C6.65867 24.7327 5.41775 23.9926 4.26654 23.1778C3.24241 22.4527 2.30052 21.5108 1.98655 20.2624C1.66511 18.9916 2.08371 17.6685 2.66679 16.5397C3.3022 15.3062 4.16936 14.17 5.29815 13.3477C6.46431 12.503 7.8921 12.0918 9.20777 11.5237C12.2577 10.208 15.375 9.2063 18.5371 8.18964C19.9948 7.71869 21.4375 7.22532 22.9476 6.93378C24.3679 6.66466 25.6462 6.37313 26.9394 5.72277C27.5823 5.40132 28.2028 5.07988 28.898 4.91542C29.7352 4.72106 30.6024 4.71358 31.4546 4.68368C33.0393 4.62388 34.512 4.75097 35.9323 5.51346C38.6833 6.97863 38.5338 10.9256 37.4349 13.4224C36.7471 14.9997 35.6333 16.1136 34.4896 17.362C33.3309 18.6178 32.1199 19.7765 30.8565 20.9203C29.511 22.1387 28.1579 23.0881 26.5133 23.8581C24.9286 24.5981 23.3587 25.4429 21.6767 25.9362C20.5554 26.2652 21.0339 28.0219 22.1626 27.6855C23.867 27.1772 25.4593 26.3324 27.0665 25.5924C28.6289 24.8747 30.0417 24.045 31.3424 22.9162C32.6581 21.7724 33.9513 20.6063 35.1399 19.328C36.2837 18.102 37.562 16.9359 38.4142 15.4856C39.2589 14.0504 39.8494 12.4357 39.9541 10.7687C40.0587 9.18388 39.8121 7.22532 38.9673 5.84985C37.1209 2.84474 33.0094 2.66533 29.8997 2.94192C29.04 3.01667 28.2103 3.16618 27.4104 3.49509C26.6031 3.82401 25.863 4.30244 25.0481 4.60146C23.5381 5.15464 21.8786 5.22939 20.3386 5.70034C16.8551 6.7469 13.3192 7.81588 9.96279 9.2362C8.38548 9.90151 6.711 10.4771 5.20097 11.2845C3.80307 12.0245 2.65183 13.1832 1.76974 14.4839C0.117674 16.9284 -0.712086 20.1503 1.17171 22.7069C2.16594 24.0599 3.61619 25.0467 5.0739 25.854C6.82314 26.8258 8.62468 27.2893 10.6057 27.5061C14.4555 27.9322 18.3353 28.732 22.1776 27.7004C23.3064 27.3939 22.828 25.6447 21.6917 25.9512L21.6842 25.9288Z" fill="#222222"/>
<path d="M21.9085 23.8955C20.7423 24.2244 19.0977 24.4113 17.2364 24.4187C15.7637 24.4262 14.1415 24.3888 12.5269 24.1646C10.957 23.9478 9.43951 23.4021 7.9818 22.9386C6.37459 22.4303 4.81224 21.9818 3.6386 21.152C2.2407 20.1578 1.1867 18.872 0.917589 17.3545C0.685851 16.0612 1.12686 14.5662 2.09119 12.8468C2.74155 11.6881 3.69096 10.5967 4.98421 9.69221C6.08309 8.92972 7.35389 8.16722 8.74431 7.54676C10.0226 6.98611 11.3906 6.44788 12.781 5.98441C14.149 5.52841 15.5694 5.15464 16.9299 4.76592C18.3726 4.35477 19.8378 4.16041 21.1385 3.79412C22.7084 3.35307 24.0764 2.79241 25.2126 2.38127C26.2667 2.00002 27.3581 1.701 28.4345 1.40199C29.5185 1.0955 30.6173 0.93104 31.7386 0.886187C32.8525 0.841335 33.9887 0.923564 35.0428 1.29733C36.1117 1.67858 37.0537 2.29904 37.7713 3.17366C38.4889 4.04828 39.0571 5.08736 39.2066 6.20867C39.3561 7.31503 39.2215 8.52605 38.9075 9.59503C38.5861 10.679 37.9955 11.6732 37.3826 12.6151C36.7696 13.557 36.052 14.4466 35.3044 15.2763C34.4074 16.2706 33.4206 17.1975 32.4114 18.0721C31.3948 18.9542 30.2809 19.7092 29.1671 20.4493C28.0458 21.1894 26.8572 21.7949 25.6387 22.363C24.4277 22.9311 23.2167 23.5217 21.9234 23.888L21.9085 23.8955Z" fill="#E56262"/>
<path d="M21.6692 23.0209C18.8808 23.7759 15.6515 23.6712 12.8108 23.2975C11.2335 23.0882 9.73097 22.5424 8.22094 22.0715C6.80809 21.623 5.32799 21.2417 4.09455 20.3746C3.06294 19.642 2.11354 18.6029 1.82948 17.3396C1.54541 16.0912 2.09111 14.7905 2.65924 13.6991C4.04966 11.0528 6.6586 9.46797 9.31984 8.29433C12.2502 7.00109 15.3899 6.00687 18.5146 5.3266C20.0171 4.99769 21.4973 4.69119 22.955 4.19034C24.323 3.71939 25.6536 3.16621 27.044 2.75507C29.8921 1.91035 33.3981 1.0133 36.0668 2.85225C38.6383 4.62392 38.8402 7.99532 37.5095 10.6042C35.9846 13.5944 33.443 16.2332 30.7742 18.2366C28.0756 20.2625 24.9061 22.079 21.6617 23.0358C20.5404 23.3647 21.0188 25.1215 22.1476 24.7851C25.4293 23.8207 28.6213 22.0416 31.3723 20.0382C34.1157 18.0423 36.6275 15.538 38.4365 12.6525C40.1858 9.84922 40.9632 6.22365 38.9897 3.31572C37.0087 0.400315 33.6822 -0.317323 30.3481 0.116251C26.8721 0.564775 23.7698 2.23179 20.4058 3.06903C18.7089 3.48765 17.0045 3.82405 15.3151 4.30247C13.5434 4.80332 11.7942 5.3565 10.0749 6.03677C6.98753 7.27021 3.74318 8.85499 1.78463 11.6508C0.0877137 14.0728 -0.824269 17.2424 1.0072 19.8364C2.03881 21.3015 3.51146 22.3107 5.16352 22.9685C6.92772 23.6712 8.81149 24.2468 10.643 24.7253C12.6165 25.2336 14.6797 25.3382 16.7055 25.3457C18.5221 25.3457 20.3834 25.2635 22.1476 24.7851C23.2764 24.4786 22.798 22.7293 21.6617 23.0358L21.6692 23.0209Z" fill="#222222"/>
<path d="M12.3102 18.1471C13.9698 16.7492 13.4614 15.1494 12.3326 14.2001C11.159 13.2133 9.55925 13.1236 8.93132 15.5157C8.55755 16.9286 8.67718 18.1022 9.32754 18.7152C10.0153 19.3581 11.0394 19.2161 12.3102 18.1471Z" fill="#222222"/>
<path d="M12.9527 18.7898C13.5432 18.289 14.0515 17.6012 14.2085 16.8238C14.358 16.0912 14.2385 15.381 13.9095 14.7157C13.3638 13.6318 12.235 12.802 11.0315 12.6525C10.5007 12.5852 9.92511 12.7273 9.48406 13.0263C8.87856 13.43 8.51228 14.028 8.24317 14.6933C7.9591 15.4184 7.80211 16.2407 7.80958 17.0182C7.81706 17.8031 8.01889 18.5431 8.51227 19.1636C8.96079 19.7242 9.7233 20.0606 10.4409 20.0008C11.4127 19.9111 12.2201 19.3953 12.9527 18.7898C13.319 18.4833 13.2891 17.818 12.9527 17.5041C12.5639 17.1452 12.0631 17.1751 11.6669 17.5041C11.6295 17.534 11.465 17.6685 11.5846 17.5788C11.5174 17.6311 11.4576 17.676 11.3903 17.7208C11.2557 17.8105 11.1212 17.9003 10.9791 17.975C10.9193 18.0049 10.8595 18.0423 10.7997 18.0722C10.7773 18.0797 10.725 18.0946 10.71 18.117C10.71 18.117 10.8745 18.0572 10.7773 18.0871C10.6577 18.1245 10.5381 18.1619 10.411 18.1918C10.254 18.2366 10.5979 18.1843 10.4409 18.1918C10.3886 18.1918 10.3363 18.1918 10.2839 18.1918C10.2391 18.1918 10.1793 18.1768 10.1344 18.1843C10.1344 18.1843 10.3363 18.2292 10.2541 18.1993C10.2241 18.1918 10.1943 18.1843 10.1644 18.1768C10.127 18.1694 9.96999 18.1021 10.1195 18.1768C10.269 18.2441 10.112 18.1768 10.0746 18.1544C10.0298 18.132 9.99239 18.1021 9.95502 18.0797C9.88026 18.0423 10.0372 18.1469 10.0447 18.1469C10.0298 18.1245 9.99241 18.1021 9.96998 18.0797C9.93261 18.0423 9.89522 18.0049 9.86532 17.9675C9.76066 17.8554 9.96251 18.117 9.88028 17.9825C9.85038 17.9376 9.82049 17.8928 9.79806 17.8479C9.77564 17.8105 9.69336 17.6237 9.75317 17.7582C9.81297 17.8928 9.74572 17.7134 9.73076 17.6835C9.71581 17.6311 9.70086 17.5713 9.68591 17.5115C9.67096 17.4517 9.6635 17.3919 9.64855 17.3321C9.62612 17.2349 9.65603 17.4144 9.65603 17.4218C9.65603 17.3845 9.64854 17.3321 9.64106 17.2947C9.61864 17.0032 9.64104 16.7117 9.66347 16.4201C9.67094 16.3155 9.65599 16.465 9.66347 16.4725C9.66347 16.4425 9.67844 16.3902 9.68591 16.3603C9.70086 16.2856 9.71581 16.2033 9.73076 16.1286C9.76814 15.9566 9.80551 15.7922 9.85783 15.6203C9.86531 15.5829 10.0073 15.2315 9.99239 15.2166C9.99239 15.2166 9.91765 15.3736 9.9625 15.2839C9.97745 15.254 9.98492 15.2241 9.99987 15.1942C10.0298 15.1344 10.0597 15.0671 10.0971 15.0073C10.1494 14.9101 10.2167 14.8204 10.2765 14.7232C10.3288 14.641 10.2092 14.8054 10.2167 14.8054C10.2316 14.798 10.254 14.7606 10.269 14.7456C10.3063 14.7083 10.3438 14.6634 10.3886 14.626C10.4185 14.5961 10.568 14.4765 10.4335 14.5812C10.3064 14.6784 10.4334 14.5812 10.4708 14.5662C10.5082 14.5438 10.5456 14.5214 10.583 14.5064C10.7325 14.4167 10.411 14.5587 10.5381 14.5214C10.6129 14.4989 10.6951 14.4765 10.7699 14.4541C10.9044 14.4167 10.5456 14.4616 10.6876 14.469C10.7324 14.469 10.7848 14.469 10.8296 14.469C10.867 14.469 10.9119 14.469 10.9493 14.469C10.9717 14.469 10.9941 14.469 11.0091 14.469C11.0165 14.469 10.7923 14.4242 10.867 14.4541C10.9493 14.484 11.0464 14.4915 11.1287 14.5214C11.166 14.5363 11.2109 14.5513 11.2482 14.5662C11.3903 14.6111 11.0614 14.4765 11.196 14.5438C11.2857 14.5886 11.3679 14.6335 11.4501 14.6784C11.5323 14.7232 11.6071 14.7755 11.6818 14.8279C11.8239 14.925 11.6071 14.7606 11.6445 14.798C11.6893 14.8428 11.7416 14.8802 11.7865 14.9176C11.8687 14.9923 11.951 15.0745 12.0257 15.1568C12.0631 15.2016 12.1004 15.239 12.1378 15.2839C12.235 15.396 12.0406 15.1344 12.1453 15.2988C12.2126 15.4035 12.2873 15.5156 12.3397 15.6277C12.3546 15.6502 12.3621 15.6801 12.377 15.7025C12.4368 15.8221 12.3472 15.6651 12.3472 15.6352C12.3397 15.6726 12.3995 15.7772 12.407 15.8146C12.4219 15.8744 12.4369 15.9342 12.4518 16.0015C12.4518 16.0314 12.4593 16.0538 12.4667 16.0837C12.4966 16.1884 12.4668 15.8968 12.4518 16.0015C12.4518 16.1286 12.4518 16.2557 12.4518 16.3827C12.4518 16.4799 12.4593 16.2856 12.4667 16.2781C12.4518 16.293 12.4518 16.3678 12.4443 16.3902C12.4294 16.4575 12.407 16.5248 12.392 16.5846C12.392 16.5846 12.3696 16.6668 12.3621 16.6668C12.3621 16.6668 12.4518 16.4874 12.3845 16.622C12.3546 16.6892 12.3172 16.7565 12.2799 16.8163C12.2425 16.8836 12.1976 16.9509 12.1528 17.0107C12.1453 17.0256 12.0705 17.1153 12.1378 17.0331C12.2126 16.9434 12.1079 17.063 12.093 17.078C11.9659 17.2275 11.8164 17.362 11.6669 17.4891C11.3081 17.8031 11.323 18.4609 11.6669 18.7749C12.0556 19.1262 12.5639 19.1038 12.9527 18.7749V18.7898Z" fill="#222222"/>
<path d="M27.186 17.7357C28.6287 17.2274 28.6512 16.1285 28.1728 15.1941C27.7018 14.2746 26.7076 13.3551 25.534 13.6616C23.1119 14.297 24.6743 18.6253 27.186 17.7357Z" fill="#222222"/>
<path d="M27.4326 18.6103C28.1727 18.3412 28.8529 17.9001 29.1669 17.1526C29.4136 16.562 29.4136 15.8967 29.1968 15.2912C28.7034 13.9157 27.3878 12.5552 25.8179 12.6972C24.6817 12.8019 23.6725 13.5569 23.4781 14.7231C23.3062 15.7846 23.6276 16.8162 24.2929 17.6534C25.033 18.5879 26.2963 18.999 27.4326 18.6103C27.8811 18.4533 28.225 17.9823 28.068 17.4964C27.926 17.0554 27.4326 16.6966 26.9542 16.861C26.8719 16.8909 26.7823 16.9134 26.6925 16.9358C26.6477 16.9433 26.5954 16.9657 26.558 16.9582C26.5281 16.9582 26.7972 16.9433 26.7 16.9358C26.6701 16.9358 26.6327 16.9358 26.6028 16.9358C26.5206 16.9358 26.4384 16.9358 26.3636 16.9358C26.1917 16.9283 26.5804 16.9806 26.4458 16.9433C26.401 16.9283 26.3561 16.9208 26.3038 16.9134C26.2664 16.9059 26.2365 16.8909 26.1991 16.8835C26.1618 16.8685 26.0048 16.8087 26.1767 16.8835C26.2066 16.8984 26.3412 16.9507 26.1767 16.8835C26.1319 16.861 26.0945 16.8386 26.0497 16.8162C25.9824 16.7788 25.9226 16.7265 25.8553 16.6891C26.0945 16.8386 25.9749 16.7863 25.9151 16.734C25.8777 16.7041 25.8404 16.6667 25.8105 16.6368C25.7507 16.5844 25.7058 16.5246 25.6535 16.4648C25.5339 16.3303 25.7207 16.562 25.6908 16.5246C25.6684 16.4873 25.6385 16.4574 25.6161 16.42C25.5189 16.278 25.4441 16.1285 25.3694 15.9715C25.3096 15.8444 25.4516 16.1957 25.3993 16.0387C25.3844 16.0014 25.3694 15.9565 25.3545 15.9191C25.3246 15.8369 25.3021 15.7547 25.2872 15.6724C25.2722 15.5977 25.2573 15.5229 25.2423 15.4407C25.2423 15.4033 25.2648 15.7024 25.2573 15.5229C25.2573 15.4781 25.2573 15.4332 25.2498 15.3809C25.2498 15.3062 25.2498 15.2314 25.2498 15.1566C25.2498 15.1417 25.2722 15.0445 25.2573 15.037C25.2573 15.037 25.2199 15.2613 25.2348 15.194C25.2348 15.1716 25.2423 15.1492 25.2498 15.1267C25.2648 15.0595 25.2797 14.9847 25.3021 14.9174C25.3171 14.8801 25.3769 14.7306 25.3021 14.9025C25.2274 15.0744 25.3021 14.9174 25.3171 14.8801C25.332 14.8427 25.3918 14.7156 25.4292 14.7006C25.4442 14.7006 25.2648 14.895 25.347 14.8053C25.3545 14.7904 25.3694 14.7829 25.3769 14.7679C25.4068 14.738 25.4367 14.7007 25.4666 14.6707C25.489 14.6483 25.5189 14.6259 25.5414 14.6035C25.5787 14.5736 25.332 14.7455 25.4815 14.6558C25.5488 14.6109 25.631 14.581 25.6983 14.5362C25.6983 14.5362 25.4591 14.6184 25.5862 14.581C25.6012 14.581 25.6235 14.5661 25.6385 14.5586C25.6833 14.5437 25.7282 14.5287 25.7731 14.5212C25.8329 14.5063 25.9076 14.5063 25.96 14.4839C25.9301 14.4988 25.7432 14.4988 25.9002 14.4988C25.9375 14.4988 25.9824 14.4988 26.0197 14.4988C26.0496 14.4988 26.0795 14.4988 26.1094 14.4988C26.2291 14.4988 25.9226 14.4614 26.0422 14.4839C26.102 14.4988 26.1543 14.5063 26.2141 14.5212C26.2664 14.5362 26.3487 14.581 26.4085 14.581C26.4085 14.581 26.2366 14.4988 26.3263 14.5437C26.3711 14.5661 26.416 14.5885 26.4533 14.6109C26.5057 14.6408 26.558 14.6707 26.6028 14.7006C26.6402 14.7231 26.8122 14.8502 26.7 14.7679C26.5879 14.6857 26.7673 14.8277 26.7897 14.8502C26.8421 14.895 26.8869 14.9473 26.9392 14.9922C26.9841 15.0445 27.0289 15.0968 27.0738 15.1492C27.1785 15.2688 26.9616 14.9922 27.0962 15.1716C27.171 15.2837 27.2457 15.3959 27.313 15.508C27.3504 15.5678 27.3803 15.6276 27.4102 15.6949C27.4177 15.7173 27.4326 15.7397 27.4401 15.7547C27.4924 15.8668 27.4102 15.6874 27.4027 15.665C27.4251 15.7846 27.4849 15.8967 27.5148 16.0088C27.5298 16.0686 27.5373 16.1284 27.5448 16.1808C27.5448 16.1808 27.5298 15.964 27.5223 16.0462C27.5223 16.0761 27.5223 16.121 27.5223 16.1509C27.5223 16.2032 27.5223 16.2481 27.5223 16.3004C27.5223 16.4947 27.5746 16.0836 27.5223 16.2705C27.5074 16.3228 27.4924 16.3826 27.4775 16.4349C27.4251 16.6069 27.5597 16.2854 27.4924 16.3976C27.47 16.4349 27.4177 16.5022 27.4027 16.5471C27.4027 16.5321 27.5597 16.3677 27.4625 16.4723C27.4401 16.4947 27.4177 16.5172 27.3952 16.5396C27.3504 16.5845 27.2756 16.6218 27.2457 16.6742C27.2457 16.6742 27.4027 16.562 27.3279 16.6144C27.2906 16.6368 27.2532 16.6667 27.2158 16.6891C27.156 16.7265 27.0962 16.7564 27.0364 16.7863C27.0065 16.8012 26.8794 16.8536 26.999 16.8087C27.1336 16.7564 26.9318 16.8311 26.9243 16.8386C26.4758 17.0031 26.1319 17.4591 26.2889 17.9524C26.4309 18.386 26.9318 18.7598 27.4027 18.5879L27.4326 18.6103Z" fill="#222222"/>
<path d="M28.2999 7.9656C30.2061 6.90409 30.1612 5.37911 29.1745 4.36246C28.255 3.42056 26.4758 2.87485 24.9658 3.78685C23.7025 4.55682 23.6053 5.77531 24.0389 6.70973C24.4575 7.61426 25.4442 8.32442 26.6926 8.3618C27.2608 8.38422 27.799 8.23471 28.2999 7.95812V7.9656Z" fill="#222222"/>
<path d="M28.7634 8.75036C30.0342 8.02524 30.9985 6.7918 30.692 5.26682C30.4229 3.92125 29.1296 2.94197 27.8738 2.58315C26.2591 2.11968 24.3902 2.63548 23.4109 4.03338C22.5662 5.23692 22.8727 6.83666 23.7623 7.90564C24.9733 9.37082 27.1486 9.61751 28.7708 8.74288C29.1894 8.51862 29.3539 7.90564 29.0997 7.50197C28.8231 7.07587 28.3073 6.93383 27.8588 7.17305C27.7766 7.2179 27.7018 7.25528 27.6196 7.29265C27.7841 7.2179 27.5224 7.33003 27.5074 7.33003C27.3654 7.37489 27.2309 7.41226 27.0814 7.43469C27.2458 7.40479 27.0589 7.43469 27.0141 7.43469C26.9393 7.43469 26.8646 7.44216 26.7898 7.44216C26.7076 7.44216 26.6254 7.43469 26.5357 7.43469C26.3413 7.43469 26.6702 7.47206 26.4609 7.42721C26.3338 7.39731 26.2142 7.37488 26.0871 7.33751C26.0124 7.31508 25.9451 7.29265 25.8778 7.26275C26.0796 7.33003 25.8629 7.25528 25.8255 7.24033C25.7208 7.188 25.6162 7.1282 25.5115 7.06092C25.5115 7.06092 25.3172 6.92636 25.4293 7.00859C25.534 7.07587 25.3321 6.91889 25.3097 6.90394C25.2275 6.82918 25.1527 6.73948 25.0705 6.65725C24.921 6.50026 25.1677 6.81423 25.0481 6.62735C25.0256 6.58997 24.9957 6.55259 24.9733 6.51521C24.9285 6.44793 24.779 6.25357 24.7939 6.17135C24.7939 6.17135 24.8686 6.38813 24.8163 6.22367C24.7939 6.14892 24.764 6.07417 24.7491 5.99194C24.7416 5.95456 24.7266 5.91718 24.7191 5.87233C24.6743 5.65554 24.7416 5.87233 24.7191 5.87233C24.7266 5.87233 24.7117 5.61069 24.7117 5.57331C24.7191 5.34905 24.7116 5.57331 24.7042 5.57331C24.7042 5.57331 24.7191 5.46866 24.7266 5.45371C24.7416 5.3939 24.7565 5.3341 24.7715 5.2743C24.7864 5.23692 24.7939 5.19207 24.8088 5.15469C24.764 5.26682 24.749 5.28925 24.7789 5.22944C24.8462 5.13974 24.906 5.02013 24.9584 4.91548C24.8686 5.06499 24.906 4.97528 24.9434 4.9379C24.9957 4.88558 25.0406 4.83325 25.0929 4.78092C25.1452 4.72859 25.205 4.67626 25.2648 4.63141C25.2349 4.65384 25.1303 4.72112 25.2723 4.63141C25.4218 4.53423 25.5639 4.452 25.7209 4.37725C25.5564 4.45948 25.8031 4.34735 25.818 4.33987C25.8853 4.31745 25.9526 4.29502 26.0198 4.28007C26.0871 4.26512 26.1544 4.24269 26.2217 4.23522C26.2516 4.23522 26.5132 4.19784 26.2964 4.22027C26.431 4.21279 26.5581 4.19784 26.6927 4.20531C26.7749 4.20531 26.8496 4.21279 26.9319 4.22027C27.1262 4.22774 26.7898 4.18289 26.9991 4.22774C27.1262 4.25764 27.2533 4.28007 27.3729 4.31745C27.4476 4.33987 27.515 4.3623 27.5897 4.38473C27.6196 4.39968 27.8513 4.49686 27.6495 4.40715C27.8962 4.51928 28.1205 4.65384 28.3372 4.81082C28.1578 4.67627 28.4344 4.90053 28.4718 4.9379C28.5466 5.00518 28.6064 5.08741 28.6736 5.16217C28.5615 4.99023 28.8082 5.31168 28.6736 5.16217C28.7036 5.20702 28.7334 5.25187 28.7634 5.3042C28.7783 5.3341 28.8007 5.37148 28.8156 5.40138C28.9352 5.62564 28.7858 5.28177 28.8381 5.43128C28.868 5.53594 28.8979 5.63312 28.9278 5.73777C28.9652 5.8798 28.9128 5.67049 28.9203 5.65554C28.9054 5.71534 28.9353 5.80505 28.9278 5.86485C28.9278 5.9097 28.9203 5.95456 28.9278 5.99941C28.9278 6.07416 28.9278 6.03679 28.9428 5.89475C28.9428 5.93213 28.9278 5.96951 28.9203 5.99941C28.9054 6.05174 28.8904 6.10407 28.8755 6.1564L28.8605 6.20872C28.8232 6.29843 28.8381 6.28348 28.8904 6.14892C28.8904 6.14892 28.7334 6.42551 28.711 6.46289C28.5989 6.64229 28.8456 6.32833 28.6961 6.48531C28.6512 6.53764 28.6063 6.58997 28.554 6.63482C28.5017 6.68715 28.4493 6.73948 28.397 6.78433C28.3522 6.8217 28.2176 6.92636 28.3447 6.83666C28.1877 6.95626 28.0158 7.06092 27.8438 7.1581C27.4327 7.38984 27.2533 7.99535 27.5149 8.39902C27.784 8.81764 28.3148 8.97462 28.7559 8.72793L28.7634 8.75036Z" fill="#222222"/>
</svg>
