<svg width="21" height="21" viewBox="0 0 21 21" fill="none" xmlns="http://www.w3.org/2000/svg">
<path d="M14.0212 18.9226H6.94599C5.43867 18.9226 4.2123 17.6962 4.2123 16.1889V9.42949C4.2123 7.92217 5.43867 6.6958 6.94599 6.6958H14.0212C15.5285 6.6958 16.7549 7.92217 16.7549 9.42949V16.1889C16.7549 17.6962 15.5285 18.9226 14.0212 18.9226ZM6.94599 8.52715C6.44765 8.52715 6.0416 8.9332 6.0416 9.43154V16.1909C6.0416 16.6893 6.44765 17.0953 6.94599 17.0953H14.0212C14.5195 17.0953 14.9256 16.6893 14.9256 16.1909V9.42949C14.9256 8.93115 14.5195 8.5251 14.0212 8.5251H6.94599V8.52715ZM18.7503 15.5777C18.2458 15.5777 17.8356 15.1676 17.8356 14.6631V10.9573C17.8356 10.4528 18.2458 10.0427 18.7503 10.0427C19.2548 10.0427 19.6649 10.4528 19.6649 10.9573V14.6631C19.6649 15.1696 19.2548 15.5777 18.7503 15.5777ZM2.29072 15.5777C1.78622 15.5777 1.37607 15.1676 1.37607 14.6631V10.9573C1.37607 10.4528 1.78622 10.0427 2.29072 10.0427C2.79521 10.0427 3.20537 10.4528 3.20537 10.9573V14.6631C3.20537 15.1696 2.79726 15.5777 2.29072 15.5777Z" fill="#799ADA"/>
<path d="M10.4836 8.5272C9.9791 8.5272 9.56894 8.11704 9.56894 7.61255V4.90757C9.56894 4.40308 9.9791 3.99292 10.4836 3.99292C10.9881 3.99292 11.3982 4.40308 11.3982 4.90757V7.61255C11.3982 8.11704 10.9881 8.5272 10.4836 8.5272Z" fill="#799ADA"/>
<path d="M10.4836 5.67251C9.4746 5.67251 8.65429 4.8522 8.65429 3.84321C8.65429 2.83423 9.4746 2.01392 10.4836 2.01392C11.4926 2.01392 12.3129 2.83423 12.3129 3.84321C12.3129 4.8522 11.4926 5.67251 10.4836 5.67251ZM8.18261 13.8531C7.60634 13.8531 7.13876 13.3855 7.13876 12.8092C7.13876 12.233 7.60634 11.7654 8.18261 11.7654C8.75888 11.7654 9.22646 12.233 9.22646 12.8092C9.22646 13.3855 8.75888 13.8531 8.18261 13.8531ZM12.7743 13.8531C12.198 13.8531 11.7305 13.3855 11.7305 12.8092C11.7305 12.233 12.198 11.7654 12.7743 11.7654C13.3506 11.7654 13.8182 12.233 13.8182 12.8092C13.8182 13.3855 13.3506 13.8531 12.7743 13.8531Z" fill="#799ADA"/>
</svg>
