<svg width="223" height="46" viewBox="0 0 223 46" fill="none" xmlns="http://www.w3.org/2000/svg">
<rect width="223" height="46" rx="23" fill="#FAE0E0"/>
<path d="M17.0225 21.1357C18.0628 20.1286 18.7435 18.5155 19.0645 16.2964L20.3677 16.5786C20.4507 16.5897 20.4977 16.6201 20.5088 16.6699C20.5088 16.7031 20.4728 16.7363 20.4009 16.7695C20.2459 16.8581 20.0938 17.0324 19.9443 17.2925C19.8669 17.5194 19.8005 17.702 19.7451 17.8403C20.4424 18.521 21.029 19.1546 21.5049 19.7412L20.6748 20.4053C20.293 19.8408 19.8696 19.2985 19.4048 18.7783C19.3218 19.0052 18.9123 19.9321 18.1763 21.5591C17.8166 21.382 17.432 21.2409 17.0225 21.1357ZM18.3672 22.8706H20.8325V22.3975C20.8325 21.988 20.7965 21.6532 20.7246 21.3931L22.0859 21.584C22.18 21.5951 22.2271 21.6227 22.2271 21.667C22.2381 21.7002 22.2021 21.7445 22.1191 21.7998C21.9365 21.9714 21.8231 22.2038 21.7788 22.4971V22.8706H25.0244C25.5723 22.8706 25.9928 22.8374 26.2861 22.771V23.8252C25.9707 23.7588 25.5501 23.7256 25.0244 23.7256H21.7788V27.0874C21.7788 27.6519 21.8148 28.1554 21.8867 28.5981H20.7246C20.7965 28.1831 20.8325 27.6685 20.8325 27.0542V23.7256H18.3838C17.8138 23.7256 17.3877 23.7588 17.1055 23.8252V22.771C17.4209 22.8374 17.8415 22.8706 18.3672 22.8706ZM19.8281 13.3994L20.4922 12.7021C21.1839 13.2721 21.8341 13.856 22.4429 14.4536L21.8701 15.0679H24.7256C25.1904 15.0679 25.6027 15.0347 25.9624 14.9683V16.0225C25.5861 15.9561 25.1738 15.9229 24.7256 15.9229H18.6909C18.1873 15.9229 17.7612 15.9561 17.4126 16.0225V14.9683C17.728 15.0347 18.1403 15.0679 18.6494 15.0679H21.5464C21.0428 14.4591 20.4701 13.903 19.8281 13.3994ZM21.2559 20.8618C22.1523 19.8547 22.7057 18.3328 22.916 16.2964L24.0947 16.4956C24.2884 16.5288 24.3853 16.562 24.3853 16.5952C24.4074 16.6229 24.3493 16.681 24.2109 16.7695C23.9951 16.9411 23.8595 17.1403 23.8042 17.3672C23.7489 17.6715 23.6908 17.915 23.6299 18.0977C24.4268 18.9222 25.1296 19.7025 25.7383 20.4385L24.8584 21.1855C24.471 20.4827 23.9619 19.8159 23.3311 19.1851C23.0433 19.9764 22.7528 20.6488 22.4595 21.2021C22.133 21.0583 21.7318 20.9448 21.2559 20.8618ZM15.5117 15.7651H14.7231C14.3192 17.1265 13.8792 18.2249 13.4033 19.0605H15.2046C15.7248 19.0605 16.1896 19.0273 16.5991 18.9609C16.5272 19.2321 16.4912 19.6914 16.4912 20.3389V24.9292C16.4912 25.5324 16.5272 25.9917 16.5991 26.3071H15.437C15.509 26.036 15.5449 25.5877 15.5449 24.9624H13.6523V25.2363C13.6523 25.7786 13.6883 26.2546 13.7603 26.6641H12.5981C12.6701 26.2878 12.7061 25.8118 12.7061 25.2363V20.2061C12.2301 20.848 11.8843 21.299 11.6685 21.5591C11.5854 21.5037 11.472 21.4318 11.3281 21.3433C11.0072 21.1385 10.7526 20.9863 10.5645 20.8867C12.125 19.5807 13.1709 17.8735 13.7021 15.7651H12.3325C11.8179 15.7651 11.3973 15.7983 11.0708 15.8647V14.8105C11.3309 14.8825 11.7459 14.9185 12.3159 14.9185H15.5117C16.1204 14.9185 16.5327 14.8825 16.7485 14.8105V15.8647C16.4331 15.7983 16.0208 15.7651 15.5117 15.7651ZM13.6523 19.8823V24.1489H15.5449V19.8823H13.6523ZM28.104 27.3779C29.5539 26.4925 30.4614 25.4494 30.8267 24.2485C31.2694 23.092 31.4797 20.9172 31.4575 17.7241V15.5825C31.4575 15.1398 31.452 14.7995 31.4409 14.5615C31.4132 14.3125 31.3717 13.95 31.3164 13.4741L32.6113 13.7065C32.805 13.7397 32.9019 13.7868 32.9019 13.8477C32.9129 13.8919 32.8271 13.9943 32.6445 14.1548C32.484 14.2987 32.4038 14.6556 32.4038 15.2256V17.2593H36.7949V14.5947C36.806 14.0967 36.77 13.5295 36.687 12.8931L38.0483 13.0591C38.1978 13.0868 38.278 13.1338 38.2891 13.2002C38.278 13.2887 38.1978 13.3911 38.0483 13.5073C37.8325 13.6291 37.7301 14.0081 37.7412 14.6445V17.2593H40.5303C40.9619 17.2703 41.4102 17.2371 41.875 17.1597V18.2139C41.3438 18.1364 40.9066 18.1032 40.5635 18.1143H32.4038C32.4038 18.7562 32.3983 19.2819 32.3872 19.6914C32.3872 20.1562 32.3761 20.6377 32.354 21.1357H37.3677C37.8325 21.1468 38.3389 21.1136 38.8867 21.0361C38.8037 21.4678 38.7677 21.8939 38.7788 22.3145V26.8135C38.7677 27.1676 38.8037 27.6436 38.8867 28.2412H37.7246C37.7689 27.959 37.7965 27.7349 37.8076 27.5688C37.8242 27.4084 37.8325 27.1621 37.8325 26.8301V21.9907H32.3042C32.2157 24.1987 31.2196 26.2269 29.3159 28.0752C28.9285 27.721 28.5246 27.4886 28.104 27.3779ZM50.0679 22.0737L51.2383 22.6548C51.3656 22.7101 51.4181 22.7599 51.396 22.8042C51.3849 22.8374 51.2992 22.8817 51.1387 22.937C50.9782 23.009 50.7458 23.2663 50.4414 23.709C49.39 25.2585 47.9844 26.8052 46.2246 28.3491L44.9878 27.5605C47.1405 26.4427 48.8338 24.6138 50.0679 22.0737ZM53.7451 22.7876L54.6416 22.0737C56.6117 23.9442 58.3576 25.7399 59.8794 27.4609L58.9414 28.2744C57.6077 26.4427 55.8757 24.6138 53.7451 22.7876ZM47.8433 14.0801C48.2749 14.1631 48.654 14.1991 48.9805 14.188H56.3101C56.6255 14.1991 57.0212 14.1631 57.4971 14.0801C57.4196 14.5007 57.3864 14.8825 57.3975 15.2256V20.0981C57.3864 20.4191 57.4196 20.7926 57.4971 21.2188C57.0654 21.1413 56.6808 21.1081 56.3433 21.1191H49.0469C48.6872 21.1081 48.286 21.1413 47.8433 21.2188C47.9207 20.8037 47.9539 20.4302 47.9429 20.0981V15.209C47.9539 14.888 47.9207 14.5117 47.8433 14.0801ZM56.4429 20.2725V15.0347H48.8975V20.2725H56.4429ZM61.8799 21.5093V20.4551C62.4831 20.527 62.9535 20.563 63.291 20.563H75.5679C75.8722 20.5519 76.3149 20.516 76.896 20.4551V21.5093C76.326 21.4539 75.8833 21.4207 75.5679 21.4097H69.9897V23.4683H73.5425C73.8524 23.4572 74.2896 23.424 74.854 23.3687V24.4229C74.3006 24.3509 73.8634 24.3149 73.5425 24.3149H69.9897V26.8301C70.759 26.891 71.5946 26.9214 72.4966 26.9214C72.8009 26.9214 73.1855 26.9159 73.6504 26.9048C75.1113 26.855 76.3066 26.7692 77.2363 26.6475C76.9873 26.974 76.8407 27.3807 76.7964 27.8677C75.6177 27.9175 74.4722 27.9424 73.3599 27.9424C72.6515 27.9424 72.04 27.9341 71.5254 27.9175C68.8857 28.0116 66.805 27.1123 65.2832 25.2197C64.5693 26.6585 63.8001 27.7847 62.9756 28.5981C62.6325 28.2495 62.2562 27.9451 61.8467 27.6851C63.208 27.2202 64.2982 25.4909 65.1172 22.4971L66.3042 22.9204C66.4425 22.9647 66.5173 23.0117 66.5283 23.0615C66.5394 23.1058 66.4813 23.1611 66.354 23.2275C66.0386 23.3659 65.8172 23.7062 65.6899 24.2485C66.5754 25.5158 67.6932 26.3265 69.0435 26.6807V21.4097H63.291C62.9202 21.4207 62.4499 21.4539 61.8799 21.5093ZM74.2397 13.5405C74.1844 14.188 74.1512 14.6971 74.1401 15.0679V18.0063C74.1512 18.3052 74.1844 18.7894 74.2397 19.459C73.5259 19.387 72.978 19.3511 72.5962 19.3511H66.5615C66.1188 19.3511 65.5184 19.387 64.7603 19.459C64.8156 18.7894 64.8488 18.2775 64.8599 17.9233V15.0845C64.8488 14.6418 64.8156 14.1271 64.7603 13.5405C65.4132 13.5959 65.9611 13.6291 66.4038 13.6401H72.563C72.9338 13.6401 73.4927 13.6069 74.2397 13.5405ZM65.8145 16.8359V18.5376H73.1855V16.8359H65.8145ZM65.8145 14.4536V16.0225H73.1855V14.4536H65.8145ZM82.8809 25.9668C84.2145 24.9486 85.2466 23.2718 85.9771 20.9365L87.2969 21.5591C87.402 21.62 87.4491 21.6781 87.438 21.7334C87.4159 21.7998 87.3411 21.8441 87.2139 21.8662C86.998 21.9492 86.7878 22.1927 86.583 22.5967C85.9964 23.9248 85.1912 25.2861 84.1675 26.6807C83.7746 26.3984 83.3457 26.1605 82.8809 25.9668ZM86.4668 12.6357L87.8945 13.0425C88.0329 13.0812 88.0938 13.1172 88.0771 13.1504C88.0771 13.1836 88.0107 13.2445 87.8779 13.333C87.6953 13.4271 87.5431 13.654 87.4214 14.0137C87.2056 14.6501 86.9538 15.3141 86.666 16.0059H92.2275C92.7256 16.0059 93.2347 15.9699 93.7549 15.8979C93.5169 16.8885 93.1268 18.0506 92.5845 19.3843C92.1528 19.2736 91.724 19.2072 91.2979 19.1851C91.724 18.4712 92.0615 17.6937 92.3105 16.8525H86.2759C85.7004 18.0312 85.0557 19.0854 84.3418 20.0151C83.9102 19.8104 83.4287 19.6637 82.8975 19.5752C84.7458 18.0312 85.9355 15.7181 86.4668 12.6357ZM86.5498 28.6147C86.5055 28.1056 86.3921 27.6131 86.2095 27.1372C86.8846 27.2977 87.391 27.3779 87.7285 27.3779C87.8613 27.3779 87.9609 27.3669 88.0273 27.3447C88.2985 27.2894 88.423 27.0099 88.4009 26.5063V19.9321C88.4009 19.4451 88.3677 18.889 88.3013 18.2637L89.5796 18.438C89.7013 18.4491 89.7622 18.4712 89.7622 18.5044C89.7733 18.5376 89.729 18.5985 89.6294 18.687C89.4468 18.8364 89.3555 19.2515 89.3555 19.9321V26.8467C89.3776 27.6325 89.231 28.1029 88.9155 28.2578C88.6444 28.4626 87.8558 28.5815 86.5498 28.6147ZM91.3311 21.1191C92.4378 22.5801 93.4561 24.0382 94.3857 25.4937L93.3647 26.2573C92.4351 24.647 91.4334 23.1667 90.3599 21.8164L91.3311 21.1191ZM78.4399 19.8325C80.1665 18.366 81.4199 16.0418 82.2002 12.8599L83.437 13.3496C83.6196 13.4215 83.7054 13.4741 83.6943 13.5073C83.7165 13.5405 83.6556 13.5959 83.5117 13.6733C83.3291 13.7674 83.152 14.0275 82.9805 14.4536C82.6318 15.339 82.3385 16.0197 82.1006 16.4956V26.9546C82.1006 27.4637 82.1338 28.0226 82.2002 28.6313H81.0464C81.1128 28.0448 81.146 27.4858 81.146 26.9546V18.3799C80.6369 19.2321 80.1942 19.9238 79.8179 20.4551C79.4194 20.2282 78.9601 20.0207 78.4399 19.8325ZM107.883 18.8613V17.3838H99.6899C99.3302 17.3727 98.9401 17.4059 98.5195 17.4834V16.396C98.8682 16.4735 99.2472 16.5067 99.6567 16.4956H107.883V15.1343H98.7437C98.4006 15.1232 98.0353 15.1592 97.6479 15.2422V14.1548C98.0685 14.2323 98.4199 14.2655 98.7021 14.2544H107.526C107.913 14.2655 108.395 14.2323 108.97 14.1548C108.893 14.7082 108.86 15.1647 108.871 15.5244V18.4878C108.86 18.9969 108.893 19.4507 108.97 19.8491C108.384 19.7661 107.88 19.7301 107.459 19.7412H103.417L104.33 20.0483C104.479 20.1037 104.549 20.1562 104.538 20.2061C104.549 20.2503 104.468 20.3278 104.297 20.4385C104.059 20.61 103.934 20.8092 103.923 21.0361C103.89 21.3848 103.84 21.797 103.774 22.2729C105.334 25.062 107.8 26.7305 111.17 27.2783C110.749 27.6491 110.442 28.0282 110.249 28.4155C106.873 27.3586 104.607 25.7316 103.45 23.5347C102.758 25.6763 100.581 27.342 96.9175 28.5317C96.6906 28.1222 96.3918 27.7598 96.021 27.4443C100.653 26.7083 102.969 24.3315 102.969 20.314C102.969 20.1424 102.963 19.9515 102.952 19.7412H98.7769C98.4338 19.7301 98.0519 19.7661 97.6313 19.8491V18.7617C98.0519 18.8392 98.4089 18.8724 98.7021 18.8613H107.883ZM97.5981 24.3149C98.4282 23.5347 99.001 22.4473 99.3164 21.0527L100.495 21.3599C100.595 21.382 100.645 21.4207 100.645 21.4761C100.633 21.5203 100.57 21.5895 100.454 21.6836C100.299 21.8053 100.158 22.0101 100.03 22.2979C99.7038 23.0339 99.3081 23.8197 98.8433 24.6553C98.478 24.5003 98.063 24.3869 97.5981 24.3149ZM106.065 23.6675C106.984 22.6382 107.62 21.6255 107.974 20.6294L109.161 21.3267C109.288 21.3931 109.344 21.4484 109.327 21.4927C109.316 21.5259 109.222 21.5785 109.045 21.6504C108.829 21.75 108.641 21.9022 108.48 22.1069C108.027 22.8651 107.567 23.5679 107.103 24.2153L106.065 23.6675ZM115.163 19.5254H114.092C113.704 19.5365 113.251 19.5697 112.73 19.625V18.5708C113.251 18.6261 113.704 18.6593 114.092 18.6704H117.13C117.484 18.6593 117.949 18.6261 118.524 18.5708V19.625C117.96 19.5586 117.509 19.5254 117.171 19.5254H115.536L116.333 19.8657C116.527 19.9432 116.618 19.9985 116.607 20.0317C116.618 20.0649 116.527 20.1286 116.333 20.2227C116.117 20.2891 115.926 20.527 115.76 20.9365C115.069 22.3753 114.46 23.6149 113.934 24.6553C114.593 24.5557 115.42 24.4256 116.416 24.2651C116.859 24.1877 117.166 24.1379 117.337 24.1157C117.088 23.4683 116.754 22.8153 116.333 22.1567L117.205 21.7334C117.758 22.6963 118.3 23.875 118.832 25.2695L117.918 25.7095C117.858 25.4272 117.761 25.1284 117.628 24.813C115.757 25.1063 114.324 25.4466 113.328 25.834C113.19 25.3525 112.991 24.9486 112.73 24.6221C113.118 24.4505 113.395 24.1683 113.561 23.7754C113.948 22.9896 114.346 22.0544 114.756 20.9697C114.938 20.5381 115.074 20.0566 115.163 19.5254ZM113.262 16.0225V14.9683C113.826 15.0347 114.277 15.0679 114.615 15.0679H116.723C117.133 15.0568 117.597 15.0236 118.118 14.9683V16.0225C117.597 15.9671 117.144 15.9339 116.756 15.9229H114.615C114.189 15.9339 113.738 15.9671 113.262 16.0225ZM116.624 27.8677C119.357 26.7609 121.131 24.7161 121.944 21.7334H120.566C120.124 21.7445 119.62 21.7777 119.056 21.833C119.122 21.2021 119.155 20.7152 119.155 20.3721V16.396C119.155 16.0418 119.122 15.5438 119.056 14.9019C119.609 14.9572 120.102 14.9904 120.533 15.0015H120.724C121.211 14.2655 121.562 13.4824 121.778 12.6523L122.774 13.1836C122.979 13.2832 123.076 13.3551 123.065 13.3994C123.076 13.4492 122.985 13.5073 122.791 13.5737C122.614 13.6401 122.456 13.7646 122.318 13.9473C122.185 14.141 121.964 14.4924 121.654 15.0015H124.916C125.259 15.0015 125.821 14.9683 126.601 14.9019C126.546 15.5106 126.513 15.992 126.501 16.3462V20.3887C126.501 20.6156 126.535 21.097 126.601 21.833C125.843 21.7666 125.259 21.7334 124.85 21.7334H122.949L122.899 22.1069L124.003 22.2397C124.152 22.2508 124.233 22.2868 124.244 22.3477C124.255 22.3919 124.202 22.4583 124.086 22.5469C123.903 22.6299 123.823 22.9425 123.845 23.4849V26.6475C123.834 26.974 123.914 27.1704 124.086 27.2368C124.257 27.342 124.648 27.3945 125.256 27.3945C125.871 27.3945 126.275 27.3558 126.468 27.2783C126.684 27.2174 126.869 27.0459 127.024 26.7637C127.13 26.57 127.226 26.2352 127.315 25.7593C127.553 26.1466 127.877 26.3791 128.286 26.4565C128.037 27.2866 127.719 27.793 127.332 27.9756C126.994 28.2025 126.219 28.3159 125.007 28.3159C123.596 28.3602 122.891 27.9645 122.891 27.1289C122.891 27.0791 122.893 27.0265 122.899 26.9712V23.4849C122.888 23.1694 122.852 22.7959 122.791 22.3643C122.149 24.6995 120.489 26.8135 117.811 28.7061C117.562 28.363 117.166 28.0835 116.624 27.8677ZM122.251 18.6538H120.11V20.8867H122.102C122.113 20.682 122.135 20.3638 122.168 19.9321C122.202 19.4341 122.229 19.008 122.251 18.6538ZM120.11 15.8149V17.8403H122.251L122.285 15.8149H120.11ZM123.048 20.8867H125.547V18.6538H123.206C123.167 19.3455 123.115 20.0898 123.048 20.8867ZM123.223 15.8149L123.206 17.8403H125.547V15.8149H123.223ZM126.551 24.3149C126.418 23.9663 126.272 23.6675 126.111 23.4185L126.825 23.0283C127.185 23.7201 127.525 24.4505 127.846 25.2197L127.024 25.5933L126.825 24.9624C125.442 25.1782 124.625 25.3664 124.376 25.5269C124.277 25.1506 124.119 24.8213 123.903 24.5391C124.208 24.3896 124.451 24.1406 124.634 23.792C125.005 23.1113 125.259 22.4473 125.397 21.7998L126.277 22.2231C126.438 22.3062 126.518 22.3643 126.518 22.3975C126.529 22.4307 126.46 22.4749 126.311 22.5303C126.122 22.5967 125.92 22.8346 125.705 23.2441C125.555 23.5153 125.367 23.8722 125.14 24.3149C125.085 24.4201 125.046 24.4948 125.024 24.5391C125.671 24.4727 126.181 24.3979 126.551 24.3149ZM138.006 14.2544V16.1387H142.53C142.896 16.1497 143.299 16.1165 143.742 16.0391C143.659 16.4375 143.623 16.8221 143.634 17.1929V22.2979C143.623 22.6576 143.659 23.0062 143.742 23.3438H142.58C142.663 23.0062 142.699 22.7074 142.688 22.4473H138.006V27.104C137.995 27.5799 138.031 28.0337 138.114 28.4653H136.919C137.002 28.0558 137.038 27.6131 137.027 27.1372V22.4473H132.403C132.392 22.8346 132.425 23.2248 132.503 23.6177H131.349C131.427 23.2137 131.46 22.8014 131.449 22.3809V17.1597C131.46 16.8332 131.427 16.4596 131.349 16.0391C131.825 16.1165 132.232 16.1497 132.569 16.1387H137.027V14.2046C137.038 13.7508 137.002 13.2749 136.919 12.7769L138.214 12.9429C138.341 12.9539 138.41 12.9816 138.421 13.0259C138.432 13.048 138.38 13.1117 138.264 13.2168C138.07 13.3275 137.984 13.6733 138.006 14.2544ZM137.027 17.0269H132.403V21.5591H137.027V17.0269ZM138.006 17.0269V21.5591H142.688V17.0269H138.006ZM153.637 18.8779C155.064 17.5166 156.033 15.4884 156.542 12.7935L157.762 13.2168C157.923 13.2721 157.992 13.3219 157.97 13.3662C157.97 13.4271 157.878 13.5239 157.696 13.6567C157.535 13.7619 157.405 13.9611 157.306 14.2544C157.023 15.0568 156.747 15.7817 156.476 16.4292H159.871C160.28 16.4292 160.756 16.396 161.298 16.3296C161.232 17.0435 161.199 17.6273 161.199 18.0811L161.116 25.9502C161.127 26.8688 160.894 27.4914 160.418 27.8179C159.965 28.1831 159.018 28.4377 157.58 28.5815C157.53 28.1665 157.358 27.7321 157.065 27.2783C157.469 27.3171 157.831 27.3364 158.152 27.3364C158.739 27.3364 159.176 27.27 159.464 27.1372C159.907 26.9435 160.128 26.5312 160.128 25.9004L160.261 17.2759H156.135C155.726 18.0506 155.3 18.7783 154.857 19.459C154.436 19.2155 154.03 19.0218 153.637 18.8779ZM155.521 20.6958L156.334 20.0151C157.22 20.9338 158.111 21.9714 159.007 23.1279L158.069 23.8418C157.322 22.6852 156.473 21.6366 155.521 20.6958ZM148.938 28.125H147.851C147.923 27.4333 147.959 26.9242 147.959 26.5977V18.0977C147.959 17.6771 147.923 17.1154 147.851 16.4126C148.294 16.479 148.742 16.5122 149.196 16.5122C149.672 15.2671 150.007 14.0607 150.2 12.8931L151.404 13.2168C151.575 13.2611 151.661 13.3109 151.661 13.3662C151.672 13.4382 151.603 13.5184 151.454 13.6069C151.238 13.7453 151.08 13.9722 150.98 14.2876C150.709 15.0457 150.433 15.7873 150.15 16.5122H152.001C152.488 16.5122 153.003 16.479 153.545 16.4126C153.479 17.0933 153.446 17.6549 153.446 18.0977V26.2075C153.446 26.5783 153.479 27.0487 153.545 27.6187H152.408C152.464 27.2645 152.497 26.9408 152.508 26.6475H148.839C148.839 27.0293 148.872 27.5218 148.938 28.125ZM148.872 21.9907V25.7925H152.524V21.9907H148.872ZM148.872 17.3672V21.1689H152.524V17.3672H148.872ZM164.004 21.0527V19.8657C164.641 19.9321 165.208 19.9653 165.706 19.9653H177.244C177.764 19.9653 178.304 19.9321 178.863 19.8657V21.0527C178.315 20.9863 177.764 20.9531 177.211 20.9531H165.723C164.987 20.9421 164.414 20.9753 164.004 21.0527ZM180.747 24.9292C182.108 23.7616 183.107 21.1883 183.744 17.2095L185.221 17.6909C185.321 17.7241 185.365 17.7573 185.354 17.7905C185.354 17.8348 185.299 17.8901 185.188 17.9565C184.856 18.1502 184.618 18.5819 184.474 19.2515C183.893 21.6642 183.099 23.709 182.092 25.3857C181.649 25.1921 181.201 25.0399 180.747 24.9292ZM186.541 28.5483C186.419 27.9507 186.234 27.4803 185.985 27.1372C186.527 27.2257 186.956 27.27 187.271 27.27C187.487 27.27 187.653 27.2479 187.77 27.2036C188.063 27.1261 188.204 26.8605 188.193 26.4067V14.5947C188.182 14.1963 188.149 13.6678 188.093 13.0093L189.421 13.2002C189.532 13.2223 189.593 13.25 189.604 13.2832C189.615 13.3164 189.576 13.3745 189.488 13.4575C189.283 13.6125 189.181 13.9694 189.181 14.5283V27.0044C189.203 27.5246 189.051 27.8704 188.724 28.042C188.425 28.2357 187.698 28.4045 186.541 28.5483ZM191.779 17.9731L192.833 17.4502C194.084 19.863 195.138 22.248 195.996 24.6055L194.941 25.1367C194.15 22.5524 193.096 20.1646 191.779 17.9731ZM198.478 27.6685C200.326 26.3403 201.211 24.3841 201.134 21.7998V18.7036C201.134 18.2886 201.098 17.8874 201.026 17.5C200.677 17.8265 200.243 18.189 199.723 18.5874C199.451 18.2388 199.089 17.9399 198.635 17.6909C200.727 16.6229 202.324 14.9489 203.425 12.6689L204.595 13.25C204.756 13.3275 204.83 13.3911 204.819 13.4409C204.819 13.4741 204.734 13.5129 204.562 13.5571C204.396 13.5903 204.233 13.7093 204.072 13.9141C204.028 13.9583 203.995 14.0303 203.973 14.1299C203.962 14.2461 203.926 14.3319 203.865 14.3872H208.663C209.238 14.3872 209.783 14.354 210.298 14.2876C209.944 14.8078 209.172 15.7153 207.982 17.0103C207.821 17.1652 207.702 17.2897 207.625 17.3838H210.397C210.94 17.3949 211.399 17.3589 211.775 17.2759C211.703 17.7297 211.667 18.2056 211.667 18.7036V26.4067C211.695 27.1538 211.521 27.6242 211.145 27.8179C210.873 28.0337 210.063 28.1693 208.712 28.2246C208.646 27.7155 208.505 27.2617 208.289 26.8633C208.782 26.9518 209.208 26.9961 209.567 26.9961C210.414 26.9961 210.818 27.0459 210.779 27.1455C210.746 27.2507 210.729 26.9767 210.729 26.3237C210.729 26.2739 210.727 26.2297 210.721 26.1909V24.0991H206.72V25.5269C206.72 26.047 206.756 26.5063 206.828 26.9048H205.666C205.738 26.4842 205.774 26.0138 205.774 25.4937V24.0991H201.98C201.72 25.6929 200.951 27.1427 199.673 28.4487C199.33 28.1222 198.931 27.8621 198.478 27.6685ZM208.223 15.209H203.118C202.609 15.8509 201.98 16.5399 201.233 17.2759C201.61 17.3478 202.069 17.3838 202.611 17.3838H206.347C207.049 16.7142 207.675 15.9893 208.223 15.209ZM202.08 23.2773H205.774V21.1191H202.08V23.2773ZM202.08 18.1973V20.3057H205.774V18.1973H202.08ZM206.72 18.1973V20.3057H210.721V18.1973H206.72ZM206.72 23.2773H210.721V21.1191H206.72V23.2773Z" fill="black"/>
</svg>
