<svg width="371" height="44" viewBox="0 0 371 44" fill="none" xmlns="http://www.w3.org/2000/svg">
<rect width="371" height="44" rx="22" fill="#FDFDE4"/>
<path d="M33.8643 15.8071V13.3252C33.2057 13.4359 32.3203 13.5604 31.208 13.6987C30.9368 13.1564 30.6823 12.7607 30.4443 12.5117C30.8317 12.556 31.2246 12.5781 31.623 12.5781C33.2279 12.5781 34.9268 12.2212 36.7197 11.5073L37.3506 12.437C37.417 12.5311 37.4502 12.5975 37.4502 12.6362C37.4502 12.6528 37.4419 12.6694 37.4253 12.686C37.4087 12.7026 37.3755 12.7109 37.3257 12.7109C37.2759 12.7109 37.2095 12.7054 37.1265 12.6943C37.0379 12.6777 36.9577 12.6694 36.8857 12.6694C36.8083 12.6694 36.7363 12.6777 36.6699 12.6943C36.0667 12.8659 35.4608 13.0125 34.8521 13.1343V15.8071H38.6206C38.4491 13.494 38.3411 11.7923 38.2969 10.7021L39.8325 11.0591C39.9432 11.0868 39.9985 11.1227 39.9985 11.167C40.0096 11.2002 39.9653 11.25 39.8657 11.3164C39.6056 11.5212 39.4756 11.8947 39.4756 12.437C39.4867 13.7209 39.5365 14.8442 39.625 15.8071H43.792C44.0632 15.8182 44.409 15.785 44.8296 15.7075V16.7617C44.3537 16.6787 43.9967 16.6427 43.7588 16.6538H39.6748C39.8132 18.3914 40.1037 19.8773 40.5464 21.1113C41.382 19.9548 41.9575 18.6847 42.2729 17.3013L43.5347 18.0151C43.6343 18.0705 43.673 18.1147 43.6509 18.1479C43.6509 18.1867 43.5789 18.2448 43.4351 18.3223C43.2082 18.444 43.02 18.6654 42.8706 18.9863C42.3615 20.0488 41.7334 21.1196 40.9863 22.1987C41.7445 23.964 42.5607 24.938 43.4351 25.1206C43.839 25.187 44.0881 24.6198 44.1821 23.4189C44.5197 23.668 44.8711 23.8617 45.2363 24C44.8213 25.5938 44.3288 26.3906 43.7588 26.3906C43.7035 26.3906 43.6619 26.3879 43.6343 26.3823C42.5164 26.2772 41.4014 25.1759 40.2891 23.0786C39.2708 24.1134 38.0811 25.1068 36.7197 26.0586C36.3324 25.7764 35.8952 25.555 35.4082 25.3945C37.0186 24.7803 38.4989 23.6624 39.8491 22.041C39.3013 20.9232 38.9139 19.1274 38.687 16.6538H34.8521V19.7334C35.9146 19.3571 36.7972 18.978 37.5 18.5962L37.5166 19.6836C36.4264 20.0765 35.5382 20.4168 34.8521 20.7046V24.6807C34.8742 25.3613 34.6916 25.8096 34.3042 26.0254C33.939 26.2633 33.1449 26.41 31.9219 26.4653C31.9329 26.0226 31.825 25.5854 31.5981 25.1538C32.2788 25.259 32.7769 25.3115 33.0923 25.3115C33.2749 25.3115 33.4077 25.2949 33.4907 25.2617C33.7619 25.2008 33.8864 24.938 33.8643 24.4731V21.0947C32.5029 21.5596 31.4709 22.0078 30.7681 22.4395L30.0044 21.3105C31.2938 21.0505 32.5804 20.6437 33.8643 20.0903V16.6538H31.1914C30.8649 16.6427 30.4222 16.6787 29.8633 16.7617V15.7075C30.3392 15.785 30.7708 15.8182 31.1582 15.8071H33.8643ZM40.3887 12.354L41.1191 11.6899C41.9714 12.3927 42.8512 13.1979 43.7588 14.1055L42.9951 14.8857C42.0765 13.8675 41.2077 13.0236 40.3887 12.354ZM46.6143 18.0981C48.1637 16.8088 49.5168 14.4292 50.6733 10.9595L51.8521 11.4575C51.9738 11.5129 52.0347 11.5571 52.0347 11.5903C52.0347 11.6235 51.9738 11.6623 51.8521 11.7065C51.7026 11.7896 51.5892 11.9251 51.5117 12.1133C51.069 13.2477 50.6816 14.1331 50.3496 14.7695V25.1704C50.3496 25.7847 50.3856 26.2661 50.4575 26.6147H49.2954C49.3674 26.2661 49.4033 25.7847 49.4033 25.1704V16.5044C48.9274 17.2957 48.4266 18.0649 47.9009 18.812C47.6076 18.5519 47.1787 18.314 46.6143 18.0981ZM53.9771 26.4321H52.8149C52.8869 26.0558 52.9229 25.5633 52.9229 24.9546V15.583C52.9229 14.9964 52.8869 14.5205 52.8149 14.1553L54.1265 14.313C54.2648 14.3351 54.334 14.3628 54.334 14.396C54.334 14.4403 54.2759 14.5011 54.1597 14.5786C53.9771 14.728 53.8802 15.1541 53.8691 15.8569V24.9712C53.8691 25.591 53.9051 26.078 53.9771 26.4321ZM54.1431 11.2832C54.9123 12.1022 55.5763 12.8742 56.1353 13.5991L55.2139 14.3794C54.738 13.505 54.085 12.7109 53.2549 11.9971L54.1431 11.2832ZM56.6582 13.541V12.4868C57.0234 12.5588 57.4938 12.5947 58.0693 12.5947H60.1445C60.6536 12.5947 61.0659 12.5588 61.3813 12.4868C61.3149 12.7746 61.2817 13.173 61.2817 13.6821V24.9878C61.3149 25.5854 61.1572 25.9701 60.8086 26.1416C60.4434 26.3574 59.6825 26.4985 58.5259 26.5649C58.4595 26.0448 58.2907 25.5799 58.0195 25.1704C58.5397 25.2922 58.9686 25.353 59.3062 25.353C60.0698 25.353 60.4323 25.4111 60.3936 25.5273C60.3548 25.6491 60.3354 25.3475 60.3354 24.6226C60.3354 24.5506 60.3327 24.4953 60.3271 24.4565V13.4414H58.0527C57.5436 13.4414 57.0788 13.4746 56.6582 13.541ZM63.4731 18.4219C66.0575 16.972 67.8366 14.6146 68.8105 11.3496L69.9561 11.7979C70.1221 11.8532 70.1995 11.903 70.1885 11.9473C70.1995 11.9915 70.1221 12.0662 69.9561 12.1714C69.7181 12.2821 69.5023 12.5698 69.3086 13.0347C68.141 15.5636 66.5638 17.6139 64.5771 19.1855C64.2507 18.8812 63.8826 18.6266 63.4731 18.4219ZM64.7847 25.4277C67.9113 24.3763 69.4912 21.922 69.5244 18.0649H68.4038C67.9722 18.0649 67.5018 18.1009 66.9927 18.1729V17.1187C67.4686 17.1851 67.939 17.2183 68.4038 17.2183H73.9653C74.5907 17.2183 75.1689 17.1851 75.7002 17.1187C75.6227 17.672 75.5757 18.1978 75.5591 18.6958L75.4097 21.8252C75.3543 23.6126 75.1164 24.7056 74.6958 25.104C74.3472 25.591 73.4119 25.876 71.8901 25.959C71.7407 25.5273 71.536 25.0902 71.2759 24.6475C71.6909 24.6862 72.0783 24.7056 72.438 24.7056C73.174 24.7056 73.6388 24.606 73.8325 24.4067C74.1922 24.1909 74.3831 23.4162 74.4053 22.0825L74.5796 18.0649H70.6201C70.4928 22.0327 68.888 24.8107 65.8057 26.3989C65.5234 26.0558 65.1831 25.7321 64.7847 25.4277ZM73.4009 10.8267C74.2531 14.0308 76.2259 16.4491 79.3193 18.0815C78.932 18.2752 78.5252 18.5602 78.0991 18.9365C75.4318 17.0107 73.5088 14.3573 72.3301 10.9761L73.4009 10.8267ZM88.0933 21.5347C88.453 21.5015 89.3135 21.0892 90.6748 20.2979H84.5571C84.1366 20.2979 83.6551 20.3311 83.1128 20.3975V19.3765C83.6219 19.4429 84.1034 19.4761 84.5571 19.4761H91.5962C92.0721 19.4761 92.62 19.4429 93.2397 19.3765C92.62 19.9741 91.2559 20.8817 89.1475 22.0991V22.3647H94.5181C94.9386 22.3647 95.3979 22.3315 95.896 22.2651V23.2861C95.4533 23.2197 94.994 23.1865 94.5181 23.1865H89.1475V25.2783C89.1807 25.8981 89.0396 26.2716 88.7241 26.3989C88.4862 26.5649 87.6755 26.695 86.292 26.7891C86.1315 26.3685 85.9268 25.9424 85.6777 25.5107C86.4303 25.5771 86.992 25.6104 87.3628 25.6104C87.5786 25.6104 87.7308 25.5993 87.8193 25.5771C88.1016 25.5439 88.2261 25.3641 88.1929 25.0376V23.1865H82.5981C82.1333 23.1865 81.6353 23.2197 81.104 23.2861V22.2651C81.6242 22.3315 82.1222 22.3647 82.5981 22.3647H88.1929C88.1929 22.1157 88.1597 21.839 88.0933 21.5347ZM87.1387 10.6191C88.2067 11.2445 89.2 11.8615 90.1187 12.4702L89.4878 13.0513H93.8208C94.2635 13.0513 94.7284 13.0181 95.2153 12.9517V13.9727C94.7284 13.9007 94.2635 13.8647 93.8208 13.8647H83.0049C82.612 13.8647 82.1499 13.9007 81.6187 13.9727V12.9517C82.1499 13.0181 82.612 13.0513 83.0049 13.0513H89.0229C88.2537 12.4757 87.3822 11.9251 86.4082 11.3994L87.1387 10.6191ZM83.6523 18.3555C83.7243 17.9128 83.7603 17.506 83.7603 17.1353V16.2139C83.7603 15.8376 83.7243 15.4115 83.6523 14.9355C84.1393 15.0075 84.6097 15.0435 85.0635 15.0435H91.5962C92.0278 15.0435 92.4871 15.0075 92.9741 14.9355C92.9022 15.4115 92.8662 15.8431 92.8662 16.2305V17.2017C92.8662 17.5614 92.9022 17.946 92.9741 18.3555C92.4982 18.2891 92.0721 18.2559 91.6958 18.2559H85.0303C84.5876 18.2559 84.1283 18.2891 83.6523 18.3555ZM84.6733 15.8569V17.4341H91.9531V15.8569H84.6733ZM99.291 22.6221L99.8223 21.9082C101.15 22.849 102.279 23.8976 103.209 25.0542L102.47 25.9175C101.839 24.9103 100.78 23.8118 99.291 22.6221ZM120.666 15.9897H117.76C117.201 15.9897 116.64 16.0866 116.075 16.2803L115.478 15.334C115.843 15.1735 116.114 14.9577 116.291 14.6865C116.916 13.7236 117.406 12.6639 117.76 11.5073L118.98 11.9805C119.097 12.0247 119.146 12.069 119.13 12.1133C119.13 12.152 119.058 12.2046 118.914 12.271C118.687 12.3706 118.493 12.5864 118.333 12.9185C118.018 13.6213 117.65 14.3628 117.229 15.1431H120.898C121.202 13.8205 121.354 12.6501 121.354 11.6318C121.354 11.3939 121.346 11.1642 121.33 10.9429L122.691 11.1504C122.901 11.1725 122.995 11.2057 122.973 11.25C122.984 11.2832 122.865 11.4077 122.616 11.6235C122.461 11.7231 122.359 12.0192 122.309 12.5117C122.154 13.6517 122.019 14.5288 121.902 15.1431H128.277C128.753 15.1431 129.201 15.1099 129.622 15.0435V16.0977C129.179 16.0257 128.731 15.9897 128.277 15.9897H121.703C121.521 16.6261 121.294 17.3234 121.022 18.0815H125.937C126.446 18.0815 126.938 18.0483 127.414 17.9819C126.623 19.9188 125.602 21.5457 124.351 22.8628C126.244 24.119 128.183 24.7913 130.17 24.8799C129.816 25.2562 129.509 25.6878 129.249 26.1748C127.29 25.6989 125.397 24.8162 123.571 23.5269C121.722 24.8273 119.761 25.7957 117.686 26.4321C117.459 26.0448 117.154 25.6712 116.772 25.3115C119.207 24.9242 121.224 24.1024 122.824 22.8462C122.005 22.0161 121.285 21.0754 120.666 20.0239L121.703 19.4595C121.919 20.3781 122.542 21.2912 123.571 22.1987C124.556 21.3133 125.328 20.2148 125.887 18.9033H120.649C119.603 21.1003 118.045 22.9984 115.976 24.5977C115.621 24.3099 115.217 24.0553 114.764 23.834C117.663 22.4007 119.631 19.786 120.666 15.9897ZM124.351 11.9141L125.032 11.1836C126.017 12.0303 126.952 12.8742 127.837 13.7153L127.157 14.4624C126.354 13.6268 125.419 12.7773 124.351 11.9141ZM135.416 25.5605C137.718 24.7249 139.334 23.3664 140.264 21.4849C141.005 20.0129 141.376 18.0954 141.376 15.7324C141.376 15.0739 141.351 14.4181 141.301 13.7651L142.696 14.0225C142.856 14.0446 142.937 14.0723 142.937 14.1055C142.948 14.1387 142.889 14.2023 142.762 14.2964C142.524 14.4292 142.405 14.7446 142.405 15.2427C142.383 16.5376 142.275 17.9377 142.082 19.4429L143.136 19.6172C143.274 19.6393 143.343 19.6781 143.343 19.7334C143.343 19.7777 143.28 19.8468 143.152 19.9409C142.975 20.0184 142.892 20.2896 142.903 20.7544V24.0664C142.854 24.6087 143.097 24.8937 143.634 24.9214C143.872 24.9546 144.198 24.9657 144.613 24.9546C144.979 24.9435 145.216 24.9131 145.327 24.8633C145.941 24.7305 146.226 24.0802 146.182 22.9126C146.553 23.1948 146.96 23.3885 147.402 23.4937C147.054 24.9214 146.409 25.6961 145.468 25.8179C145.197 25.8787 144.879 25.9092 144.514 25.9092C144.182 25.9092 143.814 25.8843 143.41 25.8345C142.369 25.7681 141.882 25.3143 141.949 24.4731V19.8828C141.323 22.6055 139.577 24.7941 136.711 26.4487C136.429 26.1333 135.997 25.8372 135.416 25.5605ZM144.447 12.3042H139.616V18.9033C139.616 19.3405 139.652 19.8551 139.724 20.4473H138.562C138.634 19.8939 138.67 19.3792 138.67 18.9033V12.6777C138.67 12.2904 138.634 11.8366 138.562 11.3164C139.088 11.3828 139.583 11.416 140.048 11.416H143.883C144.397 11.416 144.937 11.3828 145.501 11.3164C145.435 11.8145 145.402 12.2848 145.402 12.7275V18.646C145.402 19.1219 145.435 19.6532 145.501 20.2397H144.348C144.414 19.6974 144.447 19.1662 144.447 18.646V12.3042ZM136.113 12.9517H135.184V16.6704H135.798C136.318 16.6704 136.827 16.6372 137.325 16.5708V17.6582C136.816 17.5918 136.307 17.5586 135.798 17.5586H135.184V22.0244C136.03 21.7533 136.847 21.4212 137.632 21.0283C137.571 21.377 137.519 21.8114 137.475 22.3315C135.189 23.1063 133.451 23.8035 132.262 24.4233L131.548 23.0454C132.223 23.0343 133.117 22.8019 134.229 22.3481V17.5586H133.673C133.23 17.5586 132.735 17.5918 132.187 17.6582V16.5708C132.768 16.6372 133.263 16.6704 133.673 16.6704H134.229V12.9517H133.291C132.876 12.9517 132.383 12.9849 131.813 13.0513V11.9639C132.406 12.0303 132.898 12.0635 133.291 12.0635H136.113C136.606 12.0635 137.09 12.0303 137.566 11.9639V13.0513C137.051 12.9849 136.567 12.9517 136.113 12.9517ZM150.291 22.6221L150.822 21.9082C152.15 22.849 153.279 23.8976 154.209 25.0542L153.47 25.9175C152.839 24.9103 151.78 23.8118 150.291 22.6221ZM172.595 16.8447L173.276 16.1641C173.348 16.2305 173.45 16.3218 173.583 16.438C173.821 16.6372 174.015 16.806 174.164 16.9443C174.336 16.3467 174.455 15.6328 174.521 14.8027L173.708 14.8857C173.536 14.9079 173.179 14.9937 172.637 15.1431L172.952 15.0435H172.96H172.952C172.947 15.0435 172.811 15.0822 172.545 15.1597L172.346 14.1553C172.977 14.1221 173.378 14.0889 173.55 14.0557L174.571 13.9229V12.5117C174.571 11.9307 174.538 11.3911 174.471 10.8931L175.741 11.0591C175.935 11.0868 176.043 11.1227 176.065 11.167C176.087 11.2223 176.032 11.2943 175.899 11.3828C175.705 11.5101 175.597 11.7314 175.575 12.0469C175.52 12.6169 175.492 13.2062 175.492 13.8149L177.393 13.5825C177.631 13.5438 177.966 13.4746 178.397 13.375C178.58 13.3418 178.716 13.3141 178.804 13.292C178.793 13.6849 178.788 14.1387 178.788 14.6533C178.788 16.7451 178.94 18.3582 179.244 19.4927C179.405 20.0516 179.582 20.3366 179.775 20.3477C179.969 20.3587 180.149 20.0959 180.315 19.5591C180.453 19.144 180.556 18.7594 180.622 18.4053C180.965 18.6764 181.3 18.8369 181.626 18.8867C181.51 19.3239 181.375 19.7472 181.22 20.1567C180.81 21.1196 180.293 21.5845 179.667 21.5513C179.059 21.4627 178.602 20.8955 178.298 19.8496C177.988 18.7539 177.805 16.925 177.75 14.3628L175.492 14.6865C175.409 15.6715 175.227 16.6234 174.944 17.542C175.365 17.9128 175.863 18.3361 176.438 18.812L175.691 19.5425C175.592 19.4539 175.434 19.3128 175.218 19.1191C174.958 18.8701 174.748 18.6792 174.587 18.5464C173.99 19.8136 173.129 20.9398 172.006 21.9248C171.696 21.6315 171.298 21.3604 170.811 21.1113C172.172 20.4749 173.182 19.4041 173.84 17.8989C173.658 17.7384 173.398 17.5171 173.06 17.2349C172.855 17.0633 172.7 16.9333 172.595 16.8447ZM169.059 16.9277V14.6367H167.399C166.956 14.6367 166.558 14.6699 166.204 14.7363V13.6821C166.646 13.7485 167.045 13.7817 167.399 13.7817H169.059V12.4038C169.059 11.9058 169.026 11.4022 168.959 10.8931L170.304 11.0591C170.487 11.0868 170.584 11.1283 170.595 11.1836C170.606 11.2389 170.542 11.3164 170.404 11.416C170.155 11.6208 170.025 12.0358 170.014 12.6611V13.7817H170.661C171.037 13.7817 171.48 13.7485 171.989 13.6821V14.7197C171.558 14.6644 171.104 14.6367 170.628 14.6367H170.014V16.5542C170.534 16.3605 171.107 16.0949 171.732 15.7573C171.654 16.2443 171.61 16.6234 171.599 16.8945C171.084 17.055 170.556 17.2487 170.014 17.4756V20.6299C170.025 21.1224 169.867 21.4572 169.541 21.6343C169.247 21.8169 168.625 21.9359 167.673 21.9912C167.601 21.5374 167.418 21.1196 167.125 20.7378C167.518 20.7931 167.861 20.8208 168.154 20.8208C168.874 20.8208 169.208 20.854 169.159 20.9204C169.109 20.9813 169.084 20.8097 169.084 20.4058C169.084 20.3615 169.076 20.3117 169.059 20.2563V17.8823C167.836 18.3804 166.976 18.7705 166.478 19.0527C166.306 18.6432 166.074 18.2752 165.78 17.9487C166.632 17.755 167.725 17.4147 169.059 16.9277ZM168.312 22.5059L169.366 23.0952C169.482 23.1672 169.541 23.2253 169.541 23.2695C169.529 23.3249 169.46 23.3636 169.333 23.3857C169.106 23.43 168.91 23.585 168.744 23.8506C168.334 24.4593 167.709 25.2811 166.868 26.3159C166.486 25.9839 166.123 25.7957 165.78 25.7515C166.981 24.617 167.825 23.5352 168.312 22.5059ZM180.522 25.2783L179.551 25.8511C178.904 24.6392 178.19 23.5075 177.41 22.4561L178.314 21.9912C179.017 22.9209 179.753 24.0166 180.522 25.2783ZM170.661 22.8794L171.632 22.5889C172.075 23.4632 172.432 24.4897 172.703 25.6685L171.649 25.9756C171.4 24.7471 171.071 23.715 170.661 22.8794ZM174.081 22.5059L175.061 22.1655C175.548 23.2059 175.946 24.2186 176.256 25.2036L175.218 25.5771C174.886 24.2656 174.507 23.2419 174.081 22.5059ZM183.137 25.0376C185.55 23.87 187.382 21.9829 188.632 19.3765H186.167C185.802 19.3765 185.331 19.4097 184.756 19.4761V18.4219C185.47 18.4938 185.946 18.5298 186.184 18.5298H188.956C189.172 17.9819 189.33 17.3677 189.429 16.687L190.633 16.9941C190.804 17.0273 190.89 17.0799 190.89 17.1519C190.901 17.2183 190.84 17.2791 190.708 17.3345C190.569 17.4009 190.467 17.5199 190.4 17.6914C190.295 17.9404 190.176 18.2199 190.043 18.5298H194.883C195.292 18.5298 195.821 18.4938 196.468 18.4219V19.4761C195.854 19.4097 195.326 19.3765 194.883 19.3765H189.72C189.449 19.9077 189.188 20.4113 188.939 20.8872H193.845C194.266 20.8872 194.85 20.854 195.597 20.7876C194.85 21.9442 193.881 23.0426 192.691 24.083C194.257 24.6641 196.003 24.9601 197.929 24.9712C197.531 25.2866 197.282 25.6657 197.182 26.1084C195.14 25.7653 193.4 25.3005 191.961 24.7139C190.793 25.4609 189.161 26.1305 187.063 26.7227C186.826 26.3685 186.538 26.0116 186.2 25.6519C188.06 25.5135 189.656 25.0487 190.99 24.2573C190.121 23.7814 189.346 23.2474 188.666 22.6553L189.313 22.0991C189.955 22.6746 190.766 23.2004 191.745 23.6763C192.42 23.1561 193.093 22.5114 193.762 21.7422H188.441C187.296 23.3359 185.857 24.7222 184.125 25.9009C183.887 25.5965 183.558 25.3088 183.137 25.0376ZM183.668 15.4668C184.255 15.5332 184.753 15.5664 185.163 15.5664H187.113C186.731 15.0241 186.256 14.4762 185.686 13.9229L186.383 13.3086C186.975 13.8952 187.476 14.443 187.885 14.9521L187.188 15.5664H190.973C190.464 14.8415 189.905 14.2134 189.296 13.6821L189.977 13.0347C190.619 13.6489 191.208 14.2715 191.745 14.9023L191.064 15.5664H193.048C193.956 14.3434 194.562 13.375 194.866 12.6611L196.062 13.209C196.161 13.2422 196.211 13.2865 196.211 13.3418C196.189 13.3861 196.128 13.4248 196.028 13.458C195.718 13.5299 195.48 13.6849 195.314 13.9229C194.872 14.4652 194.429 15.013 193.986 15.5664H196.111C196.471 15.5664 196.889 15.5332 197.365 15.4668C197.298 16.1032 197.265 16.5625 197.265 16.8447V17.2515C197.254 17.4562 197.287 17.7799 197.365 18.2227H196.244C196.316 17.8353 196.352 17.506 196.352 17.2349V16.4214H184.689V17.2681C184.689 17.506 184.723 17.8519 184.789 18.3057H183.668C183.735 17.863 183.768 17.5171 183.768 17.2681V16.7949C183.768 16.4408 183.735 15.998 183.668 15.4668ZM195.48 11.0425L196.228 11.9639C196.277 12.0413 196.302 12.0967 196.302 12.1299C196.302 12.141 196.299 12.1493 196.294 12.1548C196.283 12.188 196.211 12.2046 196.078 12.2046C195.746 12.1935 195.223 12.2378 194.509 12.3374C191.598 12.7026 188.444 12.9683 185.046 13.1343C184.908 12.6916 184.748 12.307 184.565 11.9805C185.306 12.0635 186.156 12.105 187.113 12.105C188.132 12.105 189.271 12.0579 190.533 11.9639C192.813 11.7591 194.462 11.452 195.48 11.0425ZM200.104 25.6187V24.5645C200.751 24.6309 201.324 24.6641 201.822 24.6641H206.313V13.0513C206.313 12.5311 206.277 11.9583 206.205 11.333L207.517 11.5073C207.644 11.5184 207.713 11.5461 207.724 11.5903C207.735 11.6235 207.683 11.6927 207.566 11.7979C207.362 11.9196 207.27 12.3374 207.292 13.0513V16.4878H211.783C212.326 16.4878 212.86 16.4518 213.385 16.3799V17.4756C212.86 17.4036 212.326 17.3677 211.783 17.3677H207.292V24.6641H213.078C213.687 24.6641 214.271 24.6309 214.83 24.5645V25.6187C214.226 25.5467 213.643 25.5107 213.078 25.5107H201.822C201.313 25.5107 200.74 25.5467 200.104 25.6187ZM216.49 15.1431C218.089 14.1027 219.179 12.6639 219.76 10.8267L220.997 11.3994C221.135 11.4603 221.199 11.5239 221.188 11.5903C221.177 11.6457 221.097 11.6899 220.947 11.7231C220.698 11.784 220.477 11.9888 220.283 12.3374C220.184 12.5311 220.07 12.7082 219.943 12.8687H221.794C222.331 12.8687 222.859 12.8327 223.379 12.7607C223.047 13.2256 222.782 13.6462 222.583 14.0225C222.295 14.5426 222.004 15.0352 221.711 15.5H222.583C223.058 15.5 223.523 15.4668 223.977 15.4004C223.905 15.8652 223.869 16.2775 223.869 16.6372V20.9204C223.869 21.341 223.905 21.7782 223.977 22.2319C223.485 22.1655 223.006 22.1323 222.541 22.1323H219.262C218.853 22.1323 218.371 22.1655 217.818 22.2319C217.884 21.7339 217.917 21.2856 217.917 20.8872V16.7202C217.917 16.3716 217.884 15.9925 217.818 15.583C217.74 15.6882 217.649 15.7905 217.544 15.8901C217.295 15.619 216.944 15.37 216.49 15.1431ZM217.992 15.4004C218.396 15.4668 218.753 15.5 219.063 15.5H220.59C221.033 14.8525 221.39 14.2466 221.661 13.6821H219.42C218.883 14.3628 218.407 14.9355 217.992 15.4004ZM218.839 18.3223H220.399V16.3135H218.839V18.3223ZM218.839 19.1357V21.3105H220.399V19.1357H218.839ZM221.321 16.3135V18.3223H222.956V16.3135H221.321ZM221.321 19.1357V21.3105H222.956V19.1357H221.321ZM217.295 25.6519L216.905 24.3569C219.157 24.3127 221.667 24.0111 224.434 23.4521C224.34 23.8727 224.287 24.238 224.276 24.5479C221.05 24.8854 218.723 25.2534 217.295 25.6519ZM229.705 10.7603L230.726 11.3828C230.964 11.5322 231.083 11.6291 231.083 11.6733C231.105 11.7176 231.024 11.7702 230.842 11.8311C230.604 11.9085 230.416 12.0828 230.277 12.354C229.918 13.0789 229.55 13.7707 229.173 14.4292H230.584C231.027 14.4292 231.509 14.396 232.029 14.3296V15.3838C231.52 15.3118 231.038 15.2759 230.584 15.2759H228.459V17.9155H229.771C230.269 17.9155 230.756 17.8823 231.232 17.8159V18.8618C230.767 18.7954 230.28 18.7622 229.771 18.7622H228.459V21.5845H230.792C231.268 21.5845 231.76 21.5513 232.27 21.4849V22.5391C231.727 22.4727 231.235 22.4395 230.792 22.4395H228.459V25.0874C228.459 25.5301 228.493 26.0226 228.559 26.5649H227.405C227.472 26.089 227.505 25.5965 227.505 25.0874V22.4395H225.637C225.161 22.4395 224.669 22.4727 224.16 22.5391V21.4849C224.68 21.5513 225.172 21.5845 225.637 21.5845H227.505V18.7622H226.168C225.704 18.7622 225.217 18.7954 224.708 18.8618V17.8159C225.25 17.8823 225.737 17.9155 226.168 17.9155H227.505V15.2759H225.654C225.25 15.2759 224.752 15.3118 224.16 15.3838V14.3296C224.713 14.396 225.211 14.4292 225.654 14.4292H228.202C228.839 13.3501 229.339 12.1271 229.705 10.7603ZM224.708 11.7065L225.471 10.9761C226.229 11.7342 226.938 12.4951 227.596 13.2588L226.758 14.0225C226.238 13.2256 225.554 12.4536 224.708 11.7065ZM233.88 15.8071L234.444 14.9937C235.396 15.5692 236.395 16.2028 237.441 16.8945L236.843 17.7412C235.88 17.0273 234.893 16.3826 233.88 15.8071ZM234.17 25.104C235.681 23.3166 236.979 21.4351 238.063 19.4595C238.224 19.9022 238.429 20.2591 238.678 20.5303C237.388 22.4339 236.221 24.2241 235.175 25.9009L234.17 25.104ZM235.075 11.9971L235.615 11.1836C236.578 11.7038 237.673 12.3319 238.902 13.0679L238.321 13.9561C237.109 13.1481 236.027 12.4951 235.075 11.9971ZM247.161 10.8931L247.908 12.0303C247.952 12.1022 247.975 12.1576 247.975 12.1963C247.975 12.2129 247.969 12.2267 247.958 12.2378C247.941 12.2489 247.919 12.2544 247.892 12.2544C247.853 12.2544 247.784 12.2433 247.684 12.2212C247.596 12.1991 247.482 12.188 247.344 12.188C247.128 12.188 246.884 12.2157 246.613 12.271C246.403 12.3042 246.002 12.3761 245.41 12.4868C244.912 12.5809 244.549 12.6501 244.322 12.6943V15.5498H247.842C248.157 15.5387 248.6 15.5055 249.17 15.4502V16.5044C248.622 16.4491 248.179 16.4159 247.842 16.4048H244.322V19.3599H246.074C246.472 19.3488 247.045 19.3156 247.792 19.2603C247.72 19.9022 247.684 20.3892 247.684 20.7212V24.5063C247.701 24.9712 247.737 25.5218 247.792 26.1582H246.63C246.691 25.7487 246.727 25.3475 246.738 24.9546H240.936C240.947 25.3032 240.983 25.7791 241.043 26.3823H239.881C239.942 25.8123 239.978 25.3309 239.989 24.938V20.7046C239.978 20.3062 239.942 19.8247 239.881 19.2603C240.507 19.3156 241.024 19.3488 241.434 19.3599H243.368V16.4048H239.815C239.444 16.4159 239.01 16.4491 238.512 16.5044V15.4502C239.032 15.5055 239.466 15.5387 239.815 15.5498H243.368V12.8271C242.123 13.0319 240.991 13.1924 239.973 13.3086C239.834 12.8659 239.63 12.4674 239.358 12.1133C239.569 12.1188 239.832 12.1216 240.147 12.1216C242.947 12.1216 245.285 11.7121 247.161 10.8931ZM240.936 20.2065V24.1328H246.738V20.2065H240.936ZM263.655 23.6763V17.0273H260.816V23.3857C260.799 23.7731 260.833 24.2214 260.916 24.7305H259.795C259.861 24.2546 259.895 23.8008 259.895 23.3691V17.0273H257.255V23.6265C257.244 23.9419 257.28 24.332 257.363 24.7969H256.242C256.32 24.3431 256.353 23.953 256.342 23.6265V17.0273H253.47V24.5645C253.459 24.8577 253.492 25.2534 253.569 25.7515H252.416C252.482 25.2866 252.515 24.8965 252.515 24.5811V17.3511C252.526 17.0135 252.493 16.5791 252.416 16.0479C252.891 16.1253 253.329 16.1585 253.727 16.1475H255.678C256.253 15.0352 256.746 13.9007 257.155 12.7441H252.258C251.976 12.7441 251.569 12.7773 251.038 12.8438V11.7563C251.514 11.8394 251.926 11.8753 252.274 11.8643H264.775C265.091 11.8643 265.459 11.8283 265.879 11.7563V12.8438C265.392 12.7773 265.024 12.7441 264.775 12.7441H258.55C258.107 13.6849 257.54 14.8193 256.848 16.1475H263.464C263.768 16.1585 264.183 16.1253 264.709 16.0479C264.626 16.5348 264.59 16.9582 264.601 17.3179V24.0166C264.623 24.6641 264.488 25.0708 264.194 25.2368C263.956 25.4305 263.259 25.6021 262.103 25.7515C262.125 25.3198 261.914 24.8771 261.472 24.4233C262.069 24.4953 262.531 24.5312 262.858 24.5312C263.096 24.5312 263.254 24.5119 263.331 24.4731C263.569 24.4289 263.677 24.1632 263.655 23.6763ZM269.382 22.4229H271.042V16.0977C271.031 15.6992 270.998 15.2288 270.943 14.6865C271.524 14.7419 272.022 14.7751 272.437 14.7861H274.67L274.77 13.4248H270.42C270.066 13.4359 269.612 13.4691 269.059 13.5244V12.5117C269.601 12.5671 270.055 12.6003 270.42 12.6113H274.819L274.886 10.7021L276.181 10.9761C276.269 10.9982 276.319 11.0452 276.33 11.1172C276.33 11.1947 276.291 11.25 276.214 11.2832C275.976 11.3164 275.835 11.7591 275.791 12.6113H280.613C281.034 12.6003 281.488 12.5671 281.975 12.5117V13.5244C281.488 13.4691 281.034 13.4359 280.613 13.4248H275.757L275.633 14.7861H278.488C278.964 14.7751 279.471 14.7419 280.007 14.6865C279.946 15.251 279.91 15.7214 279.899 16.0977V22.4229H281.667C282.066 22.4062 282.525 22.3703 283.045 22.3149V23.3359C282.503 23.2806 282.049 23.2474 281.684 23.2363H277.401C279.116 23.917 280.677 24.6807 282.083 25.5273L281.518 26.4321C280.057 25.4471 278.419 24.6143 276.604 23.9336L276.978 23.2363H273.275L274.022 23.9834C274.111 24.0719 274.144 24.1328 274.122 24.166C274.1 24.2158 274.025 24.2463 273.898 24.2573C273.688 24.2684 273.417 24.3818 273.084 24.5977C271.961 25.3115 270.727 25.9618 269.382 26.5483C269.133 26.2329 268.815 25.9147 268.428 25.5938C270.342 25.1068 271.9 24.321 273.101 23.2363H269.366C268.956 23.2474 268.491 23.2806 267.971 23.3359V22.3149C268.525 22.3703 268.995 22.4062 269.382 22.4229ZM271.997 22.4229H278.953V21.3438H271.997V22.4229ZM278.953 20.5635V19.4429H271.997V20.5635H278.953ZM271.997 17.5254V18.6626H278.953V17.5254H271.997ZM271.997 15.5664V16.7368H278.953V15.5664H271.997ZM292.757 14.6118L294.268 14.8027C294.379 14.8249 294.434 14.8636 294.434 14.9189C294.423 14.9798 294.351 15.0545 294.218 15.1431C294.047 15.2316 293.961 15.4474 293.961 15.7905C293.872 18.4191 293.726 20.0627 293.521 20.7212H298.244C298.504 20.7212 298.997 20.6852 299.722 20.6133V21.6675C299.069 21.6011 298.576 21.5679 298.244 21.5679H293.313C292.079 23.8368 289.786 25.5301 286.432 26.6479C286.25 26.2661 285.942 25.9036 285.511 25.5605C288.377 25.1787 290.588 23.8478 292.143 21.5679H286.855C286.479 21.5789 285.976 21.6121 285.345 21.6675V20.6133C285.992 20.6742 286.496 20.7101 286.855 20.7212H292.467C292.649 20.0405 292.774 19.0721 292.84 17.8159C292.857 17.4396 292.865 17.0412 292.865 16.6206C292.865 15.8514 292.829 15.1818 292.757 14.6118ZM287.536 17.5088C288.648 18.1175 289.736 18.7456 290.798 19.3931L290.242 20.2729C289.097 19.5037 288.001 18.8535 286.955 18.3223L287.536 17.5088ZM288.366 15.9565L288.964 15.1431C290.154 15.8791 291.18 16.5431 292.043 17.1353L291.429 17.9487C290.511 17.257 289.49 16.5929 288.366 15.9565ZM293.455 23.0122L294.152 22.1987C295.795 23.1948 297.533 24.3625 299.365 25.7017L298.634 26.5815C297.278 25.436 295.552 24.2463 293.455 23.0122ZM291.653 10.5527C292.118 10.8682 292.882 11.4686 293.944 12.354L293.405 12.9849H297.613C297.967 12.9738 298.501 12.9406 299.215 12.8853C299.16 13.4718 299.127 13.9062 299.116 14.1885V14.562C299.127 14.894 299.16 15.3478 299.215 15.9233H298.062C298.117 15.3257 298.15 14.8719 298.161 14.562V13.8315H286.772V14.6699C286.784 15.0407 286.817 15.4862 286.872 16.0063H285.751C285.807 15.453 285.84 15.0075 285.851 14.6699V14.2383C285.851 14.0003 285.818 13.5493 285.751 12.8853C286.349 12.9406 286.853 12.9738 287.262 12.9849H292.923C292.276 12.3927 291.615 11.8587 290.939 11.3828L291.653 10.5527ZM308.637 16.8779C310.064 15.5166 311.033 13.4884 311.542 10.7935L312.762 11.2168C312.923 11.2721 312.992 11.3219 312.97 11.3662C312.97 11.4271 312.878 11.5239 312.696 11.6567C312.535 11.7619 312.405 11.9611 312.306 12.2544C312.023 13.0568 311.747 13.7817 311.476 14.4292H314.871C315.28 14.4292 315.756 14.396 316.298 14.3296C316.232 15.0435 316.199 15.6273 316.199 16.0811L316.116 23.9502C316.127 24.8688 315.894 25.4914 315.418 25.8179C314.965 26.1831 314.018 26.4377 312.58 26.5815C312.53 26.1665 312.358 25.7321 312.065 25.2783C312.469 25.3171 312.831 25.3364 313.152 25.3364C313.739 25.3364 314.176 25.27 314.464 25.1372C314.907 24.9435 315.128 24.5312 315.128 23.9004L315.261 15.2759H311.135C310.726 16.0506 310.3 16.7783 309.857 17.459C309.436 17.2155 309.03 17.0218 308.637 16.8779ZM310.521 18.6958L311.334 18.0151C312.22 18.9338 313.111 19.9714 314.007 21.1279L313.069 21.8418C312.322 20.6852 311.473 19.6366 310.521 18.6958ZM303.938 26.125H302.851C302.923 25.4333 302.959 24.9242 302.959 24.5977V16.0977C302.959 15.6771 302.923 15.1154 302.851 14.4126C303.294 14.479 303.742 14.5122 304.196 14.5122C304.672 13.2671 305.007 12.0607 305.2 10.8931L306.404 11.2168C306.575 11.2611 306.661 11.3109 306.661 11.3662C306.672 11.4382 306.603 11.5184 306.454 11.6069C306.238 11.7453 306.08 11.9722 305.98 12.2876C305.709 13.0457 305.433 13.7873 305.15 14.5122H307.001C307.488 14.5122 308.003 14.479 308.545 14.4126C308.479 15.0933 308.446 15.6549 308.446 16.0977V24.2075C308.446 24.5783 308.479 25.0487 308.545 25.6187H307.408C307.464 25.2645 307.497 24.9408 307.508 24.6475H303.839C303.839 25.0293 303.872 25.5218 303.938 26.125ZM303.872 19.9907V23.7925H307.524V19.9907H303.872ZM303.872 15.3672V19.1689H307.524V15.3672H303.872ZM318.407 19.8164C320.222 18.9421 321.644 17.2432 322.673 14.7197L323.935 15.4668C324.001 15.5 324.029 15.5332 324.018 15.5664C323.996 15.5996 323.941 15.6273 323.852 15.6494C323.586 15.7324 323.393 15.8763 323.271 16.0811C323.033 16.4961 322.709 16.9609 322.3 17.4756V25.187C322.3 25.8123 322.333 26.3242 322.399 26.7227H321.246C321.312 26.3021 321.345 25.7902 321.345 25.187V18.6626C320.792 19.3765 320.18 19.999 319.511 20.5303C319.306 20.2812 318.938 20.0433 318.407 19.8164ZM318.797 14.9023C320.512 13.8398 321.782 12.4757 322.607 10.8101L323.711 11.5903C323.739 11.6125 323.752 11.6374 323.752 11.665C323.752 11.6816 323.75 11.6955 323.744 11.7065C323.733 11.7397 323.7 11.7563 323.645 11.7563C323.473 11.784 323.31 11.8864 323.155 12.0635C322.12 13.4248 320.997 14.5924 319.785 15.5664C319.397 15.251 319.068 15.0296 318.797 14.9023ZM325.238 13.3252C325.714 13.3805 326.14 13.4082 326.517 13.4082H328.758V12.1133C328.758 11.4824 328.725 11.0065 328.658 10.6855L330.02 10.9429C330.13 10.965 330.191 10.9982 330.202 11.0425C330.219 11.0812 330.174 11.1449 330.069 11.2334C329.82 11.416 329.701 11.8117 329.712 12.4204V13.4082H332.501C333.088 13.4082 333.547 13.375 333.879 13.3086C333.813 13.4635 333.688 13.7624 333.506 14.2051C333.412 14.4209 333.343 14.5924 333.298 14.7197L332.775 16.0229C332.388 16.0119 331.99 15.9897 331.58 15.9565C331.89 15.4806 332.181 14.9134 332.452 14.2549H329.712V17.7578H331.58C331.868 17.7578 332.316 17.7301 332.925 17.6748C332.493 18.7318 332.194 19.4567 332.028 19.8496C331.552 20.9066 330.974 21.911 330.293 22.8628C331.539 24.0415 332.983 24.8162 334.626 25.187C334.311 25.4858 334.009 25.9009 333.722 26.4321C332.056 25.5578 330.708 24.6336 329.679 23.6597C328.75 24.5783 327.515 25.5246 325.977 26.4985C325.689 26.172 325.291 25.8483 324.782 25.5273C326.359 25.1234 327.776 24.2573 329.032 22.9292C328.014 21.6343 327.181 20.1955 326.533 18.6128H326.226C326.104 21.2414 325.33 23.5767 323.902 25.6187C323.492 25.353 323.05 25.1538 322.574 25.021C324.378 23.8755 325.296 21.1833 325.33 16.9443V14.6865C325.33 14.6533 325.313 14.4043 325.28 13.9395C325.263 13.6517 325.249 13.4469 325.238 13.3252ZM326.276 14.2798V17.7578H328.758V14.2798H326.276ZM329.646 22.1157C330.459 21.0256 331.076 19.8579 331.497 18.6128H327.604C328.102 19.9243 328.783 21.092 329.646 22.1157ZM337.158 24.3569V15.666C337.147 15.2399 337.114 14.7087 337.059 14.0723L338.312 14.2798C338.472 14.3019 338.553 14.3351 338.553 14.3794C338.575 14.4126 338.525 14.4679 338.403 14.5454C338.221 14.7059 338.124 15.0462 338.113 15.5664V24.2241C338.882 24.0415 339.629 23.8423 340.354 23.6265V13.1343C340.343 12.5256 340.31 11.9832 340.254 11.5073L341.541 11.6899C341.668 11.7121 341.743 11.748 341.765 11.7979C341.787 11.8421 341.754 11.8975 341.666 11.9639C341.439 12.1576 341.32 12.5034 341.309 13.0015V16.2139H342.205C342.548 16.2139 343.007 16.1807 343.583 16.1143V17.1685C342.974 17.0965 342.515 17.0605 342.205 17.0605H341.309V23.3359C342.294 23.0426 343.099 22.7244 343.724 22.3813C343.663 22.8573 343.638 23.2778 343.649 23.6431C339.925 24.6945 337.523 25.4305 336.444 25.8511L335.747 24.5479C336.256 24.5091 336.727 24.4455 337.158 24.3569ZM345.575 12.5283V17.9487C347.352 16.7811 348.569 15.7158 349.228 14.7529L350.199 15.7241C350.287 15.8016 350.32 15.8569 350.298 15.8901C350.276 15.9233 350.19 15.951 350.041 15.9731C349.803 16.0229 349.482 16.2111 349.078 16.5376C347.922 17.4562 346.754 18.3112 345.575 19.1025V23.8672C345.553 24.498 345.667 24.8716 345.916 24.9878C346.082 25.1151 346.538 25.1787 347.285 25.1787C347.451 25.1787 347.623 25.1759 347.8 25.1704C348.652 25.1704 349.175 25.068 349.369 24.8633C349.607 24.6973 349.764 24.2158 349.842 23.4189C349.842 23.3747 349.847 23.3083 349.858 23.2197C349.892 22.8766 349.919 22.5252 349.941 22.1655C350.157 22.3371 350.589 22.528 351.236 22.7383C351.032 23.6901 350.879 24.321 350.78 24.6309C350.47 25.627 349.748 26.1305 348.613 26.1416C348.254 26.1637 347.783 26.1748 347.202 26.1748C346.14 26.1859 345.44 26.0503 345.102 25.7681C344.759 25.5522 344.598 25.0376 344.621 24.2241V12.7441C344.621 12.3844 344.587 11.8117 344.521 11.0259L345.866 11.2334C345.976 11.2445 346.032 11.2721 346.032 11.3164C346.043 11.3607 346.004 11.4188 345.916 11.4907C345.7 11.6567 345.586 12.0026 345.575 12.5283Z" fill="black"/>
</svg>
