<svg width="55" height="26" viewBox="0 0 55 26" fill="none" xmlns="http://www.w3.org/2000/svg">
<path d="M47.4563 6.26968C46.635 6.59936 45.8484 7.06786 45.0849 7.41489C44.1075 7.84867 43.1011 8.12051 42.0831 8.375C41.0594 8.63528 40.0472 8.9071 38.9946 9.01121C37.9477 9.11532 36.895 9.16737 35.8308 9.13845C34.7839 9.10954 33.7139 9.12689 32.6613 8.99386C31.6202 8.86083 30.5733 8.64683 29.538 8.43283C28.5027 8.22461 27.4616 8.00483 26.4436 7.73299C25.4141 7.46115 24.3904 7.18353 23.3898 6.87698C22.2735 6.53574 21.2035 6.02676 20.0814 5.6913C18.9594 5.35584 17.8373 4.99145 16.6979 4.73118C15.5585 4.47091 14.3959 4.24534 13.2276 4.13545C12.2733 4.04869 11.1512 4.19908 9.99446 4.39573C8.96494 4.56924 7.91225 4.89313 6.88851 5.27486C5.85899 5.66238 4.86997 6.13665 4.01396 6.73239C3.07698 7.38596 2.37135 8.20148 1.87394 9.0864C1.3534 10.006 1.14519 10.9893 1.34763 12.1461C1.50379 13.0541 1.926 13.9737 2.67211 15.0148C3.27941 15.8651 4.0371 16.4608 4.92203 16.9756C5.78382 17.4787 6.69188 17.9299 7.66935 18.2653C8.64103 18.6008 9.61272 18.9363 10.5671 19.2486C11.6544 19.6072 12.6897 20.1393 13.7655 20.5904C14.8297 21.0358 15.8824 21.5159 16.9408 21.9844C18.005 22.4528 19.1503 22.7073 20.2203 23.1353C21.3018 23.5691 22.3314 24.1417 23.4245 24.4714C24.5408 24.8069 25.686 25.0324 26.8254 25.1828C27.9648 25.3332 29.1216 25.3448 30.2957 25.2407C31.4872 25.1365 32.6323 24.7779 33.7891 24.4251C34.9285 24.0781 36.1258 23.8178 37.2016 23.2741C38.2774 22.7362 39.197 21.9207 40.1802 21.244C41.1808 20.55 42.1699 19.8617 43.0432 19.0809C43.7951 18.4099 44.7206 17.8547 45.6865 17.2937C46.5887 16.7673 47.5662 16.2931 48.4916 15.7609C49.4402 15.2231 50.406 14.7083 51.21 14.0605C52.066 13.3722 52.8353 12.5625 53.3269 11.6313C53.7838 10.7695 53.8474 9.66478 53.7086 8.70467C53.564 7.70985 53.0551 6.82493 52.2048 6.28125C50.7878 5.36741 49.0931 5.61032 47.4505 6.26968H47.4563Z" fill="#222222"/>
<path d="M47.2653 5.59295C46.3225 5.98625 45.4434 6.51836 44.5007 6.90588C43.5174 7.30496 42.4821 7.55367 41.4526 7.81395C40.3363 8.09735 39.2374 8.31135 38.0864 8.38654C36.9932 8.46173 35.9001 8.43859 34.807 8.42124C32.5108 8.37497 30.284 7.91226 28.0514 7.40907C25.8999 6.92323 23.7714 6.32171 21.7124 5.52933C19.6707 4.74272 17.5249 4.14121 15.3733 3.74212C14.338 3.55126 13.2738 3.37196 12.2211 3.42401C11.1742 3.47028 10.1042 3.63223 9.08628 3.86358C5.59285 4.66753 1.03516 6.72659 0.601375 10.7984C0.398941 12.6781 1.32438 14.5752 2.53898 15.9576C3.77672 17.3746 5.65069 18.2827 7.39162 18.9073C8.42114 19.2717 9.45643 19.6072 10.486 19.96C11.5155 20.3186 12.493 20.8044 13.4936 21.2324C14.5289 21.672 15.5526 22.1463 16.5821 22.5916C17.5711 23.0196 18.6122 23.2973 19.6244 23.6616C20.6481 24.0318 21.6025 24.5581 22.6204 24.9399C23.6326 25.3216 24.7084 25.553 25.7784 25.7265C27.8837 26.0793 30.0411 26.1371 32.1232 25.6223C33.1875 25.3621 34.2344 25.0151 35.287 24.7085C36.2876 24.4193 37.2651 24.0723 38.1558 23.5286C39.0118 23.0023 39.7868 22.3545 40.6139 21.7819C41.4468 21.2035 42.2739 20.6193 43.0605 19.9773C43.8471 19.3295 44.6221 18.7338 45.5012 18.2075C46.4093 17.6638 47.3521 17.178 48.2833 16.6748C50.0763 15.6973 51.9155 14.6909 53.2053 13.0599C54.3563 11.6081 54.8132 9.71103 54.2406 7.91226C53.6796 6.12506 52.0428 5.02035 50.192 4.97408C49.1856 4.94516 48.185 5.217 47.2538 5.58138C46.4209 5.90527 46.7853 7.26448 47.6297 6.9348C49.2029 6.32171 51.3718 5.90528 52.5112 7.52475C53.5061 8.94179 53.1243 10.9488 52.089 12.2154C50.8744 13.7077 49.1393 14.6099 47.4736 15.5122C45.8541 16.3856 44.1768 17.2069 42.7539 18.3926C41.2906 19.6072 39.7463 20.7119 38.1963 21.8166C36.571 22.9734 34.7144 23.4071 32.8347 23.9682C30.8508 24.5581 28.8496 24.749 26.7906 24.4656C25.8247 24.3326 24.8588 24.1417 23.916 23.8756C22.9212 23.598 22.0073 23.1469 21.0646 22.7362C20.1739 22.3487 19.26 22.0595 18.3404 21.7588C17.3225 21.4233 16.3623 20.9548 15.3848 20.5268C13.5861 19.7344 11.7931 18.9189 9.9307 18.2885C8.12036 17.6754 6.31004 17.0854 4.70792 16.0038C3.33136 15.0727 2.16881 13.4127 1.98951 11.7354C1.80443 9.98866 2.92072 8.38075 4.27992 7.39172C5.80685 6.28122 7.72129 5.59295 9.54898 5.18808C10.5149 4.97408 11.5271 4.8237 12.5219 4.81214C13.4936 4.80057 14.471 4.98564 15.4253 5.17651C17.3918 5.56981 19.3584 6.11928 21.2323 6.83648C23.1526 7.57102 25.1191 8.14941 27.126 8.62947C29.1215 9.10374 31.1747 9.58378 33.2164 9.75151C37.2188 10.0812 41.4179 9.71682 45.1484 8.13784C45.9929 7.77924 46.7853 7.29918 47.6355 6.94058C48.4568 6.59934 48.0982 5.24014 47.2596 5.58717L47.2653 5.59295Z" fill="#222222"/>
<path d="M47.0148 3.05285C46.1935 3.38253 45.3028 3.59074 44.5335 3.93199C43.5561 4.36577 42.6017 4.81113 41.5838 5.06562C40.5601 5.32589 39.519 5.52833 38.4663 5.62665C37.4194 5.73076 36.361 5.70185 35.3026 5.67293C34.2557 5.64401 33.1914 5.64401 32.1388 5.51098C31.0977 5.37795 30.0624 5.13503 29.0271 4.92103C27.9918 4.71281 26.9623 4.45832 25.9443 4.19227C24.9148 3.92043 23.9084 3.6081 22.9078 3.30155C21.7915 2.96031 20.681 2.57279 19.5648 2.23733C18.4427 1.90187 17.2859 1.68209 16.1523 1.4276C15.0129 1.16733 13.8735 0.87235 12.7051 0.768241C11.7508 0.681484 10.623 0.68726 9.46621 0.878127C8.43669 1.05164 7.43028 1.54905 6.41233 1.93657C5.38281 2.32408 4.28387 2.60171 3.43364 3.19166C2.49666 3.84523 1.81418 4.73016 1.31099 5.61508C0.790443 6.53471 0.58803 7.55267 0.790464 8.70944C0.946628 9.6175 1.24736 10.647 1.99348 11.6881C2.60078 12.5383 3.50886 13.0357 4.39957 13.5505C5.26136 14.0537 6.12315 14.6494 7.1064 14.9849C8.07808 15.3204 9.11917 15.4534 10.0735 15.7657C11.1609 16.1243 12.2019 16.6564 13.2719 17.1075C14.3362 17.5529 15.4409 17.9173 16.4993 18.3858C17.5636 18.8543 18.6104 19.3517 19.6746 19.7797C20.7562 20.2135 21.8089 20.7224 22.9078 21.0521C24.0241 21.3876 25.1693 21.6421 26.3087 21.7925C27.4481 21.9428 28.6164 21.9602 29.7906 21.8619C30.982 21.7577 32.133 21.3702 33.2898 21.0174C34.4292 20.6704 35.5397 20.2193 36.6155 19.6814C37.6913 19.1435 38.6977 18.4957 39.6809 17.819C40.6815 17.1249 41.6416 16.4077 42.5208 15.6269C43.2727 14.956 44.1807 14.3545 45.1466 13.7934C46.0489 13.2671 47.0553 12.8449 47.9807 12.3128C48.9293 11.7749 49.9009 11.2659 50.6991 10.6181C51.5551 9.92982 52.2607 9.09116 52.7524 8.15997C53.2093 7.29817 53.3944 6.22239 53.2556 5.25649C53.111 4.26167 52.5268 3.39988 51.6824 2.8562C50.2653 1.94236 48.669 2.38771 47.0264 3.04706L47.0148 3.05285Z" fill="#F7F377"/>
<path d="M46.8297 2.37614C45.8869 2.74052 44.9152 3.00079 43.984 3.41144C42.995 3.85101 42.0175 4.2501 40.9591 4.4988C38.6976 5.03091 36.4766 5.01356 34.1747 4.94994C31.9247 4.88632 29.7327 4.40626 27.5522 3.87993C25.3717 3.3536 23.2374 2.68268 21.1032 1.9944C19.0442 1.32926 16.9388 0.866553 14.8277 0.40963C12.7629 -0.0357249 10.4957 -0.226588 8.44819 0.403849C7.42445 0.716176 6.44697 1.18466 5.4348 1.53747C4.49204 1.86137 3.56085 2.20262 2.76268 2.81571C1.33407 3.92042 0.183095 5.62665 0.0211479 7.44856C-0.140799 9.2589 0.640011 11.4278 1.9298 12.7003C2.58916 13.3538 3.41625 13.7934 4.20863 14.2677C5.08199 14.7882 5.93799 15.3377 6.90967 15.6732C7.87557 16.0086 8.9051 16.1359 9.87678 16.454C10.9179 16.7952 11.9011 17.2984 12.9075 17.7206C13.9081 18.1428 14.9377 18.4899 15.9325 18.9121C16.9215 19.3343 17.8874 19.797 18.8764 20.2135C20.8603 21.0521 22.8037 21.8676 24.9321 22.2783C27.0259 22.6832 29.2237 22.7988 31.3117 22.313C35.4297 21.3529 39.1198 19.3459 42.3645 16.6622C43.1511 16.0144 43.9031 15.3724 44.7706 14.8287C45.6729 14.2677 46.6215 13.8108 47.5642 13.3249C49.3399 12.4169 51.1965 11.4105 52.4689 9.83149C53.6488 8.35662 54.4181 6.35541 53.7761 4.47566C53.1861 2.75208 51.5377 1.57218 49.7042 1.64159C48.7036 1.68208 47.7493 2.00597 46.8239 2.37035C45.991 2.70003 46.3554 4.05923 47.1998 3.72377C48.7962 3.08755 50.7685 2.49759 52.012 4.1055C53.1456 5.57459 52.4631 7.6105 51.4105 8.91187C50.2132 10.3983 48.426 11.3179 46.7545 12.1624C45.0714 13.0184 43.4346 13.886 42.0002 15.1295C40.5369 16.4019 38.9405 17.5471 37.2632 18.5188C35.5628 19.5021 33.7409 20.1672 31.8611 20.7109C29.9293 21.2719 27.9339 21.3529 25.9443 21.0348C23.9373 20.7109 22.1154 20.0457 20.2472 19.2707C18.4426 18.5188 16.6786 17.6801 14.8509 16.9861C13.0232 16.292 11.2707 15.3146 9.36201 14.8461C8.41925 14.6147 7.45914 14.4528 6.58578 14.0132C5.77604 13.6083 5.01258 13.1109 4.23755 12.6482C3.41046 12.1566 2.71642 11.6245 2.23058 10.78C1.81414 10.0571 1.54809 9.23575 1.43819 8.41445C1.20684 6.67352 2.24792 4.96729 3.59555 3.9262C4.35902 3.33047 5.296 3.07019 6.19827 2.75208C7.11212 2.42819 7.99127 2.00019 8.92247 1.72256C10.8543 1.15575 12.9538 1.4218 14.8798 1.85559C16.8463 2.30094 18.807 2.72317 20.7273 3.34204C22.6764 3.97247 24.6313 4.59713 26.6268 5.09454C28.6106 5.59194 30.6581 6.09513 32.6998 6.27443C34.7299 6.44795 36.8873 6.52892 38.9174 6.27443C40.9186 6.02573 42.7579 5.48205 44.5971 4.66075C45.4416 4.2848 46.3381 4.05345 47.2056 3.72377C48.0385 3.39988 47.6799 2.04067 46.8297 2.37035V2.37614Z" fill="#222222"/>
<path d="M10.4686 11.319C11.3015 12.0767 12.4872 11.9784 13.2102 11.3595C13.9505 10.7233 14.1067 9.65327 13.2564 8.77413C12.4467 7.93547 11.3536 8.0627 10.6017 8.70471C9.83243 9.36406 9.52586 10.4514 10.4744 11.319H10.4686Z" fill="#222222"/>
<path d="M9.97135 11.8163C10.3704 12.1692 10.8505 12.4352 11.3826 12.5162C11.9494 12.5972 12.4931 12.5278 13.0194 12.3022C13.9159 11.9147 14.6042 10.9603 14.529 9.95395C14.4423 8.84345 13.5805 7.76767 12.4642 7.5421C11.4636 7.33967 10.4167 7.75031 9.78048 8.54269C9.4161 8.99961 9.15583 9.55486 9.17318 10.1506C9.19053 10.7984 9.50286 11.3826 9.97135 11.8163C10.2432 12.065 10.7001 12.1055 10.9662 11.8163C11.2149 11.5445 11.2554 11.0876 10.9662 10.8215C10.891 10.7521 10.8274 10.6769 10.7522 10.6017C10.7001 10.5439 10.7926 10.6538 10.7926 10.6596C10.7811 10.6364 10.758 10.6133 10.7406 10.5902C10.7117 10.5497 10.6886 10.5092 10.6654 10.4687C10.6423 10.4282 10.6249 10.382 10.6018 10.3415C10.6018 10.3415 10.6539 10.4919 10.6365 10.4167C10.6365 10.3993 10.6249 10.382 10.6191 10.3646C10.6076 10.3241 10.596 10.2779 10.5844 10.2374C10.5844 10.22 10.5787 10.2026 10.5729 10.1853C10.5498 10.087 10.5729 10.2547 10.5844 10.2605C10.5555 10.2027 10.5729 10.0696 10.5844 10.006C10.5844 9.98865 10.5844 9.9713 10.5844 9.95395C10.5844 9.87297 10.5787 10.0696 10.5729 10.0523C10.5613 10.0176 10.596 9.94239 10.6018 9.91347C10.6134 9.87877 10.6192 9.84405 10.6307 9.80935C10.6423 9.78043 10.6943 9.64162 10.6481 9.7573C10.6018 9.87298 10.6481 9.75152 10.6654 9.7226C10.6886 9.67633 10.7117 9.63584 10.7406 9.59535C10.758 9.56065 10.7811 9.53173 10.8042 9.50281C10.8158 9.47967 10.8332 9.46233 10.8505 9.4392C10.891 9.38136 10.7927 9.51438 10.7984 9.5086C10.8621 9.44498 10.9141 9.37557 10.9777 9.31195C11.0124 9.28303 11.0414 9.24833 11.0761 9.21941C11.0992 9.20206 11.2033 9.1153 11.1108 9.18471C11.0182 9.25411 11.1397 9.16736 11.1686 9.15C11.2091 9.12687 11.2438 9.09795 11.2843 9.0806C11.3537 9.04011 11.4347 9.0054 11.5041 8.96492C11.4983 8.96492 11.3364 9.02853 11.4405 8.99383C11.4578 8.98805 11.4752 8.98226 11.4925 8.97648C11.533 8.96491 11.5735 8.94757 11.6198 8.93601C11.6603 8.92444 11.7065 8.91286 11.747 8.90708C11.8106 8.89551 11.9437 8.89551 11.7297 8.90708C11.8164 8.90708 11.9031 8.89551 11.9899 8.89551C12.0015 8.89551 12.0998 8.9013 12.0998 8.9013C12.0998 8.9013 11.9379 8.87237 12.0073 8.88972C12.0304 8.88972 12.0593 8.89552 12.0825 8.9013C12.1692 8.91866 12.256 8.94756 12.3427 8.97648C12.4122 8.99961 12.2618 8.94178 12.2676 8.94178C12.2849 8.95334 12.3022 8.95913 12.3196 8.96492C12.3601 8.98805 12.4064 9.0054 12.4468 9.03432C12.4816 9.05746 12.5163 9.07482 12.551 9.09795C12.551 9.09795 12.6088 9.15 12.6204 9.14421C12.5972 9.14421 12.5047 9.0459 12.5799 9.1153C12.6551 9.18471 12.7302 9.24832 12.7939 9.32351C12.8286 9.364 12.8633 9.41605 12.9038 9.45076C12.9038 9.45076 12.8228 9.33508 12.8633 9.3987C12.8806 9.42184 12.898 9.45076 12.9153 9.4739C12.9674 9.55487 13.0079 9.63583 13.0541 9.71681C13.0021 9.57221 13.1062 9.8267 13.0541 9.71681C13.0715 9.76308 13.0831 9.80357 13.0946 9.84984C13.1062 9.89611 13.112 9.93661 13.1235 9.98288C13.1409 10.0581 13.1062 9.87877 13.112 9.89033C13.1178 9.90769 13.112 9.94817 13.1178 9.96553C13.1178 10.0291 13.1467 10.1679 13.1178 10.2258C13.112 10.2374 13.1467 10.0523 13.1293 10.1332C13.1293 10.1506 13.1235 10.1679 13.1178 10.1853C13.112 10.2258 13.1004 10.2663 13.0888 10.3125C13.0773 10.3472 13.0657 10.382 13.0541 10.4167C13.0079 10.5613 13.1236 10.2836 13.0541 10.4167C13.0194 10.4919 12.9789 10.5613 12.9327 10.6249C12.9211 10.6422 12.9095 10.6538 12.898 10.6712C12.8575 10.7348 12.9558 10.6017 12.95 10.6017C12.9153 10.6364 12.8806 10.6827 12.8459 10.7174C12.7881 10.781 12.7245 10.8331 12.6608 10.8852C12.6088 10.9314 12.736 10.8273 12.7303 10.8331C12.7129 10.8389 12.684 10.8678 12.6666 10.8736C12.6319 10.8967 12.5914 10.9199 12.5567 10.943C12.5105 10.9661 12.47 10.995 12.4237 11.0124C12.4063 11.0182 12.389 11.0297 12.3717 11.0355C12.2849 11.076 12.4121 11.0124 12.4353 11.0066C12.3369 11.0297 12.2444 11.076 12.1461 11.0992C12.0998 11.1107 12.0593 11.1165 12.0131 11.1281C11.8569 11.157 12.1634 11.1165 12.0131 11.1281C11.9147 11.1338 11.8222 11.1396 11.7239 11.1281C11.7065 11.1281 11.6834 11.1281 11.666 11.1281C11.5503 11.1165 11.6718 11.1281 11.7181 11.1396C11.6718 11.1281 11.6256 11.1223 11.5851 11.1165C11.533 11.1049 11.4809 11.0934 11.4289 11.076C11.4 11.0644 11.2322 11.0008 11.3421 11.0471C11.452 11.0934 11.3074 11.0297 11.2785 11.0124C11.2264 10.9893 11.1802 10.9603 11.1339 10.9314C11.0934 10.9025 11.0529 10.8736 11.0124 10.8505C10.9372 10.7984 11.1223 10.943 11.0529 10.8794C11.024 10.8562 10.9951 10.8331 10.9719 10.81C10.7001 10.567 10.2432 10.5208 9.97714 10.81C9.73422 11.076 9.68217 11.5445 9.97714 11.8048L9.97135 11.8163Z" fill="#222222"/>
<path d="M29.6941 15.6858C30.903 16.7905 32.9446 15.0612 31.7416 13.8176C30.5617 12.5972 28.3523 14.4596 29.6941 15.6858Z" fill="#222222"/>
<path d="M29.1967 16.1831C29.5669 16.5128 30.0007 16.7037 30.4981 16.7384C30.8972 16.7673 31.3078 16.6458 31.6607 16.4608C32.3316 16.1022 32.881 15.3271 32.8058 14.5405C32.7596 14.0547 32.5456 13.6093 32.187 13.2739C31.84 12.95 31.4293 12.7707 30.955 12.7244C30.1627 12.6492 29.3992 13.1004 28.9365 13.7192C28.6994 14.0373 28.5548 14.4596 28.5663 14.8644C28.5837 15.3734 28.8208 15.8419 29.1909 16.1889C29.4628 16.4376 29.9197 16.4781 30.1858 16.1889C30.4345 15.9171 30.475 15.4602 30.1858 15.1941C30.1222 15.1363 30.0585 15.0669 30.0065 14.9974C30.0412 15.0437 30.0817 15.09 30.1164 15.142C30.0528 15.0553 29.9949 14.9628 29.9544 14.8644C29.9776 14.9223 30.0007 14.9743 30.0238 15.0322C29.9891 14.9454 29.966 14.8586 29.9544 14.7719C29.9602 14.8355 29.9718 14.8991 29.9776 14.957C29.966 14.8644 29.966 14.7719 29.9776 14.6793C29.9718 14.743 29.9602 14.8066 29.9544 14.8644C29.9718 14.7661 29.9949 14.6678 30.0354 14.5752C30.0123 14.6331 29.9891 14.6851 29.966 14.743C30.0123 14.6331 30.0759 14.529 30.1511 14.4306C30.1164 14.4769 30.0759 14.5232 30.0412 14.5752C30.1279 14.4596 30.232 14.3555 30.3477 14.2687C30.3014 14.3034 30.2552 14.3439 30.2031 14.3786C30.3188 14.2918 30.4461 14.2166 30.5849 14.1588C30.527 14.1819 30.475 14.2051 30.4172 14.2282C30.5444 14.1762 30.6832 14.1357 30.822 14.1183C30.7584 14.1241 30.6947 14.1357 30.6369 14.1415C30.7584 14.1241 30.8741 14.1241 30.9955 14.1415C30.9319 14.1357 30.8683 14.1241 30.8104 14.1183C30.9203 14.1357 31.0244 14.1646 31.1228 14.2051C31.0649 14.1819 31.0129 14.1588 30.955 14.1357C31.0534 14.1762 31.1459 14.234 31.2327 14.2976C31.1864 14.2629 31.1401 14.2224 31.0881 14.1877C31.1922 14.2687 31.2789 14.3612 31.3599 14.4596C31.3252 14.4133 31.2847 14.367 31.25 14.315C31.3136 14.4017 31.3715 14.4943 31.412 14.5926C31.3888 14.5348 31.3657 14.4827 31.3426 14.4249C31.3773 14.5174 31.4062 14.6099 31.4177 14.7025C31.412 14.6389 31.4004 14.5752 31.3946 14.5174C31.4062 14.6157 31.4062 14.714 31.3946 14.8124C31.4004 14.7487 31.412 14.6851 31.4177 14.6273C31.4004 14.7314 31.3715 14.8297 31.331 14.928C31.3541 14.8702 31.3772 14.8181 31.4004 14.7603C31.3541 14.8702 31.2905 14.9743 31.2153 15.0726C31.25 15.0264 31.2905 14.9801 31.3252 14.928C31.2384 15.0379 31.1401 15.1305 31.0302 15.2172C31.0765 15.1825 31.1228 15.142 31.1748 15.1073C31.0649 15.1941 30.9435 15.2635 30.8162 15.3156C30.8741 15.2924 30.9261 15.2693 30.984 15.2461C30.8567 15.2982 30.7179 15.3387 30.5791 15.356C30.6427 15.3503 30.7063 15.3387 30.7642 15.3329C30.6427 15.3503 30.527 15.3503 30.4056 15.3329C30.4692 15.3387 30.5328 15.3503 30.5907 15.356C30.475 15.3387 30.3651 15.3098 30.261 15.2693C30.3188 15.2924 30.3709 15.3156 30.4287 15.3387C30.3246 15.2924 30.2263 15.2346 30.1337 15.1652C30.18 15.1999 30.2263 15.2404 30.2783 15.2751C30.2436 15.2519 30.2147 15.223 30.1858 15.1941C30.047 15.0669 29.8793 14.9859 29.6884 14.9859C29.5149 14.9859 29.3124 15.0611 29.1909 15.1941C28.9422 15.4602 28.896 15.9286 29.1909 16.1889L29.1967 16.1831Z" fill="#222222"/>
</svg>
