<svg width="92" height="68" viewBox="0 0 92 68" fill="none" xmlns="http://www.w3.org/2000/svg">
<g filter="url(#filter0_d_307_1059)">
<path d="M37.7574 53.8507C34.5254 52.9507 31.4584 51.3307 28.5051 49.6375C25.5518 47.9443 22.7011 45.9856 20.2521 43.5958C17.772 41.1762 15.6675 38.3402 13.937 35.3094C12.1986 32.2656 11.2538 28.8277 10.5064 25.2734C10.0765 23.2192 9.31938 20.9879 10.1271 19.0175C11.849 14.8176 17.2267 14.4305 21.4358 14.5945C24.8067 14.7244 28.2326 14.8145 31.6507 15.4058C34.9788 15.9791 38.4077 16.4217 41.735 17.3194C45.0192 18.2114 48.286 19.3206 51.5201 20.4267C54.7737 21.5433 57.8 23.2772 60.9502 24.513C64.197 25.7847 67.3745 27.0655 70.4554 28.3537C73.7724 29.741 77.0291 31.2318 79.6303 33.8074C82.2315 36.3829 83.9229 39.9501 83.2608 43.7817C82.6663 47.2035 80.4552 49.6422 76.9557 51.3996C74.2562 52.759 70.9954 54.0699 67.4177 54.6707C64.2306 55.2054 60.8114 55.0466 57.4843 55.1337C54.0228 55.2237 50.5852 55.6499 47.5423 55.4159C43.3636 55.0922 39.8255 54.4264 37.7587 53.8456L37.7574 53.8507Z" fill="#222222"/>
<path d="M38.3135 51.7119C32.8153 50.0982 27.1956 46.8946 22.8322 43.0384C18.6238 39.3145 15.13 34.3858 13.488 28.7214C13.0956 27.3804 12.7934 26.014 12.4925 24.6427C12.2006 23.3223 11.6142 21.7415 11.8761 20.3487C12.2729 18.2444 14.5036 17.4231 16.2162 17.0731C18.352 16.6384 20.5518 16.7722 22.6929 16.8528C25.8379 16.9727 28.9384 17.2001 32.0368 17.7136C38.1266 18.7238 43.9073 20.1729 49.7532 22.1638C52.6403 23.1472 55.3424 24.4776 58.131 25.7113C60.9495 26.9583 63.8443 28.0194 66.6904 29.1816C71.5167 31.1508 77.5064 33.0818 80.2492 38.1343C81.319 40.106 81.7362 42.5086 80.9083 44.7497C80.012 47.1678 77.8097 48.6078 75.7103 49.6526C72.8122 51.0902 69.6707 52.1995 66.5269 52.6101C63.199 53.0433 59.8531 52.8387 56.5233 52.9791C53.1948 53.1145 49.8867 53.45 46.5789 53.1417C43.7932 52.8826 41.0093 52.4454 38.3122 51.717C35.7717 51.0293 34.6581 55.3116 37.1986 55.9993C43.3313 57.6591 49.5122 57.7189 55.8559 57.41C59.3045 57.2409 62.7641 57.4588 66.2029 57.0491C69.4745 56.6609 72.6731 55.718 75.7382 54.3454C81.0306 51.9721 85.9445 47.9044 85.4215 41.1512C84.9174 34.6898 79.8866 30.3786 74.7939 27.891C71.6536 26.3602 68.3676 25.1107 65.1274 23.8136C61.8012 22.4833 58.5654 20.998 55.2811 19.5704C48.8379 16.7695 41.9563 14.8609 35.039 13.733C27.3725 12.486 4.75505 8.38994 8.1326 24.2014C8.89562 27.7815 9.71611 31.3548 11.2175 34.6453C12.7696 38.041 15.0365 41.1951 17.4939 43.8739C22.6795 49.5184 30.029 53.8914 37.1999 55.9943C39.7259 56.7377 40.8356 52.4489 38.3135 51.7119Z" fill="#222222"/>
<path d="M39.5941 46.7861C36.3622 45.8862 33.4329 43.972 30.4797 42.2788C27.5264 40.5856 24.7396 38.6381 22.2906 36.2482C19.8105 33.8286 17.7385 31.0606 16.008 28.0298C14.2696 24.9861 12.8372 21.773 12.0898 18.2187C11.6599 16.1645 11.2137 13.8734 12.0214 11.903C13.7433 7.70307 19.079 7.39168 23.2933 7.55698C26.6643 7.68692 30.0797 7.77433 33.4978 8.36562C36.8259 8.9389 40.0849 9.99201 43.4057 10.8934C46.6899 11.7854 50.1884 12.0675 53.4225 13.1736C56.6762 14.2903 59.6512 16.1785 62.8014 17.4143C66.0482 18.6861 69.2874 19.8152 72.3631 21.102C75.6801 22.4894 78.8476 24.1517 81.4488 26.7272C84.05 29.3028 85.9647 32.8468 85.2974 36.6771C84.703 40.0989 82.4519 42.8411 78.9576 44.5998C76.2581 45.9592 72.8227 46.57 69.245 47.1708C66.0579 47.7055 62.6705 48.4532 59.3434 48.5403C55.8819 48.6302 52.5177 47.8528 49.48 47.6201C45.3013 47.2964 41.674 47.3595 39.6059 46.7838L39.5941 46.7861Z" fill="#E56262"/>
<path d="M40.1517 44.6423C37.2617 43.7771 34.7012 42.1807 32.0961 40.67C29.5693 39.2013 27.0857 37.6519 24.8721 35.6857C20.6912 31.9636 17.2887 27.0262 15.2376 21.5854C14.3683 19.2709 13.0011 15.5716 13.7893 13.0118C14.4131 10.999 16.5104 10.2621 18.2556 9.9584C20.6433 9.5405 23.104 9.74214 25.4906 9.84333C28.5168 9.97021 31.5272 10.1795 34.4895 10.8092C37.414 11.4345 40.2582 12.3688 43.1524 13.1106C46.1614 13.8823 49.2812 14.185 52.2494 15.1138C55.151 16.0198 57.7833 17.6187 60.5562 18.8484C63.2743 20.053 66.0975 21.0036 68.8682 22.0704C73.7612 23.9542 79.4694 26.2394 82.2436 31.2568C84.9151 36.0906 82.0883 40.9609 77.4432 42.9451C74.4396 44.2309 71.1758 44.632 68.0343 45.184C64.723 45.7675 61.3893 46.4372 58.0431 46.3407C54.8353 46.2478 51.6916 45.5655 48.4919 45.3557C45.7308 45.1733 42.8253 45.3322 40.1386 44.6497C37.5928 44.0039 36.474 48.2849 39.025 48.9321C41.76 49.6217 44.7019 49.5372 47.5126 49.7C50.8234 49.8901 54.069 50.5447 57.3785 50.7182C60.9138 50.9017 64.4316 50.2312 67.9323 49.6049C71.1051 49.0395 74.3507 48.6445 77.4412 47.5599C82.7519 45.6946 87.8045 40.9865 87.4609 34.5505C87.1185 28.1744 82.0961 23.6166 77.1932 20.9565C74.1315 19.2946 70.8349 18.1073 67.592 16.8852C64.2212 15.6191 61.0088 14.1507 57.7536 12.6116C54.514 11.0766 51.2218 10.2368 47.7177 9.569C44.2397 8.90803 40.8893 7.82034 37.4588 6.9553C34.0635 6.10482 30.6044 5.69227 27.1031 5.50677C24.2662 5.35881 21.3538 5.11546 18.5065 5.52206C16.0889 5.86186 13.5958 6.62029 11.779 8.52847C9.50263 10.9178 9.28588 14.1727 9.79415 17.2753C11.005 24.6401 14.8962 31.5766 19.7421 36.7486C22.2856 39.4606 25.2506 41.7087 28.3757 43.5981C31.776 45.651 35.2269 47.7875 39.0315 48.9283C41.5549 49.6819 42.6633 45.3982 40.1451 44.646L40.1517 44.6423Z" fill="#222222"/>
<path d="M51.2761 37.6501C53.8002 41.8937 61.4417 37.7723 59.0414 33.0956C56.6931 28.519 48.4594 32.9246 51.2761 37.6501Z" fill="#222222"/>
<path d="M49.4831 38.8015C50.2595 40.0801 51.3606 40.9887 52.7515 41.4045C53.9049 41.7477 55.1912 41.6656 56.3619 41.3207C58.6197 40.6526 60.9146 38.6848 61.4143 36.1203C61.7104 34.6174 61.4894 33.1099 60.7679 31.8131C60.0581 30.5356 58.9725 29.6743 57.6523 29.2228C55.4932 28.4828 52.9243 29.2756 51.1293 30.7783C50.0604 31.6744 49.1972 32.8513 48.8308 34.2601C48.4249 35.821 48.7081 37.4746 49.4792 38.7951C50.0384 39.7521 51.3077 40.2066 52.2768 39.5226C53.1911 38.8784 53.6618 37.5183 53.0649 36.492C52.9414 36.2813 52.8323 36.0582 52.7414 35.829C52.8089 35.998 52.8699 36.1708 52.936 36.3449C52.8231 36.0504 52.7455 35.7489 52.7045 35.4352C52.7275 35.6251 52.7467 35.8087 52.7697 35.9986C52.7391 35.7093 52.7372 35.4166 52.7744 35.1233C52.7518 35.3176 52.7226 35.5157 52.6999 35.7099C52.7464 35.4028 52.8228 35.1089 52.9358 34.8244C52.8609 35.0052 52.79 35.1923 52.7151 35.373C52.8504 35.0457 53.0234 34.7444 53.2252 34.4614C53.1125 34.6161 53.0064 34.7671 52.8937 34.9217C53.1505 34.5773 53.4411 34.2741 53.7616 34.0058C53.619 34.1256 53.4829 34.2417 53.3403 34.3615C53.7289 34.046 54.1434 33.7804 54.5878 33.5714C54.4231 33.6476 54.2637 33.7251 54.099 33.8013C54.5486 33.5936 55.0112 33.4434 55.4919 33.352C55.3169 33.3822 55.1418 33.4124 54.9655 33.4477C55.3965 33.3759 55.8262 33.3523 56.2556 33.3937C56.0716 33.3729 55.8927 33.3534 55.7087 33.3326C56.0663 33.3715 56.4174 33.4574 56.7487 33.5976C56.5778 33.5261 56.4122 33.456 56.2413 33.3845C56.5217 33.5061 56.7772 33.6592 57.0183 33.8463C56.8802 33.7346 56.7421 33.623 56.6053 33.5062C56.8529 33.7113 57.0717 33.9413 57.2643 34.2078C57.1575 34.061 57.0561 33.9156 56.9493 33.7688C57.1445 34.0468 57.3005 34.3471 57.4277 34.6723C57.3615 34.4982 57.2992 34.3305 57.233 34.1564C57.3524 34.4688 57.4365 34.7883 57.4775 35.1236C57.4544 34.9336 57.4353 34.7501 57.4122 34.5601C57.4429 34.8495 57.4409 35.1357 57.4102 35.4253C57.438 35.2323 57.462 35.033 57.4847 34.8387C57.4395 35.1624 57.3591 35.4715 57.2409 35.7762C57.3105 35.5942 57.3867 35.4084 57.4616 35.2276C57.3276 35.5499 57.1597 35.8525 56.9645 36.1318C57.0772 35.9771 57.1833 35.8262 57.296 35.6715C57.0458 36.0123 56.7604 36.3168 56.4451 36.5865C56.5877 36.4667 56.7238 36.3505 56.8664 36.2307C56.4831 36.5476 56.0737 36.8145 55.6345 37.0249C55.7992 36.9487 55.9587 36.8712 56.1234 36.795C55.679 37.0041 55.2164 37.1543 54.7422 37.242C54.9172 37.2118 55.0923 37.1815 55.2686 37.1462C54.8428 37.2195 54.4145 37.2379 53.985 37.1966C54.1691 37.2174 54.3479 37.2369 54.532 37.2577C54.1756 37.2137 53.8298 37.1292 53.4972 36.994C53.6681 37.0655 53.8337 37.1356 54.0046 37.2071C53.7085 37.0814 53.4386 36.9192 53.1845 36.7179C53.3226 36.8296 53.4608 36.9412 53.5976 37.058C53.3539 36.8593 53.1364 36.6242 52.9412 36.3679C53.0479 36.5146 53.1494 36.6601 53.2561 36.8068C53.1871 36.7078 53.1195 36.6036 53.0571 36.5008C52.4783 35.5549 51.2404 35.0869 50.2595 35.7733C49.3531 36.4087 48.8549 37.7887 49.4714 38.8039L49.4831 38.8015Z" fill="#222222"/>
</g>
<defs>
<filter id="filter0_d_307_1059" x="3.79126" y="5.29834" width="87.6863" height="60.2574" filterUnits="userSpaceOnUse" color-interpolation-filters="sRGB">
<feFlood flood-opacity="0" result="BackgroundImageFix"/>
<feColorMatrix in="SourceAlpha" type="matrix" values="0 0 0 0 0 0 0 0 0 0 0 0 0 0 0 0 0 0 127 0" result="hardAlpha"/>
<feOffset dy="4"/>
<feGaussianBlur stdDeviation="2"/>
<feComposite in2="hardAlpha" operator="out"/>
<feColorMatrix type="matrix" values="0 0 0 0 0 0 0 0 0 0 0 0 0 0 0 0 0 0 0.25 0"/>
<feBlend mode="normal" in2="BackgroundImageFix" result="effect1_dropShadow_307_1059"/>
<feBlend mode="normal" in="SourceGraphic" in2="effect1_dropShadow_307_1059" result="shape"/>
</filter>
</defs>
</svg>
