<svg width="84" height="65" viewBox="0 0 84 65" fill="none" xmlns="http://www.w3.org/2000/svg">
<g filter="url(#filter0_d_307_1026)">
<path d="M15.4242 48.3887C17.7276 48.7833 20.7261 49.1541 24.1094 49.7911C26.7836 50.2948 29.7119 50.8518 32.7742 51.3351C35.5997 51.7823 38.5613 52.0221 41.516 52.3304C44.4604 52.636 47.4122 52.8925 50.2862 52.9434C53.3349 52.995 56.3116 53.0087 59.0567 52.6299C62.1705 52.2 65.019 51.3817 67.4196 50.204C70.1153 48.8795 72.4829 47.0927 73.8164 44.5513C75.3205 41.6901 75.8703 38.798 75.6486 36.2228C75.3986 33.3783 73.9273 30.7721 72.1221 28.3985C70.4466 26.1993 68.1513 24.3436 65.6058 22.6721C63.2066 21.0897 60.5482 19.8106 57.7736 18.7887C54.9493 17.7476 52.1326 16.5934 49.3277 16.2346C46.1791 15.8311 43.0948 16.0003 40.5141 16.5879C37.2886 17.321 34.3982 18.7419 31.5393 20.1262C28.65 21.5218 25.8909 23.111 23.1826 24.8411C20.4995 26.5587 17.8801 28.3887 15.1851 30.1096C12.4583 31.8477 9.41291 33.5286 7.8199 36.29C6.22844 39.0455 6.14808 43.1395 8.42085 45.4813C10.1546 47.2676 12.9353 47.9715 15.4175 48.3934L15.4242 48.3887Z" fill="#222222"/>
<path d="M14.9901 50.0585C27.5387 52.1652 40.1227 54.7029 52.8798 54.704C58.8121 54.7068 64.9186 53.8923 69.9911 50.8088C74.8864 47.8391 77.675 42.5196 77.4711 36.8693C77.2751 31.4829 73.5455 26.5003 69.3007 23.2048C64.2868 19.3131 58.0648 16.513 51.8641 14.9772C46.049 13.5353 40.099 14.4417 34.7379 16.7216C28.7885 19.2447 23.3554 22.5794 18.0395 26.1362C13.1597 29.4039 6.20269 32.3743 5.07285 38.6746C4.63002 41.1345 4.95793 43.8267 6.52564 45.9149C8.49101 48.5346 11.8635 49.5074 14.985 50.0572C17.2325 50.4564 18.1199 47.1281 15.8503 46.7296C13.6131 46.3331 10.7794 45.8326 9.36297 43.8988C8.2201 42.3428 8.26113 40.1874 8.80421 38.4565C9.48653 36.2953 11.2931 34.7523 13.1387 33.5006C15.3553 32.0004 17.6458 30.6152 19.8694 29.1296C24.5037 26.0281 29.1942 23.1521 34.2692 20.753C39.032 18.5028 44.0295 17.1379 49.4199 17.9837C52.1517 18.413 54.7683 19.4959 57.338 20.4645C60.007 21.4717 62.5666 22.7316 64.9402 24.3072C68.898 26.9403 72.9088 30.8203 73.7721 35.5751C74.6547 40.4243 72.1781 45.4479 67.9522 47.9464C63.4952 50.5764 58.2456 51.2496 53.074 51.2657C40.5367 51.3026 28.1862 48.8129 15.8524 46.7429C13.6053 46.363 12.7179 49.6913 14.987 50.0705L14.9901 50.0585Z" fill="#222222"/>
<path d="M16.7472 43.0906C19.0506 43.4852 21.9801 44.3109 25.3617 44.9538C28.0359 45.4576 31.002 45.7432 34.0627 46.2325C36.8883 46.6797 39.7626 47.6125 42.7173 47.9208C45.6617 48.2264 48.6357 48.2714 51.5112 48.3163C54.56 48.3679 57.4971 48.071 60.2422 47.6922C63.356 47.2623 66.34 46.869 68.7406 45.6914C71.4364 44.3669 73.1554 42.1302 74.4955 39.5842C75.9997 36.723 76.7551 34.1336 76.5299 31.5511C76.2798 28.7065 75.1675 26.0659 73.3659 23.6996C71.6903 21.5004 69.513 19.4645 66.969 17.787C64.5699 16.2047 61.9156 14.7413 59.1461 13.7208C56.3218 12.6796 53.3303 12.1764 50.5255 11.8176C47.3768 11.4142 44.4143 11.6406 41.8352 12.2223C38.6097 12.9554 35.7082 14.188 32.8508 15.5663C29.9615 16.9619 27.2015 18.5125 24.4932 20.2427C21.8101 21.9603 18.9886 23.4949 16.2885 25.2144C13.5617 26.9526 11.1448 29.0972 9.55338 31.8526C7.96192 34.6081 7.71522 38.1221 9.99311 40.4653C11.7268 42.2516 14.2696 42.6508 16.7518 43.0727L16.7472 43.0906Z" fill="#BCE1A5"/>
<path d="M16.3146 44.7545C19.2046 45.2697 22.0404 46.0774 24.9292 46.6177C28.0789 47.2068 31.2798 47.4513 34.4258 48.033C37.5873 48.6187 40.6499 49.479 43.8616 49.7455C47.0614 50.0153 50.3268 50.1169 53.5385 50.0256C56.6467 49.9329 59.7323 49.5277 62.7944 49.0652C65.5996 48.6446 68.4925 48.055 70.8671 46.4936C75.19 43.6434 78.1619 37.8924 78.3452 32.8347C78.7699 21.2136 65.0779 12.7586 54.7138 10.7472C48.6642 9.57652 42.9197 9.69284 37.1766 11.8223C31.3124 13.997 26.1526 17.2686 20.8528 20.4271C15.533 23.5995 9.30311 26.8228 7.11797 32.9127C6.21157 35.4309 6.30535 38.4137 7.92011 40.6994C9.86661 43.4548 13.1372 44.2094 16.3111 44.7472C18.5617 45.1344 19.4491 41.8061 17.1764 41.4196C14.8781 41.0264 11.8943 40.7041 10.6489 38.4697C9.67632 36.7216 10.0925 34.5743 10.9973 32.9247C13.4687 28.4045 18.3587 26.002 22.6843 23.4145C27.2795 20.6734 31.7465 17.8159 36.7216 15.7167C41.5304 13.6894 46.4281 12.9183 51.6813 13.7029C57.3347 14.5469 62.5466 16.6051 67.1366 20.0031C70.915 22.8004 74.3425 26.8418 74.74 31.5585C74.9482 33.996 74.1578 36.3208 73.0577 38.4692C72.0454 40.4487 70.7691 42.3915 68.8297 43.6252C66.7568 44.9519 64.2145 45.3706 61.7847 45.7356C59.1148 46.1403 56.4314 46.4712 53.722 46.5654C50.6041 46.6747 47.4335 46.5658 44.3212 46.338C41.0592 46.0967 37.9625 45.1572 34.7476 44.6088C31.6742 44.0843 28.5645 43.8251 25.5031 43.2335C22.7126 42.6931 19.9695 41.9287 17.1697 41.4243C14.9222 41.0251 14.0364 44.3474 16.3044 44.7519L16.3146 44.7545Z" fill="#222222"/>
<path d="M48.6808 34.1556C50.978 37.5389 56.9983 34.785 54.8016 31.0573C52.6544 27.4127 46.1183 30.3838 48.6808 34.1556Z" fill="#222222"/>
<path d="M47.1555 35.0176C47.8617 36.0447 48.8104 36.7706 50.0142 37.1668C50.9754 37.487 52.0575 37.4681 53.0265 37.2536C54.8967 36.8326 56.7016 35.3595 56.991 33.4476C57.1684 32.2605 56.9219 31.0846 56.2444 30.0522C55.5934 29.065 54.6831 28.381 53.5602 27.9676C51.6673 27.2773 49.5224 27.8505 48.0158 29.0178C47.2409 29.6214 46.6225 30.5276 46.4191 31.4779C46.1559 32.7002 46.4468 33.958 47.1504 35.0163C47.6621 35.782 48.7707 36.1661 49.5986 35.653C50.3798 35.1724 50.7537 34.1131 50.2103 33.3008C50.0888 33.1159 49.9792 32.9277 49.8845 32.7242C49.9471 32.8618 50.0046 32.9982 50.0688 33.1299C49.9629 32.8851 49.8807 32.6337 49.8389 32.3736C49.861 32.52 49.8883 32.6676 49.9104 32.8139C49.8813 32.5891 49.8728 32.3697 49.8981 32.1462C49.8797 32.3012 49.8628 32.4501 49.8444 32.6051C49.8712 32.3756 49.9324 32.1615 50.0156 31.9467C49.9562 32.091 49.8983 32.2293 49.8389 32.3736C49.9386 32.1376 50.0726 31.9168 50.2357 31.71C50.1451 31.8271 50.0494 31.9428 49.9588 32.0598C50.1451 31.8271 50.3626 31.6217 50.6061 31.4422C50.4843 31.5319 50.3677 31.623 50.2475 31.7067C50.5244 31.504 50.8243 31.3392 51.142 31.2109C51.0024 31.2641 50.8612 31.3232 50.7268 31.3777C51.0681 31.2428 51.4256 31.1505 51.7892 31.0981C51.6369 31.116 51.4831 31.1399 51.3308 31.1578C51.6641 31.1166 51.9983 31.1141 52.3334 31.1501C52.1751 31.1281 52.0152 31.1122 51.8569 31.0901C52.1751 31.1282 52.4824 31.2081 52.7788 31.3299C52.6299 31.272 52.4824 31.2081 52.3334 31.1501C52.5853 31.254 52.8227 31.3924 53.0437 31.5521C52.9194 31.4623 52.7967 31.3665 52.6724 31.2766C52.8867 31.441 53.0778 31.6313 53.254 31.8368C53.1595 31.7164 53.0635 31.602 52.9726 31.4889C53.1754 31.7397 53.338 32.0184 53.4704 32.3084C53.4078 32.1707 53.3503 32.0344 53.2861 31.9027C53.3919 32.1474 53.4742 32.3989 53.5211 32.6602C53.499 32.5139 53.4717 32.3663 53.4496 32.22C53.4858 32.4594 53.4964 32.6922 53.4715 32.9349C53.4899 32.78 53.5068 32.631 53.5252 32.476C53.4953 32.7174 53.4346 32.9509 53.3431 33.1763C53.4025 33.032 53.4604 32.8937 53.5198 32.7494C53.4201 32.9854 53.2861 33.2062 53.1297 33.4083C53.2203 33.2913 53.316 33.1756 53.4065 33.0586C53.2203 33.2913 53.0095 33.4921 52.7711 33.6729C52.8928 33.5831 53.0095 33.4921 53.1297 33.4083C52.8528 33.6111 52.5596 33.7712 52.2419 33.8995C52.3815 33.8463 52.5226 33.7872 52.6571 33.7327C52.3343 33.8596 51.9987 33.9512 51.6485 33.9943C51.8008 33.9764 51.9547 33.9526 52.107 33.9347C51.7567 33.9778 51.4056 33.9823 51.0566 33.9363C51.215 33.9583 51.3748 33.9743 51.5332 33.9963C51.2319 33.9563 50.9451 33.8817 50.6624 33.7699C50.8114 33.8278 50.9589 33.8917 51.1079 33.9496C50.8355 33.8404 50.5827 33.698 50.3495 33.5224C50.4738 33.6122 50.5965 33.708 50.7208 33.7978C50.4876 33.6222 50.2827 33.4219 50.1009 33.1957C50.1969 33.3102 50.2914 33.4306 50.3823 33.5437C50.321 33.4638 50.2597 33.384 50.2 33.2982C49.9331 32.9157 49.5732 32.6176 49.102 32.4951C48.6768 32.3845 48.1231 32.4322 47.7518 32.6615C46.9824 33.1388 46.5834 34.2107 47.1401 35.0136L47.1555 35.0176Z" fill="#222222"/>
</g>
<defs>
<filter id="filter0_d_307_1026" x="0.891846" y="10.0063" width="81.4631" height="52.6977" filterUnits="userSpaceOnUse" color-interpolation-filters="sRGB">
<feFlood flood-opacity="0" result="BackgroundImageFix"/>
<feColorMatrix in="SourceAlpha" type="matrix" values="0 0 0 0 0 0 0 0 0 0 0 0 0 0 0 0 0 0 127 0" result="hardAlpha"/>
<feOffset dy="4"/>
<feGaussianBlur stdDeviation="2"/>
<feComposite in2="hardAlpha" operator="out"/>
<feColorMatrix type="matrix" values="0 0 0 0 0 0 0 0 0 0 0 0 0 0 0 0 0 0 0.25 0"/>
<feBlend mode="normal" in2="BackgroundImageFix" result="effect1_dropShadow_307_1026"/>
<feBlend mode="normal" in="SourceGraphic" in2="effect1_dropShadow_307_1026" result="shape"/>
</filter>
</defs>
</svg>
