<svg width="92" height="74" viewBox="0 0 92 74" fill="none" xmlns="http://www.w3.org/2000/svg">
<g filter="url(#filter0_d_307_1153)">
<path d="M64.315 32.3996C65.7258 32.2768 67.1538 31.9114 68.6081 31.5087C70.0024 31.1228 71.365 30.5531 72.7465 29.9857C74.1186 29.419 75.5433 28.98 76.8498 28.3063C78.2066 27.6049 79.5861 26.9948 80.815 26.2579C81.4158 25.8983 81.9803 25.3553 82.3072 24.7241C82.5523 24.2517 82.4338 23.6943 82.4475 23.1681C82.4829 21.7767 82.5504 20.367 82.2146 19.0352C81.879 17.7073 81.1392 16.5389 80.4782 15.356C79.8126 14.1734 79.0975 13.0341 78.1525 12.0819C77.2074 11.1298 76.1035 10.3859 74.9294 9.74539C73.6692 9.0618 72.4081 8.35884 71.0129 7.9981C69.6272 7.64042 68.1972 7.33715 66.7727 7.15783C65.3247 6.97279 63.811 6.8868 62.2745 6.81445C60.799 6.74846 59.2833 7.03207 57.7518 7.07206C56.267 7.10799 54.7656 7.19203 53.248 7.33191C51.7584 7.46937 50.2607 7.63476 48.7569 7.87455C47.2672 8.11312 45.7906 8.43609 44.3053 8.77538C42.8246 9.11038 41.2797 9.16321 39.8225 9.60505C38.3604 10.0434 36.9877 10.8046 35.5678 11.3482C34.1341 11.8968 32.7254 12.4822 31.3479 13.1388C29.9569 13.8043 28.5751 14.469 27.2593 15.2485C25.9252 16.0374 24.7109 16.9948 23.4711 17.9038C22.2177 18.8256 20.9287 19.6806 19.7979 20.7279C18.6535 21.7841 17.6846 23.0001 16.6816 24.1879C15.6787 25.3757 14.5598 26.4803 13.722 27.8054C12.8926 29.1103 12.3564 30.592 11.7059 32.0291C11.0942 33.3928 10.4305 34.8466 10.052 36.4079C9.68116 37.9295 9.40156 39.5055 9.4146 41.0404C9.42938 42.614 9.66853 44.1876 10.2596 45.5827C10.9974 47.3306 12.221 48.5502 13.6231 49.377C15.0495 50.2211 16.7641 50.5113 18.5051 50.663C20.2134 50.8137 21.964 50.7624 23.6121 50.5101C25.107 50.2827 26.5795 50.0768 27.9856 49.6394C29.419 49.1879 30.7614 48.48 32.122 47.8638C33.487 47.2433 34.8008 46.5223 36.1182 45.7777C37.4264 45.0377 38.7799 44.3677 40.0572 43.5643C41.3345 42.7609 42.6015 41.9351 43.8735 41.1166C45.1455 40.2981 46.3312 39.3277 47.6189 38.5467C48.911 37.7615 50.3054 37.1696 51.6344 36.4745C52.9678 35.7751 54.3125 35.1175 55.7038 34.5608C57.0813 34.0093 58.4771 33.4483 59.9376 33.0801C61.3521 32.7275 62.8203 32.5297 64.3338 32.4018L64.315 32.3996Z" fill="#222222"/>
<path d="M64.3587 33.368C67.5234 33.0575 70.4863 31.9013 73.4532 30.7291C74.9321 30.1454 76.3888 29.587 77.8243 28.8709C79.141 28.2157 80.6486 27.6451 81.817 26.7073C82.2907 26.3277 82.7192 25.8782 83.0272 25.3459C83.4262 24.6578 83.3953 23.9722 83.3939 23.214C83.3863 21.5931 83.5012 19.9926 83.0429 18.4304C82.6345 17.0426 81.8488 15.7889 81.1388 14.5557C80.4285 13.3149 79.6227 12.1328 78.6012 11.1446C77.5799 10.1602 76.368 9.4063 75.1316 8.7323C73.8761 8.0483 72.6085 7.40813 71.2221 7.03495C68.2173 6.22325 65.065 5.87547 61.9311 5.82942C60.2799 5.80594 58.6132 6.05991 56.9611 6.11818C55.3604 6.17587 53.7576 6.29207 52.1571 6.45862C50.5566 6.62518 48.958 6.83433 47.3729 7.13565C45.7322 7.44957 44.1151 7.87034 42.4619 8.11148C40.8876 8.34185 39.3965 8.65443 37.9106 9.28932C36.4612 9.90547 35.016 10.5096 33.5612 11.1107C30.6333 12.3183 27.6574 13.7051 25.044 15.5658C22.5619 17.3296 19.9383 19.0669 17.8673 21.347C16.7895 22.5336 15.7801 23.7842 14.7218 24.9885C13.6946 26.1551 12.7867 27.3774 12.1069 28.786C9.45538 34.2627 6.72182 41.1348 9.78318 46.8336C12.7068 52.2761 19.7915 52.1337 25.1323 51.2566C28.3339 50.729 31.2487 49.437 34.1582 47.9237C36.9899 46.4484 39.7802 44.8833 42.474 43.1478C43.8777 42.244 45.2524 41.3193 46.616 40.3568C47.9614 39.4036 49.3721 38.6547 50.8402 37.9358C53.7168 36.5226 56.562 35.0344 59.6403 34.1559C61.1863 33.7141 62.7808 33.517 64.3684 33.3749C65.5883 33.2687 65.5007 31.3242 64.281 31.4343C61.2827 31.7031 58.5051 32.4076 55.6767 33.5405C52.9401 34.6381 50.2013 35.9965 47.6164 37.4504C46.2988 38.1911 45.1074 39.1387 43.8556 39.9904C42.6492 40.811 41.408 41.5879 40.1764 42.3678C37.6407 43.9807 34.9364 45.4839 32.2314 46.7616C30.8765 47.4006 29.5239 48.09 28.1159 48.5859C26.6847 49.0877 25.1984 49.2987 23.7172 49.521C20.9686 49.9353 17.854 50.0081 15.2451 49.0608C9.52819 46.9841 9.63939 39.5937 11.6332 34.5631C12.6909 31.8928 13.7855 29.0054 15.654 26.7973C17.4868 24.6273 19.2961 22.2454 21.5361 20.5027C23.8169 18.7292 26.1879 16.8856 28.7114 15.5188C31.4218 14.0501 34.2634 13.0017 37.059 11.7628C38.3653 11.1863 39.6602 10.5642 41.0549 10.2911C42.5517 10.0014 44.048 9.80499 45.5431 9.47651C48.5101 8.82546 51.4974 8.41764 54.5072 8.19839C56.012 8.08684 57.5173 8.08802 59.0216 7.96484C60.5678 7.83802 62.0552 7.75519 63.5972 7.8465C66.4236 8.01655 69.4928 8.28599 72.1001 9.40452C74.493 10.4328 76.9249 11.8077 78.4807 13.9705C79.2638 15.0612 79.9256 16.2635 80.559 17.4566C81.2536 18.765 81.5332 20.0939 81.545 21.6017C81.5476 22.282 81.5081 22.9621 81.5202 23.6455C81.5351 24.3908 81.209 24.8314 80.6068 25.2649C79.4159 26.1191 77.9961 26.6666 76.7075 27.3232C75.4232 27.9716 74.0743 28.4313 72.7427 28.9633C71.3743 29.5102 70.0173 30.1027 68.6105 30.5207C67.1896 30.94 65.7516 31.2907 64.2903 31.4335C63.0709 31.5513 63.1583 33.4919 64.3777 33.3741L64.3587 33.368Z" fill="#222222"/>
<path d="M64.1657 29.0877C65.5766 28.9649 67.0382 28.7249 68.4925 28.3222C69.8869 27.9364 71.3053 27.4629 72.6865 26.8916C74.0587 26.3249 75.3403 25.5134 76.6422 24.8401C77.999 24.1387 79.3945 23.5739 80.6236 22.8408C81.2245 22.4813 81.9157 22.0517 82.2427 21.4243C82.4878 20.9519 82.5634 20.3465 82.5771 19.8203C82.6126 18.4289 82.4365 17.0093 82.1009 15.6814C81.7653 14.3534 81.1341 13.1057 80.4685 11.9231C79.8029 10.7405 78.9467 9.68734 78.0017 8.73521C77.0566 7.78308 75.9396 7.05981 74.7608 6.41968C73.5007 5.73608 72.1752 5.26427 70.7847 4.90312C69.3989 4.54544 68.0302 4.04629 66.6011 3.86738C65.153 3.68234 63.6342 3.69012 62.0979 3.62165C60.6225 3.55566 59.1207 3.52696 57.5892 3.56694C56.1044 3.60288 54.5977 3.77681 53.0801 3.9167C51.5905 4.05415 50.0872 4.20058 48.5833 4.4365C47.0936 4.67507 45.5748 4.78784 44.0895 5.12712C42.6088 5.46213 41.1652 6.00001 39.7078 6.43798C38.2458 6.87635 36.8492 7.5229 35.4293 8.06649C33.9955 8.61517 32.5183 9.02766 31.1408 9.68421C29.7498 10.3497 28.3896 11.0787 27.0738 11.8582C25.7397 12.6471 24.4157 13.4506 23.1758 14.3596C21.9225 15.2815 20.8424 16.4177 19.7068 17.4615C18.5624 18.5178 17.33 19.4883 16.3269 20.6723C15.324 21.8601 14.4623 23.1756 13.6243 24.4968C12.795 25.8018 12.1914 27.2426 11.5456 28.6793C10.9339 30.043 10.3552 31.5167 9.97677 33.0779C9.60591 34.5996 9.26473 36.1576 9.27759 37.6886C9.29237 39.2622 9.52635 40.8246 10.1176 42.2236C10.8554 43.9715 12.0517 45.209 13.4539 46.0357C14.8802 46.8799 16.5964 47.2049 18.3329 47.3609C20.0412 47.5116 21.8157 47.5749 23.4638 47.3226C24.9587 47.0952 26.3863 46.6171 27.7874 46.1762C29.2209 45.7248 30.5918 45.131 31.9522 44.511C33.3172 43.8905 34.5999 43.1022 35.9128 42.3618C37.2211 41.6218 38.6312 41.0674 39.913 40.2598C41.1903 39.4564 42.3864 38.5084 43.6537 37.6903C44.9257 36.8718 46.1876 36.0387 47.4752 35.2539C48.7673 34.4686 50.0335 33.6234 51.3669 32.924C52.7003 32.2247 54.1811 31.8896 55.5724 31.333C56.9499 30.7814 58.3452 30.3139 59.8059 29.9495C61.2204 29.5969 62.6475 29.2121 64.1607 29.0804L64.1657 29.0877Z" fill="#E56262"/>
<path d="M64.2095 30.0601C67.2866 29.7766 70.3768 28.9554 73.2507 27.6903C74.7496 27.0309 76.1395 26.1322 77.6169 25.4125C78.9754 24.7498 80.3841 24.1644 81.65 23.3153C82.8253 22.5286 83.4047 21.4866 83.5004 20.0822C83.6084 18.5367 83.3972 16.9607 83.0315 15.4838C82.3112 12.5677 80.5605 9.81523 78.4458 7.8022C76.3064 5.7602 73.5258 4.63344 70.7148 3.87097C69.2289 3.46757 67.777 2.9912 66.2279 2.84607C64.6505 2.69562 63.0513 2.68319 61.4639 2.62305C58.2423 2.49907 55.0604 2.73718 51.84 3.05642C48.6849 3.36997 45.3943 3.68754 42.3224 4.60438C39.1443 5.5499 36.0929 6.81883 32.9641 7.92339C29.9226 8.99702 27.0394 10.6791 24.3046 12.4376C21.6425 14.151 19.3709 16.437 17.0419 18.5919C14.8206 20.6479 12.9809 23.3902 11.6738 26.1289C9.1104 31.4851 6.57058 38.5076 9.89426 43.9074C11.3317 46.2439 13.7208 47.6031 16.3606 48.0927C19.401 48.6563 22.6262 48.6516 25.665 47.831C28.7131 47.0096 31.6804 45.8452 34.471 44.2878C35.8846 43.4998 37.2901 42.7397 38.7296 42.0077C40.1234 41.2992 41.398 40.4338 42.6797 39.5212C45.307 37.6592 48.0667 35.9335 50.8359 34.3158C52.1978 33.5206 53.6171 33.0665 55.085 32.5499C56.5666 32.0281 58.0124 31.4356 59.5317 31.0234C61.0742 30.6052 62.632 30.2168 64.2142 30.0597C65.4336 29.9418 65.3462 28.0012 64.1268 28.119C61.246 28.4009 58.2882 29.2572 55.5639 30.3149C54.25 30.826 52.8733 31.1869 51.586 31.7695C50.2437 32.3763 48.9956 33.2044 47.7406 33.9864C45.2125 35.5598 42.7482 37.2014 40.2858 38.8857C39.0751 39.7144 37.794 40.3315 36.4961 40.9889C35.1754 41.66 33.9213 42.4613 32.6056 43.1397C27.3891 45.8415 21.2357 47.5672 15.6025 45.8954C13.1674 45.1741 11.358 43.2978 10.6475 40.8087C9.82133 37.9291 10.3637 34.8175 11.2679 31.9584C12.1352 29.2113 13.451 26.4602 15.0205 24.0487C15.7989 22.8571 16.6292 21.6765 17.616 20.6496C18.6297 19.5969 19.7715 18.6887 20.8295 17.6866C21.9146 16.6627 22.9719 15.6452 24.1908 14.7885C25.455 13.9007 26.7841 13.1045 28.119 12.335C29.4631 11.5608 30.8453 10.8027 32.2728 10.2196C33.6912 9.64113 35.1534 9.20663 36.5766 8.63164C39.345 7.51568 42.2573 6.37552 45.1845 5.87959C48.1722 5.37452 51.1871 5.06151 54.1938 4.77254C57.1725 4.48601 60.0954 4.51543 63.0682 4.61441C64.5663 4.66675 66.068 4.69158 67.527 5.01566C68.9199 5.32605 70.3219 5.73287 71.6781 6.16311C77.046 7.85795 81.2021 12.6448 81.5989 18.5483C81.6426 19.2056 81.7028 19.9198 81.5453 20.5751C81.3963 21.2103 80.9338 21.5267 80.4155 21.8518C79.1656 22.6411 77.797 23.1841 76.4901 23.8501C75.2106 24.502 73.9835 25.2777 72.6726 25.8546C71.3158 26.451 69.9019 26.9202 68.485 27.3235C67.0543 27.7319 65.6021 27.975 64.1311 28.1109C62.9115 28.2248 62.9988 30.1616 64.2185 30.0515L64.2095 30.0601Z" fill="#222222"/>
<path d="M16.2187 32.7989C15.5876 34.561 16.956 36.5067 18.8205 35.765C20.593 35.0585 20.4305 32.0745 18.5929 31.5422C17.3189 31.1748 16.568 31.8352 16.2232 32.7946L16.2187 32.7989Z" fill="#222222"/>
<path d="M15.2944 32.6189C14.8641 33.858 15.223 35.2889 16.1173 36.1521C17.0653 37.0651 18.5966 37.1262 19.7027 36.3611C21.6656 35.0042 21.32 31.5849 19.22 30.7295C18.4962 30.4347 17.6083 30.337 16.8626 30.6975C16.1674 31.038 15.6476 31.6393 15.3769 32.3745C15.281 32.6317 15.2307 32.8655 15.3128 33.1306C15.3834 33.35 15.5621 33.5795 15.772 33.6739C16.1917 33.8591 16.8635 33.7267 17.0507 33.2127C17.0883 33.1122 17.126 33.0156 17.173 32.9181C17.1944 32.8735 17.2202 32.8246 17.2462 32.7795C17.2679 32.7427 17.3768 32.566 17.2853 32.7139C17.1937 32.858 17.2947 32.7131 17.3212 32.6797C17.3565 32.6338 17.3969 32.5953 17.437 32.553C17.5392 32.4352 17.27 32.6841 17.3967 32.5914C17.442 32.5603 17.4872 32.5252 17.5324 32.4902C17.5505 32.477 17.5781 32.4668 17.5915 32.4539C17.5915 32.4539 17.3899 32.5454 17.4774 32.5144C17.5234 32.4988 17.5643 32.4719 17.6103 32.4562C17.6563 32.4405 17.7072 32.4283 17.7531 32.4088C17.8403 32.3739 17.628 32.4352 17.628 32.4352C17.6563 32.4405 17.7022 32.421 17.7301 32.4185C17.786 32.4137 17.8372 32.4092 17.8931 32.4044C17.921 32.4019 17.9491 32.4034 17.9773 32.4048C18.0797 32.3959 17.8648 32.399 17.8695 32.3986C17.9928 32.4384 18.147 32.4367 18.2746 32.4684C18.3172 32.4802 18.5116 32.5411 18.3455 32.4855C18.1841 32.4296 18.3552 32.4925 18.3981 32.5121C18.4364 32.5321 18.4792 32.5478 18.5177 32.5716C18.556 32.5916 18.71 32.691 18.5655 32.5947C18.4255 32.498 18.556 32.5916 18.5898 32.6159C18.6238 32.6441 18.6576 32.6683 18.6869 32.6969C18.7163 32.7255 18.7502 32.7536 18.7798 32.786C18.7944 32.8003 18.8093 32.8185 18.8239 32.8327C18.9121 32.9223 18.7551 32.7571 18.7499 32.7459C18.7905 32.8162 18.8541 32.8807 18.8947 32.951C18.9151 32.9881 18.9401 33.0248 18.9605 33.062C18.9706 33.0805 18.9808 33.0991 18.991 33.1176C19.0464 33.2061 18.9023 32.9115 18.9394 33.0093C19.0035 33.1865 19.0579 33.3568 19.1081 33.5391C19.1249 33.5998 19.073 33.2777 19.0903 33.4551C19.0923 33.4977 19.0988 33.5399 19.1056 33.586C19.1098 33.6789 19.114 33.7719 19.1183 33.8687C19.1189 33.8803 19.1101 33.9978 19.1148 33.9974C19.1006 33.9947 19.1439 33.711 19.1201 33.9075C19.1055 33.9982 19.0908 34.0889 19.0669 34.1804C19.055 34.2281 19.0385 34.2762 19.0266 34.3239C18.9865 34.4713 19.1197 34.1058 19.0557 34.2436C19.0175 34.3286 18.9837 34.4093 18.9407 34.4908C18.919 34.5277 18.8971 34.5607 18.8754 34.5976C18.837 34.6787 18.9677 34.469 18.9586 34.4737C18.9452 34.4866 18.9322 34.511 18.9234 34.5234C18.8659 34.5946 18.8035 34.6622 18.7457 34.7295C18.648 34.843 18.9262 34.5854 18.804 34.6738C18.7678 34.7003 18.7363 34.7264 18.7001 34.7529C18.6638 34.7794 18.6273 34.7981 18.5911 34.8246C18.4778 34.9045 18.8158 34.7273 18.6368 34.8012C18.5313 34.8454 18.4257 34.8895 18.315 34.9225C18.2873 34.9288 18.2595 34.9351 18.2366 34.9449C18.1397 34.9728 18.3616 34.9185 18.3523 34.9193C18.3005 34.9121 18.2223 34.9384 18.1712 34.9467C18.12 34.9511 18.0688 34.9556 18.0174 34.9562C17.9941 34.9582 17.9658 34.9529 17.9425 34.9549C17.9332 34.9558 18.168 34.9781 18.0736 34.9591C17.9744 34.9366 17.8711 34.9262 17.7673 34.9041C17.6164 34.8745 17.9626 34.9843 17.8196 34.9229C17.7766 34.9033 17.7338 34.8875 17.6909 34.868C17.6479 34.8484 17.6095 34.8245 17.5712 34.8045C17.552 34.7945 17.5327 34.7806 17.5134 34.7668C17.4224 34.7202 17.6733 34.8928 17.6001 34.8253C17.5172 34.747 17.4252 34.6772 17.342 34.595C17.2395 34.4989 17.4763 34.7739 17.3617 34.6166C17.327 34.573 17.297 34.5289 17.2668 34.481C17.2366 34.4331 17.2065 34.389 17.1808 34.3368C17.1705 34.3144 17.1603 34.2959 17.1452 34.2738C17.0841 34.1625 17.1812 34.3446 17.1869 34.3674C17.1632 34.2567 17.1024 34.1531 17.0694 34.0432C17.0528 33.9863 17.0456 33.9286 17.0292 33.8756C17.0015 33.7808 17.0496 34.0177 17.0537 34.0057C17.0523 33.9747 17.0459 33.9364 17.0399 33.9058C17.0248 33.7788 17.0237 33.6505 17.0226 33.5223C17.0225 33.3123 16.9934 33.7037 17.019 33.546C17.0302 33.4828 17.0369 33.4239 17.048 33.3607C17.0747 33.2261 17.1108 33.0947 17.1565 32.9662C17.2352 32.7416 17.1455 32.4111 17.025 32.2271C16.8995 32.0359 16.6675 31.8655 16.4369 31.8312C16.1922 31.7941 15.9181 31.8335 15.7102 31.9916C15.498 32.1579 15.39 32.3539 15.3034 32.6104L15.2944 32.6189Z" fill="#222222"/>
<path d="M36.5663 28.1189C35.9352 29.881 37.4456 31.865 39.31 31.1233C41.0825 30.4168 41.0026 27.1883 39.1604 26.6604C37.8864 26.293 36.9063 27.156 36.5663 28.1189Z" fill="#222222"/>
<path d="M35.642 27.9387C35.2081 29.2015 35.6298 30.6775 36.5746 31.5207C37.5583 32.3956 39.1348 32.5267 40.2466 31.6794C42.1086 30.2612 41.9357 26.8386 39.8541 25.8727C39.0998 25.5223 38.1493 25.4883 37.3773 25.8861C36.6371 26.2655 36.0252 26.8982 35.7293 27.6978C35.5501 28.1801 35.6283 28.776 36.1291 28.9968C36.5488 29.182 37.2206 29.0496 37.4078 28.5355C37.4496 28.4269 37.4917 28.3221 37.5432 28.2204C37.5689 28.1677 37.5994 28.1183 37.6299 28.069C37.7293 27.8893 37.4882 28.2447 37.6212 28.0853C37.6966 27.9932 37.7721 27.905 37.8522 27.8163C37.9901 27.6604 37.6758 27.9483 37.8432 27.8249C37.9065 27.7766 37.9698 27.7283 38.0332 27.6839C38.0515 27.6745 38.0649 27.6617 38.0832 27.6523C38.1744 27.6016 38.1515 27.6114 38.0192 27.6851C38.0475 27.6904 38.152 27.623 38.1842 27.6124C38.2394 27.5921 38.2994 27.5752 38.3546 27.5548C38.5572 27.4866 38.1311 27.5743 38.3455 27.5595C38.4107 27.5538 38.4712 27.5486 38.5364 27.5429C38.5597 27.5409 38.5783 27.5392 38.6017 27.5411C38.7094 27.5434 38.6906 27.5411 38.5453 27.5343C38.5726 27.5164 38.7194 27.5581 38.7477 27.5634C38.8279 27.5797 38.9184 27.6185 39.0029 27.6267C38.7918 27.6101 38.8318 27.5638 38.9415 27.6126C38.9796 27.6287 39.0226 27.6483 39.0609 27.6683C39.0992 27.6883 39.1332 27.7165 39.1713 27.7326C38.9422 27.6281 39.0407 27.6351 39.1135 27.6949C39.1768 27.7516 39.2401 27.8083 39.3035 27.865C39.406 27.9611 39.308 27.9657 39.2589 27.8105C39.275 27.8558 39.3335 27.909 39.3634 27.9492C39.4134 28.0226 39.4495 28.0973 39.4995 28.1707C39.5903 28.3183 39.4051 27.9417 39.4686 28.1073C39.4792 28.1336 39.4897 28.1599 39.5004 28.19C39.5322 28.2728 39.5593 28.356 39.5866 28.4431C39.5978 28.4849 39.6092 28.5306 39.6205 28.5724C39.6782 28.8162 39.5974 28.3721 39.6191 28.5414C39.6413 28.7222 39.6588 28.9035 39.653 29.0867C39.6551 29.1332 39.6477 29.1766 39.6451 29.2235C39.6541 28.9039 39.6613 29.0627 39.6463 29.1456C39.6324 29.2518 39.6136 29.3546 39.5856 29.4581C39.5735 29.502 39.5615 29.5458 39.5494 29.5896C39.5135 29.7249 39.4639 29.6632 39.5791 29.5209C39.5303 29.5796 39.5074 29.6944 39.4731 29.7635C39.4516 29.8042 39.4299 29.8411 39.4082 29.878C39.348 29.996 39.3032 29.9338 39.4521 29.8158C39.3844 29.8684 39.3194 29.9829 39.2617 30.0502C39.1774 30.1509 39.1463 30.0836 39.3203 30.0023C39.2882 30.0168 39.2482 30.063 39.2212 30.0848C39.1579 30.1331 39.0522 30.1734 39.0032 30.2282C39.1144 30.1019 39.1953 30.1337 39.0669 30.1877C39.0165 30.2115 38.9612 30.228 38.9106 30.248C38.8737 30.259 38.8322 30.2703 38.7955 30.2852C38.6939 30.3135 38.7217 30.3072 38.8789 30.2702C38.8418 30.2773 38.8048 30.2844 38.7675 30.2876C38.6608 30.3047 38.5478 30.2873 38.4412 30.3083C38.6542 30.2625 38.6054 30.3212 38.4878 30.3042C38.4361 30.2971 38.3843 30.2899 38.337 30.2785C38.2898 30.267 38.2374 30.2444 38.1904 30.2407C38.3967 30.2538 38.3377 30.294 38.233 30.2525C38.1235 30.2076 38.0314 30.134 37.9265 30.0887C38.1409 30.1789 38.0376 30.1684 37.9648 30.1087C37.9115 30.0666 37.8628 30.0242 37.814 29.9779C37.7798 29.9459 37.7448 29.8945 37.7063 29.8706C37.8052 29.9903 37.8249 30.0119 37.7655 29.9393C37.7457 29.9138 37.7257 29.8845 37.7058 29.859C37.6359 29.7601 37.5753 29.6604 37.5144 29.5529C37.4181 29.3863 37.599 29.7711 37.5299 29.5865C37.5037 29.5227 37.4774 29.4589 37.4557 29.3908C37.4394 29.3416 37.423 29.2886 37.4114 29.2391C37.3437 28.9805 37.4236 29.4052 37.4064 29.2317C37.3914 29.1047 37.3811 28.9812 37.3802 28.8568C37.3778 28.8026 37.3893 28.7471 37.3868 28.6929C37.4001 28.9873 37.3812 28.7751 37.4003 28.6801C37.4225 28.5498 37.4588 28.4222 37.5046 28.2977C37.6744 27.8124 37.2507 27.2271 36.7897 27.1622C36.2345 27.0822 35.8337 27.4204 35.6562 27.9414L35.642 27.9387Z" fill="#222222"/>
<path d="M47.5389 13.2148C46.9454 14.8803 48.3814 16.6646 50.1449 15.9667C51.8211 15.2997 51.7534 12.4474 50.0152 11.9454C48.8123 11.599 47.8673 12.3074 47.5435 13.2144L47.5389 13.2148Z" fill="#222222"/>
<path d="M46.6147 13.0386C46.2056 14.2291 46.5999 15.6142 47.5002 16.403C48.4588 17.2412 49.9401 17.3339 51.0321 16.5661C52.8758 15.2623 52.6856 11.9734 50.6378 11.1329C49.909 10.8308 49.0183 10.7761 48.2726 11.1365C47.5773 11.4732 46.9816 12.05 46.7022 12.8015C46.6063 13.0587 46.5561 13.2926 46.6381 13.5576C46.7088 13.777 46.8874 14.0065 47.102 14.1005C47.5217 14.2857 48.1935 14.1533 48.3807 13.6392C48.4184 13.5426 48.4561 13.446 48.5082 13.3559C48.5297 13.3152 48.5695 13.265 48.5862 13.2208C48.5862 13.2208 48.4585 13.3953 48.5207 13.3237C48.543 13.2985 48.5602 13.2659 48.5824 13.2406C48.6133 13.199 48.649 13.1609 48.6846 13.1228C48.7114 13.0933 48.8458 12.9649 48.72 13.077C48.5941 13.189 48.7383 13.0676 48.77 13.0454C48.8198 13.0099 48.8698 12.9784 48.9196 12.9429C49.0555 12.8455 48.7317 13.0254 48.8829 12.9578C48.9334 12.9378 48.9791 12.9144 49.0296 12.8945C49.0801 12.8745 49.131 12.8623 49.1864 12.8458C49.334 12.8018 48.9682 12.8804 49.1821 12.854C49.2379 12.8491 49.2938 12.8442 49.3543 12.839C49.3916 12.8357 49.5928 12.8415 49.4335 12.8321C49.2743 12.8265 49.4807 12.8435 49.5183 12.848C49.5937 12.8609 49.6644 12.8742 49.7402 12.8948C49.7686 12.904 49.7971 12.9132 49.8254 12.9185C49.915 12.9379 49.6834 12.8803 49.6972 12.8752C49.7108 12.8663 49.7972 12.9171 49.8116 12.9236C49.8497 12.9397 49.888 12.9597 49.9216 12.9801C49.9599 13.0001 50.1091 13.096 49.9597 12.9963C49.8152 12.9 49.9406 12.9862 49.9744 13.0105C50.0036 13.0352 50.0374 13.0595 50.0667 13.088C50.0961 13.1166 50.1254 13.1452 50.1499 13.1702C50.2772 13.2992 50.0306 13.0134 50.1104 13.1231C50.1554 13.1892 50.205 13.251 50.2455 13.3214C50.2657 13.3546 50.2861 13.3917 50.3016 13.4254C50.3677 13.544 50.207 13.1925 50.2709 13.3658C50.3023 13.4409 50.3291 13.5163 50.3514 13.596C50.3624 13.6339 50.3737 13.6757 50.3847 13.7137C50.3856 13.733 50.3958 13.7516 50.3968 13.7748C50.4305 13.9002 50.3724 13.6486 50.3767 13.6405C50.3607 13.7002 50.3989 13.8213 50.4065 13.8868C50.4105 13.9758 50.4146 14.0649 50.4093 14.1548C50.4114 14.2013 50.3952 14.3622 50.41 14.1703C50.4247 13.9785 50.4086 14.1394 50.4058 14.1824C50.391 14.2692 50.3763 14.356 50.3522 14.4437C50.3403 14.4914 50.3236 14.5356 50.3115 14.5794C50.2955 14.6392 50.4126 14.3334 50.3403 14.4914C50.3019 14.5725 50.2681 14.6532 50.2248 14.7309C50.2119 14.7553 50.1868 14.8197 50.164 14.8334C50.2051 14.8104 50.3183 14.6255 50.2119 14.7553C50.1588 14.8222 50.1011 14.8894 50.0385 14.9532C50.0298 14.9656 50.0075 14.9909 49.9937 14.996C49.9661 15.0062 50.1877 14.8391 50.1013 14.8933C50.0696 14.9155 50.0382 14.9454 50.0065 14.9677C49.9747 14.9899 49.9384 15.0125 49.902 15.0351C49.7479 15.1418 50.0853 14.953 49.9568 15.007C49.8651 15.0461 49.7734 15.0852 49.6813 15.1165C49.6537 15.1267 49.6258 15.1291 49.6028 15.1389C49.5063 15.1745 49.7279 15.1125 49.7232 15.1129C49.6627 15.1181 49.6026 15.135 49.5423 15.1442C49.4911 15.1486 49.4399 15.1531 49.3933 15.1571C49.3514 15.1608 49.1734 15.1529 49.3467 15.1612C49.5247 15.169 49.3467 15.1612 49.3043 15.1532C49.2479 15.1465 49.196 15.1354 49.1441 15.1244C49.1015 15.1125 49.0539 15.0934 49.0114 15.0854C49.0021 15.0862 49.2162 15.1687 49.1348 15.1252C49.1156 15.1152 49.092 15.1095 49.0728 15.0995C48.9823 15.0607 48.9003 15.0056 48.8094 14.9591C48.728 14.9156 48.9205 15.0389 48.9155 15.0315C48.8959 15.0099 48.867 14.993 48.8429 14.9756C48.7994 14.9444 48.7604 14.9089 48.7213 14.8695C48.6823 14.834 48.6474 14.7865 48.6086 14.7549C48.5989 14.748 48.7427 14.9299 48.6924 14.8526C48.6726 14.8271 48.6529 14.8055 48.6377 14.7796C48.573 14.6919 48.5174 14.5995 48.4617 14.5033C48.3652 14.3328 48.5254 14.6727 48.4772 14.5369C48.4561 14.4843 48.4353 14.4356 48.4188 14.3826C48.4024 14.3295 48.386 14.2765 48.3696 14.2235C48.3639 14.2007 48.3627 14.1736 48.3525 14.155C48.3197 14.049 48.3812 14.378 48.3715 14.2661C48.3663 14.1499 48.3473 14.0388 48.3467 13.9222C48.3456 13.899 48.3444 13.8718 48.3434 13.8486C48.3374 13.7169 48.3379 13.9346 48.3296 13.9587C48.3412 13.9032 48.343 13.8408 48.3544 13.7815C48.3766 13.6513 48.4131 13.5275 48.4542 13.4034C48.5329 13.1788 48.4432 12.8483 48.3228 12.6643C48.1973 12.473 47.9652 12.3027 47.7346 12.2683C47.4899 12.2313 47.2159 12.2707 47.008 12.4288C46.7958 12.595 46.6877 12.7911 46.5965 13.0479L46.6147 13.0386Z" fill="#222222"/>
</g>
<defs>
<filter id="filter0_d_307_1153" x="0.308105" y="2.58965" width="91.2205" height="71.127" filterUnits="userSpaceOnUse" color-interpolation-filters="sRGB">
<feFlood flood-opacity="0" result="BackgroundImageFix"/>
<feColorMatrix in="SourceAlpha" type="matrix" values="0 0 0 0 0 0 0 0 0 0 0 0 0 0 0 0 0 0 127 0" result="hardAlpha"/>
<feOffset dy="14"/>
<feGaussianBlur stdDeviation="4"/>
<feComposite in2="hardAlpha" operator="out"/>
<feColorMatrix type="matrix" values="0 0 0 0 0 0 0 0 0 0 0 0 0 0 0 0 0 0 0.25 0"/>
<feBlend mode="normal" in2="BackgroundImageFix" result="effect1_dropShadow_307_1153"/>
<feBlend mode="normal" in="SourceGraphic" in2="effect1_dropShadow_307_1153" result="shape"/>
</filter>
</defs>
</svg>
