<svg width="87" height="74" viewBox="0 0 87 74" fill="none" xmlns="http://www.w3.org/2000/svg">
<g filter="url(#filter0_d_307_1046)">
<path d="M43.1278 17.7016C41.743 17.8939 40.34 18.4374 38.9552 18.6298C37.5715 18.8177 36.1887 18.9872 34.8051 19.1752C33.4202 19.3676 32.0415 19.4772 30.6578 19.6652C29.2742 19.8532 27.8796 20.2163 26.4995 20.4052C25.1158 20.5931 23.7451 20.5832 22.3614 20.7711C20.9766 20.9635 19.5822 21.3407 18.2021 21.5296C16.3632 21.7818 14.4571 21.7449 12.6834 22.8709C11.4118 23.6779 10.4099 25.1638 9.51616 26.6778C8.62352 28.1874 7.86451 29.8488 7.50923 31.6292C7.15052 33.4228 7.04288 35.2864 7.38715 36.921C7.73785 38.59 8.38341 40.0126 9.21973 41.1899C10.0341 42.3334 11.0598 43.2557 12.0924 44.1516C13.1128 45.035 14.2679 45.6818 15.2747 46.5289C16.4267 47.498 17.5068 48.6403 18.6009 49.7583C19.6829 50.8637 20.6526 52.1787 21.7207 53.3226C22.7913 54.4719 23.9731 55.43 25.0655 56.51C26.1761 57.6088 27.3224 58.5999 28.5012 59.5104C29.6982 60.4397 30.8717 61.4003 32.1808 62.017C33.4862 62.6327 34.866 63.0664 36.324 63.2583C37.8047 63.4514 39.3222 63.1484 40.8378 62.8823C42.3497 62.6153 43.8682 62.3969 45.3904 61.8095C46.8948 61.2315 48.4007 60.4994 49.8991 59.7373C51.3974 58.9752 52.8684 58.0374 54.335 57.2201C55.9322 56.3292 57.5015 55.3093 59.0987 54.4183C60.696 53.5274 62.3388 52.9199 63.9361 52.029C65.5333 51.138 67.154 50.3937 68.7501 49.5071C70.2713 48.6573 71.8567 47.59 73.378 46.4734C74.9337 45.3281 76.3159 43.8147 77.5501 42.2488C78.8409 40.6134 79.8312 38.7874 80.4102 36.5314C80.897 34.6447 81.2015 32.734 80.9633 30.9725C80.7304 29.2498 80.0288 27.747 79.2842 26.3501C78.5495 24.9745 77.6853 23.6823 76.6245 22.8211C75.5382 21.9394 74.3469 21.2691 73.0985 20.8039C71.8608 20.3416 70.5137 20.2114 69.1919 19.9987C67.8773 19.788 66.5321 19.7097 65.2091 19.5904C63.8644 19.4655 62.5746 19.0411 61.23 18.9162C59.8853 18.7913 58.4973 18.9219 57.1527 18.797C55.8081 18.672 54.4491 18.6464 53.1034 18.5259C51.7587 18.4009 50.4132 18.2945 49.0685 18.1696C47.7239 18.0446 46.4219 17.6967 45.0773 17.5718" fill="#222222"/>
<path d="M43.2073 16.4629C41.7201 16.6942 40.2283 17.2239 38.7395 17.4314C37.1587 17.6524 35.5767 17.8637 33.9967 18.0521C32.4489 18.2349 30.9065 18.3675 29.3519 18.6656C27.8665 18.9488 26.3978 19.2271 24.9208 19.3299C22.0422 19.5271 19.1429 20.159 16.2534 20.5313C14.9329 20.6983 13.577 21.0012 12.3037 21.8593C11.1147 22.6597 10.1222 23.9467 9.25808 25.3467C7.27432 28.567 6.01119 32.2558 6.30965 36.0931C6.58701 39.6861 8.36001 42.3055 10.3293 44.1848C11.4419 45.2467 12.6355 46.1002 13.8426 46.9759C15.0569 47.8535 16.1542 48.9442 17.2398 50.0506C18.3424 51.1801 19.3649 52.4105 20.4159 53.6202C21.4463 54.8058 22.5713 55.8194 23.6871 56.854C25.9319 58.9313 28.1575 61.0973 30.6742 62.632C33.1884 64.1613 36.0713 64.8501 39.0403 64.4236C41.9854 64.0003 44.8682 63.3875 47.7881 62.0258C50.7995 60.6224 53.7729 58.8626 56.7197 57.0866C62.5088 53.5963 68.6525 51.6122 74.229 47.1348C76.5818 45.2465 79.1114 42.3975 80.4657 39.0977C81.8956 35.6255 82.4016 31.6088 81.3444 28.4264C80.302 25.2899 78.5086 22.5715 76.2603 21.0551C73.704 19.3322 70.775 18.8654 67.8027 18.5795C64.9024 18.2981 62.0785 17.634 59.1316 17.6355C56.0469 17.634 52.9985 17.2861 49.9571 17.0149C48.416 16.8763 46.9224 16.5253 45.3906 16.3658C44.2747 16.2488 43.6239 18.6922 44.7554 18.8085C46.1937 18.9578 47.5937 19.2985 49.0366 19.4302C50.4747 19.5654 51.9165 19.7015 53.3578 19.8095C54.7692 19.9143 56.1878 20.021 57.6059 20.0855C58.9282 20.1484 60.2733 20.0347 61.5747 20.2373C62.9204 20.4468 64.2281 20.7728 65.5953 20.8849C67.0297 21.0051 68.4442 21.1716 69.8594 21.3804C72.4619 21.7716 75.1527 22.6071 77.0245 24.9058C78.6653 26.9244 80.3937 29.9817 80.0808 33.4774C79.7533 37.1332 78.2014 40.0539 76.0635 42.5506C73.8052 45.1846 71.0871 46.9686 68.4451 48.4306C65.7412 49.9234 63.0053 51.258 60.274 52.575C54.7627 55.2339 49.3806 59.7477 43.7114 61.1202C40.9574 61.7852 38.033 62.4246 35.4147 61.828C32.7567 61.2211 30.5581 59.6615 28.3602 57.8773C27.257 56.9864 26.2148 55.9943 25.1702 54.997C24.1122 53.9915 23.0063 53.0671 22.0127 51.9472C20.0911 49.7807 18.2297 47.5456 16.1147 45.694C14.0069 43.8442 11.5664 42.6524 9.83072 40.141C8.24379 37.8414 7.58329 34.6123 8.52068 31.0964C9.37691 27.8778 11.6042 24.3274 14.0525 23.433C15.3189 22.9711 16.5995 22.9577 17.8567 22.7976C19.2333 22.6219 20.6171 22.256 21.9909 22.0468C23.3325 21.8431 24.6564 21.8409 25.9915 21.6918C27.3744 21.5364 28.7667 21.1821 30.1512 20.9616C33.0599 20.5007 35.9552 20.2984 38.8618 19.8604C40.2512 19.6505 41.644 19.1465 43.0345 18.9322C44.1968 18.7522 44.3636 16.2766 43.1965 16.4601L43.2073 16.4629Z" fill="#222222"/>
<path d="M44.0466 14.0638C42.6629 14.2518 41.2667 14.68 39.8831 14.868C38.4982 15.0603 37.1327 14.9862 35.749 15.1741C34.3654 15.3621 32.9717 15.7067 31.5916 15.8956C30.2068 16.088 28.8158 16.452 27.431 16.6443C26.0462 16.8367 24.6646 17.0018 23.2834 17.1951C21.8997 17.3831 20.5416 17.147 19.1568 17.3393C17.3179 17.5915 15.386 17.9647 13.6122 19.0906C12.3407 19.8977 11.368 21.4192 10.4731 22.9376C9.58043 24.4472 8.65796 26.0567 8.30154 27.8415C7.94283 29.6351 8.02411 31.4822 8.36723 33.1212C8.71793 34.7903 9.27944 36.2847 10.1158 37.462C10.9301 38.6055 11.9993 39.4641 13.0319 40.36C14.0523 41.2434 15.0813 42.1384 16.0845 42.9845C17.2365 43.9537 18.2904 45.1079 19.3845 46.2258C20.4701 47.3322 21.5334 48.4796 22.6015 49.6235C23.6721 50.7728 24.8645 51.7196 25.9581 52.7952C27.0687 53.894 28.2887 54.7497 29.4639 55.6593C30.6609 56.5886 31.8779 57.3967 33.187 58.0134C34.4924 58.6291 35.8046 59.2044 37.2673 59.3928C38.7481 59.5859 40.2356 59.6497 41.7511 59.3836C43.2631 59.1166 44.8003 58.7673 46.326 58.1808C47.8304 57.6028 49.3484 56.8833 50.8468 56.1211C52.3452 55.359 53.8043 54.3338 55.2719 53.5122C56.8692 52.6213 58.4924 51.8822 60.0849 50.9947C61.6821 50.1038 63.2397 49.0106 64.8369 48.1197C66.4342 47.2287 68.0214 46.3024 69.6175 45.4159C71.1387 44.566 72.8109 43.9193 74.3298 42.7973C75.8855 41.6521 77.2449 40.0486 78.4828 38.4836C79.7736 36.8481 81.004 35.0752 81.5865 32.8202C82.0733 30.9335 81.9437 29.0503 81.7055 27.2888C81.4726 25.5661 81.0757 23.8383 80.33 22.4457C79.5952 21.0701 78.5886 19.9562 77.5277 19.0951C76.4414 18.2133 75.2678 17.5195 74.0194 17.0544C72.7817 16.5921 71.4799 16.2582 70.158 16.0456C68.8434 15.8348 67.4588 15.9523 66.1358 15.833C64.7912 15.7081 63.4924 15.3329 62.1478 15.2079C60.8032 15.083 59.4699 14.9142 58.1242 14.7937C56.7795 14.6688 55.4395 14.5263 54.0937 14.4058C52.7491 14.2808 51.4046 14.17 50.0588 14.0494C48.7142 13.9245 47.3441 13.9568 45.9995 13.8319" fill="#F7F377"/>
<path d="M44.1264 12.8251C42.6497 13.045 41.1629 13.4965 39.6844 13.6645C38.2095 13.8334 36.7533 13.7825 35.2721 14.02C32.2883 14.5036 29.2985 15.1728 26.3194 15.5639C24.7779 15.7671 23.2242 16.0466 21.7051 16.0308C20.2889 16.0184 18.9013 16.0883 17.4557 16.3959C16.1163 16.6797 14.7452 17.1004 13.4511 17.9203C12.2021 18.7145 11.1916 19.9968 10.296 21.4588C9.29821 23.0768 8.28694 24.7616 7.69279 26.6766C7.1376 28.4565 7.06559 30.3902 7.24821 32.1138C7.62759 35.7287 9.08535 38.4067 11.1579 40.3034C13.4169 42.3704 15.8067 44.1858 17.9674 46.4238C20.1924 48.7254 22.3737 51.0765 24.6947 53.2158C29.1963 57.3688 34.0806 61.0409 40.1137 60.7838C43.1046 60.6579 46.1957 59.5843 49.163 58.1881C52.1386 56.7894 55.0127 54.8494 57.9726 53.3483C60.91 51.8601 63.7705 49.9867 66.6771 48.336C68.1125 47.52 69.5451 46.6705 70.9961 45.9429C72.3317 45.2742 73.6746 44.6215 74.9463 43.6365C76.2073 42.6629 77.365 41.3767 78.455 40.0401C79.5379 38.7158 80.6139 37.3148 81.4366 35.6746C83.1931 32.1891 83.0064 28.2919 82.2534 24.9451C80.6355 17.7354 74.5265 14.9857 69.1724 14.703C67.6775 14.6233 66.2029 14.6284 64.739 14.3554C63.2272 14.0746 61.699 13.916 60.1647 13.7511C57.1009 13.4179 54.0261 13.1568 50.9511 12.8815C49.4136 12.7439 47.8563 12.7415 46.3165 12.6127C45.1985 12.5186 44.5477 14.962 45.6813 15.0554C51.4378 15.5364 57.2994 15.628 62.9699 16.5875C64.3039 16.8127 65.6156 17.0789 66.9855 17.1214C68.3854 17.1671 69.7481 17.2078 71.1046 17.509C73.7252 18.0968 76.2983 19.178 78.2555 21.4146C80.0584 23.4753 80.9992 26.6322 81.0119 30.119C81.0245 33.8866 78.8092 36.6956 76.696 39.1567C75.6205 40.408 74.4568 41.51 73.1944 42.282C71.9652 43.0298 70.6985 43.5666 69.46 44.2465C66.7489 45.7374 64.0581 47.3131 61.3825 48.9631C58.6702 50.6362 55.8822 51.8308 53.1688 53.5084C50.5253 55.1386 47.7666 56.5609 45.0185 57.41C42.1536 58.2944 39.21 58.6526 36.5055 57.9586C33.8694 57.2825 31.5583 55.7264 29.3231 54.0261C27.1109 52.3412 24.9487 50.4492 22.9763 48.3303C20.9407 46.1436 18.9217 43.8487 16.7151 41.9499C15.6621 41.044 14.6043 40.1415 13.5548 39.2365C12.5344 38.3531 11.4667 37.5183 10.6548 36.2912C9.22279 34.1209 8.31158 30.1992 9.44133 26.9346C10.031 25.2292 11.0641 23.5641 12.0204 22.1647C12.9685 20.782 13.9772 20.0095 15.2357 19.4893C16.4644 18.9802 17.7112 18.7566 18.9395 18.5891C20.3268 18.402 21.6676 18.6009 23.0541 18.4464C25.9144 18.1274 28.7748 17.5415 31.6408 17.1116C32.9813 16.9124 34.3237 16.5873 35.6632 16.4066C37.0505 16.2195 38.4135 16.2884 39.7972 16.1004C41.1809 15.9124 42.5761 15.5027 43.9607 15.2962C45.1208 15.125 45.2912 12.6504 44.1227 12.8241L44.1264 12.8251Z" fill="#222222"/>
<path d="M18.413 33.6454C19.0762 35.2225 20.4974 34.9788 21.6488 34.1311C22.8333 33.2592 23.9058 31.5904 23.2806 29.7938C22.6803 28.0786 20.9823 28.1146 19.7835 28.9967C18.5563 29.8996 17.662 31.8442 18.4166 33.6464L18.413 33.6454Z" fill="#222222"/>
<path d="M17.5904 34.3538C17.9555 35.1979 18.5189 35.8126 19.2668 35.9837C19.9175 36.1295 20.642 35.9761 21.3136 35.6123C22.6307 34.8967 23.9821 33.4128 24.298 31.4582C24.6364 29.3878 23.6815 27.6459 22.3215 27.2548C21.1152 26.9083 19.7104 27.5028 18.638 28.7128C18.0705 29.3565 17.5915 30.2667 17.3844 31.1961C17.131 32.3335 17.2195 33.4427 17.5904 34.3538C17.8017 34.8723 18.3431 35.0833 18.7902 34.6658C19.216 34.2709 19.4645 33.4928 19.2395 32.9379C19.1827 32.8014 19.1353 32.658 19.0891 32.5102C19.0291 32.312 19.1253 32.7116 19.0903 32.5058C19.0771 32.4088 19.0591 32.3152 19.0495 32.219C19.0402 32.1511 19.0452 32.0727 19.0323 32.0039C19.0323 32.0039 19.0322 32.2707 19.0389 32.1413C19.0408 32.1044 19.038 32.0709 19.0399 32.0339C19.0426 31.9644 19.0453 31.8949 19.0527 31.8219C19.0568 31.7621 19.0986 31.4827 19.0621 31.7119C19.0267 31.9368 19.0678 31.69 19.0815 31.6374C19.102 31.5585 19.1225 31.4795 19.1431 31.4006C19.159 31.3392 19.1928 31.2684 19.2063 31.2017C19.2086 31.1929 19.0973 31.4729 19.1509 31.3558C19.1695 31.3138 19.1845 31.2709 19.2031 31.2289C19.2553 31.102 19.3172 30.9823 19.3791 30.8627C19.3943 30.8338 19.4178 30.8025 19.4294 30.7727C19.4306 30.7683 19.2827 30.9968 19.3544 30.8984C19.4038 30.8269 19.4507 30.7502 19.5 30.6787C19.5777 30.5725 19.6578 30.4716 19.7415 30.3716C19.7627 30.3491 19.7876 30.3274 19.8064 30.2995C19.8064 30.2995 19.635 30.4704 19.7191 30.3986C19.7735 30.3519 19.823 30.2945 19.8775 30.2478C19.9686 30.1638 20.0657 30.0861 20.1606 30.0171C20.1891 29.9964 20.2283 29.9785 20.2543 29.9525C20.2591 29.9491 20.0584 30.0701 20.1523 30.0196C20.2105 29.9879 20.2663 29.951 20.3245 29.9193C20.4232 29.8653 20.5243 29.8167 20.6279 29.7734C20.6791 29.754 20.7303 29.7345 20.7815 29.7151C20.9269 29.6592 20.5799 29.7656 20.7815 29.7151C21.0082 29.657 21.2318 29.6402 21.4556 29.6375C21.5562 29.6356 21.3346 29.6295 21.3455 29.6323C21.3707 29.6388 21.3982 29.6366 21.4198 29.6422C21.4678 29.65 21.5194 29.6588 21.5673 29.6666C21.6838 29.6922 21.792 29.7344 21.9015 29.7722C21.9929 29.8053 21.793 29.7159 21.8027 29.7231C21.822 29.7375 21.8461 29.7484 21.8702 29.7594C21.9136 29.7847 21.9559 29.8144 21.9982 29.8441C22.0404 29.8739 22.0816 29.908 22.1227 29.9421C22.1409 29.9609 22.1638 29.9762 22.182 29.995C22.2753 30.0801 22.1434 29.9662 22.1238 29.9377C22.1875 30.0479 22.2808 30.133 22.3456 30.2388C22.359 30.2611 22.3727 30.2974 22.3909 30.3162C22.3909 30.3162 22.2973 30.1139 22.3429 30.2194C22.3738 30.293 22.407 30.3578 22.4331 30.4348C22.4604 30.5075 22.4829 30.5835 22.5066 30.6553C22.5702 30.8544 22.4792 30.4796 22.5141 30.6853C22.5283 30.7639 22.54 30.8372 22.5495 30.9192C22.5549 30.9722 22.5579 31.0198 22.5634 31.0727C22.5775 31.2402 22.5498 31.0364 22.5623 30.9881C22.5338 31.0978 22.532 31.3267 22.531 31.4341C22.5298 31.4385 22.5884 31.1541 22.5542 31.2857C22.5451 31.3208 22.5395 31.3568 22.5304 31.3919C22.5087 31.4752 22.4871 31.5585 22.4654 31.6418C22.4563 31.6769 22.44 31.7101 22.4308 31.7452C22.4286 31.754 22.5387 31.4783 22.484 31.5998C22.4491 31.675 22.4202 31.7565 22.3805 31.8351C22.3479 31.9015 22.3164 31.9636 22.2837 32.03C22.2674 32.0632 22.2486 32.0911 22.2322 32.1243C22.1622 32.2606 22.3672 31.9159 22.2814 32.0388C22.1968 32.1572 22.1193 32.2775 22.0322 32.3907C21.9874 32.4446 21.9415 32.5028 21.8967 32.5567C21.8743 32.5837 21.8447 32.6088 21.8259 32.6367C21.8787 32.5521 21.9794 32.4753 21.8578 32.6028C21.6545 32.8075 21.4414 32.9908 21.2196 33.1485C21.1912 33.1692 21.1638 33.1855 21.139 33.2072C21.0299 33.2865 21.3113 33.1068 21.1959 33.1658C21.1198 33.2069 21.0498 33.2542 20.9738 33.2953C20.8442 33.3646 20.7133 33.4242 20.581 33.4741C20.5513 33.4851 20.5262 33.4926 20.4964 33.5036C20.3737 33.5466 20.5238 33.4873 20.5632 33.4835C20.501 33.4861 20.432 33.5149 20.3675 33.5262C20.2421 33.5498 20.0752 33.5111 19.9549 33.5594C19.9549 33.5594 20.1491 33.5818 20.0579 33.5628C20.0255 33.5544 19.9872 33.5538 19.9547 33.5453C19.8935 33.5294 19.8347 33.5188 19.7746 33.4985C19.7494 33.4919 19.7264 33.4766 19.7012 33.47C19.5931 33.4419 19.8652 33.5642 19.7687 33.5063C19.712 33.4728 19.6578 33.4447 19.607 33.4034C19.5514 33.3655 19.5018 33.3198 19.4521 33.2741C19.3602 33.1987 19.5749 33.4231 19.4982 33.3189C19.4726 33.2842 19.4459 33.2538 19.4203 33.2191C19.3752 33.1558 19.3312 33.0882 19.2908 33.0215C19.2774 32.9993 19.2173 32.8901 19.2812 33.0143C19.356 33.1555 19.2514 32.9364 19.2465 32.9257C19.0257 32.4141 18.4985 32.1928 18.0467 32.6137C17.6304 33.0017 17.3617 33.7981 17.5974 34.3416L17.5904 34.3538Z" fill="#222222"/>
<path d="M39.6619 47.2709C40.6227 49.5668 43.7618 47.2883 42.8695 44.7433C41.9983 42.2507 38.5887 44.7117 39.6619 47.2709Z" fill="#222222"/>
<path d="M38.8356 47.9784C39.1318 48.6735 39.559 49.1311 40.1389 49.3568C40.6033 49.5384 41.153 49.466 41.6578 49.2555C42.6173 48.8495 43.597 47.6856 43.839 46.3112C43.9239 45.8369 43.9497 45.4269 43.9067 44.971C43.872 44.6014 43.7801 44.2451 43.6539 43.9314C43.3842 43.2526 42.9632 42.8153 42.4168 42.5796C41.963 42.3867 41.4492 42.4544 40.9535 42.6298C40.4625 42.8018 40.0066 43.1795 39.5995 43.6355C39.177 44.1062 38.8172 44.7946 38.6646 45.4853C38.4666 46.3796 38.539 47.2552 38.832 47.9775C39.0433 48.496 39.5847 48.707 40.0318 48.2895C40.4576 47.8946 40.7097 47.1174 40.4811 46.5616C40.4292 46.4358 40.3857 46.3074 40.3491 46.1668C40.3707 46.2614 40.3959 46.3569 40.4186 46.4471C40.3781 46.2773 40.3543 46.1026 40.3447 45.9175C40.3485 46.0215 40.3522 46.1254 40.3548 46.2338C40.349 46.0638 40.3612 45.8984 40.3902 45.728C40.3724 45.8404 40.3559 45.9485 40.3346 46.06C40.3612 45.8984 40.407 45.7371 40.4589 45.582C40.4196 45.6888 40.3814 45.7913 40.3457 45.899C40.407 45.7371 40.4817 45.5832 40.5659 45.4366C40.512 45.5256 40.4581 45.6146 40.4031 45.7079C40.5098 45.5344 40.6274 45.3777 40.7572 45.2335C40.6923 45.3056 40.6238 45.3767 40.5601 45.4444C40.7088 45.2865 40.8663 45.1542 41.0337 45.0432C40.9589 45.094 40.8853 45.1404 40.8106 45.1912C40.9815 45.0811 41.1528 44.9993 41.3292 44.9421C41.2505 44.9638 41.1706 44.9899 41.0955 45.0125C41.2708 44.9597 41.4464 44.9352 41.6202 44.9476C41.5411 44.941 41.4609 44.9389 41.3818 44.9324C41.5291 44.9426 41.6696 44.9792 41.8069 45.043C41.7347 45.0101 41.6636 44.9729 41.5913 44.9401C41.7142 45.0001 41.8242 45.0802 41.9248 45.1813C41.8666 45.124 41.8096 45.0624 41.755 45.0061C41.8606 45.1178 41.9532 45.2496 42.0305 45.3961C41.99 45.3153 41.9483 45.2389 41.9078 45.1581C41.9938 45.3303 42.0608 45.5163 42.1125 45.717C42.0909 45.6225 42.0657 45.527 42.043 45.4368C42.0848 45.6162 42.1124 45.806 42.1186 46.0042C42.1148 45.9003 42.1111 45.7963 42.1085 45.6879C42.1107 45.857 42.1021 46.0233 42.0731 46.1937C42.0908 46.0813 42.1074 45.9732 42.1287 45.8617C42.1021 46.0234 42.061 46.1812 42.0055 46.3353C42.0449 46.2285 42.083 46.1261 42.1188 46.0183C42.054 46.1934 41.9771 46.356 41.8869 46.5105C41.9408 46.4215 41.9947 46.3325 42.0498 46.2392C41.9431 46.4127 41.8254 46.5694 41.6967 46.7092C41.7617 46.6371 41.8302 46.566 41.8939 46.4983C41.751 46.6484 41.603 46.7738 41.4488 46.8788C41.5235 46.828 41.5971 46.7816 41.6719 46.7308C41.5045 46.8418 41.3296 46.9228 41.1544 46.9755C41.2331 46.9538 41.3129 46.9278 41.3881 46.9052C41.2211 46.9554 41.0538 46.9775 40.8873 46.9669C40.9664 46.9734 41.0466 46.9756 41.1257 46.9821C40.9675 46.9691 40.8198 46.9307 40.6753 46.865C40.7476 46.8978 40.8187 46.935 40.8909 46.9679C40.762 46.9016 40.6424 46.8143 40.5368 46.7025C40.595 46.7598 40.652 46.8214 40.7066 46.8778C40.6022 46.7617 40.5095 46.6299 40.4298 46.4781C40.4703 46.5588 40.512 46.6352 40.5525 46.716C40.5243 46.6618 40.4997 46.6086 40.4726 46.55C40.3591 46.2911 40.195 46.0939 39.9644 46.034C39.7554 45.9796 39.4726 46.0465 39.2692 46.2371C38.8528 46.6251 38.5853 47.4171 38.8198 47.965L38.8356 47.9784Z" fill="#222222"/>
</g>
<defs>
<filter id="filter0_d_307_1046" x="2.26611" y="12.61" width="84.5352" height="59.9379" filterUnits="userSpaceOnUse" color-interpolation-filters="sRGB">
<feFlood flood-opacity="0" result="BackgroundImageFix"/>
<feColorMatrix in="SourceAlpha" type="matrix" values="0 0 0 0 0 0 0 0 0 0 0 0 0 0 0 0 0 0 127 0" result="hardAlpha"/>
<feOffset dy="4"/>
<feGaussianBlur stdDeviation="2"/>
<feComposite in2="hardAlpha" operator="out"/>
<feColorMatrix type="matrix" values="0 0 0 0 0 0 0 0 0 0 0 0 0 0 0 0 0 0 0.25 0"/>
<feBlend mode="normal" in2="BackgroundImageFix" result="effect1_dropShadow_307_1046"/>
<feBlend mode="normal" in="SourceGraphic" in2="effect1_dropShadow_307_1046" result="shape"/>
</filter>
</defs>
</svg>
