<svg width="131" height="100" viewBox="0 0 131 100" fill="none" xmlns="http://www.w3.org/2000/svg">
<g filter="url(#filter0_d_307_1104)">
<path d="M111.798 60.7374C113.327 59.8874 114.982 58.9185 116.485 57.5654C117.923 56.2712 119.259 54.7852 120.366 53.15C121.518 51.4505 122.608 49.666 123.067 47.7311C123.522 45.8091 123.544 43.7055 122.988 41.6723C122.366 39.4011 121.004 37.9304 119.568 36.6816C118.127 35.4314 116.447 34.5189 114.47 34.06C112.678 33.6423 110.724 33.527 108.7 33.5728C106.779 33.6108 104.793 33.6388 102.849 33.9331C100.834 34.2432 98.8723 34.76 97.0327 35.1709C94.8544 35.659 92.8469 35.9848 91.2176 36.3607C89.3504 36.7919 87.4776 37.3733 85.5896 37.8198C83.7138 38.2626 81.8291 38.6962 79.9336 39.0856C78.0434 39.4763 76.1427 39.6921 74.2546 39.9455C72.3491 40.2014 70.4551 40.5636 68.565 40.6097C66.6697 40.6545 64.8032 40.438 62.9277 40.1915C61.0801 39.9454 59.281 39.4913 57.4717 38.883C55.4825 38.214 53.5516 37.45 51.7087 36.4331C49.8695 35.424 47.9684 34.5023 46.1851 33.3424C44.4123 32.1852 42.7182 30.8761 40.9198 29.7742C39.1302 28.6816 37.304 27.5794 35.3827 26.7352C33.4458 25.8868 31.4327 25.2668 29.3941 24.8952C27.3346 24.5182 25.231 24.4399 23.1017 24.7823C21.0299 25.1189 18.9455 25.9555 17.0738 27.1989C15.1745 28.4627 13.5792 30.2123 12.3236 32.1605C11.0389 34.1563 9.927 36.39 9.79376 38.8368C9.65361 41.2888 10.2097 43.5565 11.1131 45.5423C11.988 47.4655 13.2414 49.2872 14.7055 50.9225C16.078 52.4581 17.6584 53.8824 19.2212 55.2882C20.7928 56.7033 22.5069 57.9142 23.9461 59.3224C25.2921 60.6375 26.4024 62.2359 27.6317 63.7205C28.8522 65.1959 30.1882 66.5497 31.3777 68.0585C32.5708 69.575 33.6622 71.203 34.9119 72.6309C36.1791 74.0771 37.4878 75.4927 38.906 76.7024C40.3277 77.92 41.8871 78.9735 43.5507 79.8197C45.4767 80.7962 47.5523 81.391 49.6428 81.7348C51.7229 82.0758 53.8909 81.9709 56.0531 81.8026C58.1823 81.6325 60.3512 81.4382 62.4784 80.8885C64.6057 80.3388 66.6807 79.4309 68.7254 78.6185C70.7907 77.7907 72.9099 77.1217 74.9339 76.1522C76.9579 75.1828 78.8867 73.9129 80.8981 72.9057C82.9148 71.8998 84.9135 70.8342 86.9484 69.9089C88.9832 68.9836 91.0445 68.0859 93.1316 67.3465C95.2118 66.6123 97.3797 66.3144 99.489 65.7048C101.598 65.0953 103.661 64.2118 105.735 63.4827C107.82 62.7498 109.822 61.8228 111.803 60.718L111.798 60.7374Z" fill="#222222"/>
<path d="M112.359 61.8897C116.479 59.5902 119.888 56.4514 122.487 52.0677C124.959 47.8923 125.436 42.3845 122.911 38.4675C120.562 34.8169 116.719 32.8524 112.73 32.3941C108.155 31.8662 103.45 32.3316 98.87 33.3945C96.6328 33.9156 94.3932 34.3603 92.1502 34.8179C89.855 35.2825 87.5934 35.9834 85.3095 36.5338C80.5697 37.6724 75.8335 38.4535 71.0538 39.0579C61.4891 40.2654 52.355 36.0772 44.6593 30.6777C37.493 25.6502 28.2307 20.6222 19.2546 24.5744C15.1514 26.3818 11.6362 29.9689 9.69352 34.5163C7.67761 39.2377 8.6952 44.2448 11.0482 48.1791C13.4576 52.1971 16.9704 55.2612 20.4214 58.068C22.2198 59.5352 23.8359 61.0584 25.3109 62.9308C26.8247 64.8478 28.4623 66.6109 30.0104 68.4817C31.5637 70.3539 32.9221 72.4166 34.5375 74.2222C36.1353 76.0094 37.8313 77.6981 39.7282 79.0875C43.5552 81.8887 48.0815 83.3552 52.7815 83.3367C57.297 83.3184 61.8698 82.7361 66.2525 81.0359C68.4413 80.1851 70.6284 79.3407 72.8119 78.4885C74.9954 77.6364 77.0597 76.512 79.1391 75.3295C83.5022 72.8452 88.068 70.6342 92.6701 68.929C94.8349 68.1271 97.0352 67.7481 99.2334 67.1617C101.581 66.5383 103.873 65.5696 106.18 64.7359C108.297 63.9697 110.349 63.0006 112.359 61.8897C113.783 61.1018 112.64 58.8125 111.225 59.5888C109.223 60.6881 107.181 61.577 105.078 62.333C102.95 63.103 100.841 63.9885 98.6724 64.5688C96.6061 65.1205 94.5153 65.466 92.4751 66.1969C90.2683 66.9878 88.091 67.945 85.9438 68.9583C83.8868 69.926 81.8495 70.9679 79.8247 72.0267C77.8639 73.054 75.9782 74.2869 73.9675 75.184C71.9255 76.0936 69.8187 76.7796 67.7569 77.6152C65.6898 78.4494 63.6213 79.3107 61.4811 79.7813C59.3757 80.247 57.2359 80.3937 55.1204 80.5329C52.8744 80.6795 50.684 80.6337 48.5085 80.1438C44.1 79.149 40.3783 76.6303 37.2001 73.2258C35.6734 71.595 34.3195 69.816 32.9565 68.0071C31.56 66.1551 29.9741 64.5157 28.507 62.7417C27.091 61.0294 25.7992 59.2045 24.1697 57.733C22.5717 56.2904 20.8639 55.0123 19.2676 53.5632C16.2068 50.782 12.9793 47.6956 11.5886 43.3497C10.9173 41.2451 10.6962 38.8715 11.4111 36.638C12.1465 34.3477 13.5863 32.1855 15.149 30.4964C21.9996 23.0894 31.959 26.017 38.8518 30.1187C40.72 31.2318 42.5057 32.4682 44.3054 33.7151C46.163 34.9978 48.1176 36.0575 50.0913 37.1084C53.9146 39.1504 57.9276 40.8281 62.2109 41.4663C64.4109 41.7972 66.6643 42.0523 68.909 41.9536C71.1815 41.8553 73.4681 41.4022 75.737 41.103C80.1479 40.5198 84.5267 39.501 88.8797 38.3238C90.9598 37.7618 93.036 37.3436 95.1297 36.923C97.2512 36.5028 99.354 35.9399 101.474 35.5261C103.63 35.1011 105.782 34.9922 107.942 34.9403C110.14 34.8916 112.343 34.9129 114.461 35.4707C117.982 36.3999 121.594 39.3176 122.131 43.6138C122.733 48.4576 119.563 52.8859 116.374 55.9718C114.813 57.4822 113.039 58.5649 111.226 59.5824C109.807 60.3781 110.95 62.6674 112.361 61.8832L112.359 61.8897Z" fill="#222222"/>
<path d="M113.782 54.0982C115.311 53.2482 116.959 52.0913 118.462 50.7383C119.9 49.444 121.123 47.7701 122.23 46.1349C123.382 44.4354 124.123 42.5532 124.583 40.6119C125.038 38.6899 125.416 36.6373 124.858 34.6106C124.236 32.3395 122.991 30.6578 121.555 29.4089C120.114 28.1587 118.262 27.5395 116.28 27.0792C114.489 26.6615 112.547 26.4531 110.53 26.4937C108.609 26.5317 106.619 26.5727 104.676 26.867C102.661 27.1771 100.72 27.9131 98.886 28.3253C96.7077 28.8135 94.6906 29.0472 93.063 29.4167C91.1957 29.8479 89.3342 30.5149 87.4462 30.9614C85.5704 31.4042 83.6459 31.4965 81.7557 31.8873C79.8654 32.278 77.9828 32.7466 76.0931 33.0065C74.1876 33.2624 72.2966 33.3979 70.4065 33.444C68.5112 33.4888 66.6554 33.2958 64.7816 33.0428C62.934 32.7967 61.1185 32.4487 59.3075 31.8468C57.3183 31.1778 55.3498 30.4936 53.5018 29.4754C51.6625 28.4663 49.8862 27.3013 48.1081 26.1427C46.3353 24.9855 44.5112 23.9184 42.7111 22.823C40.9216 21.7304 39.0786 20.6927 37.1642 19.8434C35.2273 18.995 33.2538 18.3302 31.2152 17.9586C29.1557 17.5816 27.0752 17.3714 24.9459 17.7138C22.8741 18.0504 20.7863 18.8999 18.9146 20.1433C17.0153 21.4072 15.3904 23.1422 14.1347 25.0904C12.85 27.0861 12.0221 29.3454 11.8836 31.7909C11.7435 34.2429 12.2687 36.3716 13.1721 38.3573C14.047 40.2805 15.2373 42.0652 16.7014 43.7004C18.0739 45.2361 19.5474 46.7704 21.1102 48.1763C22.6818 49.5914 24.2928 50.9409 25.7372 52.3505C27.0833 53.6655 28.2365 55.2062 29.4658 56.6908C30.6864 58.1662 31.9379 59.6084 33.1274 61.1171C34.3205 62.6336 35.7306 63.9171 36.9767 65.3371C38.244 66.7834 39.394 68.3577 40.8105 69.5739C42.2322 70.7914 43.8577 71.6553 45.5161 72.5001C47.4421 73.4766 49.3998 74.3097 51.4903 74.6534C53.5704 74.9944 55.7322 75.1499 57.8945 74.9815C60.0236 74.8114 62.1772 74.2892 64.3044 73.7395C66.4317 73.1898 68.4747 72.2115 70.5194 71.3991C72.5848 70.5713 74.6666 69.8306 76.6959 68.8625C78.7198 67.893 80.812 67.1343 82.8287 66.1285C84.8453 65.1227 86.7204 63.694 88.757 62.7623C90.7918 61.837 92.9402 61.3134 95.0309 60.5819C97.1111 59.8476 99.1784 59.0342 101.288 58.4246C103.397 57.8151 105.504 57.212 107.578 56.4829C109.663 55.75 111.811 55.1849 113.79 54.0867L113.782 54.0982Z" fill="#C6A2F5"/>
<path d="M114.35 55.2455C118.335 52.9871 122.052 49.5075 124.263 45.0231C126.389 40.7163 127.203 35.3307 124.825 31.3209C122.475 27.3529 118.509 25.8805 114.368 25.3619C109.952 24.8062 105.333 25.1562 100.923 26.4221C98.7187 27.055 96.5218 27.4212 94.2975 27.8284C92.0141 28.2479 89.8002 29.0232 87.5408 29.5868C85.2867 30.1518 82.9848 30.277 80.7124 30.7614C78.2907 31.2828 75.8946 31.7488 73.4523 31.9408C68.7278 32.3114 63.9233 31.9581 59.4647 30.4678C57.2223 29.7192 55.0623 28.8474 53.0018 27.636C51.0183 26.4723 49.1117 25.1631 47.1574 23.9518C43.1716 21.4815 39.1658 18.9165 34.7319 17.4602C30.5146 16.0739 25.778 15.5453 21.3981 17.3635C17.4102 19.0285 13.6945 22.398 11.8484 26.8533C9.92046 31.4942 10.5465 36.3305 12.7331 40.3457C15.0331 44.5695 18.5852 47.7404 21.9963 50.7436C25.6129 53.9244 28.6745 57.6914 31.7541 61.5183C33.2745 63.4095 34.9945 65.0493 36.5562 66.8892C38.007 68.5968 39.3968 70.3024 41.183 71.5802C45.0075 74.3049 49.4331 75.9866 54.0531 76.3401C58.6889 76.6978 63.5689 75.6646 68.0531 73.8322C72.5183 72.0086 76.9677 70.181 81.4019 68.2184C83.5687 67.2585 85.5671 65.9791 87.643 64.7888C89.6997 63.6072 91.8942 62.9923 94.0706 62.2968C96.3891 61.5487 98.6676 60.6109 100.993 59.8992C103.276 59.2038 105.57 58.5732 107.841 57.7921C110.039 57.0334 112.238 56.3784 114.343 55.2506C115.773 54.4783 114.625 52.1877 113.208 52.9497C111.199 54.0334 109.017 54.6031 106.912 55.3241C104.764 56.0614 102.588 56.6468 100.427 57.3049C98.2783 57.9593 96.1698 58.824 94.0284 59.5355C91.9304 60.2307 89.8015 60.7869 87.7815 61.8056C85.7615 62.8244 83.8876 64.2051 81.848 65.1705C79.8655 66.1094 77.8451 66.9144 75.8519 67.8298C73.7704 68.7843 71.638 69.5257 69.5347 70.3918C67.4504 71.2491 65.3993 72.1081 63.2459 72.651C58.8314 73.7639 54.2867 74.1951 49.9939 72.9271C47.8449 72.2925 45.7876 71.2405 43.8391 70.0927C41.9396 68.9715 40.4474 67.4875 38.9893 65.7435C37.5788 64.0532 36.0202 62.545 34.5855 60.8829C33.128 59.2011 31.7307 57.4384 30.3128 55.7117C28.8421 53.93 27.4253 52.1347 25.7602 50.585C24.1091 49.0459 22.3634 47.6338 20.7381 46.06C17.8214 43.2405 14.6746 40.0372 13.4755 35.7067C12.1861 31.0356 14.0126 26.3546 17.3199 23.0512C24.4327 15.9468 34.1811 19.3848 41.0895 23.4698C44.8781 25.7096 48.5251 28.2572 52.3496 30.4235C56.174 32.5899 60.4548 33.8823 64.7809 34.4421C69.1836 35.008 73.6566 34.9166 78.1116 34.0348C82.4485 33.1774 86.7879 32.5895 91.0758 31.3402C93.0895 30.7541 95.0987 30.4218 97.1406 30.0498C99.1773 29.6764 101.156 29.0536 103.176 28.5518C105.352 28.0079 107.56 27.9411 109.753 27.891C111.969 27.8399 114.122 27.9862 116.261 28.508C119.829 29.3808 123.753 31.8969 123.911 36.5977C124.072 41.2442 121.513 45.7553 118.535 48.9307C116.974 50.5927 115.082 51.8928 113.188 52.965C111.771 53.7685 112.914 56.0579 114.322 55.2659L114.35 55.2455Z" fill="#222222"/>
<path d="M80.3153 54.9214C83.1283 53.9917 83.74 51.3384 82.8785 49.5358C82.0755 47.8519 79.9056 46.6741 77.6523 47.515C75.7634 48.2232 74.9858 49.9235 75.1813 51.4288C75.3676 52.8834 76.5522 54.0669 78.113 54.5348C78.8235 54.7471 79.5813 55.1648 80.3153 54.9214Z" fill="#222222"/>
<path d="M80.5995 56.2154C82.5376 55.5545 84.115 53.9382 84.4061 51.6151C84.6663 49.5183 83.5429 47.6477 82.0419 46.6921C80.2396 45.541 77.6546 45.5512 75.8433 47.0998C74.1493 48.5411 73.4713 50.998 74.3893 53.0565C74.8732 54.1404 75.7882 54.985 76.7711 55.4612C77.343 55.734 77.9419 55.9242 78.5375 56.1273C79.2116 56.3508 79.8912 56.4242 80.603 56.2233C81.2193 56.0458 81.6583 55.1742 81.4884 54.5166C81.3022 53.7926 80.7052 53.4444 80.042 53.6303C80.2781 53.5608 79.9394 53.6381 79.9098 53.6442C79.6038 53.6818 80.0043 53.6894 79.8367 53.6459C79.6326 53.5928 79.4267 53.5461 79.2242 53.4866C78.833 53.3573 78.4349 53.2331 78.0452 53.0766C78.2689 53.1624 78.0452 53.0766 77.991 53.0487C77.9122 53.0076 77.8335 52.9664 77.7548 52.9253C77.6042 52.8379 77.4554 52.744 77.3151 52.6386C77.2818 52.6162 77.022 52.39 77.2345 52.5832C77.1713 52.5254 77.108 52.4676 77.0517 52.4047C76.9094 52.2643 76.7895 52.1021 76.6626 51.9451C76.5446 51.7972 76.7904 52.2058 76.6519 51.9216C76.6076 51.8342 76.5563 51.752 76.5136 51.6581C76.4852 51.5956 76.462 51.5344 76.4371 51.4797C76.5651 51.7611 76.4459 51.4889 76.4243 51.4212C76.4061 51.3407 76.3932 51.2615 76.3698 51.1796C76.3679 51.1653 76.3625 51.1432 76.3606 51.129C76.3399 50.9719 76.3385 50.9991 76.3595 51.1976C76.2994 51.1062 76.3606 50.7636 76.3629 50.647C76.2893 50.9519 76.3721 50.3324 76.3629 50.647C76.378 50.5889 76.3896 50.523 76.3995 50.4635C76.423 50.3731 76.4465 50.2828 76.47 50.1924C76.5456 49.9018 76.3587 50.384 76.4564 50.2233C76.5455 50.0741 76.617 49.9066 76.7025 49.7496C76.7453 49.6712 76.8454 49.5869 76.6698 49.7894C76.7576 49.6882 76.8366 49.5777 76.9244 49.4765C76.971 49.4266 77.0227 49.378 77.0693 49.328C76.8538 49.5546 77.09 49.3127 77.1384 49.2771C77.2853 49.1636 77.4393 49.0658 77.5916 48.9745C77.8893 48.7968 77.3851 49.0379 77.7181 48.9177C77.7927 48.8889 77.8621 48.8587 77.9366 48.8298C78.0546 48.7847 78.1709 48.746 78.2854 48.7137C78.3271 48.7039 78.6415 48.634 78.4365 48.6703C78.6415 48.634 78.8537 48.6134 79.0609 48.6121C79.1513 48.6081 79.2437 48.6183 79.3394 48.6156C79.6859 48.6161 79.1195 48.5584 79.4544 48.6248C79.6305 48.6568 79.8067 48.6888 79.9778 48.7402C80.0615 48.762 80.1436 48.7903 80.2309 48.8199C80.2833 48.8335 80.3287 48.8522 80.3777 48.8787C80.2483 48.8175 80.2414 48.8226 80.3725 48.8773C80.5247 48.9583 80.6717 49.0379 80.8206 49.1317C80.9064 49.1885 80.9854 49.2504 81.0712 49.3072C81.2552 49.4378 81.1045 49.3296 81.0693 49.2929C81.2062 49.4112 81.3346 49.5411 81.4543 49.6825C81.5106 49.7454 81.5617 49.807 81.6111 49.875C81.6533 49.9273 81.6904 49.9783 81.7258 50.0358C81.6445 49.9181 81.6339 49.8947 81.6799 49.9756C81.7353 50.1279 81.8429 50.273 81.9053 50.4202C81.9017 50.4124 81.9607 50.5725 81.9659 50.5738C81.9154 50.5745 81.8779 50.289 81.9554 50.5711C81.9933 50.705 82.0207 50.8362 82.0411 50.9725C82.0837 51.2386 81.9862 51.0547 82.0445 50.9596C82.0239 50.9956 82.0569 51.1696 82.0521 51.2097C82.0518 51.3613 81.9981 51.5679 82.0204 51.7184C81.9831 51.4537 82.0532 51.5064 82.0114 51.6885C81.9896 51.7725 81.9678 51.8564 81.9459 51.9404C81.9308 51.9985 81.8625 52.1323 81.8648 52.188C81.943 51.9947 81.96 51.9509 81.9174 52.0501C81.9004 52.0939 81.8799 52.13 81.8629 52.1738C81.8031 52.2961 81.7047 52.5669 81.5958 52.642L81.6868 52.5071C81.6507 52.5598 81.6111 52.6046 81.5715 52.6495C81.513 52.7239 81.451 52.7905 81.382 52.8621C81.3372 52.9056 81.1025 53.1203 81.3477 52.9084C81.2699 52.9709 81.1922 53.0334 81.1145 53.0959C81.0315 53.157 80.9485 53.2181 80.862 53.2714C80.8291 53.2905 80.5087 53.4691 80.63 53.411C80.7911 53.3289 80.4601 53.484 80.4723 53.4803C80.3284 53.5394 80.1792 53.5971 80.0386 53.6433C79.4261 53.8493 78.9779 54.6702 79.1532 55.35C79.3357 56.0454 79.9437 56.4585 80.5996 56.2362L80.5995 56.2154Z" fill="#222222"/>
</g>
<defs>
<filter id="filter0_d_307_1104" x="4.61572" y="16.1989" width="125.656" height="75.138" filterUnits="userSpaceOnUse" color-interpolation-filters="sRGB">
<feFlood flood-opacity="0" result="BackgroundImageFix"/>
<feColorMatrix in="SourceAlpha" type="matrix" values="0 0 0 0 0 0 0 0 0 0 0 0 0 0 0 0 0 0 127 0" result="hardAlpha"/>
<feOffset dy="4"/>
<feGaussianBlur stdDeviation="2"/>
<feComposite in2="hardAlpha" operator="out"/>
<feColorMatrix type="matrix" values="0 0 0 0 0 0 0 0 0 0 0 0 0 0 0 0 0 0 0.25 0"/>
<feBlend mode="normal" in2="BackgroundImageFix" result="effect1_dropShadow_307_1104"/>
<feBlend mode="normal" in="SourceGraphic" in2="effect1_dropShadow_307_1104" result="shape"/>
</filter>
</defs>
</svg>
