<svg width="42" height="29" viewBox="0 0 42 29" fill="none" xmlns="http://www.w3.org/2000/svg">
<path d="M36.8241 5.42682C35.6886 4.852 34.6236 4.4484 33.5621 4.26495C32.4053 4.0662 31.2733 3.98059 30.1483 4.09067C29.0304 4.20074 27.909 4.4484 26.7628 4.70218C25.6766 4.94373 24.5517 5.10578 23.3879 5.33204C22.2841 5.54607 21.1908 5.81819 20.0835 6.01693C18.9797 6.21567 17.897 6.61622 16.7932 6.82413C15.6894 7.03204 14.5609 7.07179 13.4606 7.31028C12.3603 7.54877 11.2882 7.95237 10.1985 8.24284C9.10878 8.53331 7.9979 8.72288 6.91877 9.08979C6.00186 9.40166 4.92273 9.97954 3.96702 10.802C3.07833 11.5664 2.29896 12.5907 1.69944 13.6272C1.03997 14.7646 0.793115 16.0213 0.867173 17.281C0.934178 18.4215 1.26919 19.5558 2.25663 20.629C2.99721 21.4301 3.8965 22.0294 4.83457 22.4422C5.89254 22.91 7.04573 23.0843 8.11781 23.5368C9.18636 23.9863 10.195 24.6497 11.2741 25.0533C12.3567 25.46 13.4782 25.7015 14.575 26.0348C15.6788 26.3681 16.7791 26.6555 17.8935 26.8818C19.0114 27.108 20.1329 27.2792 21.2614 27.3649C22.3899 27.4505 23.5113 27.4046 24.6504 27.319C25.7683 27.2334 26.9004 27.1631 28.0077 26.8542C29.108 26.5485 30.1589 26.0409 31.1992 25.5242C32.2466 25.0014 33.3152 24.5122 34.2568 23.7875C35.216 23.0476 35.9848 22.0355 36.7783 21.0969C37.5859 20.1429 38.263 19.1033 38.8519 17.9537C39.4338 16.8132 39.9593 15.6452 40.2696 14.3243C40.5094 13.3031 40.6469 12.2299 40.6046 11.1659C40.5658 10.0804 40.3225 9.08061 39.8288 8.16946C39.1235 6.86999 38.0126 6.02916 36.8171 5.42682H36.8241Z" fill="#222222"/>
<path d="M37.0217 4.57377C35.3889 3.76046 33.7244 3.30182 31.9576 3.18563C30.293 3.07556 28.6532 3.39355 27.0239 3.75128C25.3205 4.12431 23.5996 4.3842 21.8962 4.75416C20.1999 5.12413 18.5178 5.57971 16.8215 5.93133C15.0829 6.29212 13.3549 6.38079 11.6339 6.90669C9.95525 7.42036 8.20607 7.69249 6.5521 8.30094C5.10973 8.83296 3.75553 9.738 2.65171 10.9641C1.58316 12.1504 0.567495 13.67 0.25363 15.4067C-0.0496556 17.0884 0.161943 18.9138 1.02948 20.3111C1.9605 21.8062 3.39934 22.7969 4.85582 23.387C5.64577 23.708 6.47099 23.8792 7.27504 24.1483C8.12848 24.4357 8.92548 24.8791 9.74012 25.2918C11.313 26.0929 12.9669 26.4721 14.6174 26.9582C16.3313 27.4627 18.0628 27.8541 19.8191 28.0956C21.66 28.3463 23.4797 28.3035 25.3276 28.1537C26.9957 28.0192 28.5756 27.689 30.1449 26.9796C31.6578 26.2947 33.2765 25.6037 34.6378 24.5488C36.066 23.4451 37.3779 21.8062 38.4288 20.2224C39.4903 18.6172 40.4213 16.7673 40.9292 14.8044C41.4581 12.7619 41.5781 10.4596 40.8198 8.47828C40.1145 6.64068 38.7109 5.44517 37.198 4.66244C36.3305 4.21298 35.5758 5.7387 36.4504 6.19122C37.6741 6.82414 38.8379 7.68025 39.4515 9.154C40.1004 10.7134 39.9311 12.5968 39.5291 14.2112C38.7286 17.4461 36.7114 20.2591 34.5884 22.3994C33.4317 23.5674 31.9752 24.2003 30.5892 24.8791C29.1751 25.5701 27.7539 26.1266 26.2233 26.3008C22.993 26.6708 19.8438 26.4996 16.6663 25.7077C15.1146 25.3194 13.5488 24.8974 12.0183 24.3929C10.5512 23.9098 9.2323 22.9834 7.77582 22.4789C6.28761 21.9652 4.80644 21.687 3.48398 20.6474C2.33784 19.7485 1.58668 18.4826 1.60078 16.8101C1.629 13.511 4.54195 10.8968 6.94708 10.0071C8.37534 9.4781 9.88118 9.27019 11.3306 8.82684C12.1029 8.59141 12.8753 8.33152 13.6617 8.16335C14.4622 7.99213 15.2769 7.93709 16.0844 7.82396C17.816 7.58241 19.5123 7.04428 21.2297 6.68349C22.9577 6.3227 24.6857 6.01082 26.4138 5.66532C28.1065 5.32899 29.7781 4.87647 31.5026 4.92845C33.2977 4.98348 34.9728 5.45129 36.6267 6.27683C37.5049 6.71406 37.8893 5.00183 37.0217 4.57071V4.57377Z" fill="#222222"/>
<path d="M36.8773 1.95036C35.7418 1.37553 34.6168 1.17679 33.5553 0.993338C32.3986 0.794596 31.2877 0.886323 30.1627 0.993338C29.0448 1.10341 27.9234 1.22877 26.7772 1.48255C25.6911 1.7241 24.5837 2.03597 23.4199 2.26223C22.3161 2.47626 21.2088 2.65665 20.1014 2.8554C18.9976 3.05414 17.8867 3.21619 16.7829 3.4241C15.6791 3.63202 14.5541 3.71457 13.4574 3.95306C12.3571 4.19155 11.285 4.60432 10.1953 4.89479C9.10556 5.18526 8.03348 5.54605 6.95788 5.91296C6.04097 6.22483 4.95831 6.70181 4.0026 7.52736C3.11391 8.29175 2.40859 9.34967 1.80554 10.3862C1.14607 11.5236 0.662932 12.7038 0.73699 13.9635C0.803995 15.104 1.25187 16.2567 2.23932 17.3269C2.9799 18.1279 3.97792 18.4459 4.91599 18.8587C5.97396 19.3265 6.96493 20.0359 8.03701 20.4884C9.10556 20.9378 10.1953 21.3323 11.2744 21.7389C12.3571 22.1456 13.4856 22.3596 14.5823 22.6898C15.6861 23.0231 16.7759 23.39 17.8903 23.6132C19.0082 23.8395 20.1296 24.0963 21.2581 24.1819C22.3866 24.2675 23.5222 24.185 24.6578 24.0994C25.7757 24.0138 26.9218 23.9373 28.0292 23.6285C29.1295 23.3227 30.1592 22.7051 31.1996 22.1884C32.2469 21.6655 33.2591 21.0724 34.2007 20.3447C35.1599 19.6047 36.098 18.8404 36.895 17.8986C37.7026 16.9447 38.3056 15.7981 38.891 14.6484C39.4729 13.508 40.083 12.3553 40.3933 11.0344C40.6331 10.0132 40.5908 8.9002 40.552 7.83923C40.5132 6.75379 40.4462 5.65918 39.9525 4.74803C39.2472 3.44856 38.0658 2.55575 36.8738 1.95036H36.8773Z" fill="#799ADA"/>
<path d="M37.0712 1.09729C33.9114 -0.434553 30.3284 -0.104336 27.0381 0.537753C25.3277 0.871028 23.6385 1.34801 21.921 1.65071C20.1436 1.96564 18.3627 2.25916 16.5853 2.57409C14.8326 2.88291 13.1117 3.08776 11.3907 3.6259C9.66972 4.16403 7.917 4.59209 6.22425 5.25558C4.77482 5.82429 3.45237 6.70486 2.4085 8.04714C1.43869 9.29768 0.430091 10.8815 0.105646 12.5693C-0.232905 14.3243 0.267869 16.0488 1.2412 17.3788C2.30976 18.8342 3.74507 19.195 5.1698 19.9288C5.92449 20.3172 6.65096 20.7819 7.41623 21.1488C8.22382 21.5341 9.05962 21.8368 9.88836 22.1486C11.5212 22.7601 13.1716 23.1699 14.8256 23.6805C16.4866 24.1911 18.1511 24.61 19.8545 24.8913C21.6848 25.194 23.4974 25.09 25.3348 24.9371C27.0205 24.7995 28.5863 24.4724 30.1521 23.6866C31.6685 22.9253 33.1885 22.1731 34.5779 21.1121C36.0697 19.9747 37.4415 18.7211 38.4959 17.0028C39.501 15.367 40.5378 13.4651 41.0527 11.5175C41.3454 10.4106 41.3454 9.25488 41.3066 8.10523C41.2714 7.07789 41.2326 6.02303 40.9081 5.05684C40.2839 3.18255 38.7428 1.95952 37.2511 1.18596C36.3835 0.736495 35.6288 2.26222 36.5034 2.71474C37.6813 3.32625 39.0743 4.23435 39.5539 5.75396C39.7902 6.50001 39.7973 7.31944 39.8255 8.10523C39.8572 9.05308 39.8819 10.004 39.6527 10.9213C39.2471 12.5509 38.3619 14.0828 37.579 15.4831C36.7679 16.9324 35.7452 18.0423 34.5427 19.0177C33.2978 20.0236 32 20.8247 30.6211 21.5279C29.1787 22.2648 27.8139 22.8916 26.2376 23.0751C24.6753 23.2585 23.0707 23.3992 21.5014 23.3105C19.9179 23.2218 18.3028 22.8641 16.7617 22.4299C13.7958 21.5983 10.7594 20.8369 7.92054 19.4886C7.23991 19.1644 6.59455 18.7486 5.9245 18.397C5.22976 18.0331 4.49623 17.7855 3.80149 17.4278C2.63772 16.8315 1.59033 15.5351 1.48806 13.9605C1.38226 12.3614 2.37323 10.8142 3.19492 9.66459C4.12594 8.36207 5.27208 7.49678 6.62981 6.9617C8.09334 6.38382 9.60623 5.99857 11.098 5.54605C12.6814 5.06907 14.219 4.6991 15.8412 4.46367C19.389 3.95 22.9332 3.28956 26.4386 2.46096C29.7606 1.67517 33.4741 1.24405 36.6868 2.80035C37.572 3.22841 37.9529 1.51617 37.0818 1.09423L37.0712 1.09729Z" fill="#222222"/>
<path d="M31.1007 12.5877C31.3299 10.8112 29.3762 8.63117 27.9726 9.72272C26.7595 10.6644 26.033 14.3824 27.7857 15.1591C28.3359 15.4037 28.9213 15.1652 29.4503 14.8564C30.2473 14.3916 30.9667 13.6333 31.1042 12.5877H31.1007Z" fill="#222222"/>
<path d="M31.8167 12.8231C31.993 11.2882 31.2877 9.81441 30.1874 9.02861C29.133 8.27645 27.7929 8.42627 27.0029 9.59732C26.3505 10.5666 25.9767 11.8569 26.0049 13.1043C26.0366 14.4466 26.6538 15.85 27.8564 16.0916C28.7592 16.272 29.7008 15.8164 30.4272 15.1927C31.1008 14.6148 31.6721 13.8259 31.8167 12.8231C31.8837 12.3675 31.7144 11.8477 31.2983 11.7346C30.9386 11.6367 30.4554 11.866 30.3849 12.3522C30.3637 12.5081 30.3285 12.6549 30.2862 12.8047C30.3391 12.6182 30.2685 12.8445 30.258 12.872C30.2297 12.9392 30.1945 13.0065 30.1627 13.0707C30.1522 13.0921 30.0252 13.2939 30.1275 13.141C30.0852 13.2022 30.0428 13.2603 30.0005 13.3153C29.9088 13.4285 29.8136 13.5324 29.7113 13.6364C29.5526 13.8015 29.8277 13.5538 29.6514 13.6914C29.595 13.7342 29.5421 13.7801 29.4856 13.8229C29.3728 13.9085 29.2564 13.9849 29.1365 14.0583C28.8826 14.2142 28.6816 14.3335 28.3536 14.3794C28.4947 14.358 28.2443 14.3763 28.2443 14.3763C28.0679 14.3885 28.3078 14.4222 28.135 14.361C28.075 14.3396 27.9904 14.3274 27.941 14.2846C28.1138 14.4252 27.9939 14.3121 27.9516 14.2785C27.9269 14.2601 27.8987 14.2418 27.874 14.2234C27.8634 14.2142 27.8493 14.2051 27.8387 14.1959C27.7752 14.1409 27.7894 14.1562 27.8846 14.2418C27.8387 14.2295 27.6871 14.043 27.6765 13.991C27.6977 14.0247 27.7188 14.0583 27.74 14.0889C27.7223 14.0614 27.7082 14.0338 27.6941 14.0063C27.673 13.9635 27.6483 13.9207 27.6307 13.8749C27.6165 13.8412 27.5742 13.774 27.5742 13.7373C27.5742 13.7403 27.6342 13.9544 27.5989 13.8045C27.5742 13.7036 27.5425 13.6027 27.5249 13.4988C27.5143 13.4468 27.5108 13.3918 27.5002 13.3398C27.4684 13.1869 27.5143 13.5569 27.5002 13.3C27.4861 13.0921 27.4861 12.8811 27.5002 12.6732C27.5002 12.6549 27.5249 12.5081 27.5143 12.499C27.4861 12.7008 27.5425 12.5295 27.5143 12.499C27.5354 12.3614 27.5566 12.2268 27.5883 12.0954C27.606 12.0159 27.7047 11.4869 27.7576 11.4808C27.6871 11.6642 27.7365 11.4808 27.7576 11.4808C27.7788 11.4288 27.7964 11.3768 27.8211 11.3279C27.8634 11.2301 27.9093 11.1322 27.9551 11.0374C28.0009 10.9457 28.0538 10.8601 28.1032 10.7714C28.1879 10.6155 27.9868 10.9182 28.0926 10.7898C28.1208 10.7531 28.1455 10.7133 28.1773 10.6766C28.2337 10.6063 28.2937 10.5452 28.3501 10.481C28.4382 10.377 28.2901 10.5421 28.2901 10.536C28.2972 10.4993 28.4241 10.432 28.4453 10.4167C28.4876 10.3892 28.6428 10.325 28.4629 10.3984C28.5123 10.3801 28.5617 10.3556 28.611 10.3403C28.6357 10.3311 28.738 10.2883 28.7627 10.3036C28.7309 10.3097 28.6992 10.3158 28.6675 10.322C28.7027 10.3189 28.7345 10.3158 28.7697 10.3158C28.8226 10.3158 28.872 10.3189 28.9214 10.322C29.073 10.3281 28.8755 10.3158 28.8755 10.3128C28.9143 10.27 29.1788 10.4076 29.2282 10.4259C29.3975 10.4901 29.0907 10.3342 29.2458 10.4351C29.3093 10.4779 29.3728 10.5146 29.4363 10.5574C29.4821 10.591 29.528 10.6277 29.5738 10.6644C29.6373 10.7164 29.6937 10.7806 29.602 10.6858C29.7008 10.7867 29.7995 10.8907 29.8877 11.0038C29.9265 11.0527 29.9617 11.1047 30.0005 11.1536C30.0534 11.2301 30.0464 11.2239 29.9899 11.1322C30.0111 11.1689 30.0323 11.2056 30.0534 11.2423C30.1204 11.3615 30.1839 11.4838 30.2368 11.6123C30.258 11.6612 30.2756 11.7101 30.2967 11.759C30.2121 11.5389 30.3038 11.7988 30.3179 11.8477C30.332 11.9088 30.3461 11.97 30.3602 12.0311C30.3673 12.0709 30.3743 12.1137 30.3814 12.1534C30.3955 12.2513 30.392 12.236 30.3743 12.1015C30.4131 12.1229 30.3532 12.6732 30.3884 12.3522C30.3355 12.8078 30.4801 13.3245 30.9068 13.4407C31.256 13.5355 31.7603 13.3123 31.8202 12.8231H31.8167Z" fill="#222222"/>
<path d="M15.3053 13.1868C15.4252 12.0249 14.3919 10.5634 13.6548 11.2758C13.02 11.8935 12.7132 14.2784 13.6337 14.7859C13.9229 14.9449 14.2297 14.9694 14.5083 14.7676C14.9279 14.4618 15.2312 13.8717 15.3017 13.1868H15.3053Z" fill="#222222"/>
<path d="M16.0458 13.1869C16.1375 12.1718 15.6473 11.12 14.9702 10.5451C14.6141 10.2424 14.1344 10.1201 13.7113 10.2638C13.3127 10.3984 13.0095 10.7378 12.7908 11.1475C12.4452 11.7957 12.2936 12.661 12.3183 13.4223C12.3324 13.884 12.4135 14.3243 12.5863 14.7371C12.7767 15.1896 13.1047 15.4862 13.4891 15.6666C14.7375 16.2567 15.866 14.8074 16.0212 13.4223C16.0494 13.1746 16.0564 12.9637 15.9471 12.7405C15.8554 12.557 15.6826 12.3827 15.5028 12.3338C15.3123 12.2818 15.1007 12.2941 14.9314 12.4225C14.7833 12.5387 14.6176 12.7313 14.5894 12.9514C14.5753 13.0615 14.5612 13.1685 14.5365 13.2755C14.5224 13.3459 14.4624 13.4651 14.4659 13.5324C14.48 13.4957 14.4942 13.4559 14.5083 13.4193C14.4977 13.4498 14.4836 13.4835 14.4695 13.514C14.4554 13.5446 14.4413 13.5752 14.4271 13.6058C14.406 13.6516 14.3848 13.6944 14.3601 13.7372C14.346 13.7648 14.3284 13.7923 14.3108 13.8198C14.3813 13.7158 14.3989 13.6883 14.3637 13.7403C14.3143 13.8076 14.2649 13.8748 14.2085 13.939C14.1944 13.9543 14.1591 13.9818 14.1485 14.0032L14.2332 13.9238C14.212 13.9421 14.1909 13.9604 14.1662 13.9788C14.1556 13.988 14.145 13.9971 14.1309 14.0032C14.0569 14.0491 14.071 14.0461 14.1662 13.9971C14.1556 13.9971 14.0886 14.0247 14.071 14.0338C13.9158 14.1011 14.2367 14.0277 14.071 14.0277C13.9228 14.0277 14.2332 14.0797 14.0463 14.0277C14.0216 14.0216 13.937 14.0063 13.9228 13.9818C13.9405 14.0155 14.0427 14.0583 13.9546 13.9941C13.937 13.9818 13.9158 13.9666 13.8982 13.9543C13.8276 13.9054 13.8735 13.8687 13.9757 14.0277C13.9475 13.9849 13.9052 13.9452 13.8735 13.9054C13.8135 13.8351 13.9899 14.1133 13.9334 13.9971C13.9158 13.9604 13.8946 13.9238 13.877 13.8871C13.8699 13.8687 13.8594 13.8473 13.8523 13.829C13.7888 13.7067 13.9193 14.0552 13.8805 13.9176C13.8664 13.8626 13.8488 13.8076 13.8347 13.7525C13.8206 13.6883 13.8065 13.6241 13.7994 13.5599C13.7959 13.5293 13.7924 13.4988 13.7853 13.4682C13.8347 13.7862 13.7994 13.5966 13.7959 13.5171C13.7888 13.3887 13.7888 13.2603 13.7959 13.1318C13.7959 13.0523 13.8065 12.9759 13.8135 12.8964C13.8206 12.8322 13.8417 12.7405 13.7994 13.0157C13.8065 12.9637 13.8135 12.9117 13.8206 12.8597C13.8417 12.7344 13.8664 12.609 13.8982 12.4867C13.9158 12.4164 13.937 12.346 13.9581 12.2757C13.9652 12.2543 13.9722 12.2299 13.9793 12.2085C13.8911 12.4989 13.937 12.3277 13.9652 12.2604C14.0075 12.1565 14.0569 12.0617 14.1098 11.9669C14.1485 11.8966 14.1944 11.8996 14.0463 12.0617C14.0639 12.0433 14.078 12.0189 14.0921 11.9975C14.1027 11.9853 14.1133 11.97 14.1239 11.9577C14.1909 11.8813 14.2191 11.9241 14.078 11.9944C14.0815 11.9944 14.1591 11.9333 14.1627 11.9363C14.1627 11.9486 13.9687 12.0128 14.071 11.9822C14.0992 11.973 14.1309 11.9669 14.1556 11.9547C13.9581 12.0342 13.9863 11.97 14.0604 11.973C14.2579 11.9853 13.8805 11.9149 14.0533 11.9669C14.078 11.973 14.1027 11.9883 14.1274 11.9944C14.1768 12.0067 13.9334 11.8813 14.078 11.973C14.1556 12.0219 14.2967 12.184 14.1203 11.9853C14.1697 12.0433 14.2261 12.0923 14.2755 12.1534C14.3002 12.184 14.3249 12.2176 14.346 12.2482C14.4272 12.3583 14.2332 12.0556 14.3425 12.2451C14.3848 12.3185 14.4236 12.395 14.4589 12.4745C14.4695 12.502 14.4836 12.5295 14.4942 12.554C14.4554 12.4072 14.5788 12.7649 14.4942 12.554C14.5188 12.6396 14.54 12.7252 14.5576 12.8139C14.5647 12.8567 14.5682 12.9025 14.5788 12.9453C14.5224 12.7191 14.5647 12.7925 14.5682 12.8842C14.5753 12.9851 14.5682 13.086 14.5612 13.1869C14.5188 13.6486 14.9314 14.0919 15.3017 14.0736C15.739 14.0491 15.9965 13.6822 16.0423 13.1869H16.0458Z" fill="#222222"/>
</svg>
