<svg width="78" height="61" viewBox="0 0 78 61" fill="none" xmlns="http://www.w3.org/2000/svg">
<g filter="url(#filter0_d_307_1114)">
<path d="M65.6823 27.0234C67.2279 28.6705 68.6159 30.4871 69.6466 32.3745C70.864 34.596 71.4059 36.9411 71.004 39.5226C70.657 41.7311 69.7014 44.0903 67.5076 46.5857C65.541 48.8191 63.6127 50.2274 61.6217 50.7835C59.6346 51.3391 57.4974 51.3136 55.2787 50.7733C53.3896 50.3156 51.6067 49.4522 49.889 48.5101C48.1897 47.579 46.6775 46.2188 45.05 45.0891C43.4296 43.9674 41.6521 43.143 40.0008 42.1C38.3311 41.0461 36.6816 40.0383 34.8814 39.349C33.0924 38.6627 31.3237 37.749 29.3054 37.7043C26.8429 37.653 24.3066 38.1799 21.8028 38.5306C19.3028 38.881 16.8064 39.2352 14.3342 39.291C12.4668 39.3334 10.4147 39.1429 8.7973 38.2413C7.05069 37.2719 5.78385 35.599 5.63274 33.126C5.46659 30.377 6.96247 27.5229 8.80958 25.5248C10.6605 23.5263 12.8474 22.2491 15.0305 21.0384C17.0137 19.9408 19.0517 19.0172 21.0658 17.9776C23.08 16.9379 25.0904 15.9648 27.124 15.1211C29.1769 14.2707 31.2062 13.2997 33.2662 12.8011C35.3341 12.2972 37.4159 11.8842 39.475 11.8798C41.5759 11.8745 43.6276 12.1401 45.5807 12.6736C47.5339 13.2071 49.2694 14.3763 51.0849 15.3371C52.8784 16.283 54.6368 17.3127 56.3103 18.5734C57.9655 19.8187 59.7071 20.9475 61.2525 22.3917C62.8015 23.8399 64.23 25.475 65.6826 27.019L65.6823 27.0234Z" fill="#222222"/>
<path d="M64.725 28.2539C67.5737 31.3312 71.5645 36.0703 69.0581 41.9299C67.9182 44.5987 65.691 47.01 63.5471 48.3348C61.3204 49.7141 58.8661 49.7897 56.6729 49.405C54.2917 48.9864 52.0425 47.9692 49.9788 46.6908C47.9409 45.4269 46.1227 43.7652 44.0507 42.5672C41.9346 41.3439 39.8554 40.0013 37.7004 38.8621C35.5822 37.7449 33.2048 36.6422 30.8415 36.2434C28.4782 35.8446 25.929 36.329 23.4767 36.7086C20.7333 37.1333 17.9753 37.5465 15.2482 37.6781C12.9934 37.7862 10.5935 37.7051 8.76422 36.3094C7.17556 35.0955 6.39477 32.8109 7.30022 30.2595C8.23283 27.6298 10.2518 25.7515 12.2003 24.3892C14.6114 22.7004 17.1915 21.5242 19.7072 20.2767C24.8046 17.7557 29.9859 14.9553 35.2549 13.9258C38.2735 13.3346 41.2051 13.3497 44.0537 13.9704C46.6995 14.5502 49.0073 16.0144 51.3769 17.3253C53.8386 18.6865 56.1421 20.3673 58.4205 22.0865C60.7317 23.8325 62.6961 26.0759 64.7252 28.2494C65.8581 29.4626 67.7878 27.0045 66.6478 25.7834C64.6545 23.6495 62.7153 21.4294 60.4776 19.6611C58.236 17.8932 55.9144 16.197 53.4815 14.7969C51.1881 13.4809 48.8631 11.9836 46.3545 11.1927C43.7113 10.3612 40.7784 10.095 37.9217 10.3705C32.0176 10.9365 26.1266 13.7942 20.4195 16.6908C15.5567 19.1605 9.47661 21.3184 6.08556 27.1027C4.57921 29.667 3.93285 32.7507 4.70483 35.398C5.44808 37.9475 7.28039 39.4928 9.33573 40.2385C11.8824 41.1658 14.7975 40.9315 17.5639 40.6407C20.5327 40.3292 23.5133 39.7384 26.4786 39.4229C27.8582 39.2735 29.2307 39.1823 30.5395 39.4872C31.897 39.8037 33.1746 40.3947 34.4679 40.9088C37.054 41.9459 39.3838 43.6322 41.8261 45.0003C44.1837 46.3215 46.2509 48.1508 48.5496 49.5764C50.7861 50.9567 53.2574 52.0786 55.834 52.5347C58.5801 53.0183 61.5984 52.8417 64.3693 51.1038C66.9827 49.4648 69.6234 46.6537 71.0908 43.4239C74.4847 35.9501 70.4571 29.8924 66.6516 25.7829C65.5192 24.5608 63.5934 27.0185 64.7291 28.249L64.725 28.2539Z" fill="#222222"/>
<path d="M66.2921 21.0681C67.8377 22.7151 69.1346 24.6665 70.1654 26.554C71.3827 28.7755 72.1889 31.1495 71.783 33.7359C71.4362 35.94 70.0554 38.0918 67.8579 40.5832C65.8914 42.8166 64.1074 44.498 62.1164 45.0541C60.1293 45.6098 58.0875 45.1666 55.8688 44.6264C53.9797 44.1687 52.284 43.2415 50.57 42.2989C48.8707 41.3678 47.1344 40.4854 45.5067 39.3601C43.8863 38.2384 42.1472 37.3386 40.4956 36.3001C38.8259 35.2462 37.2528 34.026 35.4526 33.3367C33.6637 32.6504 31.8075 32.0122 29.7891 31.9675C27.3267 31.9162 24.7967 32.4643 22.2932 32.8107C19.7932 33.161 17.3005 33.4486 14.8242 33.5093C12.9568 33.5517 10.8486 33.4829 9.23116 32.5812C7.48456 31.6119 6.29373 29.8017 6.14644 27.3281C5.98029 24.5791 7.31 21.5031 9.16093 19.5046C11.0119 17.5061 13.3982 16.6715 15.5814 15.4609C17.5645 14.3633 19.5442 13.1912 21.5584 12.1515C23.5725 11.1118 25.5697 10.0345 27.6071 9.19036C29.6601 8.3399 31.7108 7.66613 33.7708 7.16761C35.8387 6.66371 37.8595 6.52729 39.9186 6.52285C42.0195 6.51761 44.0781 6.52205 46.0315 7.05115C47.9847 7.58469 49.9195 8.244 51.7349 9.2048C53.5284 10.1507 55.316 11.2032 56.9859 12.4599C58.6411 13.7053 60.2345 15.1082 61.7799 16.5524C63.329 18.0006 64.8434 19.5236 66.2921 21.0681Z" fill="#A4A9B3"/>
<path d="M65.3309 22.2989C67.0679 24.1912 68.6569 26.4239 69.7675 28.9938C70.7031 31.1577 71.0242 33.5788 69.656 36.051C68.2834 38.5325 66.0458 40.9936 63.9864 42.5064C61.8162 44.0992 59.5808 43.7903 57.4528 43.327C52.604 42.2668 48.4904 39.1879 44.2366 36.6513C40.1114 34.1912 36.1781 31.0811 31.334 30.4834C28.8252 30.1732 26.216 30.643 23.6373 31.0427C20.863 31.4756 18.0784 31.8216 15.3268 31.9165C13.2221 31.9884 10.8922 32.0133 9.20203 30.6444C7.60992 29.3559 6.98375 26.9551 7.75681 24.3937C8.58109 21.6627 10.4265 19.8325 12.4965 18.6756C14.8565 17.3592 17.2414 16.1411 19.6049 14.8287C24.7632 11.965 30.1285 9.20349 35.5294 8.39572C41.4396 7.51586 46.9964 8.41315 52.0228 11.1978C56.9976 13.9536 61.2746 17.9869 65.3306 22.3034C66.4676 23.5117 68.3973 21.0535 67.2532 19.8373C63.2434 15.5768 59.004 11.4815 54.1268 8.67831C51.6939 7.27822 49.1489 6.18312 46.4492 5.48214C43.8206 4.79878 40.939 4.83926 38.1578 4.98634C32.1729 5.29774 26.267 8.01175 20.5006 11.0877C17.772 12.5425 15.0518 14.0537 12.3263 15.5213C9.91041 16.8182 7.73287 18.6103 6.27585 21.5169C3.41722 27.2218 5.32961 32.9955 9.71 34.5549C12.1423 35.4215 15.002 35.1588 17.6356 34.933C20.689 34.6727 23.7537 34.0714 26.8084 33.7183C29.7025 33.3852 32.2689 33.8205 34.8673 34.8428C37.328 35.8116 39.4921 37.6068 41.7914 38.9529C46.5775 41.7542 51.1716 45.2762 56.6055 46.471C59.3076 47.0614 62.0684 47.2124 64.8186 45.3006C67.391 43.5124 70.084 40.4434 71.7623 37.3814C75.5378 30.4909 70.7165 23.61 67.2532 19.8373C66.1249 18.6103 64.199 21.068 65.3306 22.3034L65.3309 22.2989Z" fill="#222222"/>
<path d="M35.618 19.0386C35.8009 22.4427 38.4817 21.5716 40.6245 19.722C43.6494 17.1058 42.371 14.001 39.5052 14.3041C38.3816 14.4261 37.2941 14.9934 36.2635 15.7654C35.2329 16.5373 35.5459 17.6716 35.6218 19.0381L35.618 19.0386Z" fill="#222222"/>
<path d="M34.3708 19.6127C34.4304 20.5888 34.7253 21.571 35.3038 22.1651C35.893 22.771 36.651 23.0076 37.4839 22.9218C38.2022 22.8458 38.9485 22.5414 39.6326 22.1256C40.5133 21.5884 41.3424 20.9561 42.0921 20.1132C42.7567 19.3647 43.3577 18.3241 43.538 17.2697C43.7346 16.1251 43.5973 15.1101 43.0819 14.2701C41.985 12.479 39.8344 12.4199 37.998 13.1332C37.369 13.3789 36.7598 13.7457 36.1639 14.1461C35.5839 14.5357 35.0373 15.005 34.6742 15.7293C34.0368 17.0125 34.3011 18.338 34.3748 19.6078C34.3967 19.9668 34.6761 20.3378 34.9074 20.4811C35.1679 20.6472 35.5648 20.6816 35.8777 20.5193C36.1907 20.3569 36.5021 20.0845 36.6795 19.6964C36.8741 19.2708 36.9022 18.9013 36.8736 18.4594C36.8502 18.061 36.7814 17.6594 36.7812 17.2536C36.7809 17.2581 36.7916 17.6801 36.794 17.4329C36.7962 17.3929 36.7908 17.3539 36.7927 17.3184C36.7939 17.23 36.795 17.1417 36.7999 17.0529C36.8039 16.9818 36.8195 16.9049 36.8235 16.8338C36.8021 17.2863 36.7817 17.108 36.8303 16.9168C36.8693 16.762 36.9319 16.8644 36.7546 17.1158C36.7752 17.0868 36.7849 17.0503 36.8017 17.0218C36.8729 16.9027 36.6763 17.227 36.677 17.2137C36.678 17.1959 36.7508 17.1163 36.7633 17.0971C36.8956 16.9042 36.5201 17.3037 36.707 17.1526C36.8063 17.0741 36.9018 16.9961 37.0045 16.926C37.1033 16.8564 37.2022 16.7868 37.301 16.7172C37.3326 16.6956 37.4065 16.6644 37.4274 16.6309C37.3248 16.7671 37.2347 16.7474 37.3723 16.6642C37.5726 16.5467 37.7767 16.4287 37.9798 16.3285C38.1829 16.2283 38.3893 16.1365 38.5986 16.062C38.6491 16.0425 38.9891 15.9385 38.7847 15.9948C38.5996 16.0442 38.7579 15.9981 38.7923 15.9938C38.8538 15.9818 38.9116 15.9657 38.9731 15.9537C39.173 15.9112 39.3721 15.8821 39.5741 15.8702C39.658 15.8642 39.7414 15.8671 39.8253 15.8611C39.9664 15.8523 39.6475 15.8479 39.6626 15.8504C39.7077 15.858 39.7534 15.8568 39.7988 15.8599C39.9498 15.8765 40.1003 15.9019 40.2427 15.9371C40.3139 15.9547 40.381 15.9772 40.4482 15.9998C40.6983 16.079 40.1972 15.8678 40.4295 15.9933C40.5401 16.0545 40.6471 16.1118 40.7492 16.1873C40.7967 16.2211 40.9817 16.3789 40.8044 16.2201C40.6197 16.0578 40.8218 16.2488 40.8614 16.288C40.8972 16.3277 40.9327 16.3718 40.9682 16.4159C40.9895 16.4441 41.0104 16.4768 41.0317 16.505C41.0994 16.5848 40.9239 16.3243 40.9239 16.3243C40.9207 16.3821 41.0691 16.6503 41.1003 16.7038C41.1697 16.8231 41.0002 16.456 41.037 16.4779C41.0482 16.4809 41.065 16.5891 41.065 16.5891C41.077 16.6449 41.0891 16.7008 41.0971 16.7615C41.108 16.8395 41.1274 17.1062 41.1107 16.7907C41.0943 16.4708 41.1041 16.7739 41.0994 16.8583C41.0966 16.9071 41.0663 17.0432 41.0793 17.0813C41.0789 17.0901 41.1546 16.6838 41.1207 16.8159C41.1113 16.848 41.1094 16.8835 41.1 16.9155C41.0843 16.9924 41.061 17.0703 41.0415 17.1477C41.0321 17.1797 41.0189 17.2123 41.0093 17.2487C40.9342 17.505 41.1439 16.9453 41.0712 17.0911C40.9985 17.2368 40.9368 17.39 40.8565 17.5367C40.8313 17.5796 40.7983 17.6278 40.7767 17.6746C40.7767 17.6746 40.9787 17.3893 40.8812 17.5028C40.8081 17.5869 40.7491 17.6912 40.6835 17.7788C40.5606 17.9396 40.4241 18.0712 40.2976 18.228C40.5549 17.905 40.3462 18.1735 40.2581 18.255C40.17 18.3365 40.0781 18.4185 39.9826 18.4965C39.7195 18.7188 39.4495 18.9288 39.1731 19.1175C39.1061 19.1611 39.0384 19.218 38.9681 19.2532C38.9408 19.2655 39.2628 19.0755 39.1334 19.1489C39.0942 19.1714 39.0547 19.1984 39.0154 19.2209C38.8819 19.2992 38.7448 19.3736 38.6042 19.444C38.4714 19.509 38.3351 19.57 38.1992 19.6222C38.1411 19.6427 38.0866 19.6671 38.0287 19.6831C37.99 19.6967 37.9553 19.7054 37.9165 19.7191C37.7692 19.7727 38.2401 19.6392 38.0904 19.6666C37.9484 19.6931 37.8056 19.7329 37.6605 19.7465C37.5916 19.755 37.5233 19.7547 37.4547 19.7588C37.2109 19.7715 37.7789 19.8023 37.5419 19.7612C37.4253 19.7404 37.3135 19.7014 37.1969 19.6806C37.5472 19.7341 37.408 19.7778 37.2829 19.7052C37.2275 19.6768 37.1805 19.6341 37.1254 19.6013C37.0444 19.554 37.0182 19.4117 37.259 19.7258C37.2378 19.6976 37.212 19.6831 37.1908 19.6549C37.1481 19.6029 37.1056 19.5464 37.0627 19.4988C37.0343 19.4626 36.9683 19.3517 37.0937 19.5567C37.2259 19.774 37.1285 19.6141 37.1013 19.5557C37.0673 19.485 37.0332 19.4143 37.0032 19.3386C36.9799 19.2797 36.896 19.0123 36.9728 19.2718C37.0526 19.5442 36.9647 19.2111 36.9534 19.1419C36.9089 18.9181 36.8875 18.687 36.8703 18.451C36.8485 18.0921 36.5726 17.725 36.3377 17.5778C36.0772 17.4117 35.6803 17.3772 35.3674 17.5396C35.0545 17.7019 34.743 17.9744 34.5657 18.3625C34.3711 18.788 34.3429 19.1575 34.3715 19.5994L34.3708 19.6127Z" fill="#222222"/>
</g>
<defs>
<filter id="filter0_d_307_1114" x="0.377441" y="4.89752" width="76.7615" height="55.8699" filterUnits="userSpaceOnUse" color-interpolation-filters="sRGB">
<feFlood flood-opacity="0" result="BackgroundImageFix"/>
<feColorMatrix in="SourceAlpha" type="matrix" values="0 0 0 0 0 0 0 0 0 0 0 0 0 0 0 0 0 0 127 0" result="hardAlpha"/>
<feOffset dy="4"/>
<feGaussianBlur stdDeviation="2"/>
<feComposite in2="hardAlpha" operator="out"/>
<feColorMatrix type="matrix" values="0 0 0 0 0 0 0 0 0 0 0 0 0 0 0 0 0 0 0.25 0"/>
<feBlend mode="normal" in2="BackgroundImageFix" result="effect1_dropShadow_307_1114"/>
<feBlend mode="normal" in="SourceGraphic" in2="effect1_dropShadow_307_1114" result="shape"/>
</filter>
</defs>
</svg>
