<svg width="99" height="74" viewBox="0 0 99 74" fill="none" xmlns="http://www.w3.org/2000/svg">
<g filter="url(#filter0_d_307_1036)">
<path d="M70.0854 63.5837C75.1033 63.8163 79.0425 63.5851 81.6974 62.3957C85.1542 60.8378 86.6104 58.0404 86.8459 54.8577C87.0435 52.113 85.946 48.9772 84.3514 45.6511C82.9683 42.7669 81.3257 39.7133 78.985 36.804C76.7312 33.9987 74.3189 31.1318 71.5206 28.6396C68.5409 25.9985 65.3048 23.5553 62.0874 21.6531C58.2441 19.3846 54.1708 17.796 50.5883 17.2105C46.5888 16.5641 42.6356 16.9952 38.7643 17.5494C35.027 18.0841 31.499 19.128 28.1181 20.4816C24.7794 21.819 21.5084 23.2758 18.745 25.1157C15.8085 27.0667 13.347 29.2634 11.3223 31.4447C9.67752 33.2158 8.11279 35.2046 7.27991 37.3565C6.40801 39.6001 6.02557 42.0049 7.25961 44.3821C9.4234 48.5552 15.3544 51.0273 20.6477 53.0621C24.6012 54.5856 28.5224 56.1754 32.6045 57.3795C36.6866 58.5835 40.8326 59.6006 44.9919 60.4786C49.1584 61.3585 53.3425 62.1412 57.5435 62.6839C61.7374 63.2248 65.9242 63.3838 70.1012 63.581L70.0854 63.5837Z" fill="#222222"/>
<path d="M70.2747 65.4246C76.9654 65.7054 83.8116 65.3004 87.2456 60.8524C90.9061 56.1172 88.9199 49.9475 86.2522 44.5303C83.3239 38.5974 79.0517 32.8988 73.5926 27.8822C68.3421 23.0557 61.6987 18.3896 54.1147 16.173C46.68 13.9953 38.4966 15.1927 31.9367 17.0362C25.0653 18.9684 18.6499 22.0371 13.748 26.0287C8.98037 29.9128 4.23281 34.7996 4.04658 40.6827C3.87386 46.0466 9.23507 50.1554 15.2637 52.8361C23.5947 56.5296 32.4289 59.4852 41.3987 61.5395C46.2772 62.6588 51.2075 63.6084 56.1403 64.3143C60.8675 64.9939 65.5648 65.2042 70.2747 65.4246C73.3645 65.5698 72.9963 61.8771 69.8906 61.7346C62.5763 61.4002 55.4879 60.7514 48.1673 59.3024C40.6815 57.8172 33.2566 55.9814 26.1429 53.2696C21.0656 51.3385 14.094 49.3355 10.6157 45.5467C6.41709 40.9666 10.5268 35.6424 13.6612 32.3176C20.7977 24.7537 32.9469 18.8734 46.2129 18.7399C53.0246 18.6721 59.2364 21.699 64.462 25.4536C69.9187 29.37 74.3795 33.964 77.9778 38.897C79.9685 41.6339 81.4724 44.5496 82.7427 47.4588C83.9667 50.2542 84.8595 53.1264 84.2357 55.8756C83.7084 58.1952 82.1813 60.2141 79.3424 61.1182C76.5282 62.0152 73.0636 61.8811 69.8944 61.7492C66.8085 61.6185 67.1766 65.3112 70.2785 65.4391L70.2747 65.4246Z" fill="#222222"/>
<path d="M71.5402 57.8134C76.5581 58.046 80.4015 57.8035 83.0582 56.6077C86.5149 55.0499 88.28 52.4075 88.5139 49.2311C88.7115 46.4864 88.0766 43.2063 86.4749 39.8783C85.0918 36.9941 82.4435 34.188 80.1029 31.2787C77.8491 28.4734 75.7198 25.5104 72.9215 23.0182C69.9418 20.3771 66.3975 18.3017 63.173 16.3976C59.3297 14.1291 55.6081 12.3266 52.0256 11.7411C48.0261 11.0947 43.9371 10.9679 40.057 11.5266C36.3198 12.0613 32.5561 12.9896 29.1753 14.3432C25.8366 15.6806 22.6636 17.3733 19.9002 19.2132C16.9637 21.1642 14.6754 23.5417 12.6507 25.723C11.0059 27.4941 9.48971 29.5294 8.64972 31.6795C7.77782 33.9231 7.6816 36.3073 8.91399 38.6909C11.0778 42.864 16.6778 45.6165 21.9711 47.6513C25.9246 49.1748 29.9065 50.7057 33.9887 51.9098C38.0708 53.1139 42.2547 54.0729 46.4157 54.9446C50.5767 55.8163 54.7843 56.6254 58.9781 57.1663C63.172 57.7072 67.3473 57.6189 71.5243 57.816L71.5402 57.8134Z" fill="#799ADA"/>
<path d="M71.7367 59.6561C78.5018 59.9427 85.038 59.4164 88.7261 55.1295C92.4039 50.8535 91.2061 44.1626 88.5138 39.0444C87.055 36.2762 84.7957 33.7545 82.6969 31.1999C80.473 28.4838 78.4808 25.6651 75.8884 23.1111C73.3266 20.5854 70.2507 18.4893 66.9858 16.5069C63.7084 14.5145 60.3707 12.52 56.6358 11.1483C49.2497 8.43352 40.8025 9.03973 34.0027 10.7258C27.0091 12.4565 20.5044 15.5767 15.6457 19.6067C10.9804 23.4766 5.91964 28.4585 5.60607 34.2474C5.31051 39.7626 10.2956 44.2962 16.5299 47.2951C24.6866 51.2214 33.9123 54.0141 42.8385 56.0028C47.7323 57.0922 52.6614 58.0754 57.6013 58.7831C62.3569 59.4701 67.0093 59.4448 71.7242 59.6461C74.8101 59.7767 74.4419 56.0841 71.3401 55.9561C67.7742 55.8025 64.2223 55.829 60.6393 55.508C56.8275 55.1615 53.0001 54.4376 49.2214 53.6722C41.705 52.1587 34.3107 50.3512 27.134 47.6773C21.8882 45.7227 15.2665 43.6004 11.9989 39.527C8.10114 34.6654 12.0981 29.658 15.3624 26.1839C22.5938 18.4885 34.7003 12.0134 48.6776 13.1439C55.5839 13.7047 61.4081 17.201 66.8271 20.7954C72.597 24.6169 75.8995 29.4323 79.8969 34.2315C83.9883 39.1367 87.2886 44.8066 85.8731 50.2206C85.2797 52.5027 83.4661 54.4267 80.6995 55.3157C77.9082 56.2118 74.4863 56.0888 71.3472 55.958C68.2612 55.8273 68.6294 59.52 71.7312 59.6479L71.7367 59.6561Z" fill="#222222"/>
<path d="M31.6654 37.0538C35.0807 39.0413 38.2283 38.3804 39.442 36.8365C40.6262 35.3188 39.874 33.0737 36.0835 31.2736C30.1372 28.4514 25.3651 32.9655 31.0827 36.7258C31.2581 36.8393 31.4653 36.9474 31.6637 37.0601L31.6654 37.0538Z" fill="#222222"/>
<path d="M30.5943 38.5738C32.1675 39.4715 34.1127 40.1063 35.9567 40.1379C37.7334 40.1656 39.3534 39.7453 40.5692 38.8942C42.7037 37.3998 42.9296 34.7506 41.1019 32.6127C40.0661 31.4 38.5472 30.3806 36.9294 29.6545C35.5291 29.0257 33.9518 28.5816 32.4208 28.5432C29.5252 28.4688 27.1334 29.6385 26.3161 31.6723C25.9181 32.6479 26.0467 33.8758 26.6194 34.9137C27.4627 36.4292 28.8548 37.5853 30.5943 38.5738C31.6793 39.1885 33.3373 38.9138 33.8268 38.1114C34.3888 37.2056 33.8927 36.1943 32.7289 35.532C32.6289 35.4788 32.1692 35.2032 32.5217 35.4238C32.8797 35.6527 32.4447 35.3699 32.3692 35.3095C32.1184 35.1357 31.8867 34.9465 31.6638 34.7528C31.6277 34.7163 31.5917 34.6798 31.5469 34.6478C31.3403 34.4787 31.9129 35.0212 31.7343 34.8322C31.6567 34.751 31.5791 34.6697 31.5016 34.5885C31.3481 34.4196 31.2193 34.2436 31.0905 34.0676C30.8617 33.7502 31.3174 34.4795 31.1761 34.2052C31.1358 34.1269 31.0883 34.0467 31.0567 33.9638C31.0235 33.8873 30.9848 33.8026 30.9587 33.7279C30.9401 33.6824 30.9287 33.6387 30.9102 33.5932C30.8247 33.3673 30.9983 33.8672 30.9896 33.8717C31.0263 33.8473 30.9252 33.4478 30.9188 33.385C30.9194 33.3241 30.9459 33.2224 30.9219 33.1686C30.9127 33.1459 30.8614 33.6348 30.8961 33.5013C30.9093 33.4504 30.9067 33.4022 30.9199 33.3514C30.9492 33.2097 30.991 33.078 31.0399 32.9482C31.1219 32.6913 30.7885 33.419 30.9515 33.1424C30.9927 33.0717 31.0338 33.0009 31.0821 32.9321C31.2149 32.7426 31.6406 32.419 31.0811 32.8775C31.2066 32.7744 31.3195 32.6613 31.4593 32.5619C31.5239 32.5176 31.5956 32.4752 31.6603 32.4309C31.8822 32.2782 31.1203 32.6977 31.4746 32.5319C31.6466 32.4545 31.8098 32.3816 31.9855 32.3187C32.0857 32.2837 32.429 32.1897 32.0047 32.3033C31.5717 32.4214 31.9379 32.3266 32.0436 32.2998C32.2604 32.2544 32.4809 32.2235 32.707 32.2009C33.1574 32.1619 32.3267 32.2038 32.493 32.2063C32.5992 32.2068 32.7053 32.2072 32.8115 32.2077C33.0522 32.216 33.2826 32.2352 33.5255 32.2644C34.0217 32.312 32.9538 32.1565 33.3214 32.2317C33.4352 32.2613 33.5593 32.28 33.6748 32.3032C33.9395 32.3653 34.1938 32.4382 34.4536 32.5194C34.4465 32.5175 34.6582 32.5793 34.6636 32.5875C34.6674 32.6021 34.0096 32.3292 34.3645 32.4826C34.4875 32.535 34.6193 32.5828 34.7407 32.6415C35.0616 32.7793 35.3705 32.9342 35.669 33.1001C35.8084 33.1771 35.9461 33.2604 36.0927 33.3392C36.3179 33.4656 35.8314 33.1763 35.8511 33.1882C35.921 33.2403 35.9942 33.2797 36.0658 33.3254C36.3183 33.4929 36.5534 33.6694 36.7779 33.8567C36.8785 33.9372 36.9615 34.0266 37.062 34.1071C36.5254 33.6893 36.8637 33.9062 37.0117 34.0668C37.1706 34.2439 37.2907 34.4244 37.4338 34.6041C37.5424 34.741 37.2696 34.3307 37.2679 34.3371C37.2646 34.3498 37.3355 34.4564 37.3448 34.4792C37.3922 34.5594 37.4309 34.6441 37.4625 34.727C37.4941 34.8099 37.5257 34.8927 37.5573 34.9756C37.6542 35.2451 37.4488 34.4587 37.5143 34.849C37.5419 35.0055 37.5219 35.17 37.5495 35.3265C37.4602 34.7943 37.5869 34.9494 37.5449 35.1692C37.5234 35.2518 37.5003 35.3408 37.4788 35.4234C37.4556 35.5124 37.3211 35.7964 37.4864 35.4526C37.643 35.1132 37.51 35.3909 37.4672 35.4679C37.3745 35.6203 37.2549 35.7589 37.148 35.9075C37.0202 36.0779 37.4993 35.5781 37.3234 35.7292C37.2834 35.7663 37.2434 35.8034 37.2034 35.8405C37.1058 35.9237 37.0099 36.0005 36.8998 36.0737C36.8631 36.0981 36.8264 36.1225 36.7897 36.1469C36.4911 36.361 36.9841 36.0413 36.9824 36.0477C36.99 36.0768 36.679 36.1927 36.6456 36.2044C36.5262 36.2548 36.4085 36.2988 36.2853 36.3347C36.2853 36.3347 36.1238 36.4013 36.0954 36.3939C36.0954 36.3939 36.668 36.2645 36.3576 36.3195C36.206 36.348 36.0527 36.3828 35.8956 36.403C35.7774 36.4198 35.2756 36.4521 35.7122 36.4368C36.1648 36.4187 35.622 36.4336 35.5087 36.4313C35.3352 36.4269 35.1563 36.4143 34.9791 36.3954C34.9206 36.387 34.862 36.3785 34.7947 36.3746C34.4987 36.3451 35.4178 36.4891 35.013 36.411C34.8478 36.3748 34.6738 36.3432 34.5103 36.3006C34.3396 36.2563 34.1636 36.2037 33.9946 36.1529C33.5997 36.0367 34.1996 36.2402 34.2155 36.2375C34.1302 36.2154 34.0301 36.1622 33.9464 36.1336C33.5221 35.9554 33.1203 35.7492 32.7289 35.532C31.6455 34.9109 29.9842 35.1983 29.4963 35.9944C28.9343 36.9002 29.4321 37.9051 30.5943 38.5738Z" fill="#222222"/>
</g>
<defs>
<filter id="filter0_d_307_1036" x="0.0424805" y="9.28603" width="94.9949" height="64.2073" filterUnits="userSpaceOnUse" color-interpolation-filters="sRGB">
<feFlood flood-opacity="0" result="BackgroundImageFix"/>
<feColorMatrix in="SourceAlpha" type="matrix" values="0 0 0 0 0 0 0 0 0 0 0 0 0 0 0 0 0 0 127 0" result="hardAlpha"/>
<feOffset dy="4"/>
<feGaussianBlur stdDeviation="2"/>
<feComposite in2="hardAlpha" operator="out"/>
<feColorMatrix type="matrix" values="0 0 0 0 0 0 0 0 0 0 0 0 0 0 0 0 0 0 0.25 0"/>
<feBlend mode="normal" in2="BackgroundImageFix" result="effect1_dropShadow_307_1036"/>
<feBlend mode="normal" in="SourceGraphic" in2="effect1_dropShadow_307_1036" result="shape"/>
</filter>
</defs>
</svg>
