<svg width="81" height="57" viewBox="0 0 81 57" fill="none" xmlns="http://www.w3.org/2000/svg">
<path d="M44.0117 53.8086C41.6706 54.4689 38.339 54.784 34.5872 54.799C31.6309 54.814 28.4344 54.2438 25.1929 53.7935C22.0414 53.3583 18.7548 53.2833 15.8284 52.3529C12.6019 51.3324 9.79565 49.6216 7.45455 47.9558C4.64824 45.9599 2.63726 43.5437 2.082 40.4973C1.61679 37.9011 2.24712 34.9297 4.18303 31.4931C5.48864 29.167 7.31944 26.8559 9.93066 25.055C12.1367 23.5243 15.0181 22.6689 17.8094 21.4383C20.3756 20.3128 23.0319 19.1423 25.8232 18.2118C28.5695 17.2964 31.3157 16.2759 34.047 15.4805C36.9434 14.6551 39.7047 13.6047 42.3159 12.8843C45.4674 11.9989 48.5139 11.8038 50.7949 10.9784C52.9109 10.2131 54.8318 8.83241 57.0078 8.23213C59.1838 7.61684 61.48 7.63185 63.731 7.54181C65.9671 7.45177 68.2631 7.55681 70.3641 8.30717C72.5101 9.07253 74.6712 10.108 76.1118 11.8638C77.5525 13.6197 77.9877 15.9908 78.2879 18.2568C78.588 20.4779 78.468 22.774 77.8227 24.92C77.1774 27.096 76.2469 29.152 75.0013 31.0579C73.7707 32.9488 72.0449 34.4645 70.5442 36.1302C68.7433 38.1262 66.8975 40.0621 64.8716 41.8329C62.8306 43.6038 60.9247 45.5397 58.6736 47.0254C56.4226 48.5111 53.9163 49.5616 51.4702 50.7021C49.039 51.8426 46.6229 53.0882 44.0117 53.8236V53.8086Z" fill="#222222"/>
<path d="M43.5316 52.0527C37.6639 53.6285 31.601 52.8481 25.6882 52.0527C22.4767 51.6175 19.1752 51.5425 16.0688 50.537C13.3675 49.6516 10.8763 48.1659 8.56522 46.5301C6.50926 45.0744 4.61839 43.1835 3.98809 40.6774C3.34279 38.1262 4.18314 35.4699 5.35369 33.2039C6.62929 30.7277 8.37014 28.4466 10.6362 26.7958C12.9773 25.1 15.8436 24.2747 18.4849 23.1341C24.6077 20.4929 30.8657 18.4819 37.2136 16.441C40.14 15.4955 43.0364 14.5051 46.0678 13.9198C48.9192 13.3795 51.4854 12.7943 54.0816 11.4887C55.3723 10.8433 56.6178 10.198 58.0135 9.86789C59.6943 9.4777 61.4351 9.46269 63.1459 9.40267C66.3274 9.28261 69.2837 9.53774 72.1351 11.0685C77.6577 14.0098 77.3576 21.9336 75.1515 26.9459C73.7709 30.1124 71.5348 32.3485 69.2387 34.8546C66.9126 37.3758 64.4815 39.7019 61.9453 41.998C59.2441 44.4441 56.5278 46.35 53.2262 47.8958C50.0447 49.3815 46.8932 51.0773 43.5166 52.0677C41.2656 52.728 42.2261 56.2547 44.4921 55.5794C47.9137 54.5589 51.1102 52.8631 54.3367 51.3774C57.4732 49.9367 60.3095 48.2709 62.9207 46.0049C65.562 43.7088 68.1582 41.3677 70.5443 38.8015C72.8404 36.3403 75.4066 33.9992 77.1174 31.0879C78.8132 28.2065 79.9988 24.965 80.2089 21.6184C80.419 18.4369 79.9237 14.5051 78.2279 11.7438C74.5212 5.71093 66.2673 5.35076 60.0244 5.90603C58.2986 6.0561 56.6329 6.35623 55.0271 7.01654C53.4063 7.67685 51.9206 8.63731 50.2848 9.23759C47.2534 10.3481 43.9218 10.4982 40.8304 11.4436C33.8371 13.5446 26.7388 15.6906 20.0006 18.542C16.8341 19.8776 13.4725 21.0331 10.4411 22.6539C7.63479 24.1396 5.32366 26.4657 3.55283 29.0769C0.236269 33.9842 -1.4295 40.4523 2.35228 45.5847C4.34822 48.301 7.25964 50.2819 10.186 51.9027C13.6977 53.8536 17.3143 54.784 21.2912 55.2192C29.0198 56.0746 36.8085 57.6804 44.5222 55.6094C46.7882 54.9941 45.8277 51.4825 43.5467 52.0977L43.5316 52.0527Z" fill="#222222"/>
<path d="M43.982 47.9707C41.6409 48.631 38.3393 49.0062 34.6026 49.0212C31.6462 49.0362 28.3897 48.9612 25.1481 48.511C21.9967 48.0757 18.9502 46.9802 16.0238 46.0498C12.7973 45.0293 9.66083 44.1289 7.30472 42.4631C4.49841 40.4672 2.38248 37.886 1.84223 34.8395C1.37701 32.2433 2.26234 29.2419 4.19825 25.7903C5.50387 23.4642 7.40985 21.2731 10.0061 19.4573C12.2121 17.9266 14.7633 16.3959 17.5546 15.1503C20.1208 14.0247 22.8671 12.9442 25.6584 12.0138C28.4047 11.0984 31.256 10.348 33.9873 9.56765C36.8837 8.74226 39.8251 8.35208 42.4363 7.61673C45.5878 6.73131 48.3341 5.60579 50.6152 4.7804C52.7312 4.01504 54.9222 3.41475 57.0832 2.81447C59.2592 2.19918 61.4652 1.86903 63.7163 1.77899C65.9523 1.68894 68.2334 1.85402 70.3494 2.60437C72.4954 3.36973 74.3863 4.61532 75.827 6.37114C77.2677 8.12697 78.4082 10.213 78.7083 12.464C79.0085 14.6851 78.7383 17.1162 78.108 19.2622C77.4627 21.4382 76.2772 23.4342 75.0466 25.3251C73.816 27.2159 72.3754 29.0018 70.8747 30.6676C69.0738 32.6635 67.0929 34.5244 65.067 36.2802C63.026 38.051 60.7899 39.5667 58.5539 41.0524C56.3028 42.5381 53.9166 43.7537 51.4705 44.8942C49.0393 46.0348 46.6082 47.2203 44.012 47.9557L43.982 47.9707Z" fill="#E56262"/>
<path d="M43.5014 46.215C37.9038 47.7307 31.4208 47.5206 25.7181 46.7702C22.5516 46.3501 19.5352 45.2545 16.5037 44.3091C13.6674 43.4087 10.6961 42.6433 8.21991 40.9025C6.14893 39.4318 4.243 37.3458 3.67273 34.8096C3.10246 32.3035 4.19795 29.6922 5.33849 27.5012C8.1298 22.1887 13.3673 19.0072 18.7098 16.6511C24.5926 14.0549 30.8955 12.0589 37.1685 10.6933C40.1849 10.033 43.1563 9.41769 46.0827 8.41222C48.829 7.46677 51.5002 6.35625 54.2915 5.53087C60.0092 3.83507 67.0475 2.03422 72.405 5.72596C77.5674 9.28263 77.9726 16.0508 75.3014 21.2883C72.2399 27.2911 67.1376 32.5886 61.7801 36.6105C56.3625 40.6774 49.9995 44.3241 43.4865 46.245C41.2354 46.9053 42.1958 50.432 44.4619 49.7567C51.05 47.8207 57.458 44.2491 62.9806 40.2272C68.4882 36.2203 73.5306 31.1929 77.1623 25.4002C80.674 19.7726 82.2347 12.4941 78.2728 6.65639C74.296 0.803642 67.6178 -0.637033 60.9247 0.233376C53.9464 1.1338 47.7184 4.48037 40.9652 6.16116C37.5586 7.00155 34.137 7.67687 30.7454 8.63733C27.1887 9.6428 23.6772 10.7533 20.2256 12.119C14.0276 14.5951 7.51454 17.7766 3.58269 23.3893C0.176088 28.2516 -1.65474 34.6145 2.02199 39.822C4.09296 42.7634 7.04935 44.7893 10.3659 46.1099C13.9076 47.5206 17.6893 48.6761 21.366 49.6366C25.3279 50.6571 29.4699 50.8672 33.5368 50.8822C37.1835 50.8822 40.9202 50.7171 44.4619 49.7567C46.728 49.1414 45.7676 45.6297 43.4865 46.245L43.5014 46.215Z" fill="#222222"/>
<path d="M24.7126 36.4305C28.0442 33.6242 27.0237 30.4127 24.7576 28.5068C22.4015 26.5258 19.19 26.3458 17.9294 31.148C17.1791 33.9844 17.4192 36.3405 18.7248 37.571C20.1055 38.8616 22.1614 38.5765 24.7126 36.4305Z" fill="#222222"/>
<path d="M26.0031 37.721C27.1887 36.7155 28.2091 35.3349 28.5243 33.7741C28.8244 32.3034 28.5844 30.8778 27.9241 29.5421C26.8285 27.3661 24.5624 25.7003 22.1463 25.4002C21.0808 25.2651 19.9252 25.5503 19.0398 26.1505C17.8242 26.9609 17.0889 28.1615 16.5487 29.4971C15.9784 30.9528 15.6632 32.6036 15.6782 34.1643C15.6933 35.7401 16.0984 37.2258 17.0889 38.4713C17.9893 39.5969 19.5201 40.2722 20.9608 40.1521C22.9117 39.972 24.5324 38.9366 26.0031 37.721C26.7385 37.1057 26.6784 35.7701 26.0031 35.1398C25.2227 34.4194 24.2173 34.4795 23.4219 35.1398C23.3469 35.1998 23.0167 35.4699 23.2568 35.2898C23.1217 35.3949 23.0017 35.4849 22.8666 35.575C22.5965 35.7551 22.3264 35.9352 22.0412 36.0852C21.9212 36.1452 21.8011 36.2203 21.6811 36.2803C21.636 36.2953 21.531 36.3253 21.501 36.3704C21.501 36.3704 21.8312 36.2503 21.6361 36.3103C21.396 36.3854 21.1558 36.4604 20.9007 36.5204C20.5855 36.6105 21.2759 36.5054 20.9608 36.5204C20.8557 36.5204 20.7506 36.5204 20.6456 36.5204C20.5555 36.5204 20.4355 36.4904 20.3454 36.5054C20.3454 36.5054 20.7507 36.5955 20.5856 36.5354C20.5256 36.5204 20.4655 36.5054 20.4055 36.4904C20.3305 36.4754 20.0153 36.3403 20.3155 36.4904C20.6156 36.6255 20.3005 36.4904 20.2254 36.4454C20.1354 36.4004 20.0603 36.3403 19.9853 36.2953C19.8352 36.2203 20.1503 36.4304 20.1653 36.4304C20.1353 36.3854 20.0603 36.3403 20.0153 36.2953C19.9403 36.2203 19.8652 36.1452 19.8052 36.0702C19.5951 35.8451 20.0003 36.3704 19.8352 36.1002C19.7752 36.0102 19.7152 35.9201 19.6702 35.8301C19.6252 35.7551 19.46 35.3799 19.58 35.65C19.7001 35.9201 19.5651 35.56 19.5351 35.4999C19.5051 35.3949 19.475 35.2748 19.445 35.1548C19.415 35.0347 19.4 34.9147 19.37 34.7946C19.325 34.5995 19.385 34.9597 19.385 34.9747C19.385 34.8997 19.37 34.7946 19.355 34.7196C19.31 34.1343 19.3549 33.549 19.4 32.9638C19.415 32.7537 19.385 33.0538 19.4 33.0688C19.4 33.0088 19.43 32.9037 19.445 32.8437C19.475 32.6936 19.5051 32.5285 19.5351 32.3785C19.6101 32.0333 19.6851 31.7032 19.7902 31.358C19.8052 31.283 20.0903 30.5776 20.0603 30.5476C20.0603 30.5476 19.9102 30.8628 20.0003 30.6827C20.0303 30.6227 20.0453 30.5626 20.0753 30.5026C20.1353 30.3825 20.1954 30.2475 20.2704 30.1274C20.3755 29.9323 20.5105 29.7522 20.6306 29.5572C20.7356 29.3921 20.4956 29.7222 20.5106 29.7222C20.5406 29.7072 20.5855 29.6322 20.6155 29.6022C20.6906 29.5271 20.7657 29.4371 20.8557 29.3621C20.9157 29.302 21.2159 29.0619 20.9457 29.272C20.6906 29.4671 20.9457 29.272 21.0208 29.242C21.0958 29.197 21.1709 29.152 21.2459 29.1219C21.546 28.9419 20.9007 29.227 21.1559 29.152C21.3059 29.1069 21.471 29.0619 21.6211 29.0169C21.8912 28.9419 21.1708 29.0319 21.4559 29.0469C21.546 29.0469 21.651 29.0469 21.7411 29.0469C21.8161 29.0469 21.9062 29.0469 21.9812 29.0469C22.0262 29.0469 22.0713 29.0469 22.1013 29.0469C22.1163 29.0469 21.6661 28.9569 21.8162 29.0169C21.9813 29.0769 22.1763 29.0919 22.3414 29.152C22.4164 29.182 22.5064 29.212 22.5815 29.242C22.8666 29.332 22.2064 29.0619 22.4765 29.197C22.6566 29.287 22.8216 29.3771 22.9867 29.4671C23.1518 29.5571 23.3018 29.6622 23.4519 29.7673C23.737 29.9623 23.3018 29.6322 23.3769 29.7072C23.4669 29.7973 23.572 29.8723 23.662 29.9473C23.8271 30.0974 23.9922 30.2625 24.1422 30.4276C24.2173 30.5176 24.2923 30.5926 24.3673 30.6827C24.5624 30.9078 24.1722 30.3825 24.3823 30.7127C24.5174 30.9228 24.6675 31.1479 24.7725 31.373C24.8025 31.418 24.8175 31.4781 24.8475 31.5231C24.9676 31.7632 24.7875 31.448 24.7875 31.388C24.7725 31.463 24.8926 31.6731 24.9076 31.7482C24.9376 31.8682 24.9676 31.9883 24.9977 32.1234C24.9977 32.1834 25.0126 32.2284 25.0276 32.2884C25.0876 32.4985 25.0277 31.9133 24.9977 32.1234C24.9977 32.3785 24.9977 32.6336 24.9977 32.8887C24.9977 33.0838 25.0126 32.6936 25.0276 32.6786C24.9976 32.7086 24.9976 32.8587 24.9826 32.9037C24.9526 33.0388 24.9076 33.1739 24.8776 33.2939C24.8776 33.2939 24.8326 33.459 24.8176 33.459C24.8176 33.459 24.9976 33.0988 24.8626 33.3689C24.8025 33.504 24.7275 33.6391 24.6524 33.7591C24.5774 33.8942 24.4874 34.0293 24.3973 34.1493C24.3823 34.1793 24.2322 34.3594 24.3673 34.1943C24.5174 34.0142 24.3073 34.2544 24.2773 34.2844C24.0221 34.5845 23.7221 34.8546 23.4219 35.1098C22.7016 35.7401 22.7316 37.0607 23.4219 37.691C24.2023 38.3963 25.2227 38.3513 26.0031 37.691V37.721Z" fill="#222222"/>
<path d="M54.5769 35.605C57.4732 34.5845 57.5183 32.3785 56.5578 30.5026C55.6124 28.6567 53.6165 26.8108 51.2604 27.4261C46.3981 28.7017 49.5345 37.3908 54.5769 35.605Z" fill="#222222"/>
<path d="M55.0721 37.3608C56.5578 36.8205 57.9234 35.9351 58.5537 34.4344C59.049 33.2489 59.0489 31.9132 58.6137 30.6977C57.6233 27.9364 54.9821 25.2051 51.8306 25.4902C49.5495 25.7003 47.5236 27.216 47.1334 29.5571C46.7882 31.6881 47.4335 33.7591 48.7691 35.4399C50.2548 37.3158 52.791 38.1412 55.0721 37.3608C55.9725 37.0456 56.6628 36.1002 56.3476 35.1247C56.0625 34.2393 55.0721 33.519 54.1116 33.8491C53.9465 33.9092 53.7665 33.9542 53.5864 33.9992C53.4963 34.0142 53.3913 34.0592 53.3163 34.0442C53.2562 34.0442 53.7965 34.0142 53.6014 33.9992C53.5414 33.9992 53.4663 33.9992 53.4063 33.9992C53.2412 33.9992 53.0761 33.9992 52.9261 33.9992C52.5809 33.9842 53.3613 34.0892 53.0911 34.0142C53.0011 33.9842 52.911 33.9692 52.806 33.9542C52.731 33.9392 52.6709 33.9092 52.5959 33.8942C52.5208 33.8641 52.2057 33.7441 52.5509 33.8942C52.8811 34.0292 52.6109 33.9242 52.5509 33.8942C52.4609 33.8491 52.3858 33.8041 52.2958 33.7591C52.1607 33.6841 52.0407 33.579 51.9056 33.504C52.3858 33.8041 52.1457 33.6991 52.0257 33.594C51.9507 33.534 51.8756 33.459 51.8156 33.3989C51.6955 33.2939 51.6054 33.1738 51.5004 33.0538C51.2603 32.7836 51.6354 33.2489 51.5754 33.1738C51.5304 33.0988 51.4704 33.0388 51.4254 32.9637C51.2303 32.6786 51.0802 32.3784 50.9301 32.0633C50.8101 31.8082 51.0952 32.5135 50.9902 32.1984C50.9602 32.1233 50.9302 32.0333 50.9002 31.9583C50.8401 31.7932 50.7951 31.6281 50.7651 31.463C50.735 31.3129 50.705 31.1629 50.675 30.9978C50.675 30.9228 50.7201 31.523 50.7051 31.1629C50.7051 31.0728 50.705 30.9828 50.69 30.8777C50.69 30.7277 50.69 30.5776 50.69 30.4275C50.69 30.3975 50.7351 30.2024 50.7051 30.1874C50.7051 30.1874 50.63 30.6376 50.66 30.5026C50.66 30.4575 50.675 30.4125 50.69 30.3675C50.7201 30.2324 50.7501 30.0824 50.7951 29.9473C50.8251 29.8723 50.9452 29.5721 50.7951 29.9173C50.645 30.2625 50.795 29.9473 50.8251 29.8723C50.8551 29.7972 50.9752 29.5421 51.0502 29.5121C51.0802 29.5121 50.7201 29.9023 50.8851 29.7222C50.9001 29.6922 50.9301 29.6772 50.9451 29.6472C51.0052 29.5871 51.0652 29.5121 51.1252 29.4521C51.1702 29.4071 51.2303 29.362 51.2753 29.317C51.3504 29.257 50.8551 29.6021 51.1553 29.4221C51.2903 29.332 51.4554 29.272 51.5904 29.1819C51.5904 29.1819 51.1103 29.347 51.3654 29.272C51.3954 29.272 51.4403 29.242 51.4703 29.227C51.5604 29.197 51.6505 29.1669 51.7406 29.1519C51.8606 29.1219 52.0107 29.1219 52.1157 29.0769C52.0557 29.1069 51.6805 29.1069 51.9956 29.1069C52.0707 29.1069 52.1607 29.1069 52.2357 29.1069C52.2957 29.1069 52.3558 29.1069 52.4158 29.1069C52.6559 29.1069 52.0407 29.0319 52.2808 29.0769C52.4008 29.1069 52.5059 29.1219 52.6259 29.1519C52.731 29.1819 52.8961 29.272 53.0161 29.272C53.0161 29.272 52.671 29.1069 52.8511 29.1969C52.9411 29.242 53.0311 29.287 53.1062 29.332C53.2112 29.392 53.3163 29.4521 53.4063 29.5121C53.4813 29.5571 53.8265 29.8122 53.6014 29.6472C53.3763 29.4821 53.7365 29.7672 53.7815 29.8122C53.8865 29.9023 53.9766 30.0073 54.0816 30.0974C54.1717 30.2024 54.2617 30.3075 54.3518 30.4125C54.5619 30.6526 54.1266 30.0974 54.3967 30.4575C54.5468 30.6827 54.6969 30.9078 54.832 31.1329C54.907 31.2529 54.9671 31.373 55.0271 31.508C55.0421 31.5531 55.0721 31.5981 55.0871 31.6281C55.1921 31.8532 55.0271 31.493 55.0121 31.448C55.0571 31.6881 55.1771 31.9132 55.2371 32.1383C55.2671 32.2584 55.2822 32.3784 55.2972 32.4835C55.2972 32.4835 55.2672 32.0483 55.2522 32.2134C55.2522 32.2734 55.2522 32.3634 55.2522 32.4235C55.2522 32.5285 55.2522 32.6186 55.2522 32.7236C55.2522 33.1138 55.3572 32.2884 55.2522 32.6636C55.2221 32.7686 55.1921 32.8887 55.1621 32.9937C55.0571 33.3389 55.3272 32.6936 55.1922 32.9187C55.1471 32.9937 55.0421 33.1288 55.0121 33.2188C55.0121 33.1888 55.3272 32.8587 55.1321 33.0688C55.087 33.1138 55.0421 33.1588 54.9971 33.2038C54.907 33.2939 54.7569 33.3689 54.6969 33.474C54.6969 33.474 55.012 33.2489 54.862 33.3539C54.7869 33.3989 54.7119 33.459 54.6369 33.504C54.5168 33.579 54.3968 33.639 54.2767 33.6991C54.2167 33.7291 53.9615 33.8341 54.2016 33.7441C54.4718 33.639 54.0666 33.7891 54.0516 33.8041C53.1512 34.1343 52.4609 35.0497 52.776 36.0402C53.0612 36.9106 54.0666 37.6609 55.0121 37.3158L55.0721 37.3608Z" fill="#222222"/>
<path d="M56.8127 15.9909C60.6395 13.8599 60.5495 10.7985 58.5685 8.75751C56.7227 6.86662 53.151 5.77111 50.1196 7.60197C47.5834 9.14769 47.3883 11.5938 48.2587 13.4697C49.0991 15.2856 51.08 16.7112 53.5862 16.7863C54.7267 16.8313 55.8073 16.5312 56.8127 15.9759V15.9909Z" fill="#222222"/>
<path d="M57.7431 17.5666C60.2943 16.1109 62.2301 13.6348 61.6148 10.5733C61.0746 7.87205 58.4784 5.90612 55.9572 5.18578C52.7157 4.25535 48.9639 5.29083 46.998 8.09715C45.3022 10.5133 45.9175 13.7248 47.7034 15.8708C50.1345 18.8122 54.5015 19.3074 57.758 17.5516C58.5984 17.1014 58.9286 15.8708 58.4183 15.0604C57.8631 14.205 56.8276 13.9199 55.9272 14.4001C55.7621 14.4902 55.612 14.5652 55.447 14.6402C55.7771 14.4902 55.2518 14.7153 55.2218 14.7153C54.9367 14.8053 54.6666 14.8803 54.3665 14.9254C54.6967 14.8653 54.3214 14.9254 54.2314 14.9254C54.0813 14.9254 53.9313 14.9404 53.7812 14.9404C53.6161 14.9404 53.451 14.9254 53.2709 14.9254C52.8807 14.9254 53.5411 15.0004 53.1209 14.9104C52.8658 14.8503 52.6257 14.8053 52.3705 14.7303C52.2205 14.6852 52.0854 14.6402 51.9503 14.5802C52.3555 14.7153 51.9203 14.5652 51.8452 14.5352C51.6351 14.4301 51.4251 14.3101 51.215 14.175C51.215 14.175 50.8248 13.9049 51.0499 14.07C51.26 14.205 50.8549 13.8899 50.8098 13.8599C50.6448 13.7098 50.4947 13.5297 50.3296 13.3646C50.0295 13.0495 50.5246 13.6798 50.2845 13.3046C50.2395 13.2296 50.1795 13.1545 50.1345 13.0795C50.0445 12.9444 49.7443 12.5542 49.7743 12.3892C49.7743 12.3892 49.9244 12.8244 49.8193 12.4942C49.7743 12.3441 49.7143 12.1941 49.6843 12.029C49.6693 11.954 49.6392 11.8789 49.6242 11.7889C49.6692 11.7889 49.5342 11.3537 49.6242 11.7889C49.6392 11.7889 49.6092 11.2636 49.6092 11.1886C49.6242 10.7384 49.6092 11.1886 49.5942 11.1886C49.5942 11.1886 49.6242 10.9785 49.6392 10.9485C49.6693 10.8284 49.6993 10.7084 49.7293 10.5883C49.7593 10.5133 49.7743 10.4232 49.8043 10.3482C49.7143 10.5733 49.6843 10.6183 49.7443 10.4983C49.8794 10.3182 49.9994 10.0781 50.1045 9.86798C49.9244 10.1681 49.9994 9.98804 50.0744 9.913C50.1795 9.80795 50.2695 9.70291 50.3746 9.59786C50.4796 9.49281 50.5996 9.38776 50.7197 9.29771C50.6597 9.34274 50.4496 9.4778 50.7347 9.29771C51.0349 9.10262 51.3201 8.93754 51.6352 8.78747C51.3051 8.95255 51.8003 8.72745 51.8303 8.71244C51.9654 8.66742 52.1004 8.6224 52.2354 8.59239C52.3705 8.56237 52.5056 8.51735 52.6407 8.50234C52.7007 8.50234 53.2259 8.42731 52.7907 8.47233C53.0608 8.45732 53.316 8.42731 53.5861 8.44231C53.7512 8.44231 53.9013 8.45732 54.0663 8.47233C54.4565 8.48733 53.7812 8.3973 54.2014 8.48734C54.4565 8.54737 54.7116 8.59239 54.9517 8.66742C55.1018 8.71244 55.2369 8.75746 55.387 8.80248C55.447 8.8325 55.9122 9.02759 55.507 8.8475C56.0022 9.07261 56.4525 9.34274 56.8877 9.65789C56.5275 9.38776 57.0828 9.83797 57.1578 9.913C57.3079 10.0481 57.4279 10.2131 57.563 10.3632C57.8331 10.6634 57.3379 10.0181 57.563 10.3632C57.623 10.4533 57.6831 10.5433 57.7431 10.6483C57.7731 10.7084 57.818 10.7834 57.8481 10.8434C58.0882 11.2937 57.7881 10.6033 57.8931 10.9035C57.9532 11.1136 58.0132 11.3087 58.0732 11.5188C58.1482 11.8039 58.0432 11.3837 58.0582 11.3537C58.0282 11.4737 58.0882 11.6538 58.0732 11.7739C58.0732 11.8639 58.0582 11.954 58.0732 12.044C58.0732 12.1941 58.0732 12.119 58.1032 11.8339C58.1032 11.9089 58.0732 11.984 58.0582 12.044C58.0282 12.1491 57.9982 12.2541 57.9681 12.3592L57.9382 12.4642C57.8632 12.6443 57.8931 12.6143 57.9982 12.3441C57.9982 12.3441 57.683 12.8994 57.638 12.9744C57.4129 13.3346 57.9081 12.7043 57.608 13.0195C57.5179 13.1245 57.4279 13.2296 57.3228 13.3196C57.2178 13.4247 57.1127 13.5297 57.0077 13.6197C56.9176 13.6948 56.6476 13.9049 56.9027 13.7248C56.5875 13.9649 56.2423 14.175 55.8972 14.3701C55.0718 14.8353 54.7116 16.0509 55.2368 16.8613C55.7771 17.7017 56.8427 18.0168 57.7281 17.5216L57.7431 17.5666Z" fill="#222222"/>
</svg>
